<svg width="1363" height="163" viewBox="0 0 1363 163" fill="none" xmlns="http://www.w3.org/2000/svg">
<path d="M0 15C0 6.71573 6.71573 0 15 0H37V163H15C6.71573 163 0 156.284 0 148V15Z" fill="#424242"/>
<rect width="1097" height="163" transform="translate(37)" fill="#F0F0F0"/>
<path d="M101.906 53.9219L94.3945 51.2383V48.0859L104.602 52.375V54.6367L101.906 53.9219ZM94.3945 56.1719L101.918 53.4297L104.602 52.7852V55.0352L94.3945 59.3242V56.1719ZM119.578 53.5117H115.195L115.172 51.0977H118.852C119.5 51.0977 120.031 51.0156 120.445 50.8516C120.859 50.6797 121.168 50.4336 121.371 50.1133C121.582 49.7852 121.688 49.3867 121.688 48.918C121.688 48.3867 121.586 47.957 121.383 47.6289C121.188 47.3008 120.879 47.0625 120.457 46.9141C120.043 46.7656 119.508 46.6914 118.852 46.6914H116.414V61H112.898V43.9375H118.852C119.844 43.9375 120.73 44.0312 121.512 44.2188C122.301 44.4062 122.969 44.6914 123.516 45.0742C124.062 45.457 124.48 45.9414 124.77 46.5273C125.059 47.1055 125.203 47.793 125.203 48.5898C125.203 49.293 125.043 49.9414 124.723 50.5352C124.41 51.1289 123.914 51.6133 123.234 51.9883C122.562 52.3633 121.684 52.5703 120.598 52.6094L119.578 53.5117ZM119.426 61H114.234L115.605 58.2578H119.426C120.043 58.2578 120.547 58.1602 120.938 57.9648C121.328 57.7617 121.617 57.4883 121.805 57.1445C121.992 56.8008 122.086 56.4062 122.086 55.9609C122.086 55.4609 122 55.0273 121.828 54.6602C121.664 54.293 121.398 54.0117 121.031 53.8164C120.664 53.6133 120.18 53.5117 119.578 53.5117H116.191L116.215 51.0977H120.434L121.242 52.0469C122.281 52.0312 123.117 52.2148 123.75 52.5977C124.391 52.9727 124.855 53.4609 125.145 54.0625C125.441 54.6641 125.59 55.3086 125.59 55.9961C125.59 57.0898 125.352 58.0117 124.875 58.7617C124.398 59.5039 123.699 60.0625 122.777 60.4375C121.863 60.8125 120.746 61 119.426 61ZM127.477 54.7891V54.543C127.477 53.6133 127.609 52.7578 127.875 51.9766C128.141 51.1875 128.527 50.5039 129.035 49.9258C129.543 49.3477 130.168 48.8984 130.91 48.5781C131.652 48.25 132.504 48.0859 133.465 48.0859C134.426 48.0859 135.281 48.25 136.031 48.5781C136.781 48.8984 137.41 49.3477 137.918 49.9258C138.434 50.5039 138.824 51.1875 139.09 51.9766C139.355 52.7578 139.488 53.6133 139.488 54.543V54.7891C139.488 55.7109 139.355 56.5664 139.09 57.3555C138.824 58.1367 138.434 58.8203 137.918 59.4062C137.41 59.9844 136.785 60.4336 136.043 60.7539C135.301 61.0742 134.449 61.2344 133.488 61.2344C132.527 61.2344 131.672 61.0742 130.922 60.7539C130.18 60.4336 129.551 59.9844 129.035 59.4062C128.527 58.8203 128.141 58.1367 127.875 57.3555C127.609 56.5664 127.477 55.7109 127.477 54.7891ZM130.852 54.543V54.7891C130.852 55.3203 130.898 55.8164 130.992 56.2773C131.086 56.7383 131.234 57.1445 131.438 57.4961C131.648 57.8398 131.922 58.1094 132.258 58.3047C132.594 58.5 133.004 58.5977 133.488 58.5977C133.957 58.5977 134.359 58.5 134.695 58.3047C135.031 58.1094 135.301 57.8398 135.504 57.4961C135.707 57.1445 135.855 56.7383 135.949 56.2773C136.051 55.8164 136.102 55.3203 136.102 54.7891V54.543C136.102 54.0273 136.051 53.543 135.949 53.0898C135.855 52.6289 135.703 52.2227 135.492 51.8711C135.289 51.5117 135.02 51.2305 134.684 51.0273C134.348 50.8242 133.941 50.7227 133.465 50.7227C132.988 50.7227 132.582 50.8242 132.246 51.0273C131.918 51.2305 131.648 51.5117 131.438 51.8711C131.234 52.2227 131.086 52.6289 130.992 53.0898C130.898 53.543 130.852 54.0273 130.852 54.543ZM149.062 57.9648V48.3203H152.438V61H149.262L149.062 57.9648ZM149.438 55.3633L150.434 55.3398C150.434 56.1836 150.336 56.9688 150.141 57.6953C149.945 58.4141 149.652 59.0391 149.262 59.5703C148.871 60.0938 148.379 60.5039 147.785 60.8008C147.191 61.0898 146.492 61.2344 145.688 61.2344C145.07 61.2344 144.5 61.1484 143.977 60.9766C143.461 60.7969 143.016 60.5195 142.641 60.1445C142.273 59.7617 141.984 59.2734 141.773 58.6797C141.57 58.0781 141.469 57.3555 141.469 56.5117V48.3203H144.844V56.5352C144.844 56.9102 144.887 57.2266 144.973 57.4844C145.066 57.7422 145.195 57.9531 145.359 58.1172C145.523 58.2812 145.715 58.3984 145.934 58.4688C146.16 58.5391 146.41 58.5742 146.684 58.5742C147.379 58.5742 147.926 58.4336 148.324 58.1523C148.73 57.8711 149.016 57.4883 149.18 57.0039C149.352 56.5117 149.438 55.9648 149.438 55.3633ZM158.32 51.0273V61H154.945V48.3203H158.109L158.32 51.0273ZM157.828 54.2148H156.914C156.914 53.2773 157.035 52.4336 157.277 51.6836C157.52 50.9258 157.859 50.2812 158.297 49.75C158.734 49.2109 159.254 48.8008 159.855 48.5195C160.465 48.2305 161.145 48.0859 161.895 48.0859C162.488 48.0859 163.031 48.1719 163.523 48.3438C164.016 48.5156 164.438 48.7891 164.789 49.1641C165.148 49.5391 165.422 50.0352 165.609 50.6523C165.805 51.2695 165.902 52.0234 165.902 52.9141V61H162.504V52.9023C162.504 52.3398 162.426 51.9023 162.27 51.5898C162.113 51.2773 161.883 51.0586 161.578 50.9336C161.281 50.8008 160.914 50.7344 160.477 50.7344C160.023 50.7344 159.629 50.8242 159.293 51.0039C158.965 51.1836 158.691 51.4336 158.473 51.7539C158.262 52.0664 158.102 52.4336 157.992 52.8555C157.883 53.2773 157.828 53.7305 157.828 54.2148ZM175.957 58.2344V43H179.355V61H176.297L175.957 58.2344ZM167.941 54.8125V54.5664C167.941 53.5977 168.051 52.7188 168.27 51.9297C168.488 51.1328 168.809 50.4492 169.23 49.8789C169.652 49.3086 170.172 48.8672 170.789 48.5547C171.406 48.2422 172.109 48.0859 172.898 48.0859C173.641 48.0859 174.289 48.2422 174.844 48.5547C175.406 48.8672 175.883 49.3125 176.273 49.8906C176.672 50.4609 176.992 51.1367 177.234 51.918C177.477 52.6914 177.652 53.5391 177.762 54.4609V55C177.652 55.8828 177.477 56.7031 177.234 57.4609C176.992 58.2188 176.672 58.8828 176.273 59.4531C175.883 60.0156 175.406 60.4531 174.844 60.7656C174.281 61.0781 173.625 61.2344 172.875 61.2344C172.086 61.2344 171.383 61.0742 170.766 60.7539C170.156 60.4336 169.641 59.9844 169.219 59.4062C168.805 58.8281 168.488 58.1484 168.27 57.3672C168.051 56.5859 167.941 55.7344 167.941 54.8125ZM171.316 54.5664V54.8125C171.316 55.3359 171.355 55.8242 171.434 56.2773C171.52 56.7305 171.656 57.1328 171.844 57.4844C172.039 57.8281 172.289 58.0977 172.594 58.293C172.906 58.4805 173.285 58.5742 173.73 58.5742C174.309 58.5742 174.785 58.4453 175.16 58.1875C175.535 57.9219 175.82 57.5586 176.016 57.0977C176.219 56.6367 176.336 56.1055 176.367 55.5039V53.9688C176.344 53.4766 176.273 53.0352 176.156 52.6445C176.047 52.2461 175.883 51.9062 175.664 51.625C175.453 51.3438 175.188 51.125 174.867 50.9688C174.555 50.8125 174.184 50.7344 173.754 50.7344C173.316 50.7344 172.941 50.8359 172.629 51.0391C172.316 51.2344 172.062 51.5039 171.867 51.8477C171.68 52.1914 171.539 52.5977 171.445 53.0664C171.359 53.5273 171.316 54.0273 171.316 54.5664ZM199.559 50.8867V53.6289H190.652V50.8867H199.559ZM191.695 43.9375V61H188.18V43.9375H191.695ZM202.066 43.9375V61H198.562V43.9375H202.066ZM211.758 58.1406V52.4922C211.758 52.0859 211.691 51.7383 211.559 51.4492C211.426 51.1523 211.219 50.9219 210.938 50.7578C210.664 50.5938 210.309 50.5117 209.871 50.5117C209.496 50.5117 209.172 50.5781 208.898 50.7109C208.625 50.8359 208.414 51.0195 208.266 51.2617C208.117 51.4961 208.043 51.7734 208.043 52.0938H204.668C204.668 51.5547 204.793 51.043 205.043 50.5586C205.293 50.0742 205.656 49.6484 206.133 49.2812C206.609 48.9062 207.176 48.6133 207.832 48.4023C208.496 48.1914 209.238 48.0859 210.059 48.0859C211.043 48.0859 211.918 48.25 212.684 48.5781C213.449 48.9062 214.051 49.3984 214.488 50.0547C214.934 50.7109 215.156 51.5312 215.156 52.5156V57.9414C215.156 58.6367 215.199 59.207 215.285 59.6523C215.371 60.0898 215.496 60.4727 215.66 60.8008V61H212.25C212.086 60.6562 211.961 60.2266 211.875 59.7109C211.797 59.1875 211.758 58.6641 211.758 58.1406ZM212.203 53.2773L212.227 55.1875H210.34C209.895 55.1875 209.508 55.2383 209.18 55.3398C208.852 55.4414 208.582 55.5859 208.371 55.7734C208.16 55.9531 208.004 56.1641 207.902 56.4062C207.809 56.6484 207.762 56.9141 207.762 57.2031C207.762 57.4922 207.828 57.7539 207.961 57.9883C208.094 58.2148 208.285 58.3945 208.535 58.5273C208.785 58.6523 209.078 58.7148 209.414 58.7148C209.922 58.7148 210.363 58.6133 210.738 58.4102C211.113 58.207 211.402 57.957 211.605 57.6602C211.816 57.3633 211.926 57.082 211.934 56.8164L212.824 58.2461C212.699 58.5664 212.527 58.8984 212.309 59.2422C212.098 59.5859 211.828 59.9102 211.5 60.2148C211.172 60.5117 210.777 60.7578 210.316 60.9531C209.855 61.1406 209.309 61.2344 208.676 61.2344C207.871 61.2344 207.141 61.0742 206.484 60.7539C205.836 60.4258 205.32 59.9766 204.938 59.4062C204.562 58.8281 204.375 58.1719 204.375 57.4375C204.375 56.7734 204.5 56.1836 204.75 55.668C205 55.1523 205.367 54.7188 205.852 54.3672C206.344 54.0078 206.957 53.7383 207.691 53.5586C208.426 53.3711 209.277 53.2773 210.246 53.2773H212.203ZM221.133 51.0859V61H217.758V48.3203H220.934L221.133 51.0859ZM224.953 48.2383L224.895 51.3672C224.73 51.3438 224.531 51.3242 224.297 51.3086C224.07 51.2852 223.863 51.2734 223.676 51.2734C223.199 51.2734 222.785 51.3359 222.434 51.4609C222.09 51.5781 221.801 51.7539 221.566 51.9883C221.34 52.2227 221.168 52.5078 221.051 52.8438C220.941 53.1797 220.879 53.5625 220.863 53.9922L220.184 53.7812C220.184 52.9609 220.266 52.207 220.43 51.5195C220.594 50.8242 220.832 50.2188 221.145 49.7031C221.465 49.1875 221.855 48.7891 222.316 48.5078C222.777 48.2266 223.305 48.0859 223.898 48.0859C224.086 48.0859 224.277 48.1016 224.473 48.1328C224.668 48.1562 224.828 48.1914 224.953 48.2383ZM229.922 50.9453V61H226.535V48.3203H229.711L229.922 50.9453ZM229.453 54.2148H228.516C228.516 53.332 228.621 52.5195 228.832 51.7773C229.051 51.0273 229.367 50.3789 229.781 49.832C230.203 49.2773 230.723 48.8477 231.34 48.543C231.957 48.2383 232.672 48.0859 233.484 48.0859C234.047 48.0859 234.562 48.1719 235.031 48.3438C235.5 48.5078 235.902 48.7695 236.238 49.1289C236.582 49.4805 236.848 49.9414 237.035 50.5117C237.223 51.0742 237.316 51.75 237.316 52.5391V61H233.941V52.9141C233.941 52.3359 233.863 51.8906 233.707 51.5781C233.551 51.2656 233.328 51.0469 233.039 50.9219C232.758 50.7969 232.418 50.7344 232.02 50.7344C231.582 50.7344 231.199 50.8242 230.871 51.0039C230.551 51.1836 230.285 51.4336 230.074 51.7539C229.863 52.0664 229.707 52.4336 229.605 52.8555C229.504 53.2773 229.453 53.7305 229.453 54.2148ZM237 53.8281L235.793 53.9805C235.793 53.1523 235.895 52.3828 236.098 51.6719C236.309 50.9609 236.617 50.3359 237.023 49.7969C237.438 49.2578 237.949 48.8398 238.559 48.543C239.168 48.2383 239.871 48.0859 240.668 48.0859C241.277 48.0859 241.832 48.1758 242.332 48.3555C242.832 48.5273 243.258 48.8047 243.609 49.1875C243.969 49.5625 244.242 50.0547 244.43 50.6641C244.625 51.2734 244.723 52.0195 244.723 52.9023V61H241.336V52.9023C241.336 52.3164 241.258 51.8711 241.102 51.5664C240.953 51.2539 240.734 51.0391 240.445 50.9219C240.164 50.7969 239.828 50.7344 239.438 50.7344C239.031 50.7344 238.676 50.8164 238.371 50.9805C238.066 51.1367 237.812 51.3555 237.609 51.6367C237.406 51.918 237.254 52.2461 237.152 52.6211C237.051 52.9883 237 53.3906 237 53.8281ZM246.797 54.7891V54.543C246.797 53.6133 246.93 52.7578 247.195 51.9766C247.461 51.1875 247.848 50.5039 248.355 49.9258C248.863 49.3477 249.488 48.8984 250.23 48.5781C250.973 48.25 251.824 48.0859 252.785 48.0859C253.746 48.0859 254.602 48.25 255.352 48.5781C256.102 48.8984 256.73 49.3477 257.238 49.9258C257.754 50.5039 258.145 51.1875 258.41 51.9766C258.676 52.7578 258.809 53.6133 258.809 54.543V54.7891C258.809 55.7109 258.676 56.5664 258.41 57.3555C258.145 58.1367 257.754 58.8203 257.238 59.4062C256.73 59.9844 256.105 60.4336 255.363 60.7539C254.621 61.0742 253.77 61.2344 252.809 61.2344C251.848 61.2344 250.992 61.0742 250.242 60.7539C249.5 60.4336 248.871 59.9844 248.355 59.4062C247.848 58.8203 247.461 58.1367 247.195 57.3555C246.93 56.5664 246.797 55.7109 246.797 54.7891ZM250.172 54.543V54.7891C250.172 55.3203 250.219 55.8164 250.312 56.2773C250.406 56.7383 250.555 57.1445 250.758 57.4961C250.969 57.8398 251.242 58.1094 251.578 58.3047C251.914 58.5 252.324 58.5977 252.809 58.5977C253.277 58.5977 253.68 58.5 254.016 58.3047C254.352 58.1094 254.621 57.8398 254.824 57.4961C255.027 57.1445 255.176 56.7383 255.27 56.2773C255.371 55.8164 255.422 55.3203 255.422 54.7891V54.543C255.422 54.0273 255.371 53.543 255.27 53.0898C255.176 52.6289 255.023 52.2227 254.812 51.8711C254.609 51.5117 254.34 51.2305 254.004 51.0273C253.668 50.8242 253.262 50.7227 252.785 50.7227C252.309 50.7227 251.902 50.8242 251.566 51.0273C251.238 51.2305 250.969 51.5117 250.758 51.8711C250.555 52.2227 250.406 52.6289 250.312 53.0898C250.219 53.543 250.172 54.0273 250.172 54.543ZM264.188 51.0273V61H260.812V48.3203H263.977L264.188 51.0273ZM263.695 54.2148H262.781C262.781 53.2773 262.902 52.4336 263.145 51.6836C263.387 50.9258 263.727 50.2812 264.164 49.75C264.602 49.2109 265.121 48.8008 265.723 48.5195C266.332 48.2305 267.012 48.0859 267.762 48.0859C268.355 48.0859 268.898 48.1719 269.391 48.3438C269.883 48.5156 270.305 48.7891 270.656 49.1641C271.016 49.5391 271.289 50.0352 271.477 50.6523C271.672 51.2695 271.77 52.0234 271.77 52.9141V61H268.371V52.9023C268.371 52.3398 268.293 51.9023 268.137 51.5898C267.98 51.2773 267.75 51.0586 267.445 50.9336C267.148 50.8008 266.781 50.7344 266.344 50.7344C265.891 50.7344 265.496 50.8242 265.16 51.0039C264.832 51.1836 264.559 51.4336 264.34 51.7539C264.129 52.0664 263.969 52.4336 263.859 52.8555C263.75 53.2773 263.695 53.7305 263.695 54.2148ZM278.098 59.5703L281.461 48.3203H285.082L279.984 62.9102C279.875 63.2305 279.727 63.5742 279.539 63.9414C279.359 64.3086 279.113 64.6562 278.801 64.9844C278.496 65.3203 278.109 65.5938 277.641 65.8047C277.18 66.0156 276.613 66.1211 275.941 66.1211C275.621 66.1211 275.359 66.1016 275.156 66.0625C274.953 66.0234 274.711 65.9688 274.43 65.8984V63.4258C274.516 63.4258 274.605 63.4258 274.699 63.4258C274.793 63.4336 274.883 63.4375 274.969 63.4375C275.414 63.4375 275.777 63.3867 276.059 63.2852C276.34 63.1836 276.566 63.0273 276.738 62.8164C276.91 62.6133 277.047 62.3477 277.148 62.0195L278.098 59.5703ZM276.691 48.3203L279.445 57.5078L279.926 61.082L277.629 61.3281L273.07 48.3203H276.691Z" fill="#888888"/>
<path d="M104.344 84.875V119H96.1406V84.875H104.344ZM117.727 99.0078V119H109.828V93.6406H117.234L117.727 99.0078ZM116.766 105.453L114.961 105.5C114.961 103.719 115.172 102.078 115.594 100.578C116.016 99.0781 116.641 97.7734 117.469 96.6641C118.297 95.5547 119.312 94.6953 120.516 94.0859C121.734 93.4766 123.141 93.1719 124.734 93.1719C125.844 93.1719 126.852 93.3438 127.758 93.6875C128.664 94.0156 129.445 94.5391 130.102 95.2578C130.758 95.9609 131.258 96.8828 131.602 98.0234C131.961 99.1484 132.141 100.5 132.141 102.078V119H124.242V103.086C124.242 102.008 124.117 101.195 123.867 100.648C123.633 100.102 123.289 99.7344 122.836 99.5469C122.383 99.3594 121.828 99.2656 121.172 99.2656C120.484 99.2656 119.867 99.4219 119.32 99.7344C118.773 100.047 118.305 100.484 117.914 101.047C117.539 101.594 117.25 102.242 117.047 102.992C116.859 103.742 116.766 104.562 116.766 105.453ZM131.25 105.453L129.047 105.5C129.047 103.719 129.242 102.078 129.633 100.578C130.039 99.0781 130.641 97.7734 131.438 96.6641C132.25 95.5547 133.258 94.6953 134.461 94.0859C135.664 93.4766 137.062 93.1719 138.656 93.1719C139.812 93.1719 140.875 93.3438 141.844 93.6875C142.812 94.0312 143.648 94.5859 144.352 95.3516C145.055 96.1172 145.602 97.1328 145.992 98.3984C146.383 99.6484 146.578 101.195 146.578 103.039V119H138.656V103.039C138.656 101.992 138.531 101.203 138.281 100.672C138.047 100.125 137.703 99.7578 137.25 99.5703C136.797 99.3672 136.258 99.2656 135.633 99.2656C134.883 99.2656 134.234 99.4219 133.688 99.7344C133.141 100.047 132.68 100.484 132.305 101.047C131.945 101.594 131.68 102.242 131.508 102.992C131.336 103.742 131.25 104.562 131.25 105.453ZM159.07 98.5156V128.75H151.172V93.6406H158.531L159.07 98.5156ZM174.633 106.016V106.508C174.633 108.352 174.422 110.062 174 111.641C173.578 113.219 172.953 114.594 172.125 115.766C171.297 116.938 170.266 117.852 169.031 118.508C167.812 119.148 166.398 119.469 164.789 119.469C163.273 119.469 161.969 119.133 160.875 118.461C159.781 117.789 158.867 116.859 158.133 115.672C157.398 114.484 156.805 113.125 156.352 111.594C155.898 110.062 155.539 108.445 155.273 106.742V106.109C155.539 104.281 155.898 102.586 156.352 101.023C156.805 99.4453 157.398 98.0703 158.133 96.8984C158.867 95.7266 159.773 94.8125 160.852 94.1562C161.945 93.5 163.25 93.1719 164.766 93.1719C166.375 93.1719 167.789 93.4766 169.008 94.0859C170.242 94.6953 171.273 95.5703 172.102 96.7109C172.945 97.8359 173.578 99.1875 174 100.766C174.422 102.344 174.633 104.094 174.633 106.016ZM166.734 106.508V106.016C166.734 105.031 166.664 104.133 166.523 103.32C166.383 102.492 166.156 101.773 165.844 101.164C165.547 100.555 165.148 100.086 164.648 99.7578C164.148 99.4297 163.531 99.2656 162.797 99.2656C161.953 99.2656 161.242 99.3984 160.664 99.6641C160.102 99.9141 159.648 100.305 159.305 100.836C158.977 101.352 158.742 102 158.602 102.781C158.477 103.547 158.422 104.445 158.438 105.477V107.398C158.406 108.586 158.523 109.633 158.789 110.539C159.055 111.43 159.516 112.125 160.172 112.625C160.828 113.125 161.719 113.375 162.844 113.375C163.594 113.375 164.219 113.203 164.719 112.859C165.219 112.5 165.617 112.008 165.914 111.383C166.211 110.742 166.422 110.008 166.547 109.18C166.672 108.352 166.734 107.461 166.734 106.508ZM186.492 83V119H178.57V83H186.492ZM203.648 119.469C201.586 119.469 199.742 119.148 198.117 118.508C196.492 117.852 195.117 116.953 193.992 115.812C192.883 114.672 192.031 113.359 191.438 111.875C190.859 110.391 190.57 108.82 190.57 107.164V106.273C190.57 104.414 190.828 102.695 191.344 101.117C191.859 99.5234 192.625 98.1328 193.641 96.9453C194.656 95.7578 195.93 94.8359 197.461 94.1797C198.992 93.5078 200.773 93.1719 202.805 93.1719C204.602 93.1719 206.211 93.4609 207.633 94.0391C209.055 94.6172 210.258 95.4453 211.242 96.5234C212.242 97.6016 213 98.9062 213.516 100.438C214.047 101.969 214.312 103.688 214.312 105.594V108.805H193.594V103.859H206.602V103.25C206.617 102.406 206.469 101.688 206.156 101.094C205.859 100.5 205.422 100.047 204.844 99.7344C204.266 99.4219 203.562 99.2656 202.734 99.2656C201.875 99.2656 201.164 99.4531 200.602 99.8281C200.055 100.203 199.625 100.719 199.312 101.375C199.016 102.016 198.805 102.758 198.68 103.602C198.555 104.445 198.492 105.336 198.492 106.273V107.164C198.492 108.102 198.617 108.953 198.867 109.719C199.133 110.484 199.508 111.141 199.992 111.688C200.492 112.219 201.086 112.633 201.773 112.93C202.477 113.227 203.273 113.375 204.164 113.375C205.242 113.375 206.305 113.172 207.352 112.766C208.398 112.359 209.297 111.688 210.047 110.75L213.633 115.016C213.117 115.75 212.383 116.461 211.43 117.148C210.492 117.836 209.367 118.398 208.055 118.836C206.742 119.258 205.273 119.469 203.648 119.469ZM225.492 99.0078V119H217.594V93.6406H225L225.492 99.0078ZM224.531 105.453L222.727 105.5C222.727 103.719 222.938 102.078 223.359 100.578C223.781 99.0781 224.406 97.7734 225.234 96.6641C226.062 95.5547 227.078 94.6953 228.281 94.0859C229.5 93.4766 230.906 93.1719 232.5 93.1719C233.609 93.1719 234.617 93.3438 235.523 93.6875C236.43 94.0156 237.211 94.5391 237.867 95.2578C238.523 95.9609 239.023 96.8828 239.367 98.0234C239.727 99.1484 239.906 100.5 239.906 102.078V119H232.008V103.086C232.008 102.008 231.883 101.195 231.633 100.648C231.398 100.102 231.055 99.7344 230.602 99.5469C230.148 99.3594 229.594 99.2656 228.938 99.2656C228.25 99.2656 227.633 99.4219 227.086 99.7344C226.539 100.047 226.07 100.484 225.68 101.047C225.305 101.594 225.016 102.242 224.812 102.992C224.625 103.742 224.531 104.562 224.531 105.453ZM239.016 105.453L236.812 105.5C236.812 103.719 237.008 102.078 237.398 100.578C237.805 99.0781 238.406 97.7734 239.203 96.6641C240.016 95.5547 241.023 94.6953 242.227 94.0859C243.43 93.4766 244.828 93.1719 246.422 93.1719C247.578 93.1719 248.641 93.3438 249.609 93.6875C250.578 94.0312 251.414 94.5859 252.117 95.3516C252.82 96.1172 253.367 97.1328 253.758 98.3984C254.148 99.6484 254.344 101.195 254.344 103.039V119H246.422V103.039C246.422 101.992 246.297 101.203 246.047 100.672C245.812 100.125 245.469 99.7578 245.016 99.5703C244.562 99.3672 244.023 99.2656 243.398 99.2656C242.648 99.2656 242 99.4219 241.453 99.7344C240.906 100.047 240.445 100.484 240.07 101.047C239.711 101.594 239.445 102.242 239.273 102.992C239.102 103.742 239.016 104.562 239.016 105.453ZM271.148 119.469C269.086 119.469 267.242 119.148 265.617 118.508C263.992 117.852 262.617 116.953 261.492 115.812C260.383 114.672 259.531 113.359 258.938 111.875C258.359 110.391 258.07 108.82 258.07 107.164V106.273C258.07 104.414 258.328 102.695 258.844 101.117C259.359 99.5234 260.125 98.1328 261.141 96.9453C262.156 95.7578 263.43 94.8359 264.961 94.1797C266.492 93.5078 268.273 93.1719 270.305 93.1719C272.102 93.1719 273.711 93.4609 275.133 94.0391C276.555 94.6172 277.758 95.4453 278.742 96.5234C279.742 97.6016 280.5 98.9062 281.016 100.438C281.547 101.969 281.812 103.688 281.812 105.594V108.805H261.094V103.859H274.102V103.25C274.117 102.406 273.969 101.688 273.656 101.094C273.359 100.5 272.922 100.047 272.344 99.7344C271.766 99.4219 271.062 99.2656 270.234 99.2656C269.375 99.2656 268.664 99.4531 268.102 99.8281C267.555 100.203 267.125 100.719 266.812 101.375C266.516 102.016 266.305 102.758 266.18 103.602C266.055 104.445 265.992 105.336 265.992 106.273V107.164C265.992 108.102 266.117 108.953 266.367 109.719C266.633 110.484 267.008 111.141 267.492 111.688C267.992 112.219 268.586 112.633 269.273 112.93C269.977 113.227 270.773 113.375 271.664 113.375C272.742 113.375 273.805 113.172 274.852 112.766C275.898 112.359 276.797 111.688 277.547 110.75L281.133 115.016C280.617 115.75 279.883 116.461 278.93 117.148C277.992 117.836 276.867 118.398 275.555 118.836C274.242 119.258 272.773 119.469 271.148 119.469ZM292.781 99.0547V119H284.883V93.6406H292.289L292.781 99.0547ZM291.844 105.453L289.992 105.5C289.992 103.562 290.227 101.836 290.695 100.32C291.164 98.7891 291.828 97.4922 292.688 96.4297C293.547 95.3672 294.57 94.5625 295.758 94.0156C296.961 93.4531 298.297 93.1719 299.766 93.1719C300.938 93.1719 302.008 93.3438 302.977 93.6875C303.961 94.0312 304.805 94.5859 305.508 95.3516C306.227 96.1172 306.773 97.1328 307.148 98.3984C307.539 99.6484 307.734 101.195 307.734 103.039V119H299.789V103.016C299.789 102 299.648 101.227 299.367 100.695C299.086 100.148 298.68 99.7734 298.148 99.5703C297.617 99.3672 296.969 99.2656 296.203 99.2656C295.391 99.2656 294.703 99.4219 294.141 99.7344C293.578 100.047 293.125 100.484 292.781 101.047C292.453 101.594 292.211 102.242 292.055 102.992C291.914 103.742 291.844 104.562 291.844 105.453ZM325.477 93.6406V99.125H310.195V93.6406H325.477ZM313.406 87.3359H321.305V110.727C321.305 111.398 321.383 111.922 321.539 112.297C321.695 112.656 321.961 112.914 322.336 113.07C322.727 113.211 323.242 113.281 323.883 113.281C324.336 113.281 324.711 113.273 325.008 113.258C325.305 113.227 325.586 113.188 325.852 113.141V118.789C325.18 119.008 324.477 119.172 323.742 119.281C323.008 119.406 322.227 119.469 321.398 119.469C319.711 119.469 318.266 119.203 317.062 118.672C315.875 118.141 314.969 117.305 314.344 116.164C313.719 115.023 313.406 113.539 313.406 111.711V87.3359ZM341.789 112.625V102.172C341.789 101.453 341.688 100.836 341.484 100.32C341.281 99.8047 340.961 99.4062 340.523 99.125C340.086 98.8281 339.5 98.6797 338.766 98.6797C338.172 98.6797 337.664 98.7812 337.242 98.9844C336.82 99.1875 336.5 99.4922 336.281 99.8984C336.062 100.305 335.953 100.82 335.953 101.445H328.055C328.055 100.273 328.312 99.1875 328.828 98.1875C329.359 97.1719 330.109 96.2891 331.078 95.5391C332.062 94.7891 333.234 94.2109 334.594 93.8047C335.969 93.3828 337.5 93.1719 339.188 93.1719C341.203 93.1719 343 93.5078 344.578 94.1797C346.172 94.8516 347.43 95.8594 348.352 97.2031C349.273 98.5312 349.734 100.203 349.734 102.219V112.602C349.734 114.258 349.828 115.516 350.016 116.375C350.203 117.219 350.469 117.961 350.812 118.602V119H342.891C342.516 118.219 342.234 117.266 342.047 116.141C341.875 115 341.789 113.828 341.789 112.625ZM342.75 103.508L342.797 107.727H339.305C338.57 107.727 337.945 107.828 337.43 108.031C336.93 108.234 336.523 108.516 336.211 108.875C335.914 109.219 335.695 109.609 335.555 110.047C335.43 110.484 335.367 110.945 335.367 111.43C335.367 111.898 335.477 112.32 335.695 112.695C335.93 113.055 336.242 113.336 336.633 113.539C337.023 113.742 337.461 113.844 337.945 113.844C338.82 113.844 339.562 113.68 340.172 113.352C340.797 113.008 341.273 112.594 341.602 112.109C341.93 111.625 342.094 111.172 342.094 110.75L343.828 113.984C343.516 114.609 343.156 115.242 342.75 115.883C342.359 116.523 341.867 117.117 341.273 117.664C340.695 118.195 339.984 118.633 339.141 118.977C338.297 119.305 337.273 119.469 336.07 119.469C334.508 119.469 333.07 119.148 331.758 118.508C330.461 117.867 329.422 116.977 328.641 115.836C327.859 114.68 327.469 113.352 327.469 111.852C327.469 110.539 327.703 109.367 328.172 108.336C328.656 107.305 329.383 106.43 330.352 105.711C331.32 104.992 332.555 104.445 334.055 104.07C335.555 103.695 337.32 103.508 339.352 103.508H342.75ZM367.477 93.6406V99.125H352.195V93.6406H367.477ZM355.406 87.3359H363.305V110.727C363.305 111.398 363.383 111.922 363.539 112.297C363.695 112.656 363.961 112.914 364.336 113.07C364.727 113.211 365.242 113.281 365.883 113.281C366.336 113.281 366.711 113.273 367.008 113.258C367.305 113.227 367.586 113.188 367.852 113.141V118.789C367.18 119.008 366.477 119.172 365.742 119.281C365.008 119.406 364.227 119.469 363.398 119.469C361.711 119.469 360.266 119.203 359.062 118.672C357.875 118.141 356.969 117.305 356.344 116.164C355.719 115.023 355.406 113.539 355.406 111.711V87.3359ZM378.961 93.6406V119H371.039V93.6406H378.961ZM370.57 87.1016C370.57 85.9766 370.977 85.0547 371.789 84.3359C372.602 83.6172 373.656 83.2578 374.953 83.2578C376.25 83.2578 377.305 83.6172 378.117 84.3359C378.93 85.0547 379.336 85.9766 379.336 87.1016C379.336 88.2266 378.93 89.1484 378.117 89.8672C377.305 90.5859 376.25 90.9453 374.953 90.9453C373.656 90.9453 372.602 90.5859 371.789 89.8672C370.977 89.1484 370.57 88.2266 370.57 87.1016ZM382.852 106.578V106.086C382.852 104.227 383.117 102.516 383.648 100.953C384.18 99.375 384.961 98.0078 385.992 96.8516C387.023 95.6953 388.297 94.7969 389.812 94.1562C391.328 93.5 393.078 93.1719 395.062 93.1719C397.062 93.1719 398.82 93.5 400.336 94.1562C401.867 94.7969 403.148 95.6953 404.18 96.8516C405.211 98.0078 405.992 99.375 406.523 100.953C407.055 102.516 407.32 104.227 407.32 106.086V106.578C407.32 108.422 407.055 110.133 406.523 111.711C405.992 113.273 405.211 114.641 404.18 115.812C403.148 116.969 401.875 117.867 400.359 118.508C398.844 119.148 397.094 119.469 395.109 119.469C393.125 119.469 391.367 119.148 389.836 118.508C388.305 117.867 387.023 116.969 385.992 115.812C384.961 114.641 384.18 113.273 383.648 111.711C383.117 110.133 382.852 108.422 382.852 106.578ZM390.75 106.086V106.578C390.75 107.531 390.82 108.422 390.961 109.25C391.102 110.078 391.336 110.805 391.664 111.43C391.992 112.039 392.438 112.516 393 112.859C393.562 113.203 394.266 113.375 395.109 113.375C395.938 113.375 396.625 113.203 397.172 112.859C397.734 112.516 398.18 112.039 398.508 111.43C398.836 110.805 399.07 110.078 399.211 109.25C399.352 108.422 399.422 107.531 399.422 106.578V106.086C399.422 105.164 399.352 104.297 399.211 103.484C399.07 102.656 398.836 101.93 398.508 101.305C398.18 100.664 397.734 100.164 397.172 99.8047C396.609 99.4453 395.906 99.2656 395.062 99.2656C394.234 99.2656 393.539 99.4453 392.977 99.8047C392.43 100.164 391.992 100.664 391.664 101.305C391.336 101.93 391.102 102.656 390.961 103.484C390.82 104.297 390.75 105.164 390.75 106.086ZM418.594 99.0547V119H410.695V93.6406H418.102L418.594 99.0547ZM417.656 105.453L415.805 105.5C415.805 103.562 416.039 101.836 416.508 100.32C416.977 98.7891 417.641 97.4922 418.5 96.4297C419.359 95.3672 420.383 94.5625 421.57 94.0156C422.773 93.4531 424.109 93.1719 425.578 93.1719C426.75 93.1719 427.82 93.3438 428.789 93.6875C429.773 94.0312 430.617 94.5859 431.32 95.3516C432.039 96.1172 432.586 97.1328 432.961 98.3984C433.352 99.6484 433.547 101.195 433.547 103.039V119H425.602V103.016C425.602 102 425.461 101.227 425.18 100.695C424.898 100.148 424.492 99.7734 423.961 99.5703C423.43 99.3672 422.781 99.2656 422.016 99.2656C421.203 99.2656 420.516 99.4219 419.953 99.7344C419.391 100.047 418.938 100.484 418.594 101.047C418.266 101.594 418.023 102.242 417.867 102.992C417.727 103.742 417.656 104.562 417.656 105.453Z" fill="black"/>
<path d="M1134 0H1348C1356.28 0 1363 6.71573 1363 15V148C1363 156.284 1356.28 163 1348 163H1134V0Z" fill="#F03D3F"/>
<path d="M1280.07 47.5H1216.93L1214.5 49.9286V113.071L1216.93 115.5H1280.07L1282.5 113.071V49.9286L1280.07 47.5ZM1277.64 110.643H1233.93V100.929H1245.1C1246.56 103.843 1249.96 105.786 1253.36 105.786C1258.7 105.786 1263.07 101.414 1263.07 96.0714C1263.07 90.7286 1258.7 86.3571 1253.36 86.3571C1248.01 86.3571 1243.64 90.7286 1243.64 96.0714H1229.07V110.643H1219.36V52.3571H1229.07V63.5286C1226.16 64.9857 1224.21 68.3857 1224.21 71.7857C1224.21 77.1286 1228.59 81.5 1233.93 81.5C1239.27 81.5 1243.64 77.1286 1243.64 71.7857H1253.36C1253.36 77.1286 1257.73 81.5 1263.07 81.5C1268.41 81.5 1272.79 77.1286 1272.79 71.7857C1272.79 66.4429 1268.41 62.0714 1263.07 62.0714C1259.67 62.0714 1256.27 64.0143 1254.81 66.9286H1242.19C1240.73 64.0143 1237.33 62.0714 1233.93 62.0714V52.3571H1277.64V110.643ZM1248.5 96.0714C1248.5 93.1571 1250.44 91.2143 1253.36 91.2143C1256.27 91.2143 1258.21 93.1571 1258.21 96.0714C1258.21 98.9857 1256.27 100.929 1253.36 100.929C1250.44 100.929 1248.5 98.9857 1248.5 96.0714ZM1233.93 66.9286C1236.84 66.9286 1238.79 68.8714 1238.79 71.7857C1238.79 74.7 1236.84 76.6429 1233.93 76.6429C1231.01 76.6429 1229.07 74.7 1229.07 71.7857C1229.07 68.8714 1231.01 66.9286 1233.93 66.9286ZM1263.07 66.9286C1265.99 66.9286 1267.93 68.8714 1267.93 71.7857C1267.93 74.7 1265.99 76.6429 1263.07 76.6429C1260.16 76.6429 1258.21 74.7 1258.21 71.7857C1258.21 68.8714 1260.16 66.9286 1263.07 66.9286Z" fill="white"/>
</svg>
