<svg width="1363" height="297" viewBox="0 0 1363 297" fill="none" xmlns="http://www.w3.org/2000/svg">
<path d="M0 15C0 6.71573 6.71573 0 15 0H37V297H15C6.71573 297 0 290.284 0 282V15Z" fill="#F03D3F"/>
<path d="M37 0H1066V297H37V0Z" fill="#F0F0F0"/>
<path d="M97.6934 49.4062H102.158L108.732 68.1973L115.307 49.4062H119.771L110.525 75H106.939L97.6934 49.4062ZM95.2852 49.4062H99.7324L100.541 67.7227V75H95.2852V49.4062ZM117.732 49.4062H122.197V75H116.924V67.7227L117.732 49.4062ZM136.77 70.7109V62.2383C136.77 61.6289 136.67 61.1074 136.471 60.6738C136.271 60.2285 135.961 59.8828 135.539 59.6367C135.129 59.3906 134.596 59.2676 133.939 59.2676C133.377 59.2676 132.891 59.3672 132.48 59.5664C132.07 59.7539 131.754 60.0293 131.531 60.3926C131.309 60.7441 131.197 61.1602 131.197 61.6406H126.135C126.135 60.832 126.322 60.0645 126.697 59.3379C127.072 58.6113 127.617 57.9727 128.332 57.4219C129.047 56.8594 129.896 56.4199 130.881 56.1035C131.877 55.7871 132.99 55.6289 134.221 55.6289C135.697 55.6289 137.01 55.875 138.158 56.3672C139.307 56.8594 140.209 57.5977 140.865 58.582C141.533 59.5664 141.867 60.7969 141.867 62.2734V70.4121C141.867 71.4551 141.932 72.3105 142.061 72.9785C142.189 73.6348 142.377 74.209 142.623 74.7012V75H137.508C137.262 74.4844 137.074 73.8398 136.945 73.0664C136.828 72.2812 136.77 71.4961 136.77 70.7109ZM137.438 63.416L137.473 66.2812H134.643C133.975 66.2812 133.395 66.3574 132.902 66.5098C132.41 66.6621 132.006 66.8789 131.689 67.1602C131.373 67.4297 131.139 67.7461 130.986 68.1094C130.846 68.4727 130.775 68.8711 130.775 69.3047C130.775 69.7383 130.875 70.1309 131.074 70.4824C131.273 70.8223 131.561 71.0918 131.936 71.291C132.311 71.4785 132.75 71.5723 133.254 71.5723C134.016 71.5723 134.678 71.4199 135.24 71.1152C135.803 70.8105 136.236 70.4355 136.541 69.9902C136.857 69.5449 137.021 69.123 137.033 68.7246L138.369 70.8691C138.182 71.3496 137.924 71.8477 137.596 72.3633C137.279 72.8789 136.875 73.3652 136.383 73.8223C135.891 74.2676 135.299 74.6367 134.607 74.9297C133.916 75.2109 133.096 75.3516 132.146 75.3516C130.939 75.3516 129.844 75.1113 128.859 74.6309C127.887 74.1387 127.113 73.4648 126.539 72.6094C125.977 71.7422 125.695 70.7578 125.695 69.6562C125.695 68.6602 125.883 67.7754 126.258 67.002C126.633 66.2285 127.184 65.5781 127.91 65.0508C128.648 64.5117 129.568 64.1074 130.67 63.8379C131.771 63.5566 133.049 63.416 134.502 63.416H137.438ZM150.832 60.1289V75H145.77V55.9805H150.533L150.832 60.1289ZM156.562 55.8574L156.475 60.5508C156.229 60.5156 155.93 60.4863 155.578 60.4629C155.238 60.4277 154.928 60.4102 154.646 60.4102C153.932 60.4102 153.311 60.5039 152.783 60.6914C152.268 60.8672 151.834 61.1309 151.482 61.4824C151.143 61.834 150.885 62.2617 150.709 62.7656C150.545 63.2695 150.451 63.8438 150.428 64.4883L149.408 64.1719C149.408 62.9414 149.531 61.8105 149.777 60.7793C150.023 59.7363 150.381 58.8281 150.85 58.0547C151.33 57.2812 151.916 56.6836 152.607 56.2617C153.299 55.8398 154.09 55.6289 154.98 55.6289C155.262 55.6289 155.549 55.6523 155.842 55.6992C156.135 55.7344 156.375 55.7871 156.562 55.8574ZM166.459 71.3965C167.08 71.3965 167.631 71.2793 168.111 71.0449C168.592 70.7988 168.967 70.459 169.236 70.0254C169.518 69.5801 169.664 69.0586 169.676 68.4609H174.439C174.428 69.7969 174.07 70.9863 173.367 72.0293C172.664 73.0605 171.721 73.875 170.537 74.4727C169.354 75.0586 168.029 75.3516 166.564 75.3516C165.088 75.3516 163.799 75.1055 162.697 74.6133C161.607 74.1211 160.699 73.4414 159.973 72.5742C159.246 71.6953 158.701 70.6758 158.338 69.5156C157.975 68.3438 157.793 67.0898 157.793 65.7539V65.2441C157.793 63.8965 157.975 62.6426 158.338 61.4824C158.701 60.3105 159.246 59.291 159.973 58.4238C160.699 57.5449 161.607 56.8594 162.697 56.3672C163.787 55.875 165.064 55.6289 166.529 55.6289C168.088 55.6289 169.453 55.9277 170.625 56.5254C171.809 57.123 172.734 57.9785 173.402 59.0918C174.082 60.1934 174.428 61.5 174.439 63.0117H169.676C169.664 62.3789 169.529 61.8047 169.271 61.2891C169.025 60.7734 168.662 60.3633 168.182 60.0586C167.713 59.7422 167.133 59.584 166.441 59.584C165.703 59.584 165.1 59.7422 164.631 60.0586C164.162 60.3633 163.799 60.7852 163.541 61.3242C163.283 61.8516 163.102 62.4551 162.996 63.1348C162.902 63.8027 162.855 64.5059 162.855 65.2441V65.7539C162.855 66.4922 162.902 67.2012 162.996 67.8809C163.09 68.5605 163.266 69.1641 163.523 69.6914C163.793 70.2188 164.162 70.6348 164.631 70.9395C165.1 71.2441 165.709 71.3965 166.459 71.3965ZM194.514 75H188.941L188.977 70.8867H194.514C195.896 70.8867 197.062 70.5762 198.012 69.9551C198.961 69.3223 199.676 68.4023 200.156 67.1953C200.648 65.9883 200.895 64.5293 200.895 62.8184V61.5703C200.895 60.2578 200.754 59.1035 200.473 58.1074C200.203 57.1113 199.799 56.2734 199.26 55.5938C198.721 54.9141 198.059 54.4043 197.273 54.0645C196.488 53.7129 195.586 53.5371 194.566 53.5371H188.836V49.4062H194.566C196.277 49.4062 197.842 49.6992 199.26 50.2852C200.689 50.8594 201.926 51.6855 202.969 52.7637C204.012 53.8418 204.814 55.1309 205.377 56.6309C205.951 58.1191 206.238 59.7773 206.238 61.6055V62.8184C206.238 64.6348 205.951 66.293 205.377 67.793C204.814 69.293 204.012 70.582 202.969 71.6602C201.938 72.7266 200.701 73.5527 199.26 74.1387C197.83 74.7129 196.248 75 194.514 75ZM191.93 49.4062V75H186.656V49.4062H191.93ZM220.02 70.7109V62.2383C220.02 61.6289 219.92 61.1074 219.721 60.6738C219.521 60.2285 219.211 59.8828 218.789 59.6367C218.379 59.3906 217.846 59.2676 217.189 59.2676C216.627 59.2676 216.141 59.3672 215.73 59.5664C215.32 59.7539 215.004 60.0293 214.781 60.3926C214.559 60.7441 214.447 61.1602 214.447 61.6406H209.385C209.385 60.832 209.572 60.0645 209.947 59.3379C210.322 58.6113 210.867 57.9727 211.582 57.4219C212.297 56.8594 213.146 56.4199 214.131 56.1035C215.127 55.7871 216.24 55.6289 217.471 55.6289C218.947 55.6289 220.26 55.875 221.408 56.3672C222.557 56.8594 223.459 57.5977 224.115 58.582C224.783 59.5664 225.117 60.7969 225.117 62.2734V70.4121C225.117 71.4551 225.182 72.3105 225.311 72.9785C225.439 73.6348 225.627 74.209 225.873 74.7012V75H220.758C220.512 74.4844 220.324 73.8398 220.195 73.0664C220.078 72.2812 220.02 71.4961 220.02 70.7109ZM220.688 63.416L220.723 66.2812H217.893C217.225 66.2812 216.645 66.3574 216.152 66.5098C215.66 66.6621 215.256 66.8789 214.939 67.1602C214.623 67.4297 214.389 67.7461 214.236 68.1094C214.096 68.4727 214.025 68.8711 214.025 69.3047C214.025 69.7383 214.125 70.1309 214.324 70.4824C214.523 70.8223 214.811 71.0918 215.186 71.291C215.561 71.4785 216 71.5723 216.504 71.5723C217.266 71.5723 217.928 71.4199 218.49 71.1152C219.053 70.8105 219.486 70.4355 219.791 69.9902C220.107 69.5449 220.271 69.123 220.283 68.7246L221.619 70.8691C221.432 71.3496 221.174 71.8477 220.846 72.3633C220.529 72.8789 220.125 73.3652 219.633 73.8223C219.141 74.2676 218.549 74.6367 217.857 74.9297C217.166 75.2109 216.346 75.3516 215.396 75.3516C214.189 75.3516 213.094 75.1113 212.109 74.6309C211.137 74.1387 210.363 73.4648 209.789 72.6094C209.227 71.7422 208.945 70.7578 208.945 69.6562C208.945 68.6602 209.133 67.7754 209.508 67.002C209.883 66.2285 210.434 65.5781 211.16 65.0508C211.898 64.5117 212.818 64.1074 213.92 63.8379C215.021 63.5566 216.299 63.416 217.752 63.416H220.688ZM241.061 55.9805H245.648V74.3672C245.648 76.1016 245.262 77.5723 244.488 78.7793C243.727 79.998 242.66 80.918 241.289 81.5391C239.918 82.1719 238.324 82.4883 236.508 82.4883C235.711 82.4883 234.867 82.3828 233.977 82.1719C233.098 81.9609 232.254 81.6328 231.445 81.1875C230.648 80.7422 229.98 80.1797 229.441 79.5L231.674 76.5117C232.26 77.1914 232.939 77.7188 233.713 78.0938C234.486 78.4805 235.342 78.6738 236.279 78.6738C237.193 78.6738 237.967 78.5039 238.6 78.1641C239.232 77.8359 239.719 77.3496 240.059 76.7051C240.398 76.0723 240.568 75.3047 240.568 74.4023V60.375L241.061 55.9805ZM228.264 65.7188V65.3496C228.264 63.8965 228.439 62.5781 228.791 61.3945C229.154 60.1992 229.664 59.1738 230.32 58.3184C230.988 57.4629 231.797 56.8008 232.746 56.332C233.695 55.8633 234.768 55.6289 235.963 55.6289C237.229 55.6289 238.289 55.8633 239.145 56.332C240 56.8008 240.703 57.4688 241.254 58.3359C241.805 59.1914 242.232 60.2051 242.537 61.377C242.854 62.5371 243.1 63.8086 243.275 65.1914V66C243.1 67.3242 242.836 68.5547 242.484 69.6914C242.133 70.8281 241.67 71.8242 241.096 72.6797C240.521 73.5234 239.807 74.1797 238.951 74.6484C238.107 75.1172 237.1 75.3516 235.928 75.3516C234.756 75.3516 233.695 75.1113 232.746 74.6309C231.809 74.1504 231.006 73.4766 230.338 72.6094C229.67 71.7422 229.154 70.7227 228.791 69.5508C228.439 68.3789 228.264 67.1016 228.264 65.7188ZM233.326 65.3496V65.7188C233.326 66.5039 233.402 67.2363 233.555 67.916C233.707 68.5957 233.941 69.1992 234.258 69.7266C234.586 70.2422 234.99 70.6465 235.471 70.9395C235.963 71.2207 236.543 71.3613 237.211 71.3613C238.137 71.3613 238.893 71.168 239.479 70.7812C240.064 70.3828 240.504 69.8379 240.797 69.1465C241.09 68.4551 241.26 67.6582 241.307 66.7559V64.4531C241.283 63.7148 241.184 63.0527 241.008 62.4668C240.832 61.8691 240.586 61.3594 240.27 60.9375C239.953 60.5156 239.543 60.1875 239.039 59.9531C238.535 59.7188 237.938 59.6016 237.246 59.6016C236.578 59.6016 235.998 59.7539 235.506 60.0586C235.025 60.3516 234.621 60.7559 234.293 61.2715C233.977 61.7871 233.736 62.3965 233.572 63.0996C233.408 63.791 233.326 64.541 233.326 65.3496ZM254.525 48V75H249.463V48H254.525ZM253.805 64.8223H252.416C252.428 63.498 252.604 62.2793 252.943 61.166C253.283 60.041 253.77 59.0684 254.402 58.248C255.035 57.416 255.791 56.7715 256.67 56.3145C257.561 55.8574 258.545 55.6289 259.623 55.6289C260.561 55.6289 261.41 55.7637 262.172 56.0332C262.945 56.291 263.607 56.7129 264.158 57.2988C264.721 57.873 265.154 58.6289 265.459 59.5664C265.764 60.5039 265.916 61.6406 265.916 62.9766V75H260.818V62.9414C260.818 62.0977 260.695 61.4355 260.449 60.9551C260.215 60.4629 259.869 60.1172 259.412 59.918C258.967 59.707 258.416 59.6016 257.76 59.6016C257.033 59.6016 256.412 59.7363 255.896 60.0059C255.393 60.2754 254.988 60.6504 254.684 61.1309C254.379 61.5996 254.156 62.1504 254.016 62.7832C253.875 63.416 253.805 64.0957 253.805 64.8223ZM278.52 75.3516C277.043 75.3516 275.719 75.1172 274.547 74.6484C273.375 74.168 272.379 73.5059 271.559 72.6621C270.75 71.8184 270.129 70.8398 269.695 69.7266C269.262 68.6016 269.045 67.4062 269.045 66.1406V65.4375C269.045 63.9961 269.25 62.6777 269.66 61.4824C270.07 60.2871 270.656 59.25 271.418 58.3711C272.191 57.4922 273.129 56.8184 274.23 56.3496C275.332 55.8691 276.574 55.6289 277.957 55.6289C279.305 55.6289 280.5 55.8516 281.543 56.2969C282.586 56.7422 283.459 57.375 284.162 58.1953C284.877 59.0156 285.416 60 285.779 61.1484C286.143 62.2852 286.324 63.5508 286.324 64.9453V67.0547H271.207V63.6797H281.35V63.293C281.35 62.5898 281.221 61.9629 280.963 61.4121C280.717 60.8496 280.342 60.4043 279.838 60.0762C279.334 59.748 278.689 59.584 277.904 59.584C277.236 59.584 276.662 59.7305 276.182 60.0234C275.701 60.3164 275.309 60.7266 275.004 61.2539C274.711 61.7812 274.488 62.4023 274.336 63.1172C274.195 63.8203 274.125 64.5938 274.125 65.4375V66.1406C274.125 66.9023 274.23 67.6055 274.441 68.25C274.664 68.8945 274.975 69.4512 275.373 69.9199C275.783 70.3887 276.275 70.752 276.85 71.0098C277.436 71.2676 278.098 71.3965 278.836 71.3965C279.75 71.3965 280.6 71.2207 281.385 70.8691C282.182 70.5059 282.867 69.9609 283.441 69.2344L285.902 71.9062C285.504 72.4805 284.959 73.0312 284.268 73.5586C283.588 74.0859 282.768 74.5195 281.807 74.8594C280.846 75.1875 279.75 75.3516 278.52 75.3516ZM294.27 60.1289V75H289.207V55.9805H293.971L294.27 60.1289ZM300 55.8574L299.912 60.5508C299.666 60.5156 299.367 60.4863 299.016 60.4629C298.676 60.4277 298.365 60.4102 298.084 60.4102C297.369 60.4102 296.748 60.5039 296.221 60.6914C295.705 60.8672 295.271 61.1309 294.92 61.4824C294.58 61.834 294.322 62.2617 294.146 62.7656C293.982 63.2695 293.889 63.8438 293.865 64.4883L292.846 64.1719C292.846 62.9414 292.969 61.8105 293.215 60.7793C293.461 59.7363 293.818 58.8281 294.287 58.0547C294.768 57.2812 295.354 56.6836 296.045 56.2617C296.736 55.8398 297.527 55.6289 298.418 55.6289C298.699 55.6289 298.986 55.6523 299.279 55.6992C299.572 55.7344 299.812 55.7871 300 55.8574Z" fill="#888888"/>
<path d="M112.277 123.074H102.023L101.969 116.785H110.281C111.776 116.785 112.97 116.621 113.863 116.293C114.757 115.947 115.404 115.445 115.805 114.789C116.224 114.133 116.434 113.312 116.434 112.328C116.434 111.198 116.224 110.286 115.805 109.594C115.385 108.901 114.72 108.4 113.809 108.09C112.915 107.762 111.758 107.598 110.336 107.598H105.633V140H96.0352V100.188H110.336C112.797 100.188 114.993 100.415 116.926 100.871C118.858 101.309 120.499 101.983 121.848 102.895C123.215 103.806 124.254 104.954 124.965 106.34C125.676 107.707 126.031 109.32 126.031 111.18C126.031 112.802 125.685 114.324 124.992 115.746C124.299 117.168 123.142 118.326 121.52 119.219C119.915 120.094 117.719 120.549 114.93 120.586L112.277 123.074ZM111.895 140H99.6992L102.98 132.617H111.895C113.207 132.617 114.255 132.417 115.039 132.016C115.841 131.596 116.415 131.049 116.762 130.375C117.126 129.682 117.309 128.917 117.309 128.078C117.309 127.057 117.135 126.173 116.789 125.426C116.461 124.678 115.932 124.104 115.203 123.703C114.474 123.284 113.499 123.074 112.277 123.074H104.211L104.266 116.785H113.918L116.16 119.301C118.822 119.191 120.927 119.565 122.477 120.422C124.044 121.279 125.165 122.409 125.84 123.812C126.514 125.216 126.852 126.684 126.852 128.215C126.852 130.822 126.286 133 125.156 134.75C124.044 136.5 122.376 137.812 120.152 138.688C117.928 139.562 115.176 140 111.895 140ZM130.598 125.508V124.934C130.598 122.764 130.908 120.768 131.527 118.945C132.147 117.104 133.059 115.509 134.262 114.16C135.465 112.811 136.951 111.763 138.719 111.016C140.487 110.25 142.529 109.867 144.844 109.867C147.177 109.867 149.228 110.25 150.996 111.016C152.783 111.763 154.277 112.811 155.48 114.16C156.684 115.509 157.595 117.104 158.215 118.945C158.835 120.768 159.145 122.764 159.145 124.934V125.508C159.145 127.659 158.835 129.655 158.215 131.496C157.595 133.319 156.684 134.914 155.48 136.281C154.277 137.63 152.792 138.678 151.023 139.426C149.255 140.173 147.214 140.547 144.898 140.547C142.583 140.547 140.533 140.173 138.746 139.426C136.96 138.678 135.465 137.63 134.262 136.281C133.059 134.914 132.147 133.319 131.527 131.496C130.908 129.655 130.598 127.659 130.598 125.508ZM139.812 124.934V125.508C139.812 126.62 139.895 127.659 140.059 128.625C140.223 129.591 140.496 130.439 140.879 131.168C141.262 131.879 141.781 132.435 142.438 132.836C143.094 133.237 143.914 133.438 144.898 133.438C145.865 133.438 146.667 133.237 147.305 132.836C147.961 132.435 148.48 131.879 148.863 131.168C149.246 130.439 149.52 129.591 149.684 128.625C149.848 127.659 149.93 126.62 149.93 125.508V124.934C149.93 123.858 149.848 122.846 149.684 121.898C149.52 120.932 149.246 120.085 148.863 119.355C148.48 118.608 147.961 118.025 147.305 117.605C146.648 117.186 145.828 116.977 144.844 116.977C143.878 116.977 143.066 117.186 142.41 117.605C141.772 118.025 141.262 118.608 140.879 119.355C140.496 120.085 140.223 120.932 140.059 121.898C139.895 122.846 139.812 123.858 139.812 124.934ZM180.527 132.809V110.414H189.77V140H181.129L180.527 132.809ZM181.402 126.793L183.809 126.738C183.809 128.725 183.572 130.566 183.098 132.262C182.624 133.939 181.922 135.397 180.992 136.637C180.081 137.876 178.951 138.842 177.602 139.535C176.271 140.21 174.73 140.547 172.98 140.547C171.522 140.547 170.182 140.346 168.961 139.945C167.758 139.526 166.719 138.879 165.844 138.004C164.969 137.111 164.285 135.971 163.793 134.586C163.319 133.182 163.082 131.505 163.082 129.555V110.414H172.297V129.609C172.297 130.266 172.379 130.831 172.543 131.305C172.707 131.779 172.944 132.18 173.254 132.508C173.564 132.818 173.947 133.055 174.402 133.219C174.876 133.365 175.414 133.438 176.016 133.438C177.401 133.438 178.486 133.146 179.27 132.562C180.053 131.979 180.6 131.186 180.91 130.184C181.238 129.181 181.402 128.051 181.402 126.793ZM203.906 116.73V140H194.691V110.414H203.332L203.906 116.73ZM202.812 124.195L200.652 124.25C200.652 121.99 200.926 119.975 201.473 118.207C202.02 116.421 202.794 114.908 203.797 113.668C204.799 112.428 205.993 111.49 207.379 110.852C208.783 110.195 210.341 109.867 212.055 109.867C213.422 109.867 214.671 110.068 215.801 110.469C216.949 110.87 217.934 111.517 218.754 112.41C219.592 113.303 220.23 114.488 220.668 115.965C221.124 117.423 221.352 119.228 221.352 121.379V140H212.082V121.352C212.082 120.167 211.918 119.264 211.59 118.645C211.262 118.007 210.788 117.569 210.168 117.332C209.548 117.095 208.792 116.977 207.898 116.977C206.951 116.977 206.148 117.159 205.492 117.523C204.836 117.888 204.307 118.398 203.906 119.055C203.523 119.693 203.241 120.449 203.059 121.324C202.895 122.199 202.812 123.156 202.812 124.195ZM243.473 133.219V98H252.742V140H244.43L243.473 133.219ZM225.316 125.562V124.988C225.316 122.746 225.562 120.704 226.055 118.863C226.547 117.004 227.276 115.409 228.242 114.078C229.208 112.729 230.411 111.69 231.852 110.961C233.292 110.232 234.951 109.867 236.828 109.867C238.505 109.867 239.973 110.259 241.23 111.043C242.488 111.809 243.564 112.884 244.457 114.27C245.35 115.655 246.079 117.277 246.645 119.137C247.21 120.978 247.638 122.965 247.93 125.098V125.781C247.638 127.786 247.21 129.682 246.645 131.469C246.079 133.237 245.35 134.805 244.457 136.172C243.564 137.539 242.479 138.615 241.203 139.398C239.945 140.164 238.469 140.547 236.773 140.547C234.896 140.547 233.237 140.173 231.797 139.426C230.375 138.678 229.181 137.63 228.215 136.281C227.267 134.932 226.547 133.346 226.055 131.523C225.562 129.701 225.316 127.714 225.316 125.562ZM234.531 124.988V125.562C234.531 126.674 234.604 127.704 234.75 128.652C234.896 129.6 235.142 130.439 235.488 131.168C235.853 131.879 236.327 132.435 236.91 132.836C237.512 133.237 238.25 133.438 239.125 133.438C240.31 133.438 241.285 133.155 242.051 132.59C242.835 132.025 243.409 131.223 243.773 130.184C244.156 129.145 244.32 127.923 244.266 126.52V124.359C244.302 123.156 244.22 122.099 244.02 121.188C243.819 120.258 243.5 119.483 243.062 118.863C242.643 118.243 242.105 117.779 241.449 117.469C240.811 117.141 240.055 116.977 239.18 116.977C238.323 116.977 237.594 117.177 236.992 117.578C236.409 117.979 235.935 118.544 235.57 119.273C235.206 119.984 234.941 120.832 234.777 121.816C234.613 122.783 234.531 123.84 234.531 124.988ZM299.172 115.992V123.375H278.746V115.992H299.172ZM281.945 100.188V140H272.348V100.188H281.945ZM305.625 100.188V140H296.055V100.188H305.625ZM326.652 132.562V120.367C326.652 119.529 326.534 118.809 326.297 118.207C326.06 117.605 325.686 117.141 325.176 116.812C324.665 116.466 323.982 116.293 323.125 116.293C322.432 116.293 321.84 116.411 321.348 116.648C320.855 116.885 320.482 117.241 320.227 117.715C319.971 118.189 319.844 118.79 319.844 119.52H310.629C310.629 118.152 310.93 116.885 311.531 115.719C312.151 114.534 313.026 113.504 314.156 112.629C315.305 111.754 316.672 111.079 318.258 110.605C319.862 110.113 321.648 109.867 323.617 109.867C325.969 109.867 328.065 110.259 329.906 111.043C331.766 111.827 333.233 113.003 334.309 114.57C335.384 116.12 335.922 118.07 335.922 120.422V132.535C335.922 134.467 336.031 135.935 336.25 136.938C336.469 137.922 336.779 138.788 337.18 139.535V140H327.938C327.5 139.089 327.172 137.977 326.953 136.664C326.753 135.333 326.652 133.966 326.652 132.562ZM327.773 121.926L327.828 126.848H323.754C322.897 126.848 322.168 126.966 321.566 127.203C320.983 127.44 320.509 127.768 320.145 128.188C319.798 128.589 319.543 129.044 319.379 129.555C319.233 130.065 319.16 130.603 319.16 131.168C319.16 131.715 319.288 132.207 319.543 132.645C319.816 133.064 320.181 133.392 320.637 133.629C321.092 133.866 321.603 133.984 322.168 133.984C323.189 133.984 324.055 133.793 324.766 133.41C325.495 133.009 326.051 132.526 326.434 131.961C326.816 131.396 327.008 130.867 327.008 130.375L329.031 134.148C328.667 134.878 328.247 135.616 327.773 136.363C327.318 137.111 326.743 137.803 326.051 138.441C325.376 139.061 324.547 139.572 323.562 139.973C322.578 140.355 321.384 140.547 319.98 140.547C318.158 140.547 316.48 140.173 314.949 139.426C313.436 138.678 312.224 137.639 311.312 136.309C310.401 134.96 309.945 133.41 309.945 131.66C309.945 130.129 310.219 128.762 310.766 127.559C311.331 126.355 312.178 125.335 313.309 124.496C314.439 123.658 315.879 123.02 317.629 122.582C319.379 122.145 321.439 121.926 323.809 121.926H327.773ZM350.332 117.742V140H341.117V110.414H349.73L350.332 117.742ZM359.082 110.195L358.918 118.754C358.553 118.717 358.061 118.672 357.441 118.617C356.822 118.562 356.302 118.535 355.883 118.535C354.807 118.535 353.878 118.663 353.094 118.918C352.328 119.155 351.69 119.52 351.18 120.012C350.688 120.486 350.323 121.087 350.086 121.816C349.867 122.546 349.767 123.393 349.785 124.359L348.117 123.266C348.117 121.279 348.309 119.474 348.691 117.852C349.092 116.211 349.658 114.798 350.387 113.613C351.116 112.41 352 111.49 353.039 110.852C354.078 110.195 355.245 109.867 356.539 109.867C356.995 109.867 357.441 109.895 357.879 109.949C358.335 110.004 358.736 110.086 359.082 110.195ZM371.551 116.676V140H362.336V110.414H370.977L371.551 116.676ZM370.43 124.195L368.324 124.25C368.324 122.172 368.57 120.258 369.062 118.508C369.555 116.758 370.284 115.236 371.25 113.941C372.216 112.647 373.401 111.645 374.805 110.934C376.227 110.223 377.867 109.867 379.727 109.867C381.021 109.867 382.197 110.068 383.254 110.469C384.311 110.852 385.223 111.462 385.988 112.301C386.754 113.121 387.337 114.197 387.738 115.527C388.158 116.84 388.367 118.417 388.367 120.258V140H379.152V121.434C379.152 120.176 379.007 119.228 378.715 118.59C378.441 117.952 378.04 117.523 377.512 117.305C376.983 117.086 376.336 116.977 375.57 116.977C374.768 116.977 374.048 117.159 373.41 117.523C372.772 117.888 372.225 118.398 371.77 119.055C371.332 119.693 370.995 120.449 370.758 121.324C370.539 122.199 370.43 123.156 370.43 124.195ZM387.328 124.195L384.758 124.25C384.758 122.172 384.986 120.258 385.441 118.508C385.915 116.758 386.617 115.236 387.547 113.941C388.495 112.647 389.671 111.645 391.074 110.934C392.478 110.223 394.109 109.867 395.969 109.867C397.318 109.867 398.557 110.068 399.688 110.469C400.818 110.87 401.793 111.517 402.613 112.41C403.434 113.303 404.072 114.488 404.527 115.965C404.983 117.423 405.211 119.228 405.211 121.379V140H395.969V121.379C395.969 120.158 395.823 119.237 395.531 118.617C395.258 117.979 394.857 117.551 394.328 117.332C393.799 117.095 393.171 116.977 392.441 116.977C391.566 116.977 390.81 117.159 390.172 117.523C389.534 117.888 388.996 118.398 388.559 119.055C388.139 119.693 387.829 120.449 387.629 121.324C387.428 122.199 387.328 123.156 387.328 124.195ZM409.34 125.508V124.934C409.34 122.764 409.65 120.768 410.27 118.945C410.889 117.104 411.801 115.509 413.004 114.16C414.207 112.811 415.693 111.763 417.461 111.016C419.229 110.25 421.271 109.867 423.586 109.867C425.919 109.867 427.97 110.25 429.738 111.016C431.525 111.763 433.02 112.811 434.223 114.16C435.426 115.509 436.337 117.104 436.957 118.945C437.577 120.768 437.887 122.764 437.887 124.934V125.508C437.887 127.659 437.577 129.655 436.957 131.496C436.337 133.319 435.426 134.914 434.223 136.281C433.02 137.63 431.534 138.678 429.766 139.426C427.997 140.173 425.956 140.547 423.641 140.547C421.326 140.547 419.275 140.173 417.488 139.426C415.702 138.678 414.207 137.63 413.004 136.281C411.801 134.914 410.889 133.319 410.27 131.496C409.65 129.655 409.34 127.659 409.34 125.508ZM418.555 124.934V125.508C418.555 126.62 418.637 127.659 418.801 128.625C418.965 129.591 419.238 130.439 419.621 131.168C420.004 131.879 420.523 132.435 421.18 132.836C421.836 133.237 422.656 133.438 423.641 133.438C424.607 133.438 425.409 133.237 426.047 132.836C426.703 132.435 427.223 131.879 427.605 131.168C427.988 130.439 428.262 129.591 428.426 128.625C428.59 127.659 428.672 126.62 428.672 125.508V124.934C428.672 123.858 428.59 122.846 428.426 121.898C428.262 120.932 427.988 120.085 427.605 119.355C427.223 118.608 426.703 118.025 426.047 117.605C425.391 117.186 424.57 116.977 423.586 116.977C422.62 116.977 421.809 117.186 421.152 117.605C420.514 118.025 420.004 118.608 419.621 119.355C419.238 120.085 418.965 120.932 418.801 121.898C418.637 122.846 418.555 123.858 418.555 124.934ZM451.039 116.73V140H441.824V110.414H450.465L451.039 116.73ZM449.945 124.195L447.785 124.25C447.785 121.99 448.059 119.975 448.605 118.207C449.152 116.421 449.927 114.908 450.93 113.668C451.932 112.428 453.126 111.49 454.512 110.852C455.915 110.195 457.474 109.867 459.188 109.867C460.555 109.867 461.803 110.068 462.934 110.469C464.082 110.87 465.066 111.517 465.887 112.41C466.725 113.303 467.363 114.488 467.801 115.965C468.257 117.423 468.484 119.228 468.484 121.379V140H459.215V121.352C459.215 120.167 459.051 119.264 458.723 118.645C458.395 118.007 457.921 117.569 457.301 117.332C456.681 117.095 455.924 116.977 455.031 116.977C454.083 116.977 453.281 117.159 452.625 117.523C451.969 117.888 451.44 118.398 451.039 119.055C450.656 119.693 450.374 120.449 450.191 121.324C450.027 122.199 449.945 123.156 449.945 124.195ZM482.676 136.527L490.332 110.414H500.23L488.336 144.402C488.081 145.15 487.743 145.952 487.324 146.809C486.905 147.684 486.331 148.513 485.602 149.297C484.872 150.081 483.934 150.719 482.785 151.211C481.655 151.703 480.251 151.949 478.574 151.949C477.681 151.949 477.025 151.904 476.605 151.812C476.204 151.74 475.585 151.603 474.746 151.402V144.812C474.983 144.812 475.184 144.812 475.348 144.812C475.53 144.812 475.73 144.812 475.949 144.812C476.934 144.812 477.717 144.712 478.301 144.512C478.902 144.311 479.358 144.02 479.668 143.637C479.996 143.254 480.251 142.789 480.434 142.242L482.676 136.527ZM480.734 110.414L486.559 131.113L487.57 140.875H481.391L470.863 110.414H480.734Z" fill="black"/>
<rect x="93" y="178" width="917" height="77" rx="10" fill="#D3D3D3"/>
<rect x="111" y="196" width="98" height="41" rx="3" fill="#424242"/>
<rect x="111" y="196" width="98" height="41" rx="3" stroke="#424242" stroke-width="4"/>
<path d="M137.078 210.203V223H133.993V210.203H137.078ZM142.053 215.529V217.902H136.199V215.529H142.053ZM142.554 210.203V212.585H136.199V210.203H142.554ZM146.825 209.5V223H143.854V209.5H146.825ZM154.208 220.688V213.49H157.179V223H154.401L154.208 220.688ZM154.489 218.755L155.263 218.737C155.263 219.376 155.187 219.968 155.034 220.513C154.882 221.052 154.656 221.521 154.357 221.919C154.064 222.317 153.701 222.628 153.268 222.851C152.84 223.067 152.345 223.176 151.782 223.176C151.313 223.176 150.883 223.111 150.49 222.982C150.104 222.848 149.77 222.64 149.488 222.358C149.207 222.071 148.987 221.705 148.829 221.26C148.677 220.809 148.601 220.27 148.601 219.643V213.49H151.562V219.66C151.562 219.871 151.589 220.053 151.642 220.205C151.694 220.357 151.771 220.486 151.87 220.592C151.97 220.691 152.093 220.768 152.239 220.82C152.392 220.867 152.564 220.891 152.758 220.891C153.203 220.891 153.552 220.797 153.804 220.609C154.056 220.422 154.231 220.167 154.331 219.845C154.437 219.522 154.489 219.159 154.489 218.755ZM163.823 213.49V215.547H158.093V213.49H163.823ZM159.297 211.126H162.259V219.897C162.259 220.149 162.288 220.346 162.347 220.486C162.405 220.621 162.505 220.718 162.646 220.776C162.792 220.829 162.985 220.855 163.226 220.855C163.396 220.855 163.536 220.853 163.647 220.847C163.759 220.835 163.864 220.82 163.964 220.803V222.921C163.712 223.003 163.448 223.064 163.173 223.105C162.897 223.152 162.604 223.176 162.294 223.176C161.661 223.176 161.119 223.076 160.668 222.877C160.223 222.678 159.883 222.364 159.648 221.937C159.414 221.509 159.297 220.952 159.297 220.267V211.126ZM170.011 213.49V215.547H164.28V213.49H170.011ZM165.484 211.126H168.446V219.897C168.446 220.149 168.476 220.346 168.534 220.486C168.593 220.621 168.692 220.718 168.833 220.776C168.979 220.829 169.173 220.855 169.413 220.855C169.583 220.855 169.724 220.853 169.835 220.847C169.946 220.835 170.052 220.82 170.151 220.803V222.921C169.899 223.003 169.636 223.064 169.36 223.105C169.085 223.152 168.792 223.176 168.481 223.176C167.849 223.176 167.307 223.076 166.855 222.877C166.41 222.678 166.07 222.364 165.836 221.937C165.602 221.509 165.484 220.952 165.484 220.267V211.126ZM175.794 223.176C175.021 223.176 174.329 223.056 173.72 222.815C173.11 222.569 172.595 222.232 172.173 221.805C171.757 221.377 171.438 220.885 171.215 220.328C170.998 219.771 170.89 219.183 170.89 218.562V218.228C170.89 217.53 170.986 216.886 171.18 216.294C171.373 215.696 171.66 215.175 172.041 214.729C172.422 214.284 172.899 213.938 173.474 213.692C174.048 213.44 174.716 213.314 175.478 213.314C176.151 213.314 176.755 213.423 177.288 213.64C177.821 213.856 178.272 214.167 178.642 214.571C179.017 214.976 179.301 215.465 179.494 216.039C179.693 216.613 179.793 217.258 179.793 217.973V219.177H172.023V217.322H176.901V217.094C176.907 216.777 176.852 216.508 176.734 216.285C176.623 216.062 176.459 215.893 176.242 215.775C176.025 215.658 175.762 215.6 175.451 215.6C175.129 215.6 174.862 215.67 174.651 215.811C174.446 215.951 174.285 216.145 174.168 216.391C174.057 216.631 173.978 216.909 173.931 217.226C173.884 217.542 173.86 217.876 173.86 218.228V218.562C173.86 218.913 173.907 219.232 174.001 219.52C174.101 219.807 174.241 220.053 174.423 220.258C174.61 220.457 174.833 220.612 175.091 220.724C175.354 220.835 175.653 220.891 175.987 220.891C176.392 220.891 176.79 220.814 177.183 220.662C177.575 220.51 177.912 220.258 178.193 219.906L179.538 221.506C179.345 221.781 179.069 222.048 178.712 222.306C178.36 222.563 177.938 222.774 177.446 222.938C176.954 223.097 176.403 223.176 175.794 223.176ZM183.985 215.846V223H181.023V213.49H183.792L183.985 215.846ZM186.798 213.42L186.745 216.171C186.628 216.159 186.47 216.145 186.271 216.127C186.071 216.109 185.904 216.101 185.77 216.101C185.424 216.101 185.125 216.142 184.873 216.224C184.627 216.3 184.422 216.417 184.258 216.575C184.1 216.728 183.982 216.921 183.906 217.155C183.836 217.39 183.804 217.662 183.81 217.973L183.273 217.621C183.273 216.982 183.335 216.402 183.458 215.881C183.587 215.354 183.769 214.899 184.003 214.519C184.237 214.132 184.521 213.836 184.855 213.631C185.189 213.42 185.564 213.314 185.98 213.314C186.127 213.314 186.271 213.323 186.411 213.341C186.558 213.358 186.687 213.385 186.798 213.42Z" fill="white"/>
<rect x="229" y="196" width="111" height="41" rx="3" fill="#424242"/>
<rect x="229" y="196" width="111" height="41" rx="3" stroke="#424242" stroke-width="4"/>
<path d="M252.367 210.203H257.403C258.388 210.203 259.243 210.35 259.97 210.643C260.696 210.936 261.256 211.369 261.648 211.943C262.047 212.518 262.246 213.227 262.246 214.07C262.246 214.803 262.132 215.415 261.903 215.907C261.675 216.399 261.355 216.807 260.945 217.129C260.541 217.445 260.069 217.706 259.53 217.911L258.52 218.482H254.292L254.274 216.101H257.403C257.796 216.101 258.121 216.03 258.379 215.89C258.637 215.749 258.83 215.55 258.959 215.292C259.094 215.028 259.161 214.715 259.161 214.352C259.161 213.982 259.094 213.666 258.959 213.402C258.824 213.139 258.625 212.937 258.361 212.796C258.104 212.655 257.784 212.585 257.403 212.585H255.452V223H252.367V210.203ZM259.372 223L256.542 217.34L259.812 217.322L262.677 222.868V223H259.372ZM268.574 223.176C267.801 223.176 267.109 223.056 266.5 222.815C265.891 222.569 265.375 222.232 264.953 221.805C264.537 221.377 264.218 220.885 263.995 220.328C263.778 219.771 263.67 219.183 263.67 218.562V218.228C263.67 217.53 263.767 216.886 263.96 216.294C264.153 215.696 264.44 215.175 264.821 214.729C265.202 214.284 265.68 213.938 266.254 213.692C266.828 213.44 267.496 213.314 268.258 213.314C268.932 213.314 269.535 213.423 270.068 213.64C270.602 213.856 271.053 214.167 271.422 214.571C271.797 214.976 272.081 215.465 272.274 216.039C272.474 216.613 272.573 217.258 272.573 217.973V219.177H264.804V217.322H269.682V217.094C269.688 216.777 269.632 216.508 269.515 216.285C269.403 216.062 269.239 215.893 269.022 215.775C268.806 215.658 268.542 215.6 268.231 215.6C267.909 215.6 267.643 215.67 267.432 215.811C267.227 215.951 267.065 216.145 266.948 216.391C266.837 216.631 266.758 216.909 266.711 217.226C266.664 217.542 266.641 217.876 266.641 218.228V218.562C266.641 218.913 266.688 219.232 266.781 219.52C266.881 219.807 267.021 220.053 267.203 220.258C267.391 220.457 267.613 220.612 267.871 220.724C268.135 220.835 268.434 220.891 268.768 220.891C269.172 220.891 269.57 220.814 269.963 220.662C270.355 220.51 270.692 220.258 270.974 219.906L272.318 221.506C272.125 221.781 271.85 222.048 271.492 222.306C271.141 222.563 270.719 222.774 270.227 222.938C269.734 223.097 269.184 223.176 268.574 223.176ZM278.717 220.609V216.689C278.717 216.42 278.679 216.188 278.603 215.995C278.526 215.802 278.406 215.652 278.242 215.547C278.078 215.436 277.858 215.38 277.583 215.38C277.36 215.38 277.17 215.418 277.012 215.494C276.854 215.57 276.733 215.685 276.651 215.837C276.569 215.989 276.528 216.183 276.528 216.417H273.566C273.566 215.978 273.663 215.57 273.856 215.195C274.056 214.814 274.337 214.483 274.7 214.202C275.069 213.921 275.509 213.704 276.019 213.552C276.534 213.394 277.108 213.314 277.741 213.314C278.497 213.314 279.171 213.44 279.763 213.692C280.36 213.944 280.832 214.322 281.178 214.826C281.523 215.324 281.696 215.951 281.696 216.707V220.601C281.696 221.222 281.731 221.693 281.802 222.016C281.872 222.332 281.972 222.61 282.101 222.851V223H279.13C278.989 222.707 278.884 222.35 278.813 221.928C278.749 221.5 278.717 221.061 278.717 220.609ZM279.077 217.19L279.095 218.772H277.785C277.51 218.772 277.275 218.811 277.082 218.887C276.895 218.963 276.742 219.068 276.625 219.203C276.514 219.332 276.432 219.479 276.379 219.643C276.332 219.807 276.309 219.979 276.309 220.161C276.309 220.337 276.35 220.495 276.432 220.636C276.52 220.771 276.637 220.876 276.783 220.952C276.93 221.028 277.094 221.066 277.275 221.066C277.604 221.066 277.882 221.005 278.11 220.882C278.345 220.753 278.523 220.598 278.646 220.416C278.77 220.234 278.831 220.064 278.831 219.906L279.481 221.119C279.364 221.354 279.229 221.591 279.077 221.831C278.931 222.071 278.746 222.294 278.523 222.499C278.307 222.698 278.04 222.862 277.724 222.991C277.407 223.114 277.023 223.176 276.572 223.176C275.986 223.176 275.447 223.056 274.955 222.815C274.469 222.575 274.079 222.241 273.786 221.813C273.493 221.38 273.347 220.882 273.347 220.319C273.347 219.827 273.435 219.388 273.61 219.001C273.792 218.614 274.064 218.286 274.428 218.017C274.791 217.747 275.254 217.542 275.816 217.401C276.379 217.261 277.041 217.19 277.803 217.19H279.077ZM287.356 220.891C287.632 220.891 287.866 220.841 288.06 220.741C288.259 220.636 288.408 220.489 288.508 220.302C288.613 220.108 288.663 219.877 288.657 219.607H291.443C291.449 220.322 291.273 220.949 290.916 221.488C290.564 222.021 290.084 222.438 289.475 222.736C288.871 223.029 288.188 223.176 287.427 223.176C286.683 223.176 286.032 223.056 285.476 222.815C284.919 222.569 284.453 222.229 284.078 221.796C283.709 221.356 283.431 220.844 283.243 220.258C283.062 219.672 282.971 219.036 282.971 218.351V218.148C282.971 217.463 283.062 216.827 283.243 216.241C283.431 215.649 283.709 215.137 284.078 214.703C284.453 214.264 284.916 213.924 285.467 213.684C286.023 213.438 286.671 213.314 287.409 213.314C288.2 213.314 288.897 213.464 289.501 213.763C290.11 214.062 290.588 214.495 290.934 215.063C291.279 215.632 291.449 216.32 291.443 217.129H288.657C288.663 216.842 288.619 216.584 288.525 216.355C288.432 216.127 288.285 215.945 288.086 215.811C287.893 215.67 287.644 215.6 287.339 215.6C287.034 215.6 286.788 215.667 286.601 215.802C286.413 215.937 286.27 216.124 286.17 216.364C286.076 216.599 286.012 216.868 285.977 217.173C285.947 217.478 285.933 217.803 285.933 218.148V218.351C285.933 218.702 285.947 219.033 285.977 219.344C286.012 219.648 286.079 219.918 286.179 220.152C286.278 220.381 286.422 220.562 286.609 220.697C286.797 220.826 287.046 220.891 287.356 220.891ZM297.719 213.49V215.547H291.988V213.49H297.719ZM293.192 211.126H296.154V219.897C296.154 220.149 296.184 220.346 296.242 220.486C296.301 220.621 296.4 220.718 296.541 220.776C296.688 220.829 296.881 220.855 297.121 220.855C297.291 220.855 297.432 220.853 297.543 220.847C297.654 220.835 297.76 220.82 297.859 220.803V222.921C297.607 223.003 297.344 223.064 297.068 223.105C296.793 223.152 296.5 223.176 296.189 223.176C295.557 223.176 295.015 223.076 294.563 222.877C294.118 222.678 293.778 222.364 293.544 221.937C293.31 221.509 293.192 220.952 293.192 220.267V211.126ZM299.09 221.611C299.09 221.189 299.242 220.838 299.547 220.557C299.852 220.27 300.244 220.126 300.725 220.126C301.211 220.126 301.604 220.27 301.902 220.557C302.207 220.838 302.359 221.189 302.359 221.611C302.359 222.033 302.207 222.388 301.902 222.675C301.604 222.956 301.211 223.097 300.725 223.097C300.244 223.097 299.852 222.956 299.547 222.675C299.242 222.388 299.09 222.033 299.09 221.611ZM304.565 213.49H307.536V223.308C307.536 224.069 307.39 224.711 307.097 225.232C306.804 225.76 306.385 226.158 305.84 226.428C305.295 226.703 304.645 226.841 303.889 226.841C303.637 226.841 303.405 226.829 303.194 226.806C302.978 226.788 302.74 226.75 302.482 226.691V224.45C302.635 224.474 302.775 224.491 302.904 224.503C303.033 224.521 303.174 224.529 303.326 224.529C303.596 224.529 303.821 224.485 304.003 224.397C304.185 224.31 304.322 224.175 304.416 223.993C304.516 223.812 304.565 223.583 304.565 223.308V213.49ZM304.346 211.038C304.346 210.616 304.498 210.271 304.803 210.001C305.107 209.731 305.503 209.597 305.989 209.597C306.476 209.597 306.871 209.731 307.176 210.001C307.48 210.271 307.633 210.616 307.633 211.038C307.633 211.46 307.48 211.806 307.176 212.075C306.871 212.345 306.476 212.479 305.989 212.479C305.503 212.479 305.107 212.345 304.803 212.075C304.498 211.806 304.346 211.46 304.346 211.038ZM314.198 220.328C314.198 220.164 314.143 220.023 314.031 219.906C313.926 219.783 313.738 219.672 313.469 219.572C313.199 219.467 312.821 219.361 312.335 219.256C311.872 219.156 311.436 219.024 311.025 218.86C310.621 218.696 310.267 218.497 309.962 218.263C309.657 218.028 309.417 217.75 309.241 217.428C309.071 217.105 308.986 216.736 308.986 216.32C308.986 215.916 309.071 215.535 309.241 215.178C309.417 214.814 309.672 214.495 310.006 214.22C310.346 213.938 310.759 213.719 311.245 213.561C311.731 213.396 312.285 213.314 312.906 213.314C313.762 213.314 314.5 213.446 315.121 213.71C315.742 213.968 316.22 214.331 316.554 214.8C316.894 215.263 317.063 215.799 317.063 216.408H314.102C314.102 216.168 314.061 215.963 313.979 215.793C313.902 215.623 313.776 215.494 313.601 215.406C313.425 215.312 313.19 215.266 312.897 215.266C312.692 215.266 312.505 215.304 312.335 215.38C312.171 215.456 312.039 215.562 311.939 215.696C311.84 215.831 311.79 215.989 311.79 216.171C311.79 216.3 311.819 216.417 311.878 216.522C311.942 216.622 312.039 216.716 312.168 216.804C312.297 216.886 312.461 216.962 312.66 217.032C312.859 217.097 313.1 217.155 313.381 217.208C314.02 217.325 314.617 217.492 315.174 217.709C315.73 217.926 316.182 218.233 316.527 218.632C316.879 219.03 317.055 219.566 317.055 220.24C317.055 220.662 316.958 221.052 316.765 221.409C316.571 221.761 316.293 222.071 315.93 222.341C315.566 222.604 315.13 222.81 314.62 222.956C314.11 223.103 313.536 223.176 312.897 223.176C311.989 223.176 311.222 223.015 310.595 222.692C309.968 222.364 309.493 221.954 309.171 221.462C308.854 220.964 308.696 220.46 308.696 219.95H311.456C311.468 220.243 311.538 220.483 311.667 220.671C311.802 220.858 311.98 220.996 312.203 221.084C312.426 221.172 312.684 221.216 312.977 221.216C313.246 221.216 313.469 221.178 313.645 221.102C313.826 221.025 313.964 220.923 314.058 220.794C314.151 220.659 314.198 220.504 314.198 220.328Z" fill="white"/>
<rect x="360" y="196" width="104" height="41" rx="3" fill="#424242"/>
<rect x="360" y="196" width="104" height="41" rx="3" stroke="#424242" stroke-width="4"/>
<path d="M391.812 220.627V223H385.343V220.627H391.812ZM386.441 210.203V223H383.356V210.203H386.441ZM397.911 220.609V216.689C397.911 216.42 397.873 216.188 397.797 215.995C397.721 215.802 397.601 215.652 397.437 215.547C397.272 215.436 397.053 215.38 396.777 215.38C396.555 215.38 396.364 215.418 396.206 215.494C396.048 215.57 395.928 215.685 395.846 215.837C395.764 215.989 395.723 216.183 395.723 216.417H392.761C392.761 215.978 392.857 215.57 393.051 215.195C393.25 214.814 393.531 214.483 393.895 214.202C394.264 213.921 394.703 213.704 395.213 213.552C395.729 213.394 396.303 213.314 396.936 213.314C397.691 213.314 398.365 213.44 398.957 213.692C399.555 213.944 400.026 214.322 400.372 214.826C400.718 215.324 400.891 215.951 400.891 216.707V220.601C400.891 221.222 400.926 221.693 400.996 222.016C401.066 222.332 401.166 222.61 401.295 222.851V223H398.324C398.184 222.707 398.078 222.35 398.008 221.928C397.943 221.5 397.911 221.061 397.911 220.609ZM398.271 217.19L398.289 218.772H396.979C396.704 218.772 396.47 218.811 396.276 218.887C396.089 218.963 395.937 219.068 395.819 219.203C395.708 219.332 395.626 219.479 395.573 219.643C395.526 219.807 395.503 219.979 395.503 220.161C395.503 220.337 395.544 220.495 395.626 220.636C395.714 220.771 395.831 220.876 395.978 220.952C396.124 221.028 396.288 221.066 396.47 221.066C396.798 221.066 397.076 221.005 397.305 220.882C397.539 220.753 397.718 220.598 397.841 220.416C397.964 220.234 398.025 220.064 398.025 219.906L398.676 221.119C398.559 221.354 398.424 221.591 398.271 221.831C398.125 222.071 397.94 222.294 397.718 222.499C397.501 222.698 397.234 222.862 396.918 222.991C396.602 223.114 396.218 223.176 395.767 223.176C395.181 223.176 394.642 223.056 394.149 222.815C393.663 222.575 393.273 222.241 392.98 221.813C392.688 221.38 392.541 220.882 392.541 220.319C392.541 219.827 392.629 219.388 392.805 219.001C392.986 218.614 393.259 218.286 393.622 218.017C393.985 217.747 394.448 217.542 395.011 217.401C395.573 217.261 396.235 217.19 396.997 217.19H398.271ZM405.522 215.846V223H402.561V213.49H405.329L405.522 215.846ZM408.335 213.42L408.282 216.171C408.165 216.159 408.007 216.145 407.808 216.127C407.608 216.109 407.441 216.101 407.307 216.101C406.961 216.101 406.662 216.142 406.41 216.224C406.164 216.3 405.959 216.417 405.795 216.575C405.637 216.728 405.52 216.921 405.443 217.155C405.373 217.39 405.341 217.662 405.347 217.973L404.811 217.621C404.811 216.982 404.872 216.402 404.995 215.881C405.124 215.354 405.306 214.899 405.54 214.519C405.774 214.132 406.059 213.836 406.393 213.631C406.727 213.42 407.102 213.314 407.518 213.314C407.664 213.314 407.808 213.323 407.948 213.341C408.095 213.358 408.224 213.385 408.335 213.42ZM414.03 220.609V216.689C414.03 216.42 413.992 216.188 413.916 215.995C413.84 215.802 413.72 215.652 413.556 215.547C413.392 215.436 413.172 215.38 412.896 215.38C412.674 215.38 412.483 215.418 412.325 215.494C412.167 215.57 412.047 215.685 411.965 215.837C411.883 215.989 411.842 216.183 411.842 216.417H408.88C408.88 215.978 408.977 215.57 409.17 215.195C409.369 214.814 409.65 214.483 410.014 214.202C410.383 213.921 410.822 213.704 411.332 213.552C411.848 213.394 412.422 213.314 413.055 213.314C413.811 213.314 414.484 213.44 415.076 213.692C415.674 213.944 416.146 214.322 416.491 214.826C416.837 215.324 417.01 215.951 417.01 216.707V220.601C417.01 221.222 417.045 221.693 417.115 222.016C417.186 222.332 417.285 222.61 417.414 222.851V223H414.443C414.303 222.707 414.197 222.35 414.127 221.928C414.062 221.5 414.03 221.061 414.03 220.609ZM414.391 217.19L414.408 218.772H413.099C412.823 218.772 412.589 218.811 412.396 218.887C412.208 218.963 412.056 219.068 411.938 219.203C411.827 219.332 411.745 219.479 411.692 219.643C411.646 219.807 411.622 219.979 411.622 220.161C411.622 220.337 411.663 220.495 411.745 220.636C411.833 220.771 411.95 220.876 412.097 220.952C412.243 221.028 412.407 221.066 412.589 221.066C412.917 221.066 413.195 221.005 413.424 220.882C413.658 220.753 413.837 220.598 413.96 220.416C414.083 220.234 414.145 220.064 414.145 219.906L414.795 221.119C414.678 221.354 414.543 221.591 414.391 221.831C414.244 222.071 414.06 222.294 413.837 222.499C413.62 222.698 413.354 222.862 413.037 222.991C412.721 223.114 412.337 223.176 411.886 223.176C411.3 223.176 410.761 223.056 410.269 222.815C409.782 222.575 409.393 222.241 409.1 221.813C408.807 221.38 408.66 220.882 408.66 220.319C408.66 219.827 408.748 219.388 408.924 219.001C409.105 218.614 409.378 218.286 409.741 218.017C410.104 217.747 410.567 217.542 411.13 217.401C411.692 217.261 412.354 217.19 413.116 217.19H414.391ZM421.94 220.97L423.812 213.49H426.933L423.821 223H421.976L421.94 220.97ZM420.833 213.49L422.679 220.97L422.661 223H420.807L417.704 213.49H420.833ZM432.294 223.176C431.521 223.176 430.829 223.056 430.22 222.815C429.61 222.569 429.095 222.232 428.673 221.805C428.257 221.377 427.938 220.885 427.715 220.328C427.498 219.771 427.39 219.183 427.39 218.562V218.228C427.39 217.53 427.486 216.886 427.68 216.294C427.873 215.696 428.16 215.175 428.541 214.729C428.922 214.284 429.399 213.938 429.974 213.692C430.548 213.44 431.216 213.314 431.978 213.314C432.651 213.314 433.255 213.423 433.788 213.64C434.321 213.856 434.772 214.167 435.142 214.571C435.517 214.976 435.801 215.465 435.994 216.039C436.193 216.613 436.293 217.258 436.293 217.973V219.177H428.523V217.322H433.401V217.094C433.407 216.777 433.352 216.508 433.234 216.285C433.123 216.062 432.959 215.893 432.742 215.775C432.525 215.658 432.262 215.6 431.951 215.6C431.629 215.6 431.362 215.67 431.151 215.811C430.946 215.951 430.785 216.145 430.668 216.391C430.557 216.631 430.478 216.909 430.431 217.226C430.384 217.542 430.36 217.876 430.36 218.228V218.562C430.36 218.913 430.407 219.232 430.501 219.52C430.601 219.807 430.741 220.053 430.923 220.258C431.11 220.457 431.333 220.612 431.591 220.724C431.854 220.835 432.153 220.891 432.487 220.891C432.892 220.891 433.29 220.814 433.683 220.662C434.075 220.51 434.412 220.258 434.693 219.906L436.038 221.506C435.845 221.781 435.569 222.048 435.212 222.306C434.86 222.563 434.438 222.774 433.946 222.938C433.454 223.097 432.903 223.176 432.294 223.176ZM440.626 209.5V223H437.655V209.5H440.626Z" fill="white"/>
<rect x="484" y="196" width="103" height="41" rx="3" fill="#424242"/>
<rect x="484" y="196" width="103" height="41" rx="3" stroke="#424242" stroke-width="4"/>
<path d="M508.72 210.203H511.233L514.09 219.106L516.946 210.203H519.46L515.109 223H513.07L508.72 210.203ZM507.19 210.203H509.792L510.275 220.012V223H507.19V210.203ZM518.388 210.203H520.998V223H517.904V220.012L518.388 210.203ZM525.753 221.884L528.214 213.49H531.396L527.572 224.415C527.49 224.655 527.382 224.913 527.247 225.188C527.112 225.47 526.928 225.736 526.693 225.988C526.459 226.24 526.157 226.445 525.788 226.604C525.425 226.762 524.974 226.841 524.435 226.841C524.147 226.841 523.937 226.826 523.802 226.797C523.673 226.773 523.474 226.729 523.204 226.665V224.547C523.28 224.547 523.345 224.547 523.397 224.547C523.456 224.547 523.521 224.547 523.591 224.547C523.907 224.547 524.159 224.515 524.347 224.45C524.54 224.386 524.687 224.292 524.786 224.169C524.892 224.046 524.974 223.896 525.032 223.721L525.753 221.884ZM525.129 213.49L527.001 220.144L527.326 223.281H525.34L521.956 213.49H525.129ZM538.901 219.599C538.901 219.399 538.872 219.221 538.813 219.062C538.755 218.898 538.646 218.746 538.488 218.605C538.33 218.465 538.102 218.324 537.803 218.184C537.51 218.037 537.123 217.885 536.643 217.727C536.08 217.539 535.538 217.328 535.017 217.094C534.495 216.854 534.029 216.575 533.619 216.259C533.209 215.937 532.884 215.562 532.644 215.134C532.403 214.7 532.283 214.196 532.283 213.622C532.283 213.071 532.406 212.576 532.652 212.137C532.898 211.691 533.241 211.313 533.681 211.003C534.126 210.687 534.647 210.446 535.245 210.282C535.843 210.112 536.496 210.027 537.205 210.027C538.143 210.027 538.969 210.191 539.684 210.52C540.404 210.842 540.967 211.302 541.371 211.899C541.781 212.491 541.986 213.191 541.986 214H538.919C538.919 213.678 538.852 213.394 538.717 213.147C538.588 212.901 538.392 212.708 538.128 212.567C537.864 212.427 537.533 212.356 537.135 212.356C536.748 212.356 536.423 212.415 536.159 212.532C535.896 212.649 535.696 212.808 535.562 213.007C535.427 213.2 535.359 213.414 535.359 213.648C535.359 213.842 535.412 214.018 535.518 214.176C535.629 214.328 535.784 214.472 535.983 214.606C536.188 214.741 536.435 214.87 536.722 214.993C537.015 215.116 537.343 215.236 537.706 215.354C538.386 215.57 538.989 215.813 539.517 216.083C540.05 216.347 540.498 216.648 540.861 216.988C541.23 217.322 541.509 217.703 541.696 218.131C541.89 218.559 541.986 219.042 541.986 219.581C541.986 220.155 541.875 220.665 541.652 221.11C541.43 221.556 541.11 221.934 540.694 222.244C540.278 222.549 539.78 222.78 539.2 222.938C538.62 223.097 537.973 223.176 537.258 223.176C536.602 223.176 535.954 223.094 535.315 222.93C534.683 222.76 534.108 222.502 533.593 222.156C533.077 221.805 532.664 221.356 532.354 220.812C532.049 220.261 531.896 219.607 531.896 218.852H534.99C534.99 219.227 535.04 219.543 535.14 219.801C535.239 220.059 535.386 220.267 535.579 220.425C535.772 220.577 536.01 220.688 536.291 220.759C536.572 220.823 536.895 220.855 537.258 220.855C537.65 220.855 537.967 220.8 538.207 220.688C538.447 220.571 538.623 220.419 538.734 220.231C538.846 220.038 538.901 219.827 538.901 219.599ZM550.714 220.891L554.282 223.721L552.366 225.338L548.859 222.508L550.714 220.891ZM554.432 216.347V216.865C554.432 217.844 554.294 218.723 554.019 219.502C553.749 220.275 553.362 220.938 552.858 221.488C552.36 222.033 551.771 222.452 551.092 222.745C550.412 223.032 549.662 223.176 548.842 223.176C548.016 223.176 547.26 223.032 546.574 222.745C545.895 222.452 545.303 222.033 544.799 221.488C544.301 220.938 543.914 220.275 543.639 219.502C543.369 218.723 543.234 217.844 543.234 216.865V216.347C543.234 215.368 543.369 214.489 543.639 213.71C543.914 212.931 544.298 212.269 544.79 211.724C545.288 211.173 545.877 210.754 546.557 210.467C547.242 210.174 547.998 210.027 548.824 210.027C549.645 210.027 550.395 210.174 551.074 210.467C551.76 210.754 552.352 211.173 552.85 211.724C553.354 212.269 553.743 212.931 554.019 213.71C554.294 214.489 554.432 215.368 554.432 216.347ZM551.294 216.865V216.329C551.294 215.696 551.238 215.14 551.127 214.659C551.021 214.173 550.863 213.766 550.652 213.438C550.441 213.109 550.181 212.863 549.87 212.699C549.565 212.529 549.217 212.444 548.824 212.444C548.414 212.444 548.057 212.529 547.752 212.699C547.447 212.863 547.192 213.109 546.987 213.438C546.782 213.766 546.627 214.173 546.521 214.659C546.422 215.14 546.372 215.696 546.372 216.329V216.865C546.372 217.492 546.422 218.049 546.521 218.535C546.627 219.016 546.782 219.423 546.987 219.757C547.198 220.091 547.456 220.343 547.761 220.513C548.071 220.683 548.432 220.768 548.842 220.768C549.234 220.768 549.583 220.683 549.888 220.513C550.192 220.343 550.447 220.091 550.652 219.757C550.863 219.423 551.021 219.016 551.127 218.535C551.238 218.049 551.294 217.492 551.294 216.865ZM564.46 220.627V223H557.991V220.627H564.46ZM559.09 210.203V223H556.005V210.203H559.09Z" fill="white"/>
<rect x="607" y="196" width="102" height="41" rx="3" fill="#424242"/>
<rect x="607" y="196" width="102" height="41" rx="3" stroke="#424242" stroke-width="4"/>
<path d="M635.166 218.658H631.984V216.276H635.166C635.6 216.276 635.951 216.203 636.221 216.057C636.49 215.91 636.687 215.708 636.81 215.45C636.938 215.187 637.003 214.891 637.003 214.562C637.003 214.211 636.938 213.886 636.81 213.587C636.687 213.288 636.49 213.048 636.221 212.866C635.951 212.679 635.6 212.585 635.166 212.585H633.145V223H630.06V210.203H635.166C636.191 210.203 637.073 210.391 637.812 210.766C638.556 211.141 639.127 211.656 639.525 212.312C639.924 212.963 640.123 213.707 640.123 214.545C640.123 215.371 639.924 216.092 639.525 216.707C639.127 217.322 638.556 217.803 637.812 218.148C637.073 218.488 636.191 218.658 635.166 218.658ZM644.702 221.884L647.163 213.49H650.345L646.521 224.415C646.439 224.655 646.331 224.913 646.196 225.188C646.062 225.47 645.877 225.736 645.643 225.988C645.408 226.24 645.106 226.445 644.737 226.604C644.374 226.762 643.923 226.841 643.384 226.841C643.097 226.841 642.886 226.826 642.751 226.797C642.622 226.773 642.423 226.729 642.153 226.665V224.547C642.229 224.547 642.294 224.547 642.347 224.547C642.405 224.547 642.47 224.547 642.54 224.547C642.856 224.547 643.108 224.515 643.296 224.45C643.489 224.386 643.636 224.292 643.735 224.169C643.841 224.046 643.923 223.896 643.981 223.721L644.702 221.884ZM644.078 213.49L645.95 220.144L646.275 223.281H644.289L640.905 213.49H644.078ZM656.128 213.49V215.547H650.397V213.49H656.128ZM651.602 211.126H654.563V219.897C654.563 220.149 654.593 220.346 654.651 220.486C654.71 220.621 654.81 220.718 654.95 220.776C655.097 220.829 655.29 220.855 655.53 220.855C655.7 220.855 655.841 220.853 655.952 220.847C656.063 220.835 656.169 220.82 656.269 220.803V222.921C656.017 223.003 655.753 223.064 655.478 223.105C655.202 223.152 654.909 223.176 654.599 223.176C653.966 223.176 653.424 223.076 652.973 222.877C652.527 222.678 652.188 222.364 651.953 221.937C651.719 221.509 651.602 220.952 651.602 220.267V211.126ZM660.206 209.5V223H657.244V209.5H660.206ZM659.854 217.92L659.16 217.938C659.16 217.27 659.242 216.654 659.406 216.092C659.57 215.529 659.805 215.04 660.109 214.624C660.414 214.208 660.78 213.886 661.208 213.657C661.636 213.429 662.11 213.314 662.632 213.314C663.101 213.314 663.528 213.382 663.915 213.517C664.308 213.651 664.645 213.868 664.926 214.167C665.213 214.466 665.433 214.855 665.585 215.336C665.743 215.816 665.822 216.402 665.822 217.094V223H662.843V217.076C662.843 216.689 662.787 216.391 662.676 216.18C662.57 215.963 662.418 215.813 662.219 215.731C662.02 215.644 661.776 215.6 661.489 215.6C661.144 215.6 660.862 215.658 660.646 215.775C660.429 215.893 660.262 216.057 660.145 216.268C660.033 216.473 659.957 216.716 659.916 216.997C659.875 217.278 659.854 217.586 659.854 217.92ZM667.097 218.342V218.157C667.097 217.46 667.196 216.818 667.396 216.232C667.595 215.641 667.888 215.128 668.274 214.694C668.661 214.261 669.139 213.924 669.707 213.684C670.275 213.438 670.932 213.314 671.676 213.314C672.426 213.314 673.085 213.438 673.653 213.684C674.228 213.924 674.708 214.261 675.095 214.694C675.481 215.128 675.774 215.641 675.974 216.232C676.173 216.818 676.272 217.46 676.272 218.157V218.342C676.272 219.033 676.173 219.675 675.974 220.267C675.774 220.853 675.481 221.365 675.095 221.805C674.708 222.238 674.23 222.575 673.662 222.815C673.094 223.056 672.438 223.176 671.693 223.176C670.949 223.176 670.29 223.056 669.716 222.815C669.142 222.575 668.661 222.238 668.274 221.805C667.888 221.365 667.595 220.853 667.396 220.267C667.196 219.675 667.097 219.033 667.097 218.342ZM670.059 218.157V218.342C670.059 218.699 670.085 219.033 670.138 219.344C670.19 219.654 670.278 219.927 670.401 220.161C670.524 220.39 670.691 220.568 670.902 220.697C671.113 220.826 671.377 220.891 671.693 220.891C672.004 220.891 672.262 220.826 672.467 220.697C672.678 220.568 672.845 220.39 672.968 220.161C673.091 219.927 673.179 219.654 673.231 219.344C673.284 219.033 673.311 218.699 673.311 218.342V218.157C673.311 217.812 673.284 217.486 673.231 217.182C673.179 216.871 673.091 216.599 672.968 216.364C672.845 216.124 672.678 215.937 672.467 215.802C672.256 215.667 671.992 215.6 671.676 215.6C671.365 215.6 671.104 215.667 670.894 215.802C670.688 215.937 670.524 216.124 670.401 216.364C670.278 216.599 670.19 216.871 670.138 217.182C670.085 217.486 670.059 217.812 670.059 218.157ZM680.5 215.521V223H677.538V213.49H680.315L680.5 215.521ZM680.148 217.92L679.454 217.938C679.454 217.211 679.542 216.563 679.718 215.995C679.894 215.421 680.143 214.935 680.465 214.536C680.787 214.138 681.171 213.836 681.616 213.631C682.067 213.42 682.568 213.314 683.119 213.314C683.559 213.314 683.96 213.379 684.323 213.508C684.692 213.637 685.009 213.845 685.272 214.132C685.542 214.419 685.747 214.8 685.888 215.274C686.034 215.743 686.107 216.323 686.107 217.015V223H683.128V217.006C683.128 216.625 683.075 216.335 682.97 216.136C682.864 215.931 682.712 215.79 682.513 215.714C682.313 215.638 682.07 215.6 681.783 215.6C681.479 215.6 681.221 215.658 681.01 215.775C680.799 215.893 680.629 216.057 680.5 216.268C680.377 216.473 680.286 216.716 680.228 216.997C680.175 217.278 680.148 217.586 680.148 217.92Z" fill="white"/>
<path d="M1066 0H1348C1356.28 0 1363 6.71573 1363 15V282C1363 290.284 1356.28 297 1348 297H1066V0Z" fill="white"/>
<rect x="1075" y="26" width="279" height="245" fill="white"/>
<g filter="url(#filter0_b_3_61)">
<g filter="url(#filter1_b_3_61)">
<path d="M1249 54C1282.14 54 1309 80.8629 1309 114V181C1309 215.242 1281.24 243 1247 243H1183C1147.65 243 1119 214.346 1119 179V54L1249 54Z" fill="url(#paint0_linear_3_61)"/>
<path d="M1143 76V153.996C1143.11 161.774 1143.98 170.216 1146.29 178.823C1160.11 213.254 1183.3 224.959 1220.75 225C1248.03 223.532 1267.39 211.77 1279 191.534C1281.65 186.742 1283 178.823 1283 178.823" stroke="white" stroke-width="5"/>
</g>
<path d="M1241.23 132.23C1241.22 127.832 1237.64 124.273 1233.24 124.282C1228.85 124.29 1225.28 127.861 1225.29 132.259C1225.3 134.565 1226.3 136.62 1227.86 138.077L1227.84 138.082L1241.26 151.449L1254.64 138.033C1254.63 138.028 1254.62 138.028 1254.62 138.023C1256.18 136.56 1257.16 134.506 1257.15 132.201C1257.15 127.803 1253.58 124.244 1249.18 124.253C1244.78 124.26 1241.22 127.832 1241.23 132.23Z" fill="white"/>
<path d="M1190.23 132.23C1190.22 127.832 1186.64 124.273 1182.24 124.282C1177.85 124.29 1174.28 127.861 1174.29 132.259C1174.3 134.565 1175.3 136.62 1176.86 138.077L1176.84 138.082L1190.26 151.449L1203.64 138.033C1203.63 138.028 1203.62 138.028 1203.62 138.023C1205.18 136.56 1206.16 134.506 1206.15 132.201C1206.15 127.803 1202.58 124.244 1198.18 124.253C1193.78 124.26 1190.22 127.832 1190.23 132.23Z" fill="white"/>
</g>
<defs>
<filter id="filter0_b_3_61" x="1089" y="24" width="250" height="249" filterUnits="userSpaceOnUse" color-interpolation-filters="sRGB">
<feFlood flood-opacity="0" result="BackgroundImageFix"/>
<feGaussianBlur in="BackgroundImageFix" stdDeviation="15"/>
<feComposite in2="SourceAlpha" operator="in" result="effect1_backgroundBlur_3_61"/>
<feBlend mode="normal" in="SourceGraphic" in2="effect1_backgroundBlur_3_61" result="shape"/>
</filter>
<filter id="filter1_b_3_61" x="1099" y="34" width="230" height="229" filterUnits="userSpaceOnUse" color-interpolation-filters="sRGB">
<feFlood flood-opacity="0" result="BackgroundImageFix"/>
<feGaussianBlur in="BackgroundImageFix" stdDeviation="10"/>
<feComposite in2="SourceAlpha" operator="in" result="effect1_backgroundBlur_3_61"/>
<feBlend mode="normal" in="SourceGraphic" in2="effect1_backgroundBlur_3_61" result="shape"/>
</filter>
<linearGradient id="paint0_linear_3_61" x1="1307.99" y1="53.0053" x2="1144.48" y2="228.807" gradientUnits="userSpaceOnUse">
<stop stop-color="#F16660"/>
<stop offset="0.0001" stop-color="#F03233"/>
<stop offset="1" stop-color="#ED6566"/>
</linearGradient>
</defs>
</svg>
