<svg width="1363" height="163" viewBox="0 0 1363 163" fill="none" xmlns="http://www.w3.org/2000/svg">
<path d="M0 15C0 6.71573 6.71573 0 15 0H37V163H15C6.71573 163 0 156.284 0 148V15Z" fill="#5C5656"/>
<rect width="1097" height="163" transform="translate(37)" fill="#F0F0F0"/>
<path d="M101.906 53.9219L94.3945 51.2383V48.0859L104.602 52.375V54.6367L101.906 53.9219ZM94.3945 56.1719L101.918 53.4297L104.602 52.7852V55.0352L94.3945 59.3242V56.1719ZM119.578 53.5117H115.195L115.172 51.0977H118.852C119.5 51.0977 120.031 51.0156 120.445 50.8516C120.859 50.6797 121.168 50.4336 121.371 50.1133C121.582 49.7852 121.688 49.3867 121.688 48.918C121.688 48.3867 121.586 47.957 121.383 47.6289C121.188 47.3008 120.879 47.0625 120.457 46.9141C120.043 46.7656 119.508 46.6914 118.852 46.6914H116.414V61H112.898V43.9375H118.852C119.844 43.9375 120.73 44.0312 121.512 44.2188C122.301 44.4062 122.969 44.6914 123.516 45.0742C124.062 45.457 124.48 45.9414 124.77 46.5273C125.059 47.1055 125.203 47.793 125.203 48.5898C125.203 49.293 125.043 49.9414 124.723 50.5352C124.41 51.1289 123.914 51.6133 123.234 51.9883C122.562 52.3633 121.684 52.5703 120.598 52.6094L119.578 53.5117ZM119.426 61H114.234L115.605 58.2578H119.426C120.043 58.2578 120.547 58.1602 120.938 57.9648C121.328 57.7617 121.617 57.4883 121.805 57.1445C121.992 56.8008 122.086 56.4062 122.086 55.9609C122.086 55.4609 122 55.0273 121.828 54.6602C121.664 54.293 121.398 54.0117 121.031 53.8164C120.664 53.6133 120.18 53.5117 119.578 53.5117H116.191L116.215 51.0977H120.434L121.242 52.0469C122.281 52.0312 123.117 52.2148 123.75 52.5977C124.391 52.9727 124.855 53.4609 125.145 54.0625C125.441 54.6641 125.59 55.3086 125.59 55.9961C125.59 57.0898 125.352 58.0117 124.875 58.7617C124.398 59.5039 123.699 60.0625 122.777 60.4375C121.863 60.8125 120.746 61 119.426 61ZM127.477 54.7891V54.543C127.477 53.6133 127.609 52.7578 127.875 51.9766C128.141 51.1875 128.527 50.5039 129.035 49.9258C129.543 49.3477 130.168 48.8984 130.91 48.5781C131.652 48.25 132.504 48.0859 133.465 48.0859C134.426 48.0859 135.281 48.25 136.031 48.5781C136.781 48.8984 137.41 49.3477 137.918 49.9258C138.434 50.5039 138.824 51.1875 139.09 51.9766C139.355 52.7578 139.488 53.6133 139.488 54.543V54.7891C139.488 55.7109 139.355 56.5664 139.09 57.3555C138.824 58.1367 138.434 58.8203 137.918 59.4062C137.41 59.9844 136.785 60.4336 136.043 60.7539C135.301 61.0742 134.449 61.2344 133.488 61.2344C132.527 61.2344 131.672 61.0742 130.922 60.7539C130.18 60.4336 129.551 59.9844 129.035 59.4062C128.527 58.8203 128.141 58.1367 127.875 57.3555C127.609 56.5664 127.477 55.7109 127.477 54.7891ZM130.852 54.543V54.7891C130.852 55.3203 130.898 55.8164 130.992 56.2773C131.086 56.7383 131.234 57.1445 131.438 57.4961C131.648 57.8398 131.922 58.1094 132.258 58.3047C132.594 58.5 133.004 58.5977 133.488 58.5977C133.957 58.5977 134.359 58.5 134.695 58.3047C135.031 58.1094 135.301 57.8398 135.504 57.4961C135.707 57.1445 135.855 56.7383 135.949 56.2773C136.051 55.8164 136.102 55.3203 136.102 54.7891V54.543C136.102 54.0273 136.051 53.543 135.949 53.0898C135.855 52.6289 135.703 52.2227 135.492 51.8711C135.289 51.5117 135.02 51.2305 134.684 51.0273C134.348 50.8242 133.941 50.7227 133.465 50.7227C132.988 50.7227 132.582 50.8242 132.246 51.0273C131.918 51.2305 131.648 51.5117 131.438 51.8711C131.234 52.2227 131.086 52.6289 130.992 53.0898C130.898 53.543 130.852 54.0273 130.852 54.543ZM149.062 57.9648V48.3203H152.438V61H149.262L149.062 57.9648ZM149.438 55.3633L150.434 55.3398C150.434 56.1836 150.336 56.9688 150.141 57.6953C149.945 58.4141 149.652 59.0391 149.262 59.5703C148.871 60.0938 148.379 60.5039 147.785 60.8008C147.191 61.0898 146.492 61.2344 145.688 61.2344C145.07 61.2344 144.5 61.1484 143.977 60.9766C143.461 60.7969 143.016 60.5195 142.641 60.1445C142.273 59.7617 141.984 59.2734 141.773 58.6797C141.57 58.0781 141.469 57.3555 141.469 56.5117V48.3203H144.844V56.5352C144.844 56.9102 144.887 57.2266 144.973 57.4844C145.066 57.7422 145.195 57.9531 145.359 58.1172C145.523 58.2812 145.715 58.3984 145.934 58.4688C146.16 58.5391 146.41 58.5742 146.684 58.5742C147.379 58.5742 147.926 58.4336 148.324 58.1523C148.73 57.8711 149.016 57.4883 149.18 57.0039C149.352 56.5117 149.438 55.9648 149.438 55.3633ZM158.32 51.0273V61H154.945V48.3203H158.109L158.32 51.0273ZM157.828 54.2148H156.914C156.914 53.2773 157.035 52.4336 157.277 51.6836C157.52 50.9258 157.859 50.2812 158.297 49.75C158.734 49.2109 159.254 48.8008 159.855 48.5195C160.465 48.2305 161.145 48.0859 161.895 48.0859C162.488 48.0859 163.031 48.1719 163.523 48.3438C164.016 48.5156 164.438 48.7891 164.789 49.1641C165.148 49.5391 165.422 50.0352 165.609 50.6523C165.805 51.2695 165.902 52.0234 165.902 52.9141V61H162.504V52.9023C162.504 52.3398 162.426 51.9023 162.27 51.5898C162.113 51.2773 161.883 51.0586 161.578 50.9336C161.281 50.8008 160.914 50.7344 160.477 50.7344C160.023 50.7344 159.629 50.8242 159.293 51.0039C158.965 51.1836 158.691 51.4336 158.473 51.7539C158.262 52.0664 158.102 52.4336 157.992 52.8555C157.883 53.2773 157.828 53.7305 157.828 54.2148ZM175.957 58.2344V43H179.355V61H176.297L175.957 58.2344ZM167.941 54.8125V54.5664C167.941 53.5977 168.051 52.7188 168.27 51.9297C168.488 51.1328 168.809 50.4492 169.23 49.8789C169.652 49.3086 170.172 48.8672 170.789 48.5547C171.406 48.2422 172.109 48.0859 172.898 48.0859C173.641 48.0859 174.289 48.2422 174.844 48.5547C175.406 48.8672 175.883 49.3125 176.273 49.8906C176.672 50.4609 176.992 51.1367 177.234 51.918C177.477 52.6914 177.652 53.5391 177.762 54.4609V55C177.652 55.8828 177.477 56.7031 177.234 57.4609C176.992 58.2188 176.672 58.8828 176.273 59.4531C175.883 60.0156 175.406 60.4531 174.844 60.7656C174.281 61.0781 173.625 61.2344 172.875 61.2344C172.086 61.2344 171.383 61.0742 170.766 60.7539C170.156 60.4336 169.641 59.9844 169.219 59.4062C168.805 58.8281 168.488 58.1484 168.27 57.3672C168.051 56.5859 167.941 55.7344 167.941 54.8125ZM171.316 54.5664V54.8125C171.316 55.3359 171.355 55.8242 171.434 56.2773C171.52 56.7305 171.656 57.1328 171.844 57.4844C172.039 57.8281 172.289 58.0977 172.594 58.293C172.906 58.4805 173.285 58.5742 173.73 58.5742C174.309 58.5742 174.785 58.4453 175.16 58.1875C175.535 57.9219 175.82 57.5586 176.016 57.0977C176.219 56.6367 176.336 56.1055 176.367 55.5039V53.9688C176.344 53.4766 176.273 53.0352 176.156 52.6445C176.047 52.2461 175.883 51.9062 175.664 51.625C175.453 51.3438 175.188 51.125 174.867 50.9688C174.555 50.8125 174.184 50.7344 173.754 50.7344C173.316 50.7344 172.941 50.8359 172.629 51.0391C172.316 51.2344 172.062 51.5039 171.867 51.8477C171.68 52.1914 171.539 52.5977 171.445 53.0664C171.359 53.5273 171.316 54.0273 171.316 54.5664ZM199.559 50.8867V53.6289H190.652V50.8867H199.559ZM191.695 43.9375V61H188.18V43.9375H191.695ZM202.066 43.9375V61H198.562V43.9375H202.066ZM211.758 58.1406V52.4922C211.758 52.0859 211.691 51.7383 211.559 51.4492C211.426 51.1523 211.219 50.9219 210.938 50.7578C210.664 50.5938 210.309 50.5117 209.871 50.5117C209.496 50.5117 209.172 50.5781 208.898 50.7109C208.625 50.8359 208.414 51.0195 208.266 51.2617C208.117 51.4961 208.043 51.7734 208.043 52.0938H204.668C204.668 51.5547 204.793 51.043 205.043 50.5586C205.293 50.0742 205.656 49.6484 206.133 49.2812C206.609 48.9062 207.176 48.6133 207.832 48.4023C208.496 48.1914 209.238 48.0859 210.059 48.0859C211.043 48.0859 211.918 48.25 212.684 48.5781C213.449 48.9062 214.051 49.3984 214.488 50.0547C214.934 50.7109 215.156 51.5312 215.156 52.5156V57.9414C215.156 58.6367 215.199 59.207 215.285 59.6523C215.371 60.0898 215.496 60.4727 215.66 60.8008V61H212.25C212.086 60.6562 211.961 60.2266 211.875 59.7109C211.797 59.1875 211.758 58.6641 211.758 58.1406ZM212.203 53.2773L212.227 55.1875H210.34C209.895 55.1875 209.508 55.2383 209.18 55.3398C208.852 55.4414 208.582 55.5859 208.371 55.7734C208.16 55.9531 208.004 56.1641 207.902 56.4062C207.809 56.6484 207.762 56.9141 207.762 57.2031C207.762 57.4922 207.828 57.7539 207.961 57.9883C208.094 58.2148 208.285 58.3945 208.535 58.5273C208.785 58.6523 209.078 58.7148 209.414 58.7148C209.922 58.7148 210.363 58.6133 210.738 58.4102C211.113 58.207 211.402 57.957 211.605 57.6602C211.816 57.3633 211.926 57.082 211.934 56.8164L212.824 58.2461C212.699 58.5664 212.527 58.8984 212.309 59.2422C212.098 59.5859 211.828 59.9102 211.5 60.2148C211.172 60.5117 210.777 60.7578 210.316 60.9531C209.855 61.1406 209.309 61.2344 208.676 61.2344C207.871 61.2344 207.141 61.0742 206.484 60.7539C205.836 60.4258 205.32 59.9766 204.938 59.4062C204.562 58.8281 204.375 58.1719 204.375 57.4375C204.375 56.7734 204.5 56.1836 204.75 55.668C205 55.1523 205.367 54.7188 205.852 54.3672C206.344 54.0078 206.957 53.7383 207.691 53.5586C208.426 53.3711 209.277 53.2773 210.246 53.2773H212.203ZM221.133 51.0859V61H217.758V48.3203H220.934L221.133 51.0859ZM224.953 48.2383L224.895 51.3672C224.73 51.3438 224.531 51.3242 224.297 51.3086C224.07 51.2852 223.863 51.2734 223.676 51.2734C223.199 51.2734 222.785 51.3359 222.434 51.4609C222.09 51.5781 221.801 51.7539 221.566 51.9883C221.34 52.2227 221.168 52.5078 221.051 52.8438C220.941 53.1797 220.879 53.5625 220.863 53.9922L220.184 53.7812C220.184 52.9609 220.266 52.207 220.43 51.5195C220.594 50.8242 220.832 50.2188 221.145 49.7031C221.465 49.1875 221.855 48.7891 222.316 48.5078C222.777 48.2266 223.305 48.0859 223.898 48.0859C224.086 48.0859 224.277 48.1016 224.473 48.1328C224.668 48.1562 224.828 48.1914 224.953 48.2383ZM229.922 50.9453V61H226.535V48.3203H229.711L229.922 50.9453ZM229.453 54.2148H228.516C228.516 53.332 228.621 52.5195 228.832 51.7773C229.051 51.0273 229.367 50.3789 229.781 49.832C230.203 49.2773 230.723 48.8477 231.34 48.543C231.957 48.2383 232.672 48.0859 233.484 48.0859C234.047 48.0859 234.562 48.1719 235.031 48.3438C235.5 48.5078 235.902 48.7695 236.238 49.1289C236.582 49.4805 236.848 49.9414 237.035 50.5117C237.223 51.0742 237.316 51.75 237.316 52.5391V61H233.941V52.9141C233.941 52.3359 233.863 51.8906 233.707 51.5781C233.551 51.2656 233.328 51.0469 233.039 50.9219C232.758 50.7969 232.418 50.7344 232.02 50.7344C231.582 50.7344 231.199 50.8242 230.871 51.0039C230.551 51.1836 230.285 51.4336 230.074 51.7539C229.863 52.0664 229.707 52.4336 229.605 52.8555C229.504 53.2773 229.453 53.7305 229.453 54.2148ZM237 53.8281L235.793 53.9805C235.793 53.1523 235.895 52.3828 236.098 51.6719C236.309 50.9609 236.617 50.3359 237.023 49.7969C237.438 49.2578 237.949 48.8398 238.559 48.543C239.168 48.2383 239.871 48.0859 240.668 48.0859C241.277 48.0859 241.832 48.1758 242.332 48.3555C242.832 48.5273 243.258 48.8047 243.609 49.1875C243.969 49.5625 244.242 50.0547 244.43 50.6641C244.625 51.2734 244.723 52.0195 244.723 52.9023V61H241.336V52.9023C241.336 52.3164 241.258 51.8711 241.102 51.5664C240.953 51.2539 240.734 51.0391 240.445 50.9219C240.164 50.7969 239.828 50.7344 239.438 50.7344C239.031 50.7344 238.676 50.8164 238.371 50.9805C238.066 51.1367 237.812 51.3555 237.609 51.6367C237.406 51.918 237.254 52.2461 237.152 52.6211C237.051 52.9883 237 53.3906 237 53.8281ZM246.797 54.7891V54.543C246.797 53.6133 246.93 52.7578 247.195 51.9766C247.461 51.1875 247.848 50.5039 248.355 49.9258C248.863 49.3477 249.488 48.8984 250.23 48.5781C250.973 48.25 251.824 48.0859 252.785 48.0859C253.746 48.0859 254.602 48.25 255.352 48.5781C256.102 48.8984 256.73 49.3477 257.238 49.9258C257.754 50.5039 258.145 51.1875 258.41 51.9766C258.676 52.7578 258.809 53.6133 258.809 54.543V54.7891C258.809 55.7109 258.676 56.5664 258.41 57.3555C258.145 58.1367 257.754 58.8203 257.238 59.4062C256.73 59.9844 256.105 60.4336 255.363 60.7539C254.621 61.0742 253.77 61.2344 252.809 61.2344C251.848 61.2344 250.992 61.0742 250.242 60.7539C249.5 60.4336 248.871 59.9844 248.355 59.4062C247.848 58.8203 247.461 58.1367 247.195 57.3555C246.93 56.5664 246.797 55.7109 246.797 54.7891ZM250.172 54.543V54.7891C250.172 55.3203 250.219 55.8164 250.312 56.2773C250.406 56.7383 250.555 57.1445 250.758 57.4961C250.969 57.8398 251.242 58.1094 251.578 58.3047C251.914 58.5 252.324 58.5977 252.809 58.5977C253.277 58.5977 253.68 58.5 254.016 58.3047C254.352 58.1094 254.621 57.8398 254.824 57.4961C255.027 57.1445 255.176 56.7383 255.27 56.2773C255.371 55.8164 255.422 55.3203 255.422 54.7891V54.543C255.422 54.0273 255.371 53.543 255.27 53.0898C255.176 52.6289 255.023 52.2227 254.812 51.8711C254.609 51.5117 254.34 51.2305 254.004 51.0273C253.668 50.8242 253.262 50.7227 252.785 50.7227C252.309 50.7227 251.902 50.8242 251.566 51.0273C251.238 51.2305 250.969 51.5117 250.758 51.8711C250.555 52.2227 250.406 52.6289 250.312 53.0898C250.219 53.543 250.172 54.0273 250.172 54.543ZM264.188 51.0273V61H260.812V48.3203H263.977L264.188 51.0273ZM263.695 54.2148H262.781C262.781 53.2773 262.902 52.4336 263.145 51.6836C263.387 50.9258 263.727 50.2812 264.164 49.75C264.602 49.2109 265.121 48.8008 265.723 48.5195C266.332 48.2305 267.012 48.0859 267.762 48.0859C268.355 48.0859 268.898 48.1719 269.391 48.3438C269.883 48.5156 270.305 48.7891 270.656 49.1641C271.016 49.5391 271.289 50.0352 271.477 50.6523C271.672 51.2695 271.77 52.0234 271.77 52.9141V61H268.371V52.9023C268.371 52.3398 268.293 51.9023 268.137 51.5898C267.98 51.2773 267.75 51.0586 267.445 50.9336C267.148 50.8008 266.781 50.7344 266.344 50.7344C265.891 50.7344 265.496 50.8242 265.16 51.0039C264.832 51.1836 264.559 51.4336 264.34 51.7539C264.129 52.0664 263.969 52.4336 263.859 52.8555C263.75 53.2773 263.695 53.7305 263.695 54.2148ZM278.098 59.5703L281.461 48.3203H285.082L279.984 62.9102C279.875 63.2305 279.727 63.5742 279.539 63.9414C279.359 64.3086 279.113 64.6562 278.801 64.9844C278.496 65.3203 278.109 65.5938 277.641 65.8047C277.18 66.0156 276.613 66.1211 275.941 66.1211C275.621 66.1211 275.359 66.1016 275.156 66.0625C274.953 66.0234 274.711 65.9688 274.43 65.8984V63.4258C274.516 63.4258 274.605 63.4258 274.699 63.4258C274.793 63.4336 274.883 63.4375 274.969 63.4375C275.414 63.4375 275.777 63.3867 276.059 63.2852C276.34 63.1836 276.566 63.0273 276.738 62.8164C276.91 62.6133 277.047 62.3477 277.148 62.0195L278.098 59.5703ZM276.691 48.3203L279.445 57.5078L279.926 61.082L277.629 61.3281L273.07 48.3203H276.691Z" fill="#888888"/>
<path d="M109.219 107.422H100.734V101.07H109.219C110.375 101.07 111.312 100.875 112.031 100.484C112.75 100.094 113.273 99.5547 113.602 98.8672C113.945 98.1641 114.117 97.375 114.117 96.5C114.117 95.5625 113.945 94.6953 113.602 93.8984C113.273 93.1016 112.75 92.4609 112.031 91.9766C111.312 91.4766 110.375 91.2266 109.219 91.2266H103.828V119H95.6016V84.875H109.219C111.953 84.875 114.305 85.375 116.273 86.375C118.258 87.375 119.781 88.75 120.844 90.5C121.906 92.2344 122.438 94.2188 122.438 96.4531C122.438 98.6562 121.906 100.578 120.844 102.219C119.781 103.859 118.258 105.141 116.273 106.062C114.305 106.969 111.953 107.422 109.219 107.422ZM134.461 99.9219V119H126.562V93.6406H133.945L134.461 99.9219ZM141.961 93.4531L141.82 100.789C141.508 100.758 141.086 100.719 140.555 100.672C140.023 100.625 139.578 100.602 139.219 100.602C138.297 100.602 137.5 100.711 136.828 100.93C136.172 101.133 135.625 101.445 135.188 101.867C134.766 102.273 134.453 102.789 134.25 103.414C134.062 104.039 133.977 104.766 133.992 105.594L132.562 104.656C132.562 102.953 132.727 101.406 133.055 100.016C133.398 98.6094 133.883 97.3984 134.508 96.3828C135.133 95.3516 135.891 94.5625 136.781 94.0156C137.672 93.4531 138.672 93.1719 139.781 93.1719C140.172 93.1719 140.555 93.1953 140.93 93.2422C141.32 93.2891 141.664 93.3594 141.961 93.4531ZM142.852 106.578V106.086C142.852 104.227 143.117 102.516 143.648 100.953C144.18 99.375 144.961 98.0078 145.992 96.8516C147.023 95.6953 148.297 94.7969 149.812 94.1562C151.328 93.5 153.078 93.1719 155.062 93.1719C157.062 93.1719 158.82 93.5 160.336 94.1562C161.867 94.7969 163.148 95.6953 164.18 96.8516C165.211 98.0078 165.992 99.375 166.523 100.953C167.055 102.516 167.32 104.227 167.32 106.086V106.578C167.32 108.422 167.055 110.133 166.523 111.711C165.992 113.273 165.211 114.641 164.18 115.812C163.148 116.969 161.875 117.867 160.359 118.508C158.844 119.148 157.094 119.469 155.109 119.469C153.125 119.469 151.367 119.148 149.836 118.508C148.305 117.867 147.023 116.969 145.992 115.812C144.961 114.641 144.18 113.273 143.648 111.711C143.117 110.133 142.852 108.422 142.852 106.578ZM150.75 106.086V106.578C150.75 107.531 150.82 108.422 150.961 109.25C151.102 110.078 151.336 110.805 151.664 111.43C151.992 112.039 152.438 112.516 153 112.859C153.562 113.203 154.266 113.375 155.109 113.375C155.938 113.375 156.625 113.203 157.172 112.859C157.734 112.516 158.18 112.039 158.508 111.43C158.836 110.805 159.07 110.078 159.211 109.25C159.352 108.422 159.422 107.531 159.422 106.578V106.086C159.422 105.164 159.352 104.297 159.211 103.484C159.07 102.656 158.836 101.93 158.508 101.305C158.18 100.664 157.734 100.164 157.172 99.8047C156.609 99.4453 155.906 99.2656 155.062 99.2656C154.234 99.2656 153.539 99.4453 152.977 99.8047C152.43 100.164 151.992 100.664 151.664 101.305C151.336 101.93 151.102 102.656 150.961 103.484C150.82 104.297 150.75 105.164 150.75 106.086ZM184.195 93.6406V99.125H168.914V93.6406H184.195ZM172.125 87.3359H180.023V110.727C180.023 111.398 180.102 111.922 180.258 112.297C180.414 112.656 180.68 112.914 181.055 113.07C181.445 113.211 181.961 113.281 182.602 113.281C183.055 113.281 183.43 113.273 183.727 113.258C184.023 113.227 184.305 113.188 184.57 113.141V118.789C183.898 119.008 183.195 119.172 182.461 119.281C181.727 119.406 180.945 119.469 180.117 119.469C178.43 119.469 176.984 119.203 175.781 118.672C174.594 118.141 173.688 117.305 173.062 116.164C172.438 115.023 172.125 113.539 172.125 111.711V87.3359ZM185.648 106.578V106.086C185.648 104.227 185.914 102.516 186.445 100.953C186.977 99.375 187.758 98.0078 188.789 96.8516C189.82 95.6953 191.094 94.7969 192.609 94.1562C194.125 93.5 195.875 93.1719 197.859 93.1719C199.859 93.1719 201.617 93.5 203.133 94.1562C204.664 94.7969 205.945 95.6953 206.977 96.8516C208.008 98.0078 208.789 99.375 209.32 100.953C209.852 102.516 210.117 104.227 210.117 106.086V106.578C210.117 108.422 209.852 110.133 209.32 111.711C208.789 113.273 208.008 114.641 206.977 115.812C205.945 116.969 204.672 117.867 203.156 118.508C201.641 119.148 199.891 119.469 197.906 119.469C195.922 119.469 194.164 119.148 192.633 118.508C191.102 117.867 189.82 116.969 188.789 115.812C187.758 114.641 186.977 113.273 186.445 111.711C185.914 110.133 185.648 108.422 185.648 106.578ZM193.547 106.086V106.578C193.547 107.531 193.617 108.422 193.758 109.25C193.898 110.078 194.133 110.805 194.461 111.43C194.789 112.039 195.234 112.516 195.797 112.859C196.359 113.203 197.062 113.375 197.906 113.375C198.734 113.375 199.422 113.203 199.969 112.859C200.531 112.516 200.977 112.039 201.305 111.43C201.633 110.805 201.867 110.078 202.008 109.25C202.148 108.422 202.219 107.531 202.219 106.578V106.086C202.219 105.164 202.148 104.297 202.008 103.484C201.867 102.656 201.633 101.93 201.305 101.305C200.977 100.664 200.531 100.164 199.969 99.8047C199.406 99.4453 198.703 99.2656 197.859 99.2656C197.031 99.2656 196.336 99.4453 195.773 99.8047C195.227 100.164 194.789 100.664 194.461 101.305C194.133 101.93 193.898 102.656 193.758 103.484C193.617 104.297 193.547 105.164 193.547 106.086ZM226.992 93.6406V99.125H211.711V93.6406H226.992ZM214.922 87.3359H222.82V110.727C222.82 111.398 222.898 111.922 223.055 112.297C223.211 112.656 223.477 112.914 223.852 113.07C224.242 113.211 224.758 113.281 225.398 113.281C225.852 113.281 226.227 113.273 226.523 113.258C226.82 113.227 227.102 113.188 227.367 113.141V118.789C226.695 119.008 225.992 119.172 225.258 119.281C224.523 119.406 223.742 119.469 222.914 119.469C221.227 119.469 219.781 119.203 218.578 118.672C217.391 118.141 216.484 117.305 215.859 116.164C215.234 115.023 214.922 113.539 214.922 111.711V87.3359ZM237.914 116.023L244.477 93.6406H252.961L242.766 122.773C242.547 123.414 242.258 124.102 241.898 124.836C241.539 125.586 241.047 126.297 240.422 126.969C239.797 127.641 238.992 128.188 238.008 128.609C237.039 129.031 235.836 129.242 234.398 129.242C233.633 129.242 233.07 129.203 232.711 129.125C232.367 129.062 231.836 128.945 231.117 128.773V123.125C231.32 123.125 231.492 123.125 231.633 123.125C231.789 123.125 231.961 123.125 232.148 123.125C232.992 123.125 233.664 123.039 234.164 122.867C234.68 122.695 235.07 122.445 235.336 122.117C235.617 121.789 235.836 121.391 235.992 120.922L237.914 116.023ZM236.25 93.6406L241.242 111.383L242.109 119.75H236.812L227.789 93.6406H236.25ZM262.992 98.5156V128.75H255.094V93.6406H262.453L262.992 98.5156ZM278.555 106.016V106.508C278.555 108.352 278.344 110.062 277.922 111.641C277.5 113.219 276.875 114.594 276.047 115.766C275.219 116.938 274.188 117.852 272.953 118.508C271.734 119.148 270.32 119.469 268.711 119.469C267.195 119.469 265.891 119.133 264.797 118.461C263.703 117.789 262.789 116.859 262.055 115.672C261.32 114.484 260.727 113.125 260.273 111.594C259.82 110.062 259.461 108.445 259.195 106.742V106.109C259.461 104.281 259.82 102.586 260.273 101.023C260.727 99.4453 261.32 98.0703 262.055 96.8984C262.789 95.7266 263.695 94.8125 264.773 94.1562C265.867 93.5 267.172 93.1719 268.688 93.1719C270.297 93.1719 271.711 93.4766 272.93 94.0859C274.164 94.6953 275.195 95.5703 276.023 96.7109C276.867 97.8359 277.5 99.1875 277.922 100.766C278.344 102.344 278.555 104.094 278.555 106.016ZM270.656 106.508V106.016C270.656 105.031 270.586 104.133 270.445 103.32C270.305 102.492 270.078 101.773 269.766 101.164C269.469 100.555 269.07 100.086 268.57 99.7578C268.07 99.4297 267.453 99.2656 266.719 99.2656C265.875 99.2656 265.164 99.3984 264.586 99.6641C264.023 99.9141 263.57 100.305 263.227 100.836C262.898 101.352 262.664 102 262.523 102.781C262.398 103.547 262.344 104.445 262.359 105.477V107.398C262.328 108.586 262.445 109.633 262.711 110.539C262.977 111.43 263.438 112.125 264.094 112.625C264.75 113.125 265.641 113.375 266.766 113.375C267.516 113.375 268.141 113.203 268.641 112.859C269.141 112.5 269.539 112.008 269.836 111.383C270.133 110.742 270.344 110.008 270.469 109.18C270.594 108.352 270.656 107.461 270.656 106.508ZM290.414 93.6406V119H282.492V93.6406H290.414ZM282.023 87.1016C282.023 85.9766 282.43 85.0547 283.242 84.3359C284.055 83.6172 285.109 83.2578 286.406 83.2578C287.703 83.2578 288.758 83.6172 289.57 84.3359C290.383 85.0547 290.789 85.9766 290.789 87.1016C290.789 88.2266 290.383 89.1484 289.57 89.8672C288.758 90.5859 287.703 90.9453 286.406 90.9453C285.109 90.9453 284.055 90.5859 283.242 89.8672C282.43 89.1484 282.023 88.2266 282.023 87.1016ZM303.047 99.0547V119H295.148V93.6406H302.555L303.047 99.0547ZM302.109 105.453L300.258 105.5C300.258 103.562 300.492 101.836 300.961 100.32C301.43 98.7891 302.094 97.4922 302.953 96.4297C303.812 95.3672 304.836 94.5625 306.023 94.0156C307.227 93.4531 308.562 93.1719 310.031 93.1719C311.203 93.1719 312.273 93.3438 313.242 93.6875C314.227 94.0312 315.07 94.5859 315.773 95.3516C316.492 96.1172 317.039 97.1328 317.414 98.3984C317.805 99.6484 318 101.195 318 103.039V119H310.055V103.016C310.055 102 309.914 101.227 309.633 100.695C309.352 100.148 308.945 99.7734 308.414 99.5703C307.883 99.3672 307.234 99.2656 306.469 99.2656C305.656 99.2656 304.969 99.4219 304.406 99.7344C303.844 100.047 303.391 100.484 303.047 101.047C302.719 101.594 302.477 102.242 302.32 102.992C302.18 103.742 302.109 104.562 302.109 105.453ZM338.32 93.6406H345.492V118.016C345.492 120.359 344.953 122.344 343.875 123.969C342.797 125.609 341.289 126.852 339.352 127.695C337.43 128.555 335.18 128.984 332.602 128.984C331.461 128.984 330.297 128.836 329.109 128.539C327.922 128.258 326.812 127.836 325.781 127.273C324.75 126.711 323.883 126.016 323.18 125.188L326.484 120.547C327.125 121.266 327.93 121.875 328.898 122.375C329.867 122.891 331.008 123.148 332.32 123.148C333.461 123.148 334.414 122.945 335.18 122.539C335.961 122.133 336.555 121.539 336.961 120.758C337.367 119.992 337.57 119.062 337.57 117.969V99.6406L338.32 93.6406ZM321.469 106.625V106.133C321.469 104.211 321.703 102.461 322.172 100.883C322.656 99.2891 323.344 97.9219 324.234 96.7812C325.141 95.625 326.234 94.7344 327.516 94.1094C328.797 93.4844 330.242 93.1719 331.852 93.1719C333.586 93.1719 335.008 93.5078 336.117 94.1797C337.242 94.8359 338.141 95.7578 338.812 96.9453C339.5 98.1328 340.031 99.5234 340.406 101.117C340.797 102.695 341.125 104.398 341.391 106.227V106.812C341.125 108.531 340.758 110.156 340.289 111.688C339.836 113.203 339.242 114.547 338.508 115.719C337.773 116.891 336.852 117.812 335.742 118.484C334.648 119.141 333.336 119.469 331.805 119.469C330.211 119.469 328.773 119.148 327.492 118.508C326.227 117.867 325.141 116.969 324.234 115.812C323.344 114.656 322.656 113.297 322.172 111.734C321.703 110.172 321.469 108.469 321.469 106.625ZM329.367 106.133V106.625C329.367 107.578 329.453 108.461 329.625 109.273C329.812 110.086 330.094 110.805 330.469 111.43C330.844 112.039 331.305 112.516 331.852 112.859C332.414 113.203 333.07 113.375 333.82 113.375C334.961 113.375 335.883 113.133 336.586 112.648C337.289 112.164 337.797 111.477 338.109 110.586C338.422 109.695 338.555 108.648 338.508 107.445V105.594C338.539 104.562 338.469 103.656 338.297 102.875C338.125 102.078 337.852 101.414 337.477 100.883C337.117 100.352 336.633 99.9531 336.023 99.6875C335.43 99.4062 334.711 99.2656 333.867 99.2656C333.133 99.2656 332.484 99.4375 331.922 99.7812C331.359 100.125 330.891 100.609 330.516 101.234C330.141 101.844 329.852 102.57 329.648 103.414C329.461 104.242 329.367 105.148 329.367 106.133Z" fill="black"/>
<path d="M1134 0H1348C1356.28 0 1363 6.71573 1363 15V148C1363 156.284 1356.28 163 1348 163H1134V0Z" fill="#F03D3F"/>
<path fill-rule="evenodd" clip-rule="evenodd" d="M1202.75 46.5018C1202.75 45.3973 1203.65 44.5018 1204.75 44.5018H1292.25C1293.35 44.5018 1294.25 45.3973 1294.25 46.5018V116.498C1294.25 117.603 1293.35 118.498 1292.25 118.498H1204.75C1203.65 118.498 1202.75 117.603 1202.75 116.498V46.5018ZM1206.75 48.5018V52.9963H1290.25V48.5018H1206.75ZM1290.25 56.9963H1235.19V114.498H1290.25V56.9963ZM1231.19 114.498V56.9963H1206.75V114.498H1231.19Z" fill="white"/>
<path fill-rule="evenodd" clip-rule="evenodd" d="M1209.72 62.3022C1209.72 61.1976 1210.62 60.3022 1211.72 60.3022H1225.72C1226.83 60.3022 1227.72 61.1976 1227.72 62.3022V81.6974C1227.72 82.802 1226.83 83.6974 1225.72 83.6974H1211.72C1210.62 83.6974 1209.72 82.802 1209.72 81.6974V62.3022ZM1213.72 64.3022V79.6974H1223.72V64.3022H1213.72ZM1239.33 63.1982C1239.33 62.0936 1240.22 61.1982 1241.33 61.1982H1284.25C1285.36 61.1982 1286.25 62.0936 1286.25 63.1982V109.407C1286.25 110.511 1285.36 111.407 1284.25 111.407H1241.33C1240.22 111.407 1239.33 110.511 1239.33 109.407V63.1982ZM1243.33 65.1982V107.407H1282.25V65.1982H1243.33ZM1209.56 93.4381C1209.56 92.3336 1210.46 91.4381 1211.56 91.4381H1220.48C1221.59 91.4381 1222.48 92.3336 1222.48 93.4381C1222.48 94.5427 1221.59 95.4381 1220.48 95.4381H1211.56C1210.46 95.4381 1209.56 94.5427 1209.56 93.4381ZM1209.56 100.438C1209.56 99.3335 1210.46 98.4381 1211.56 98.4381H1226.1C1227.21 98.4381 1228.1 99.3335 1228.1 100.438C1228.1 101.543 1227.21 102.438 1226.1 102.438H1211.56C1210.46 102.438 1209.56 101.543 1209.56 100.438ZM1209.56 107.438C1209.56 106.334 1210.46 105.438 1211.56 105.438H1220.48C1221.59 105.438 1222.48 106.334 1222.48 107.438C1222.48 108.543 1221.59 109.438 1220.48 109.438H1211.56C1210.46 109.438 1209.56 108.543 1209.56 107.438Z" fill="white"/>
</svg>
