<svg width="1363" height="163" viewBox="0 0 1363 163" fill="none" xmlns="http://www.w3.org/2000/svg">
<path d="M0 15C0 6.71573 6.71573 0 15 0H37V163H15C6.71573 163 0 156.284 0 148V15Z" fill="#424242"/>
<rect width="1097" height="163" transform="translate(37)" fill="#F0F0F0"/>
<path d="M101.906 53.9219L94.3945 51.2383V48.0859L104.602 52.375V54.6367L101.906 53.9219ZM94.3945 56.1719L101.918 53.4297L104.602 52.7852V55.0352L94.3945 59.3242V56.1719ZM119.578 53.5117H115.195L115.172 51.0977H118.852C119.5 51.0977 120.031 51.0156 120.445 50.8516C120.859 50.6797 121.168 50.4336 121.371 50.1133C121.582 49.7852 121.688 49.3867 121.688 48.918C121.688 48.3867 121.586 47.957 121.383 47.6289C121.188 47.3008 120.879 47.0625 120.457 46.9141C120.043 46.7656 119.508 46.6914 118.852 46.6914H116.414V61H112.898V43.9375H118.852C119.844 43.9375 120.73 44.0312 121.512 44.2188C122.301 44.4062 122.969 44.6914 123.516 45.0742C124.062 45.457 124.48 45.9414 124.77 46.5273C125.059 47.1055 125.203 47.793 125.203 48.5898C125.203 49.293 125.043 49.9414 124.723 50.5352C124.41 51.1289 123.914 51.6133 123.234 51.9883C122.562 52.3633 121.684 52.5703 120.598 52.6094L119.578 53.5117ZM119.426 61H114.234L115.605 58.2578H119.426C120.043 58.2578 120.547 58.1602 120.938 57.9648C121.328 57.7617 121.617 57.4883 121.805 57.1445C121.992 56.8008 122.086 56.4062 122.086 55.9609C122.086 55.4609 122 55.0273 121.828 54.6602C121.664 54.293 121.398 54.0117 121.031 53.8164C120.664 53.6133 120.18 53.5117 119.578 53.5117H116.191L116.215 51.0977H120.434L121.242 52.0469C122.281 52.0312 123.117 52.2148 123.75 52.5977C124.391 52.9727 124.855 53.4609 125.145 54.0625C125.441 54.6641 125.59 55.3086 125.59 55.9961C125.59 57.0898 125.352 58.0117 124.875 58.7617C124.398 59.5039 123.699 60.0625 122.777 60.4375C121.863 60.8125 120.746 61 119.426 61ZM127.477 54.7891V54.543C127.477 53.6133 127.609 52.7578 127.875 51.9766C128.141 51.1875 128.527 50.5039 129.035 49.9258C129.543 49.3477 130.168 48.8984 130.91 48.5781C131.652 48.25 132.504 48.0859 133.465 48.0859C134.426 48.0859 135.281 48.25 136.031 48.5781C136.781 48.8984 137.41 49.3477 137.918 49.9258C138.434 50.5039 138.824 51.1875 139.09 51.9766C139.355 52.7578 139.488 53.6133 139.488 54.543V54.7891C139.488 55.7109 139.355 56.5664 139.09 57.3555C138.824 58.1367 138.434 58.8203 137.918 59.4062C137.41 59.9844 136.785 60.4336 136.043 60.7539C135.301 61.0742 134.449 61.2344 133.488 61.2344C132.527 61.2344 131.672 61.0742 130.922 60.7539C130.18 60.4336 129.551 59.9844 129.035 59.4062C128.527 58.8203 128.141 58.1367 127.875 57.3555C127.609 56.5664 127.477 55.7109 127.477 54.7891ZM130.852 54.543V54.7891C130.852 55.3203 130.898 55.8164 130.992 56.2773C131.086 56.7383 131.234 57.1445 131.438 57.4961C131.648 57.8398 131.922 58.1094 132.258 58.3047C132.594 58.5 133.004 58.5977 133.488 58.5977C133.957 58.5977 134.359 58.5 134.695 58.3047C135.031 58.1094 135.301 57.8398 135.504 57.4961C135.707 57.1445 135.855 56.7383 135.949 56.2773C136.051 55.8164 136.102 55.3203 136.102 54.7891V54.543C136.102 54.0273 136.051 53.543 135.949 53.0898C135.855 52.6289 135.703 52.2227 135.492 51.8711C135.289 51.5117 135.02 51.2305 134.684 51.0273C134.348 50.8242 133.941 50.7227 133.465 50.7227C132.988 50.7227 132.582 50.8242 132.246 51.0273C131.918 51.2305 131.648 51.5117 131.438 51.8711C131.234 52.2227 131.086 52.6289 130.992 53.0898C130.898 53.543 130.852 54.0273 130.852 54.543ZM149.062 57.9648V48.3203H152.438V61H149.262L149.062 57.9648ZM149.438 55.3633L150.434 55.3398C150.434 56.1836 150.336 56.9688 150.141 57.6953C149.945 58.4141 149.652 59.0391 149.262 59.5703C148.871 60.0938 148.379 60.5039 147.785 60.8008C147.191 61.0898 146.492 61.2344 145.688 61.2344C145.07 61.2344 144.5 61.1484 143.977 60.9766C143.461 60.7969 143.016 60.5195 142.641 60.1445C142.273 59.7617 141.984 59.2734 141.773 58.6797C141.57 58.0781 141.469 57.3555 141.469 56.5117V48.3203H144.844V56.5352C144.844 56.9102 144.887 57.2266 144.973 57.4844C145.066 57.7422 145.195 57.9531 145.359 58.1172C145.523 58.2812 145.715 58.3984 145.934 58.4688C146.16 58.5391 146.41 58.5742 146.684 58.5742C147.379 58.5742 147.926 58.4336 148.324 58.1523C148.73 57.8711 149.016 57.4883 149.18 57.0039C149.352 56.5117 149.438 55.9648 149.438 55.3633ZM158.32 51.0273V61H154.945V48.3203H158.109L158.32 51.0273ZM157.828 54.2148H156.914C156.914 53.2773 157.035 52.4336 157.277 51.6836C157.52 50.9258 157.859 50.2812 158.297 49.75C158.734 49.2109 159.254 48.8008 159.855 48.5195C160.465 48.2305 161.145 48.0859 161.895 48.0859C162.488 48.0859 163.031 48.1719 163.523 48.3438C164.016 48.5156 164.438 48.7891 164.789 49.1641C165.148 49.5391 165.422 50.0352 165.609 50.6523C165.805 51.2695 165.902 52.0234 165.902 52.9141V61H162.504V52.9023C162.504 52.3398 162.426 51.9023 162.27 51.5898C162.113 51.2773 161.883 51.0586 161.578 50.9336C161.281 50.8008 160.914 50.7344 160.477 50.7344C160.023 50.7344 159.629 50.8242 159.293 51.0039C158.965 51.1836 158.691 51.4336 158.473 51.7539C158.262 52.0664 158.102 52.4336 157.992 52.8555C157.883 53.2773 157.828 53.7305 157.828 54.2148ZM175.957 58.2344V43H179.355V61H176.297L175.957 58.2344ZM167.941 54.8125V54.5664C167.941 53.5977 168.051 52.7188 168.27 51.9297C168.488 51.1328 168.809 50.4492 169.23 49.8789C169.652 49.3086 170.172 48.8672 170.789 48.5547C171.406 48.2422 172.109 48.0859 172.898 48.0859C173.641 48.0859 174.289 48.2422 174.844 48.5547C175.406 48.8672 175.883 49.3125 176.273 49.8906C176.672 50.4609 176.992 51.1367 177.234 51.918C177.477 52.6914 177.652 53.5391 177.762 54.4609V55C177.652 55.8828 177.477 56.7031 177.234 57.4609C176.992 58.2188 176.672 58.8828 176.273 59.4531C175.883 60.0156 175.406 60.4531 174.844 60.7656C174.281 61.0781 173.625 61.2344 172.875 61.2344C172.086 61.2344 171.383 61.0742 170.766 60.7539C170.156 60.4336 169.641 59.9844 169.219 59.4062C168.805 58.8281 168.488 58.1484 168.27 57.3672C168.051 56.5859 167.941 55.7344 167.941 54.8125ZM171.316 54.5664V54.8125C171.316 55.3359 171.355 55.8242 171.434 56.2773C171.52 56.7305 171.656 57.1328 171.844 57.4844C172.039 57.8281 172.289 58.0977 172.594 58.293C172.906 58.4805 173.285 58.5742 173.73 58.5742C174.309 58.5742 174.785 58.4453 175.16 58.1875C175.535 57.9219 175.82 57.5586 176.016 57.0977C176.219 56.6367 176.336 56.1055 176.367 55.5039V53.9688C176.344 53.4766 176.273 53.0352 176.156 52.6445C176.047 52.2461 175.883 51.9062 175.664 51.625C175.453 51.3438 175.188 51.125 174.867 50.9688C174.555 50.8125 174.184 50.7344 173.754 50.7344C173.316 50.7344 172.941 50.8359 172.629 51.0391C172.316 51.2344 172.062 51.5039 171.867 51.8477C171.68 52.1914 171.539 52.5977 171.445 53.0664C171.359 53.5273 171.316 54.0273 171.316 54.5664ZM199.559 50.8867V53.6289H190.652V50.8867H199.559ZM191.695 43.9375V61H188.18V43.9375H191.695ZM202.066 43.9375V61H198.562V43.9375H202.066ZM211.758 58.1406V52.4922C211.758 52.0859 211.691 51.7383 211.559 51.4492C211.426 51.1523 211.219 50.9219 210.938 50.7578C210.664 50.5938 210.309 50.5117 209.871 50.5117C209.496 50.5117 209.172 50.5781 208.898 50.7109C208.625 50.8359 208.414 51.0195 208.266 51.2617C208.117 51.4961 208.043 51.7734 208.043 52.0938H204.668C204.668 51.5547 204.793 51.043 205.043 50.5586C205.293 50.0742 205.656 49.6484 206.133 49.2812C206.609 48.9062 207.176 48.6133 207.832 48.4023C208.496 48.1914 209.238 48.0859 210.059 48.0859C211.043 48.0859 211.918 48.25 212.684 48.5781C213.449 48.9062 214.051 49.3984 214.488 50.0547C214.934 50.7109 215.156 51.5312 215.156 52.5156V57.9414C215.156 58.6367 215.199 59.207 215.285 59.6523C215.371 60.0898 215.496 60.4727 215.66 60.8008V61H212.25C212.086 60.6562 211.961 60.2266 211.875 59.7109C211.797 59.1875 211.758 58.6641 211.758 58.1406ZM212.203 53.2773L212.227 55.1875H210.34C209.895 55.1875 209.508 55.2383 209.18 55.3398C208.852 55.4414 208.582 55.5859 208.371 55.7734C208.16 55.9531 208.004 56.1641 207.902 56.4062C207.809 56.6484 207.762 56.9141 207.762 57.2031C207.762 57.4922 207.828 57.7539 207.961 57.9883C208.094 58.2148 208.285 58.3945 208.535 58.5273C208.785 58.6523 209.078 58.7148 209.414 58.7148C209.922 58.7148 210.363 58.6133 210.738 58.4102C211.113 58.207 211.402 57.957 211.605 57.6602C211.816 57.3633 211.926 57.082 211.934 56.8164L212.824 58.2461C212.699 58.5664 212.527 58.8984 212.309 59.2422C212.098 59.5859 211.828 59.9102 211.5 60.2148C211.172 60.5117 210.777 60.7578 210.316 60.9531C209.855 61.1406 209.309 61.2344 208.676 61.2344C207.871 61.2344 207.141 61.0742 206.484 60.7539C205.836 60.4258 205.32 59.9766 204.938 59.4062C204.562 58.8281 204.375 58.1719 204.375 57.4375C204.375 56.7734 204.5 56.1836 204.75 55.668C205 55.1523 205.367 54.7188 205.852 54.3672C206.344 54.0078 206.957 53.7383 207.691 53.5586C208.426 53.3711 209.277 53.2773 210.246 53.2773H212.203ZM221.133 51.0859V61H217.758V48.3203H220.934L221.133 51.0859ZM224.953 48.2383L224.895 51.3672C224.73 51.3438 224.531 51.3242 224.297 51.3086C224.07 51.2852 223.863 51.2734 223.676 51.2734C223.199 51.2734 222.785 51.3359 222.434 51.4609C222.09 51.5781 221.801 51.7539 221.566 51.9883C221.34 52.2227 221.168 52.5078 221.051 52.8438C220.941 53.1797 220.879 53.5625 220.863 53.9922L220.184 53.7812C220.184 52.9609 220.266 52.207 220.43 51.5195C220.594 50.8242 220.832 50.2188 221.145 49.7031C221.465 49.1875 221.855 48.7891 222.316 48.5078C222.777 48.2266 223.305 48.0859 223.898 48.0859C224.086 48.0859 224.277 48.1016 224.473 48.1328C224.668 48.1562 224.828 48.1914 224.953 48.2383ZM229.922 50.9453V61H226.535V48.3203H229.711L229.922 50.9453ZM229.453 54.2148H228.516C228.516 53.332 228.621 52.5195 228.832 51.7773C229.051 51.0273 229.367 50.3789 229.781 49.832C230.203 49.2773 230.723 48.8477 231.34 48.543C231.957 48.2383 232.672 48.0859 233.484 48.0859C234.047 48.0859 234.562 48.1719 235.031 48.3438C235.5 48.5078 235.902 48.7695 236.238 49.1289C236.582 49.4805 236.848 49.9414 237.035 50.5117C237.223 51.0742 237.316 51.75 237.316 52.5391V61H233.941V52.9141C233.941 52.3359 233.863 51.8906 233.707 51.5781C233.551 51.2656 233.328 51.0469 233.039 50.9219C232.758 50.7969 232.418 50.7344 232.02 50.7344C231.582 50.7344 231.199 50.8242 230.871 51.0039C230.551 51.1836 230.285 51.4336 230.074 51.7539C229.863 52.0664 229.707 52.4336 229.605 52.8555C229.504 53.2773 229.453 53.7305 229.453 54.2148ZM237 53.8281L235.793 53.9805C235.793 53.1523 235.895 52.3828 236.098 51.6719C236.309 50.9609 236.617 50.3359 237.023 49.7969C237.438 49.2578 237.949 48.8398 238.559 48.543C239.168 48.2383 239.871 48.0859 240.668 48.0859C241.277 48.0859 241.832 48.1758 242.332 48.3555C242.832 48.5273 243.258 48.8047 243.609 49.1875C243.969 49.5625 244.242 50.0547 244.43 50.6641C244.625 51.2734 244.723 52.0195 244.723 52.9023V61H241.336V52.9023C241.336 52.3164 241.258 51.8711 241.102 51.5664C240.953 51.2539 240.734 51.0391 240.445 50.9219C240.164 50.7969 239.828 50.7344 239.438 50.7344C239.031 50.7344 238.676 50.8164 238.371 50.9805C238.066 51.1367 237.812 51.3555 237.609 51.6367C237.406 51.918 237.254 52.2461 237.152 52.6211C237.051 52.9883 237 53.3906 237 53.8281ZM246.797 54.7891V54.543C246.797 53.6133 246.93 52.7578 247.195 51.9766C247.461 51.1875 247.848 50.5039 248.355 49.9258C248.863 49.3477 249.488 48.8984 250.23 48.5781C250.973 48.25 251.824 48.0859 252.785 48.0859C253.746 48.0859 254.602 48.25 255.352 48.5781C256.102 48.8984 256.73 49.3477 257.238 49.9258C257.754 50.5039 258.145 51.1875 258.41 51.9766C258.676 52.7578 258.809 53.6133 258.809 54.543V54.7891C258.809 55.7109 258.676 56.5664 258.41 57.3555C258.145 58.1367 257.754 58.8203 257.238 59.4062C256.73 59.9844 256.105 60.4336 255.363 60.7539C254.621 61.0742 253.77 61.2344 252.809 61.2344C251.848 61.2344 250.992 61.0742 250.242 60.7539C249.5 60.4336 248.871 59.9844 248.355 59.4062C247.848 58.8203 247.461 58.1367 247.195 57.3555C246.93 56.5664 246.797 55.7109 246.797 54.7891ZM250.172 54.543V54.7891C250.172 55.3203 250.219 55.8164 250.312 56.2773C250.406 56.7383 250.555 57.1445 250.758 57.4961C250.969 57.8398 251.242 58.1094 251.578 58.3047C251.914 58.5 252.324 58.5977 252.809 58.5977C253.277 58.5977 253.68 58.5 254.016 58.3047C254.352 58.1094 254.621 57.8398 254.824 57.4961C255.027 57.1445 255.176 56.7383 255.27 56.2773C255.371 55.8164 255.422 55.3203 255.422 54.7891V54.543C255.422 54.0273 255.371 53.543 255.27 53.0898C255.176 52.6289 255.023 52.2227 254.812 51.8711C254.609 51.5117 254.34 51.2305 254.004 51.0273C253.668 50.8242 253.262 50.7227 252.785 50.7227C252.309 50.7227 251.902 50.8242 251.566 51.0273C251.238 51.2305 250.969 51.5117 250.758 51.8711C250.555 52.2227 250.406 52.6289 250.312 53.0898C250.219 53.543 250.172 54.0273 250.172 54.543ZM264.188 51.0273V61H260.812V48.3203H263.977L264.188 51.0273ZM263.695 54.2148H262.781C262.781 53.2773 262.902 52.4336 263.145 51.6836C263.387 50.9258 263.727 50.2812 264.164 49.75C264.602 49.2109 265.121 48.8008 265.723 48.5195C266.332 48.2305 267.012 48.0859 267.762 48.0859C268.355 48.0859 268.898 48.1719 269.391 48.3438C269.883 48.5156 270.305 48.7891 270.656 49.1641C271.016 49.5391 271.289 50.0352 271.477 50.6523C271.672 51.2695 271.77 52.0234 271.77 52.9141V61H268.371V52.9023C268.371 52.3398 268.293 51.9023 268.137 51.5898C267.98 51.2773 267.75 51.0586 267.445 50.9336C267.148 50.8008 266.781 50.7344 266.344 50.7344C265.891 50.7344 265.496 50.8242 265.16 51.0039C264.832 51.1836 264.559 51.4336 264.34 51.7539C264.129 52.0664 263.969 52.4336 263.859 52.8555C263.75 53.2773 263.695 53.7305 263.695 54.2148ZM278.098 59.5703L281.461 48.3203H285.082L279.984 62.9102C279.875 63.2305 279.727 63.5742 279.539 63.9414C279.359 64.3086 279.113 64.6562 278.801 64.9844C278.496 65.3203 278.109 65.5938 277.641 65.8047C277.18 66.0156 276.613 66.1211 275.941 66.1211C275.621 66.1211 275.359 66.1016 275.156 66.0625C274.953 66.0234 274.711 65.9688 274.43 65.8984V63.4258C274.516 63.4258 274.605 63.4258 274.699 63.4258C274.793 63.4336 274.883 63.4375 274.969 63.4375C275.414 63.4375 275.777 63.3867 276.059 63.2852C276.34 63.1836 276.566 63.0273 276.738 62.8164C276.91 62.6133 277.047 62.3477 277.148 62.0195L278.098 59.5703ZM276.691 48.3203L279.445 57.5078L279.926 61.082L277.629 61.3281L273.07 48.3203H276.691Z" fill="#888888"/>
<path d="M110.062 92.0469L101.742 119H92.9062L105.445 84.875H111.047L110.062 92.0469ZM116.953 119L108.609 92.0469L107.531 84.875H113.203L125.812 119H116.953ZM116.625 106.273V112.625H99.1172V106.273H116.625ZM135.258 115.906L142.055 84.875H146.109L148.312 87.5234L141.07 119H136.594L135.258 115.906ZM133.453 84.875L139.195 116.141L137.719 119H132.539L125.297 84.875H133.453ZM152.039 115.977L157.734 84.875H165.867L158.625 119H153.469L152.039 115.977ZM149.039 84.875L156 116.094L154.594 119H150.117L142.711 87.4766L145.008 84.875H149.039ZM186.68 109.93C186.68 109.398 186.602 108.922 186.445 108.5C186.289 108.062 186 107.656 185.578 107.281C185.156 106.906 184.547 106.531 183.75 106.156C182.969 105.766 181.938 105.359 180.656 104.938C179.156 104.438 177.711 103.875 176.32 103.25C174.93 102.609 173.688 101.867 172.594 101.023C171.5 100.164 170.633 99.1641 169.992 98.0234C169.352 96.8672 169.031 95.5234 169.031 93.9922C169.031 92.5234 169.359 91.2031 170.016 90.0312C170.672 88.8438 171.586 87.8359 172.758 87.0078C173.945 86.1641 175.336 85.5234 176.93 85.0859C178.523 84.6328 180.266 84.4062 182.156 84.4062C184.656 84.4062 186.859 84.8438 188.766 85.7188C190.688 86.5781 192.188 87.8047 193.266 89.3984C194.359 90.9766 194.906 92.8438 194.906 95H186.727C186.727 94.1406 186.547 93.3828 186.188 92.7266C185.844 92.0703 185.32 91.5547 184.617 91.1797C183.914 90.8047 183.031 90.6172 181.969 90.6172C180.938 90.6172 180.07 90.7734 179.367 91.0859C178.664 91.3984 178.133 91.8203 177.773 92.3516C177.414 92.8672 177.234 93.4375 177.234 94.0625C177.234 94.5781 177.375 95.0469 177.656 95.4688C177.953 95.875 178.367 96.2578 178.898 96.6172C179.445 96.9766 180.102 97.3203 180.867 97.6484C181.648 97.9766 182.523 98.2969 183.492 98.6094C185.305 99.1875 186.914 99.8359 188.32 100.555C189.742 101.258 190.938 102.062 191.906 102.969C192.891 103.859 193.633 104.875 194.133 106.016C194.648 107.156 194.906 108.445 194.906 109.883C194.906 111.414 194.609 112.773 194.016 113.961C193.422 115.148 192.57 116.156 191.461 116.984C190.352 117.797 189.023 118.414 187.477 118.836C185.93 119.258 184.203 119.469 182.297 119.469C180.547 119.469 178.82 119.25 177.117 118.812C175.43 118.359 173.898 117.672 172.523 116.75C171.148 115.812 170.047 114.617 169.219 113.164C168.406 111.695 168 109.953 168 107.938H176.25C176.25 108.938 176.383 109.781 176.648 110.469C176.914 111.156 177.305 111.711 177.82 112.133C178.336 112.539 178.969 112.836 179.719 113.023C180.469 113.195 181.328 113.281 182.297 113.281C183.344 113.281 184.188 113.133 184.828 112.836C185.469 112.523 185.938 112.117 186.234 111.617C186.531 111.102 186.68 110.539 186.68 109.93ZM222.188 119H214.617L214.664 112.672H222.188C223.75 112.672 225.07 112.297 226.148 111.547C227.242 110.797 228.07 109.68 228.633 108.195C229.211 106.695 229.5 104.852 229.5 102.664V101.188C229.5 99.5469 229.336 98.1094 229.008 96.875C228.695 95.625 228.227 94.5859 227.602 93.7578C226.977 92.9141 226.195 92.2812 225.258 91.8594C224.336 91.4375 223.273 91.2266 222.07 91.2266H214.477V84.875H222.07C224.383 84.875 226.5 85.2734 228.422 86.0703C230.359 86.8516 232.031 87.9766 233.438 89.4453C234.859 90.8984 235.953 92.625 236.719 94.625C237.5 96.6094 237.891 98.8125 237.891 101.234V102.664C237.891 105.07 237.5 107.273 236.719 109.273C235.953 111.273 234.867 113 233.461 114.453C232.055 115.906 230.391 117.031 228.469 117.828C226.562 118.609 224.469 119 222.188 119ZM219.328 84.875V119H211.102V84.875H219.328ZM254.086 119.469C252.023 119.469 250.18 119.148 248.555 118.508C246.93 117.852 245.555 116.953 244.43 115.812C243.32 114.672 242.469 113.359 241.875 111.875C241.297 110.391 241.008 108.82 241.008 107.164V106.273C241.008 104.414 241.266 102.695 241.781 101.117C242.297 99.5234 243.062 98.1328 244.078 96.9453C245.094 95.7578 246.367 94.8359 247.898 94.1797C249.43 93.5078 251.211 93.1719 253.242 93.1719C255.039 93.1719 256.648 93.4609 258.07 94.0391C259.492 94.6172 260.695 95.4453 261.68 96.5234C262.68 97.6016 263.438 98.9062 263.953 100.438C264.484 101.969 264.75 103.688 264.75 105.594V108.805H244.031V103.859H257.039V103.25C257.055 102.406 256.906 101.688 256.594 101.094C256.297 100.5 255.859 100.047 255.281 99.7344C254.703 99.4219 254 99.2656 253.172 99.2656C252.312 99.2656 251.602 99.4531 251.039 99.8281C250.492 100.203 250.062 100.719 249.75 101.375C249.453 102.016 249.242 102.758 249.117 103.602C248.992 104.445 248.93 105.336 248.93 106.273V107.164C248.93 108.102 249.055 108.953 249.305 109.719C249.57 110.484 249.945 111.141 250.43 111.688C250.93 112.219 251.523 112.633 252.211 112.93C252.914 113.227 253.711 113.375 254.602 113.375C255.68 113.375 256.742 113.172 257.789 112.766C258.836 112.359 259.734 111.688 260.484 110.75L264.07 115.016C263.555 115.75 262.82 116.461 261.867 117.148C260.93 117.836 259.805 118.398 258.492 118.836C257.18 119.258 255.711 119.469 254.086 119.469ZM275.93 98.5156V128.75H268.031V93.6406H275.391L275.93 98.5156ZM291.492 106.016V106.508C291.492 108.352 291.281 110.062 290.859 111.641C290.438 113.219 289.812 114.594 288.984 115.766C288.156 116.938 287.125 117.852 285.891 118.508C284.672 119.148 283.258 119.469 281.648 119.469C280.133 119.469 278.828 119.133 277.734 118.461C276.641 117.789 275.727 116.859 274.992 115.672C274.258 114.484 273.664 113.125 273.211 111.594C272.758 110.062 272.398 108.445 272.133 106.742V106.109C272.398 104.281 272.758 102.586 273.211 101.023C273.664 99.4453 274.258 98.0703 274.992 96.8984C275.727 95.7266 276.633 94.8125 277.711 94.1562C278.805 93.5 280.109 93.1719 281.625 93.1719C283.234 93.1719 284.648 93.4766 285.867 94.0859C287.102 94.6953 288.133 95.5703 288.961 96.7109C289.805 97.8359 290.438 99.1875 290.859 100.766C291.281 102.344 291.492 104.094 291.492 106.016ZM283.594 106.508V106.016C283.594 105.031 283.523 104.133 283.383 103.32C283.242 102.492 283.016 101.773 282.703 101.164C282.406 100.555 282.008 100.086 281.508 99.7578C281.008 99.4297 280.391 99.2656 279.656 99.2656C278.812 99.2656 278.102 99.3984 277.523 99.6641C276.961 99.9141 276.508 100.305 276.164 100.836C275.836 101.352 275.602 102 275.461 102.781C275.336 103.547 275.281 104.445 275.297 105.477V107.398C275.266 108.586 275.383 109.633 275.648 110.539C275.914 111.43 276.375 112.125 277.031 112.625C277.688 113.125 278.578 113.375 279.703 113.375C280.453 113.375 281.078 113.203 281.578 112.859C282.078 112.5 282.477 112.008 282.773 111.383C283.07 110.742 283.281 110.008 283.406 109.18C283.531 108.352 283.594 107.461 283.594 106.508ZM303.352 83V119H295.43V83H303.352ZM307.242 106.578V106.086C307.242 104.227 307.508 102.516 308.039 100.953C308.57 99.375 309.352 98.0078 310.383 96.8516C311.414 95.6953 312.688 94.7969 314.203 94.1562C315.719 93.5 317.469 93.1719 319.453 93.1719C321.453 93.1719 323.211 93.5 324.727 94.1562C326.258 94.7969 327.539 95.6953 328.57 96.8516C329.602 98.0078 330.383 99.375 330.914 100.953C331.445 102.516 331.711 104.227 331.711 106.086V106.578C331.711 108.422 331.445 110.133 330.914 111.711C330.383 113.273 329.602 114.641 328.57 115.812C327.539 116.969 326.266 117.867 324.75 118.508C323.234 119.148 321.484 119.469 319.5 119.469C317.516 119.469 315.758 119.148 314.227 118.508C312.695 117.867 311.414 116.969 310.383 115.812C309.352 114.641 308.57 113.273 308.039 111.711C307.508 110.133 307.242 108.422 307.242 106.578ZM315.141 106.086V106.578C315.141 107.531 315.211 108.422 315.352 109.25C315.492 110.078 315.727 110.805 316.055 111.43C316.383 112.039 316.828 112.516 317.391 112.859C317.953 113.203 318.656 113.375 319.5 113.375C320.328 113.375 321.016 113.203 321.562 112.859C322.125 112.516 322.57 112.039 322.898 111.43C323.227 110.805 323.461 110.078 323.602 109.25C323.742 108.422 323.812 107.531 323.812 106.578V106.086C323.812 105.164 323.742 104.297 323.602 103.484C323.461 102.656 323.227 101.93 322.898 101.305C322.57 100.664 322.125 100.164 321.562 99.8047C321 99.4453 320.297 99.2656 319.453 99.2656C318.625 99.2656 317.93 99.4453 317.367 99.8047C316.82 100.164 316.383 100.664 316.055 101.305C315.727 101.93 315.492 102.656 315.352 103.484C315.211 104.297 315.141 105.164 315.141 106.086ZM342.633 116.023L349.195 93.6406H357.68L347.484 122.773C347.266 123.414 346.977 124.102 346.617 124.836C346.258 125.586 345.766 126.297 345.141 126.969C344.516 127.641 343.711 128.188 342.727 128.609C341.758 129.031 340.555 129.242 339.117 129.242C338.352 129.242 337.789 129.203 337.43 129.125C337.086 129.062 336.555 128.945 335.836 128.773V123.125C336.039 123.125 336.211 123.125 336.352 123.125C336.508 123.125 336.68 123.125 336.867 123.125C337.711 123.125 338.383 123.039 338.883 122.867C339.398 122.695 339.789 122.445 340.055 122.117C340.336 121.789 340.555 121.391 340.711 120.922L342.633 116.023ZM340.969 93.6406L345.961 111.383L346.828 119.75H341.531L332.508 93.6406H340.969ZM367.711 99.0078V119H359.812V93.6406H367.219L367.711 99.0078ZM366.75 105.453L364.945 105.5C364.945 103.719 365.156 102.078 365.578 100.578C366 99.0781 366.625 97.7734 367.453 96.6641C368.281 95.5547 369.297 94.6953 370.5 94.0859C371.719 93.4766 373.125 93.1719 374.719 93.1719C375.828 93.1719 376.836 93.3438 377.742 93.6875C378.648 94.0156 379.43 94.5391 380.086 95.2578C380.742 95.9609 381.242 96.8828 381.586 98.0234C381.945 99.1484 382.125 100.5 382.125 102.078V119H374.227V103.086C374.227 102.008 374.102 101.195 373.852 100.648C373.617 100.102 373.273 99.7344 372.82 99.5469C372.367 99.3594 371.812 99.2656 371.156 99.2656C370.469 99.2656 369.852 99.4219 369.305 99.7344C368.758 100.047 368.289 100.484 367.898 101.047C367.523 101.594 367.234 102.242 367.031 102.992C366.844 103.742 366.75 104.562 366.75 105.453ZM381.234 105.453L379.031 105.5C379.031 103.719 379.227 102.078 379.617 100.578C380.023 99.0781 380.625 97.7734 381.422 96.6641C382.234 95.5547 383.242 94.6953 384.445 94.0859C385.648 93.4766 387.047 93.1719 388.641 93.1719C389.797 93.1719 390.859 93.3438 391.828 93.6875C392.797 94.0312 393.633 94.5859 394.336 95.3516C395.039 96.1172 395.586 97.1328 395.977 98.3984C396.367 99.6484 396.562 101.195 396.562 103.039V119H388.641V103.039C388.641 101.992 388.516 101.203 388.266 100.672C388.031 100.125 387.688 99.7578 387.234 99.5703C386.781 99.3672 386.242 99.2656 385.617 99.2656C384.867 99.2656 384.219 99.4219 383.672 99.7344C383.125 100.047 382.664 100.484 382.289 101.047C381.93 101.594 381.664 102.242 381.492 102.992C381.32 103.742 381.234 104.562 381.234 105.453ZM413.367 119.469C411.305 119.469 409.461 119.148 407.836 118.508C406.211 117.852 404.836 116.953 403.711 115.812C402.602 114.672 401.75 113.359 401.156 111.875C400.578 110.391 400.289 108.82 400.289 107.164V106.273C400.289 104.414 400.547 102.695 401.062 101.117C401.578 99.5234 402.344 98.1328 403.359 96.9453C404.375 95.7578 405.648 94.8359 407.18 94.1797C408.711 93.5078 410.492 93.1719 412.523 93.1719C414.32 93.1719 415.93 93.4609 417.352 94.0391C418.773 94.6172 419.977 95.4453 420.961 96.5234C421.961 97.6016 422.719 98.9062 423.234 100.438C423.766 101.969 424.031 103.688 424.031 105.594V108.805H403.312V103.859H416.32V103.25C416.336 102.406 416.188 101.688 415.875 101.094C415.578 100.5 415.141 100.047 414.562 99.7344C413.984 99.4219 413.281 99.2656 412.453 99.2656C411.594 99.2656 410.883 99.4531 410.32 99.8281C409.773 100.203 409.344 100.719 409.031 101.375C408.734 102.016 408.523 102.758 408.398 103.602C408.273 104.445 408.211 105.336 408.211 106.273V107.164C408.211 108.102 408.336 108.953 408.586 109.719C408.852 110.484 409.227 111.141 409.711 111.688C410.211 112.219 410.805 112.633 411.492 112.93C412.195 113.227 412.992 113.375 413.883 113.375C414.961 113.375 416.023 113.172 417.07 112.766C418.117 112.359 419.016 111.688 419.766 110.75L423.352 115.016C422.836 115.75 422.102 116.461 421.148 117.148C420.211 117.836 419.086 118.398 417.773 118.836C416.461 119.258 414.992 119.469 413.367 119.469ZM435 99.0547V119H427.102V93.6406H434.508L435 99.0547ZM434.062 105.453L432.211 105.5C432.211 103.562 432.445 101.836 432.914 100.32C433.383 98.7891 434.047 97.4922 434.906 96.4297C435.766 95.3672 436.789 94.5625 437.977 94.0156C439.18 93.4531 440.516 93.1719 441.984 93.1719C443.156 93.1719 444.227 93.3438 445.195 93.6875C446.18 94.0312 447.023 94.5859 447.727 95.3516C448.445 96.1172 448.992 97.1328 449.367 98.3984C449.758 99.6484 449.953 101.195 449.953 103.039V119H442.008V103.016C442.008 102 441.867 101.227 441.586 100.695C441.305 100.148 440.898 99.7734 440.367 99.5703C439.836 99.3672 439.188 99.2656 438.422 99.2656C437.609 99.2656 436.922 99.4219 436.359 99.7344C435.797 100.047 435.344 100.484 435 101.047C434.672 101.594 434.43 102.242 434.273 102.992C434.133 103.742 434.062 104.562 434.062 105.453ZM467.695 93.6406V99.125H452.414V93.6406H467.695ZM455.625 87.3359H463.523V110.727C463.523 111.398 463.602 111.922 463.758 112.297C463.914 112.656 464.18 112.914 464.555 113.07C464.945 113.211 465.461 113.281 466.102 113.281C466.555 113.281 466.93 113.273 467.227 113.258C467.523 113.227 467.805 113.188 468.07 113.141V118.789C467.398 119.008 466.695 119.172 465.961 119.281C465.227 119.406 464.445 119.469 463.617 119.469C461.93 119.469 460.484 119.203 459.281 118.672C458.094 118.141 457.188 117.305 456.562 116.164C455.938 115.023 455.625 113.539 455.625 111.711V87.3359Z" fill="black"/>
<path d="M1134 0H1348C1356.28 0 1363 6.71573 1363 15V148C1363 156.284 1356.28 163 1348 163H1134V0Z" fill="#F03D3F"/>
<path d="M1212.5 117.5L1212.5 45.5L1284.5 45.5L1284.5 117.5L1212.5 117.5Z" fill="white" fill-opacity="0.01"/>
<path d="M1221.5 81.5125L1221.5 108.5L1275.5 108.5L1275.5 81.5" stroke="white" stroke-width="7.24" stroke-linecap="round" stroke-linejoin="round"/>
<path d="M1262 68L1248.5 54.5L1235 68" stroke="white" stroke-width="7.24" stroke-linecap="round" stroke-linejoin="round"/>
<path d="M1248.49 93.5L1248.49 54.5" stroke="white" stroke-width="7.24" stroke-linecap="round" stroke-linejoin="round"/>
</svg>
