<svg width="1363" height="163" viewBox="0 0 1363 163" fill="none" xmlns="http://www.w3.org/2000/svg">
<path d="M0 15C0 6.71573 6.71573 0 15 0H37V163H15C6.71573 163 0 156.284 0 148V15Z" fill="#5C5656"/>
<rect width="1097" height="163" transform="translate(37)" fill="#F0F0F0"/>
<path d="M101.906 53.9219L94.3945 51.2383V48.0859L104.602 52.375V54.6367L101.906 53.9219ZM94.3945 56.1719L101.918 53.4297L104.602 52.7852V55.0352L94.3945 59.3242V56.1719ZM119.578 53.5117H115.195L115.172 51.0977H118.852C119.5 51.0977 120.031 51.0156 120.445 50.8516C120.859 50.6797 121.168 50.4336 121.371 50.1133C121.582 49.7852 121.688 49.3867 121.688 48.918C121.688 48.3867 121.586 47.957 121.383 47.6289C121.188 47.3008 120.879 47.0625 120.457 46.9141C120.043 46.7656 119.508 46.6914 118.852 46.6914H116.414V61H112.898V43.9375H118.852C119.844 43.9375 120.73 44.0312 121.512 44.2188C122.301 44.4062 122.969 44.6914 123.516 45.0742C124.062 45.457 124.48 45.9414 124.77 46.5273C125.059 47.1055 125.203 47.793 125.203 48.5898C125.203 49.293 125.043 49.9414 124.723 50.5352C124.41 51.1289 123.914 51.6133 123.234 51.9883C122.562 52.3633 121.684 52.5703 120.598 52.6094L119.578 53.5117ZM119.426 61H114.234L115.605 58.2578H119.426C120.043 58.2578 120.547 58.1602 120.938 57.9648C121.328 57.7617 121.617 57.4883 121.805 57.1445C121.992 56.8008 122.086 56.4062 122.086 55.9609C122.086 55.4609 122 55.0273 121.828 54.6602C121.664 54.293 121.398 54.0117 121.031 53.8164C120.664 53.6133 120.18 53.5117 119.578 53.5117H116.191L116.215 51.0977H120.434L121.242 52.0469C122.281 52.0312 123.117 52.2148 123.75 52.5977C124.391 52.9727 124.855 53.4609 125.145 54.0625C125.441 54.6641 125.59 55.3086 125.59 55.9961C125.59 57.0898 125.352 58.0117 124.875 58.7617C124.398 59.5039 123.699 60.0625 122.777 60.4375C121.863 60.8125 120.746 61 119.426 61ZM127.477 54.7891V54.543C127.477 53.6133 127.609 52.7578 127.875 51.9766C128.141 51.1875 128.527 50.5039 129.035 49.9258C129.543 49.3477 130.168 48.8984 130.91 48.5781C131.652 48.25 132.504 48.0859 133.465 48.0859C134.426 48.0859 135.281 48.25 136.031 48.5781C136.781 48.8984 137.41 49.3477 137.918 49.9258C138.434 50.5039 138.824 51.1875 139.09 51.9766C139.355 52.7578 139.488 53.6133 139.488 54.543V54.7891C139.488 55.7109 139.355 56.5664 139.09 57.3555C138.824 58.1367 138.434 58.8203 137.918 59.4062C137.41 59.9844 136.785 60.4336 136.043 60.7539C135.301 61.0742 134.449 61.2344 133.488 61.2344C132.527 61.2344 131.672 61.0742 130.922 60.7539C130.18 60.4336 129.551 59.9844 129.035 59.4062C128.527 58.8203 128.141 58.1367 127.875 57.3555C127.609 56.5664 127.477 55.7109 127.477 54.7891ZM130.852 54.543V54.7891C130.852 55.3203 130.898 55.8164 130.992 56.2773C131.086 56.7383 131.234 57.1445 131.438 57.4961C131.648 57.8398 131.922 58.1094 132.258 58.3047C132.594 58.5 133.004 58.5977 133.488 58.5977C133.957 58.5977 134.359 58.5 134.695 58.3047C135.031 58.1094 135.301 57.8398 135.504 57.4961C135.707 57.1445 135.855 56.7383 135.949 56.2773C136.051 55.8164 136.102 55.3203 136.102 54.7891V54.543C136.102 54.0273 136.051 53.543 135.949 53.0898C135.855 52.6289 135.703 52.2227 135.492 51.8711C135.289 51.5117 135.02 51.2305 134.684 51.0273C134.348 50.8242 133.941 50.7227 133.465 50.7227C132.988 50.7227 132.582 50.8242 132.246 51.0273C131.918 51.2305 131.648 51.5117 131.438 51.8711C131.234 52.2227 131.086 52.6289 130.992 53.0898C130.898 53.543 130.852 54.0273 130.852 54.543ZM149.062 57.9648V48.3203H152.438V61H149.262L149.062 57.9648ZM149.438 55.3633L150.434 55.3398C150.434 56.1836 150.336 56.9688 150.141 57.6953C149.945 58.4141 149.652 59.0391 149.262 59.5703C148.871 60.0938 148.379 60.5039 147.785 60.8008C147.191 61.0898 146.492 61.2344 145.688 61.2344C145.07 61.2344 144.5 61.1484 143.977 60.9766C143.461 60.7969 143.016 60.5195 142.641 60.1445C142.273 59.7617 141.984 59.2734 141.773 58.6797C141.57 58.0781 141.469 57.3555 141.469 56.5117V48.3203H144.844V56.5352C144.844 56.9102 144.887 57.2266 144.973 57.4844C145.066 57.7422 145.195 57.9531 145.359 58.1172C145.523 58.2812 145.715 58.3984 145.934 58.4688C146.16 58.5391 146.41 58.5742 146.684 58.5742C147.379 58.5742 147.926 58.4336 148.324 58.1523C148.73 57.8711 149.016 57.4883 149.18 57.0039C149.352 56.5117 149.438 55.9648 149.438 55.3633ZM158.32 51.0273V61H154.945V48.3203H158.109L158.32 51.0273ZM157.828 54.2148H156.914C156.914 53.2773 157.035 52.4336 157.277 51.6836C157.52 50.9258 157.859 50.2812 158.297 49.75C158.734 49.2109 159.254 48.8008 159.855 48.5195C160.465 48.2305 161.145 48.0859 161.895 48.0859C162.488 48.0859 163.031 48.1719 163.523 48.3438C164.016 48.5156 164.438 48.7891 164.789 49.1641C165.148 49.5391 165.422 50.0352 165.609 50.6523C165.805 51.2695 165.902 52.0234 165.902 52.9141V61H162.504V52.9023C162.504 52.3398 162.426 51.9023 162.27 51.5898C162.113 51.2773 161.883 51.0586 161.578 50.9336C161.281 50.8008 160.914 50.7344 160.477 50.7344C160.023 50.7344 159.629 50.8242 159.293 51.0039C158.965 51.1836 158.691 51.4336 158.473 51.7539C158.262 52.0664 158.102 52.4336 157.992 52.8555C157.883 53.2773 157.828 53.7305 157.828 54.2148ZM175.957 58.2344V43H179.355V61H176.297L175.957 58.2344ZM167.941 54.8125V54.5664C167.941 53.5977 168.051 52.7188 168.27 51.9297C168.488 51.1328 168.809 50.4492 169.23 49.8789C169.652 49.3086 170.172 48.8672 170.789 48.5547C171.406 48.2422 172.109 48.0859 172.898 48.0859C173.641 48.0859 174.289 48.2422 174.844 48.5547C175.406 48.8672 175.883 49.3125 176.273 49.8906C176.672 50.4609 176.992 51.1367 177.234 51.918C177.477 52.6914 177.652 53.5391 177.762 54.4609V55C177.652 55.8828 177.477 56.7031 177.234 57.4609C176.992 58.2188 176.672 58.8828 176.273 59.4531C175.883 60.0156 175.406 60.4531 174.844 60.7656C174.281 61.0781 173.625 61.2344 172.875 61.2344C172.086 61.2344 171.383 61.0742 170.766 60.7539C170.156 60.4336 169.641 59.9844 169.219 59.4062C168.805 58.8281 168.488 58.1484 168.27 57.3672C168.051 56.5859 167.941 55.7344 167.941 54.8125ZM171.316 54.5664V54.8125C171.316 55.3359 171.355 55.8242 171.434 56.2773C171.52 56.7305 171.656 57.1328 171.844 57.4844C172.039 57.8281 172.289 58.0977 172.594 58.293C172.906 58.4805 173.285 58.5742 173.73 58.5742C174.309 58.5742 174.785 58.4453 175.16 58.1875C175.535 57.9219 175.82 57.5586 176.016 57.0977C176.219 56.6367 176.336 56.1055 176.367 55.5039V53.9688C176.344 53.4766 176.273 53.0352 176.156 52.6445C176.047 52.2461 175.883 51.9062 175.664 51.625C175.453 51.3438 175.188 51.125 174.867 50.9688C174.555 50.8125 174.184 50.7344 173.754 50.7344C173.316 50.7344 172.941 50.8359 172.629 51.0391C172.316 51.2344 172.062 51.5039 171.867 51.8477C171.68 52.1914 171.539 52.5977 171.445 53.0664C171.359 53.5273 171.316 54.0273 171.316 54.5664ZM199.559 50.8867V53.6289H190.652V50.8867H199.559ZM191.695 43.9375V61H188.18V43.9375H191.695ZM202.066 43.9375V61H198.562V43.9375H202.066ZM211.758 58.1406V52.4922C211.758 52.0859 211.691 51.7383 211.559 51.4492C211.426 51.1523 211.219 50.9219 210.938 50.7578C210.664 50.5938 210.309 50.5117 209.871 50.5117C209.496 50.5117 209.172 50.5781 208.898 50.7109C208.625 50.8359 208.414 51.0195 208.266 51.2617C208.117 51.4961 208.043 51.7734 208.043 52.0938H204.668C204.668 51.5547 204.793 51.043 205.043 50.5586C205.293 50.0742 205.656 49.6484 206.133 49.2812C206.609 48.9062 207.176 48.6133 207.832 48.4023C208.496 48.1914 209.238 48.0859 210.059 48.0859C211.043 48.0859 211.918 48.25 212.684 48.5781C213.449 48.9062 214.051 49.3984 214.488 50.0547C214.934 50.7109 215.156 51.5312 215.156 52.5156V57.9414C215.156 58.6367 215.199 59.207 215.285 59.6523C215.371 60.0898 215.496 60.4727 215.66 60.8008V61H212.25C212.086 60.6562 211.961 60.2266 211.875 59.7109C211.797 59.1875 211.758 58.6641 211.758 58.1406ZM212.203 53.2773L212.227 55.1875H210.34C209.895 55.1875 209.508 55.2383 209.18 55.3398C208.852 55.4414 208.582 55.5859 208.371 55.7734C208.16 55.9531 208.004 56.1641 207.902 56.4062C207.809 56.6484 207.762 56.9141 207.762 57.2031C207.762 57.4922 207.828 57.7539 207.961 57.9883C208.094 58.2148 208.285 58.3945 208.535 58.5273C208.785 58.6523 209.078 58.7148 209.414 58.7148C209.922 58.7148 210.363 58.6133 210.738 58.4102C211.113 58.207 211.402 57.957 211.605 57.6602C211.816 57.3633 211.926 57.082 211.934 56.8164L212.824 58.2461C212.699 58.5664 212.527 58.8984 212.309 59.2422C212.098 59.5859 211.828 59.9102 211.5 60.2148C211.172 60.5117 210.777 60.7578 210.316 60.9531C209.855 61.1406 209.309 61.2344 208.676 61.2344C207.871 61.2344 207.141 61.0742 206.484 60.7539C205.836 60.4258 205.32 59.9766 204.938 59.4062C204.562 58.8281 204.375 58.1719 204.375 57.4375C204.375 56.7734 204.5 56.1836 204.75 55.668C205 55.1523 205.367 54.7188 205.852 54.3672C206.344 54.0078 206.957 53.7383 207.691 53.5586C208.426 53.3711 209.277 53.2773 210.246 53.2773H212.203ZM221.133 51.0859V61H217.758V48.3203H220.934L221.133 51.0859ZM224.953 48.2383L224.895 51.3672C224.73 51.3438 224.531 51.3242 224.297 51.3086C224.07 51.2852 223.863 51.2734 223.676 51.2734C223.199 51.2734 222.785 51.3359 222.434 51.4609C222.09 51.5781 221.801 51.7539 221.566 51.9883C221.34 52.2227 221.168 52.5078 221.051 52.8438C220.941 53.1797 220.879 53.5625 220.863 53.9922L220.184 53.7812C220.184 52.9609 220.266 52.207 220.43 51.5195C220.594 50.8242 220.832 50.2188 221.145 49.7031C221.465 49.1875 221.855 48.7891 222.316 48.5078C222.777 48.2266 223.305 48.0859 223.898 48.0859C224.086 48.0859 224.277 48.1016 224.473 48.1328C224.668 48.1562 224.828 48.1914 224.953 48.2383ZM229.922 50.9453V61H226.535V48.3203H229.711L229.922 50.9453ZM229.453 54.2148H228.516C228.516 53.332 228.621 52.5195 228.832 51.7773C229.051 51.0273 229.367 50.3789 229.781 49.832C230.203 49.2773 230.723 48.8477 231.34 48.543C231.957 48.2383 232.672 48.0859 233.484 48.0859C234.047 48.0859 234.562 48.1719 235.031 48.3438C235.5 48.5078 235.902 48.7695 236.238 49.1289C236.582 49.4805 236.848 49.9414 237.035 50.5117C237.223 51.0742 237.316 51.75 237.316 52.5391V61H233.941V52.9141C233.941 52.3359 233.863 51.8906 233.707 51.5781C233.551 51.2656 233.328 51.0469 233.039 50.9219C232.758 50.7969 232.418 50.7344 232.02 50.7344C231.582 50.7344 231.199 50.8242 230.871 51.0039C230.551 51.1836 230.285 51.4336 230.074 51.7539C229.863 52.0664 229.707 52.4336 229.605 52.8555C229.504 53.2773 229.453 53.7305 229.453 54.2148ZM237 53.8281L235.793 53.9805C235.793 53.1523 235.895 52.3828 236.098 51.6719C236.309 50.9609 236.617 50.3359 237.023 49.7969C237.438 49.2578 237.949 48.8398 238.559 48.543C239.168 48.2383 239.871 48.0859 240.668 48.0859C241.277 48.0859 241.832 48.1758 242.332 48.3555C242.832 48.5273 243.258 48.8047 243.609 49.1875C243.969 49.5625 244.242 50.0547 244.43 50.6641C244.625 51.2734 244.723 52.0195 244.723 52.9023V61H241.336V52.9023C241.336 52.3164 241.258 51.8711 241.102 51.5664C240.953 51.2539 240.734 51.0391 240.445 50.9219C240.164 50.7969 239.828 50.7344 239.438 50.7344C239.031 50.7344 238.676 50.8164 238.371 50.9805C238.066 51.1367 237.812 51.3555 237.609 51.6367C237.406 51.918 237.254 52.2461 237.152 52.6211C237.051 52.9883 237 53.3906 237 53.8281ZM246.797 54.7891V54.543C246.797 53.6133 246.93 52.7578 247.195 51.9766C247.461 51.1875 247.848 50.5039 248.355 49.9258C248.863 49.3477 249.488 48.8984 250.23 48.5781C250.973 48.25 251.824 48.0859 252.785 48.0859C253.746 48.0859 254.602 48.25 255.352 48.5781C256.102 48.8984 256.73 49.3477 257.238 49.9258C257.754 50.5039 258.145 51.1875 258.41 51.9766C258.676 52.7578 258.809 53.6133 258.809 54.543V54.7891C258.809 55.7109 258.676 56.5664 258.41 57.3555C258.145 58.1367 257.754 58.8203 257.238 59.4062C256.73 59.9844 256.105 60.4336 255.363 60.7539C254.621 61.0742 253.77 61.2344 252.809 61.2344C251.848 61.2344 250.992 61.0742 250.242 60.7539C249.5 60.4336 248.871 59.9844 248.355 59.4062C247.848 58.8203 247.461 58.1367 247.195 57.3555C246.93 56.5664 246.797 55.7109 246.797 54.7891ZM250.172 54.543V54.7891C250.172 55.3203 250.219 55.8164 250.312 56.2773C250.406 56.7383 250.555 57.1445 250.758 57.4961C250.969 57.8398 251.242 58.1094 251.578 58.3047C251.914 58.5 252.324 58.5977 252.809 58.5977C253.277 58.5977 253.68 58.5 254.016 58.3047C254.352 58.1094 254.621 57.8398 254.824 57.4961C255.027 57.1445 255.176 56.7383 255.27 56.2773C255.371 55.8164 255.422 55.3203 255.422 54.7891V54.543C255.422 54.0273 255.371 53.543 255.27 53.0898C255.176 52.6289 255.023 52.2227 254.812 51.8711C254.609 51.5117 254.34 51.2305 254.004 51.0273C253.668 50.8242 253.262 50.7227 252.785 50.7227C252.309 50.7227 251.902 50.8242 251.566 51.0273C251.238 51.2305 250.969 51.5117 250.758 51.8711C250.555 52.2227 250.406 52.6289 250.312 53.0898C250.219 53.543 250.172 54.0273 250.172 54.543ZM264.188 51.0273V61H260.812V48.3203H263.977L264.188 51.0273ZM263.695 54.2148H262.781C262.781 53.2773 262.902 52.4336 263.145 51.6836C263.387 50.9258 263.727 50.2812 264.164 49.75C264.602 49.2109 265.121 48.8008 265.723 48.5195C266.332 48.2305 267.012 48.0859 267.762 48.0859C268.355 48.0859 268.898 48.1719 269.391 48.3438C269.883 48.5156 270.305 48.7891 270.656 49.1641C271.016 49.5391 271.289 50.0352 271.477 50.6523C271.672 51.2695 271.77 52.0234 271.77 52.9141V61H268.371V52.9023C268.371 52.3398 268.293 51.9023 268.137 51.5898C267.98 51.2773 267.75 51.0586 267.445 50.9336C267.148 50.8008 266.781 50.7344 266.344 50.7344C265.891 50.7344 265.496 50.8242 265.16 51.0039C264.832 51.1836 264.559 51.4336 264.34 51.7539C264.129 52.0664 263.969 52.4336 263.859 52.8555C263.75 53.2773 263.695 53.7305 263.695 54.2148ZM278.098 59.5703L281.461 48.3203H285.082L279.984 62.9102C279.875 63.2305 279.727 63.5742 279.539 63.9414C279.359 64.3086 279.113 64.6562 278.801 64.9844C278.496 65.3203 278.109 65.5938 277.641 65.8047C277.18 66.0156 276.613 66.1211 275.941 66.1211C275.621 66.1211 275.359 66.1016 275.156 66.0625C274.953 66.0234 274.711 65.9688 274.43 65.8984V63.4258C274.516 63.4258 274.605 63.4258 274.699 63.4258C274.793 63.4336 274.883 63.4375 274.969 63.4375C275.414 63.4375 275.777 63.3867 276.059 63.2852C276.34 63.1836 276.566 63.0273 276.738 62.8164C276.91 62.6133 277.047 62.3477 277.148 62.0195L278.098 59.5703ZM276.691 48.3203L279.445 57.5078L279.926 61.082L277.629 61.3281L273.07 48.3203H276.691Z" fill="#888888"/>
<path d="M118.594 98.4219V104.75H101.086V98.4219H118.594ZM103.828 84.875V119H95.6016V84.875H103.828ZM124.125 84.875V119H115.922V84.875H124.125ZM127.992 106.578V106.086C127.992 104.227 128.258 102.516 128.789 100.953C129.32 99.375 130.102 98.0078 131.133 96.8516C132.164 95.6953 133.438 94.7969 134.953 94.1562C136.469 93.5 138.219 93.1719 140.203 93.1719C142.203 93.1719 143.961 93.5 145.477 94.1562C147.008 94.7969 148.289 95.6953 149.32 96.8516C150.352 98.0078 151.133 99.375 151.664 100.953C152.195 102.516 152.461 104.227 152.461 106.086V106.578C152.461 108.422 152.195 110.133 151.664 111.711C151.133 113.273 150.352 114.641 149.32 115.812C148.289 116.969 147.016 117.867 145.5 118.508C143.984 119.148 142.234 119.469 140.25 119.469C138.266 119.469 136.508 119.148 134.977 118.508C133.445 117.867 132.164 116.969 131.133 115.812C130.102 114.641 129.32 113.273 128.789 111.711C128.258 110.133 127.992 108.422 127.992 106.578ZM135.891 106.086V106.578C135.891 107.531 135.961 108.422 136.102 109.25C136.242 110.078 136.477 110.805 136.805 111.43C137.133 112.039 137.578 112.516 138.141 112.859C138.703 113.203 139.406 113.375 140.25 113.375C141.078 113.375 141.766 113.203 142.312 112.859C142.875 112.516 143.32 112.039 143.648 111.43C143.977 110.805 144.211 110.078 144.352 109.25C144.492 108.422 144.562 107.531 144.562 106.578V106.086C144.562 105.164 144.492 104.297 144.352 103.484C144.211 102.656 143.977 101.93 143.648 101.305C143.32 100.664 142.875 100.164 142.312 99.8047C141.75 99.4453 141.047 99.2656 140.203 99.2656C139.375 99.2656 138.68 99.4453 138.117 99.8047C137.57 100.164 137.133 100.664 136.805 101.305C136.477 101.93 136.242 102.656 136.102 103.484C135.961 104.297 135.891 105.164 135.891 106.086ZM163.688 111.453L168.375 93.6406H173.32L171.562 102.57L166.922 119H162.961L163.688 111.453ZM161.836 93.6406L164.742 111.312L165.07 119H160.266L154.266 93.6406H161.836ZM177.492 110.938L180.422 93.6406H187.992L182.039 119H177.234L177.492 110.938ZM173.883 93.6406L178.617 111.406L179.344 119H175.336L170.789 102.617L169.102 93.6406H173.883ZM218.297 84.875V119H210.07V84.875H218.297ZM228.562 84.875V91.2266H200.039V84.875H228.562ZM225.773 106.578V106.086C225.773 104.227 226.039 102.516 226.57 100.953C227.102 99.375 227.883 98.0078 228.914 96.8516C229.945 95.6953 231.219 94.7969 232.734 94.1562C234.25 93.5 236 93.1719 237.984 93.1719C239.984 93.1719 241.742 93.5 243.258 94.1562C244.789 94.7969 246.07 95.6953 247.102 96.8516C248.133 98.0078 248.914 99.375 249.445 100.953C249.977 102.516 250.242 104.227 250.242 106.086V106.578C250.242 108.422 249.977 110.133 249.445 111.711C248.914 113.273 248.133 114.641 247.102 115.812C246.07 116.969 244.797 117.867 243.281 118.508C241.766 119.148 240.016 119.469 238.031 119.469C236.047 119.469 234.289 119.148 232.758 118.508C231.227 117.867 229.945 116.969 228.914 115.812C227.883 114.641 227.102 113.273 226.57 111.711C226.039 110.133 225.773 108.422 225.773 106.578ZM233.672 106.086V106.578C233.672 107.531 233.742 108.422 233.883 109.25C234.023 110.078 234.258 110.805 234.586 111.43C234.914 112.039 235.359 112.516 235.922 112.859C236.484 113.203 237.188 113.375 238.031 113.375C238.859 113.375 239.547 113.203 240.094 112.859C240.656 112.516 241.102 112.039 241.43 111.43C241.758 110.805 241.992 110.078 242.133 109.25C242.273 108.422 242.344 107.531 242.344 106.578V106.086C242.344 105.164 242.273 104.297 242.133 103.484C241.992 102.656 241.758 101.93 241.43 101.305C241.102 100.664 240.656 100.164 240.094 99.8047C239.531 99.4453 238.828 99.2656 237.984 99.2656C237.156 99.2656 236.461 99.4453 235.898 99.8047C235.352 100.164 234.914 100.664 234.586 101.305C234.258 101.93 234.023 102.656 233.883 103.484C233.742 104.297 233.672 105.164 233.672 106.086ZM266.086 84.875H279.516C282.141 84.875 284.422 85.2656 286.359 86.0469C288.297 86.8281 289.789 87.9844 290.836 89.5156C291.898 91.0469 292.43 92.9375 292.43 95.1875C292.43 97.1406 292.125 98.7734 291.516 100.086C290.906 101.398 290.055 102.484 288.961 103.344C287.883 104.188 286.625 104.883 285.188 105.43L282.492 106.953H271.219L271.172 100.602H279.516C280.562 100.602 281.43 100.414 282.117 100.039C282.805 99.6641 283.32 99.1328 283.664 98.4453C284.023 97.7422 284.203 96.9062 284.203 95.9375C284.203 94.9531 284.023 94.1094 283.664 93.4062C283.305 92.7031 282.773 92.1641 282.07 91.7891C281.383 91.4141 280.531 91.2266 279.516 91.2266H274.312V119H266.086V84.875ZM284.766 119L277.219 103.906L285.938 103.859L293.578 118.648V119H284.766ZM311.836 112.836V93.6406H319.758V119H312.352L311.836 112.836ZM312.586 107.68L314.648 107.633C314.648 109.336 314.445 110.914 314.039 112.367C313.633 113.805 313.031 115.055 312.234 116.117C311.453 117.18 310.484 118.008 309.328 118.602C308.188 119.18 306.867 119.469 305.367 119.469C304.117 119.469 302.969 119.297 301.922 118.953C300.891 118.594 300 118.039 299.25 117.289C298.5 116.523 297.914 115.547 297.492 114.359C297.086 113.156 296.883 111.719 296.883 110.047V93.6406H304.781V110.094C304.781 110.656 304.852 111.141 304.992 111.547C305.133 111.953 305.336 112.297 305.602 112.578C305.867 112.844 306.195 113.047 306.586 113.188C306.992 113.312 307.453 113.375 307.969 113.375C309.156 113.375 310.086 113.125 310.758 112.625C311.43 112.125 311.898 111.445 312.164 110.586C312.445 109.727 312.586 108.758 312.586 107.68ZM331.875 99.0547V119H323.977V93.6406H331.383L331.875 99.0547ZM330.938 105.453L329.086 105.5C329.086 103.562 329.32 101.836 329.789 100.32C330.258 98.7891 330.922 97.4922 331.781 96.4297C332.641 95.3672 333.664 94.5625 334.852 94.0156C336.055 93.4531 337.391 93.1719 338.859 93.1719C340.031 93.1719 341.102 93.3438 342.07 93.6875C343.055 94.0312 343.898 94.5859 344.602 95.3516C345.32 96.1172 345.867 97.1328 346.242 98.3984C346.633 99.6484 346.828 101.195 346.828 103.039V119H338.883V103.016C338.883 102 338.742 101.227 338.461 100.695C338.18 100.148 337.773 99.7734 337.242 99.5703C336.711 99.3672 336.062 99.2656 335.297 99.2656C334.484 99.2656 333.797 99.4219 333.234 99.7344C332.672 100.047 332.219 100.484 331.875 101.047C331.547 101.594 331.305 102.242 331.148 102.992C331.008 103.742 330.938 104.562 330.938 105.453ZM363.773 108.195H357.047C357.047 106.82 357.141 105.609 357.328 104.562C357.531 103.5 357.875 102.547 358.359 101.703C358.844 100.859 359.5 100.078 360.328 99.3594C361.062 98.75 361.695 98.1641 362.227 97.6016C362.758 97.0391 363.164 96.4688 363.445 95.8906C363.727 95.3125 363.867 94.6953 363.867 94.0391C363.867 93.2266 363.75 92.5625 363.516 92.0469C363.297 91.5312 362.961 91.1484 362.508 90.8984C362.07 90.6328 361.516 90.5 360.844 90.5C360.297 90.5 359.781 90.6328 359.297 90.8984C358.828 91.1641 358.445 91.5781 358.148 92.1406C357.852 92.6875 357.688 93.4141 357.656 94.3203H349.711C349.758 91.9922 350.273 90.1016 351.258 88.6484C352.258 87.1797 353.586 86.1094 355.242 85.4375C356.914 84.75 358.781 84.4062 360.844 84.4062C363.125 84.4062 365.086 84.7578 366.727 85.4609C368.367 86.1641 369.625 87.2109 370.5 88.6016C371.375 89.9766 371.812 91.6719 371.812 93.6875C371.812 95.0312 371.555 96.2031 371.039 97.2031C370.539 98.1875 369.859 99.1094 369 99.9688C368.156 100.812 367.211 101.719 366.164 102.688C365.258 103.484 364.641 104.297 364.312 105.125C363.984 105.938 363.805 106.961 363.773 108.195ZM356.086 115.32C356.086 114.195 356.492 113.258 357.305 112.508C358.117 111.742 359.172 111.359 360.469 111.359C361.766 111.359 362.82 111.742 363.633 112.508C364.445 113.258 364.852 114.195 364.852 115.32C364.852 116.445 364.445 117.391 363.633 118.156C362.82 118.906 361.766 119.281 360.469 119.281C359.172 119.281 358.117 118.906 357.305 118.156C356.492 117.391 356.086 116.445 356.086 115.32Z" fill="black"/>
<path d="M1134 0H1348C1356.28 0 1363 6.71573 1363 15V148C1363 156.284 1356.28 163 1348 163H1134V0Z" fill="#F03D3F"/>
<path d="M1260.62 78.8078C1263.81 78.8078 1266.93 79.7552 1269.59 81.5302C1272.25 83.3052 1274.32 85.8281 1275.54 88.7798C1276.76 91.7315 1277.08 94.9795 1276.46 98.1131C1275.84 101.247 1274.3 104.125 1272.04 106.384C1269.78 108.643 1266.9 110.182 1263.77 110.805C1260.63 111.428 1257.39 111.108 1254.43 109.886C1251.48 108.663 1248.96 106.593 1247.18 103.936C1245.41 101.28 1244.46 98.1565 1244.46 94.9616C1244.46 90.6774 1246.16 86.5686 1249.19 83.5392C1252.22 80.5097 1256.33 78.8078 1260.62 78.8078ZM1260.62 73.4232C1256.36 73.4232 1252.19 74.6864 1248.65 77.0531C1245.11 79.4198 1242.35 82.7836 1240.72 86.7192C1239.09 90.6549 1238.66 94.9855 1239.49 99.1636C1240.32 103.342 1242.37 107.179 1245.39 110.192C1248.4 113.204 1252.24 115.255 1256.41 116.086C1260.59 116.917 1264.92 116.491 1268.86 114.861C1272.79 113.23 1276.16 110.47 1278.52 106.928C1280.89 103.386 1282.15 99.2215 1282.15 94.9616C1282.15 89.2493 1279.88 83.7709 1275.85 79.7317C1271.81 75.6924 1266.33 73.4232 1260.62 73.4232Z" fill="white"/>
<path d="M1274.08 46.4999H1220.23C1218.8 46.4999 1217.43 47.0672 1216.42 48.0771C1215.41 49.0869 1214.85 50.4565 1214.85 51.8845V105.731C1214.85 107.159 1215.41 108.528 1216.42 109.538C1217.43 110.548 1218.8 111.115 1220.23 111.115H1231V105.731H1220.23V68.0383H1279.46V51.8845C1279.46 50.4565 1278.89 49.0869 1277.88 48.0771C1276.87 47.0672 1275.5 46.4999 1274.08 46.4999ZM1220.23 62.6537V51.8845H1274.08V62.6537H1220.23Z" fill="white"/>
<path d="M1255.23 86.8848V103.039L1268.69 94.9617L1255.23 86.8848Z" fill="white"/>
</svg>
