<svg width="1363" height="297" viewBox="0 0 1363 297" fill="none" xmlns="http://www.w3.org/2000/svg">
<path d="M0 15C0 6.71573 6.71573 0 15 0H37V297H15C6.71573 297 0 290.284 0 282V15Z" fill="#F03D3F"/>
<path d="M37 0H1066V297H37V0Z" fill="#F0F0F0"/>
<path d="M97.6934 49.4062H102.158L108.732 68.1973L115.307 49.4062H119.771L110.525 75H106.939L97.6934 49.4062ZM95.2852 49.4062H99.7324L100.541 67.7227V75H95.2852V49.4062ZM117.732 49.4062H122.197V75H116.924V67.7227L117.732 49.4062ZM136.77 70.7109V62.2383C136.77 61.6289 136.67 61.1074 136.471 60.6738C136.271 60.2285 135.961 59.8828 135.539 59.6367C135.129 59.3906 134.596 59.2676 133.939 59.2676C133.377 59.2676 132.891 59.3672 132.48 59.5664C132.07 59.7539 131.754 60.0293 131.531 60.3926C131.309 60.7441 131.197 61.1602 131.197 61.6406H126.135C126.135 60.832 126.322 60.0645 126.697 59.3379C127.072 58.6113 127.617 57.9727 128.332 57.4219C129.047 56.8594 129.896 56.4199 130.881 56.1035C131.877 55.7871 132.99 55.6289 134.221 55.6289C135.697 55.6289 137.01 55.875 138.158 56.3672C139.307 56.8594 140.209 57.5977 140.865 58.582C141.533 59.5664 141.867 60.7969 141.867 62.2734V70.4121C141.867 71.4551 141.932 72.3105 142.061 72.9785C142.189 73.6348 142.377 74.209 142.623 74.7012V75H137.508C137.262 74.4844 137.074 73.8398 136.945 73.0664C136.828 72.2812 136.77 71.4961 136.77 70.7109ZM137.438 63.416L137.473 66.2812H134.643C133.975 66.2812 133.395 66.3574 132.902 66.5098C132.41 66.6621 132.006 66.8789 131.689 67.1602C131.373 67.4297 131.139 67.7461 130.986 68.1094C130.846 68.4727 130.775 68.8711 130.775 69.3047C130.775 69.7383 130.875 70.1309 131.074 70.4824C131.273 70.8223 131.561 71.0918 131.936 71.291C132.311 71.4785 132.75 71.5723 133.254 71.5723C134.016 71.5723 134.678 71.4199 135.24 71.1152C135.803 70.8105 136.236 70.4355 136.541 69.9902C136.857 69.5449 137.021 69.123 137.033 68.7246L138.369 70.8691C138.182 71.3496 137.924 71.8477 137.596 72.3633C137.279 72.8789 136.875 73.3652 136.383 73.8223C135.891 74.2676 135.299 74.6367 134.607 74.9297C133.916 75.2109 133.096 75.3516 132.146 75.3516C130.939 75.3516 129.844 75.1113 128.859 74.6309C127.887 74.1387 127.113 73.4648 126.539 72.6094C125.977 71.7422 125.695 70.7578 125.695 69.6562C125.695 68.6602 125.883 67.7754 126.258 67.002C126.633 66.2285 127.184 65.5781 127.91 65.0508C128.648 64.5117 129.568 64.1074 130.67 63.8379C131.771 63.5566 133.049 63.416 134.502 63.416H137.438ZM150.832 60.1289V75H145.77V55.9805H150.533L150.832 60.1289ZM156.562 55.8574L156.475 60.5508C156.229 60.5156 155.93 60.4863 155.578 60.4629C155.238 60.4277 154.928 60.4102 154.646 60.4102C153.932 60.4102 153.311 60.5039 152.783 60.6914C152.268 60.8672 151.834 61.1309 151.482 61.4824C151.143 61.834 150.885 62.2617 150.709 62.7656C150.545 63.2695 150.451 63.8438 150.428 64.4883L149.408 64.1719C149.408 62.9414 149.531 61.8105 149.777 60.7793C150.023 59.7363 150.381 58.8281 150.85 58.0547C151.33 57.2812 151.916 56.6836 152.607 56.2617C153.299 55.8398 154.09 55.6289 154.98 55.6289C155.262 55.6289 155.549 55.6523 155.842 55.6992C156.135 55.7344 156.375 55.7871 156.562 55.8574ZM166.459 71.3965C167.08 71.3965 167.631 71.2793 168.111 71.0449C168.592 70.7988 168.967 70.459 169.236 70.0254C169.518 69.5801 169.664 69.0586 169.676 68.4609H174.439C174.428 69.7969 174.07 70.9863 173.367 72.0293C172.664 73.0605 171.721 73.875 170.537 74.4727C169.354 75.0586 168.029 75.3516 166.564 75.3516C165.088 75.3516 163.799 75.1055 162.697 74.6133C161.607 74.1211 160.699 73.4414 159.973 72.5742C159.246 71.6953 158.701 70.6758 158.338 69.5156C157.975 68.3438 157.793 67.0898 157.793 65.7539V65.2441C157.793 63.8965 157.975 62.6426 158.338 61.4824C158.701 60.3105 159.246 59.291 159.973 58.4238C160.699 57.5449 161.607 56.8594 162.697 56.3672C163.787 55.875 165.064 55.6289 166.529 55.6289C168.088 55.6289 169.453 55.9277 170.625 56.5254C171.809 57.123 172.734 57.9785 173.402 59.0918C174.082 60.1934 174.428 61.5 174.439 63.0117H169.676C169.664 62.3789 169.529 61.8047 169.271 61.2891C169.025 60.7734 168.662 60.3633 168.182 60.0586C167.713 59.7422 167.133 59.584 166.441 59.584C165.703 59.584 165.1 59.7422 164.631 60.0586C164.162 60.3633 163.799 60.7852 163.541 61.3242C163.283 61.8516 163.102 62.4551 162.996 63.1348C162.902 63.8027 162.855 64.5059 162.855 65.2441V65.7539C162.855 66.4922 162.902 67.2012 162.996 67.8809C163.09 68.5605 163.266 69.1641 163.523 69.6914C163.793 70.2188 164.162 70.6348 164.631 70.9395C165.1 71.2441 165.709 71.3965 166.459 71.3965ZM194.514 75H188.941L188.977 70.8867H194.514C195.896 70.8867 197.062 70.5762 198.012 69.9551C198.961 69.3223 199.676 68.4023 200.156 67.1953C200.648 65.9883 200.895 64.5293 200.895 62.8184V61.5703C200.895 60.2578 200.754 59.1035 200.473 58.1074C200.203 57.1113 199.799 56.2734 199.26 55.5938C198.721 54.9141 198.059 54.4043 197.273 54.0645C196.488 53.7129 195.586 53.5371 194.566 53.5371H188.836V49.4062H194.566C196.277 49.4062 197.842 49.6992 199.26 50.2852C200.689 50.8594 201.926 51.6855 202.969 52.7637C204.012 53.8418 204.814 55.1309 205.377 56.6309C205.951 58.1191 206.238 59.7773 206.238 61.6055V62.8184C206.238 64.6348 205.951 66.293 205.377 67.793C204.814 69.293 204.012 70.582 202.969 71.6602C201.938 72.7266 200.701 73.5527 199.26 74.1387C197.83 74.7129 196.248 75 194.514 75ZM191.93 49.4062V75H186.656V49.4062H191.93ZM220.02 70.7109V62.2383C220.02 61.6289 219.92 61.1074 219.721 60.6738C219.521 60.2285 219.211 59.8828 218.789 59.6367C218.379 59.3906 217.846 59.2676 217.189 59.2676C216.627 59.2676 216.141 59.3672 215.73 59.5664C215.32 59.7539 215.004 60.0293 214.781 60.3926C214.559 60.7441 214.447 61.1602 214.447 61.6406H209.385C209.385 60.832 209.572 60.0645 209.947 59.3379C210.322 58.6113 210.867 57.9727 211.582 57.4219C212.297 56.8594 213.146 56.4199 214.131 56.1035C215.127 55.7871 216.24 55.6289 217.471 55.6289C218.947 55.6289 220.26 55.875 221.408 56.3672C222.557 56.8594 223.459 57.5977 224.115 58.582C224.783 59.5664 225.117 60.7969 225.117 62.2734V70.4121C225.117 71.4551 225.182 72.3105 225.311 72.9785C225.439 73.6348 225.627 74.209 225.873 74.7012V75H220.758C220.512 74.4844 220.324 73.8398 220.195 73.0664C220.078 72.2812 220.02 71.4961 220.02 70.7109ZM220.688 63.416L220.723 66.2812H217.893C217.225 66.2812 216.645 66.3574 216.152 66.5098C215.66 66.6621 215.256 66.8789 214.939 67.1602C214.623 67.4297 214.389 67.7461 214.236 68.1094C214.096 68.4727 214.025 68.8711 214.025 69.3047C214.025 69.7383 214.125 70.1309 214.324 70.4824C214.523 70.8223 214.811 71.0918 215.186 71.291C215.561 71.4785 216 71.5723 216.504 71.5723C217.266 71.5723 217.928 71.4199 218.49 71.1152C219.053 70.8105 219.486 70.4355 219.791 69.9902C220.107 69.5449 220.271 69.123 220.283 68.7246L221.619 70.8691C221.432 71.3496 221.174 71.8477 220.846 72.3633C220.529 72.8789 220.125 73.3652 219.633 73.8223C219.141 74.2676 218.549 74.6367 217.857 74.9297C217.166 75.2109 216.346 75.3516 215.396 75.3516C214.189 75.3516 213.094 75.1113 212.109 74.6309C211.137 74.1387 210.363 73.4648 209.789 72.6094C209.227 71.7422 208.945 70.7578 208.945 69.6562C208.945 68.6602 209.133 67.7754 209.508 67.002C209.883 66.2285 210.434 65.5781 211.16 65.0508C211.898 64.5117 212.818 64.1074 213.92 63.8379C215.021 63.5566 216.299 63.416 217.752 63.416H220.688ZM241.061 55.9805H245.648V74.3672C245.648 76.1016 245.262 77.5723 244.488 78.7793C243.727 79.998 242.66 80.918 241.289 81.5391C239.918 82.1719 238.324 82.4883 236.508 82.4883C235.711 82.4883 234.867 82.3828 233.977 82.1719C233.098 81.9609 232.254 81.6328 231.445 81.1875C230.648 80.7422 229.98 80.1797 229.441 79.5L231.674 76.5117C232.26 77.1914 232.939 77.7188 233.713 78.0938C234.486 78.4805 235.342 78.6738 236.279 78.6738C237.193 78.6738 237.967 78.5039 238.6 78.1641C239.232 77.8359 239.719 77.3496 240.059 76.7051C240.398 76.0723 240.568 75.3047 240.568 74.4023V60.375L241.061 55.9805ZM228.264 65.7188V65.3496C228.264 63.8965 228.439 62.5781 228.791 61.3945C229.154 60.1992 229.664 59.1738 230.32 58.3184C230.988 57.4629 231.797 56.8008 232.746 56.332C233.695 55.8633 234.768 55.6289 235.963 55.6289C237.229 55.6289 238.289 55.8633 239.145 56.332C240 56.8008 240.703 57.4688 241.254 58.3359C241.805 59.1914 242.232 60.2051 242.537 61.377C242.854 62.5371 243.1 63.8086 243.275 65.1914V66C243.1 67.3242 242.836 68.5547 242.484 69.6914C242.133 70.8281 241.67 71.8242 241.096 72.6797C240.521 73.5234 239.807 74.1797 238.951 74.6484C238.107 75.1172 237.1 75.3516 235.928 75.3516C234.756 75.3516 233.695 75.1113 232.746 74.6309C231.809 74.1504 231.006 73.4766 230.338 72.6094C229.67 71.7422 229.154 70.7227 228.791 69.5508C228.439 68.3789 228.264 67.1016 228.264 65.7188ZM233.326 65.3496V65.7188C233.326 66.5039 233.402 67.2363 233.555 67.916C233.707 68.5957 233.941 69.1992 234.258 69.7266C234.586 70.2422 234.99 70.6465 235.471 70.9395C235.963 71.2207 236.543 71.3613 237.211 71.3613C238.137 71.3613 238.893 71.168 239.479 70.7812C240.064 70.3828 240.504 69.8379 240.797 69.1465C241.09 68.4551 241.26 67.6582 241.307 66.7559V64.4531C241.283 63.7148 241.184 63.0527 241.008 62.4668C240.832 61.8691 240.586 61.3594 240.27 60.9375C239.953 60.5156 239.543 60.1875 239.039 59.9531C238.535 59.7188 237.938 59.6016 237.246 59.6016C236.578 59.6016 235.998 59.7539 235.506 60.0586C235.025 60.3516 234.621 60.7559 234.293 61.2715C233.977 61.7871 233.736 62.3965 233.572 63.0996C233.408 63.791 233.326 64.541 233.326 65.3496ZM254.525 48V75H249.463V48H254.525ZM253.805 64.8223H252.416C252.428 63.498 252.604 62.2793 252.943 61.166C253.283 60.041 253.77 59.0684 254.402 58.248C255.035 57.416 255.791 56.7715 256.67 56.3145C257.561 55.8574 258.545 55.6289 259.623 55.6289C260.561 55.6289 261.41 55.7637 262.172 56.0332C262.945 56.291 263.607 56.7129 264.158 57.2988C264.721 57.873 265.154 58.6289 265.459 59.5664C265.764 60.5039 265.916 61.6406 265.916 62.9766V75H260.818V62.9414C260.818 62.0977 260.695 61.4355 260.449 60.9551C260.215 60.4629 259.869 60.1172 259.412 59.918C258.967 59.707 258.416 59.6016 257.76 59.6016C257.033 59.6016 256.412 59.7363 255.896 60.0059C255.393 60.2754 254.988 60.6504 254.684 61.1309C254.379 61.5996 254.156 62.1504 254.016 62.7832C253.875 63.416 253.805 64.0957 253.805 64.8223ZM278.52 75.3516C277.043 75.3516 275.719 75.1172 274.547 74.6484C273.375 74.168 272.379 73.5059 271.559 72.6621C270.75 71.8184 270.129 70.8398 269.695 69.7266C269.262 68.6016 269.045 67.4062 269.045 66.1406V65.4375C269.045 63.9961 269.25 62.6777 269.66 61.4824C270.07 60.2871 270.656 59.25 271.418 58.3711C272.191 57.4922 273.129 56.8184 274.23 56.3496C275.332 55.8691 276.574 55.6289 277.957 55.6289C279.305 55.6289 280.5 55.8516 281.543 56.2969C282.586 56.7422 283.459 57.375 284.162 58.1953C284.877 59.0156 285.416 60 285.779 61.1484C286.143 62.2852 286.324 63.5508 286.324 64.9453V67.0547H271.207V63.6797H281.35V63.293C281.35 62.5898 281.221 61.9629 280.963 61.4121C280.717 60.8496 280.342 60.4043 279.838 60.0762C279.334 59.748 278.689 59.584 277.904 59.584C277.236 59.584 276.662 59.7305 276.182 60.0234C275.701 60.3164 275.309 60.7266 275.004 61.2539C274.711 61.7812 274.488 62.4023 274.336 63.1172C274.195 63.8203 274.125 64.5938 274.125 65.4375V66.1406C274.125 66.9023 274.23 67.6055 274.441 68.25C274.664 68.8945 274.975 69.4512 275.373 69.9199C275.783 70.3887 276.275 70.752 276.85 71.0098C277.436 71.2676 278.098 71.3965 278.836 71.3965C279.75 71.3965 280.6 71.2207 281.385 70.8691C282.182 70.5059 282.867 69.9609 283.441 69.2344L285.902 71.9062C285.504 72.4805 284.959 73.0312 284.268 73.5586C283.588 74.0859 282.768 74.5195 281.807 74.8594C280.846 75.1875 279.75 75.3516 278.52 75.3516ZM294.27 60.1289V75H289.207V55.9805H293.971L294.27 60.1289ZM300 55.8574L299.912 60.5508C299.666 60.5156 299.367 60.4863 299.016 60.4629C298.676 60.4277 298.365 60.4102 298.084 60.4102C297.369 60.4102 296.748 60.5039 296.221 60.6914C295.705 60.8672 295.271 61.1309 294.92 61.4824C294.58 61.834 294.322 62.2617 294.146 62.7656C293.982 63.2695 293.889 63.8438 293.865 64.4883L292.846 64.1719C292.846 62.9414 292.969 61.8105 293.215 60.7793C293.461 59.7363 293.818 58.8281 294.287 58.0547C294.768 57.2812 295.354 56.6836 296.045 56.2617C296.736 55.8398 297.527 55.6289 298.418 55.6289C298.699 55.6289 298.986 55.6523 299.279 55.6992C299.572 55.7344 299.812 55.7871 300 55.8574Z" fill="#888888"/>
<path d="M112.277 123.074H102.023L101.969 116.785H110.281C111.776 116.785 112.97 116.621 113.863 116.293C114.757 115.947 115.404 115.445 115.805 114.789C116.224 114.133 116.434 113.312 116.434 112.328C116.434 111.198 116.224 110.286 115.805 109.594C115.385 108.901 114.72 108.4 113.809 108.09C112.915 107.762 111.758 107.598 110.336 107.598H105.633V140H96.0352V100.188H110.336C112.797 100.188 114.993 100.415 116.926 100.871C118.858 101.309 120.499 101.983 121.848 102.895C123.215 103.806 124.254 104.954 124.965 106.34C125.676 107.707 126.031 109.32 126.031 111.18C126.031 112.802 125.685 114.324 124.992 115.746C124.299 117.168 123.142 118.326 121.52 119.219C119.915 120.094 117.719 120.549 114.93 120.586L112.277 123.074ZM111.895 140H99.6992L102.98 132.617H111.895C113.207 132.617 114.255 132.417 115.039 132.016C115.841 131.596 116.415 131.049 116.762 130.375C117.126 129.682 117.309 128.917 117.309 128.078C117.309 127.057 117.135 126.173 116.789 125.426C116.461 124.678 115.932 124.104 115.203 123.703C114.474 123.284 113.499 123.074 112.277 123.074H104.211L104.266 116.785H113.918L116.16 119.301C118.822 119.191 120.927 119.565 122.477 120.422C124.044 121.279 125.165 122.409 125.84 123.812C126.514 125.216 126.852 126.684 126.852 128.215C126.852 130.822 126.286 133 125.156 134.75C124.044 136.5 122.376 137.812 120.152 138.688C117.928 139.562 115.176 140 111.895 140ZM130.598 125.508V124.934C130.598 122.764 130.908 120.768 131.527 118.945C132.147 117.104 133.059 115.509 134.262 114.16C135.465 112.811 136.951 111.763 138.719 111.016C140.487 110.25 142.529 109.867 144.844 109.867C147.177 109.867 149.228 110.25 150.996 111.016C152.783 111.763 154.277 112.811 155.48 114.16C156.684 115.509 157.595 117.104 158.215 118.945C158.835 120.768 159.145 122.764 159.145 124.934V125.508C159.145 127.659 158.835 129.655 158.215 131.496C157.595 133.319 156.684 134.914 155.48 136.281C154.277 137.63 152.792 138.678 151.023 139.426C149.255 140.173 147.214 140.547 144.898 140.547C142.583 140.547 140.533 140.173 138.746 139.426C136.96 138.678 135.465 137.63 134.262 136.281C133.059 134.914 132.147 133.319 131.527 131.496C130.908 129.655 130.598 127.659 130.598 125.508ZM139.812 124.934V125.508C139.812 126.62 139.895 127.659 140.059 128.625C140.223 129.591 140.496 130.439 140.879 131.168C141.262 131.879 141.781 132.435 142.438 132.836C143.094 133.237 143.914 133.438 144.898 133.438C145.865 133.438 146.667 133.237 147.305 132.836C147.961 132.435 148.48 131.879 148.863 131.168C149.246 130.439 149.52 129.591 149.684 128.625C149.848 127.659 149.93 126.62 149.93 125.508V124.934C149.93 123.858 149.848 122.846 149.684 121.898C149.52 120.932 149.246 120.085 148.863 119.355C148.48 118.608 147.961 118.025 147.305 117.605C146.648 117.186 145.828 116.977 144.844 116.977C143.878 116.977 143.066 117.186 142.41 117.605C141.772 118.025 141.262 118.608 140.879 119.355C140.496 120.085 140.223 120.932 140.059 121.898C139.895 122.846 139.812 123.858 139.812 124.934ZM180.527 132.809V110.414H189.77V140H181.129L180.527 132.809ZM181.402 126.793L183.809 126.738C183.809 128.725 183.572 130.566 183.098 132.262C182.624 133.939 181.922 135.397 180.992 136.637C180.081 137.876 178.951 138.842 177.602 139.535C176.271 140.21 174.73 140.547 172.98 140.547C171.522 140.547 170.182 140.346 168.961 139.945C167.758 139.526 166.719 138.879 165.844 138.004C164.969 137.111 164.285 135.971 163.793 134.586C163.319 133.182 163.082 131.505 163.082 129.555V110.414H172.297V129.609C172.297 130.266 172.379 130.831 172.543 131.305C172.707 131.779 172.944 132.18 173.254 132.508C173.564 132.818 173.947 133.055 174.402 133.219C174.876 133.365 175.414 133.438 176.016 133.438C177.401 133.438 178.486 133.146 179.27 132.562C180.053 131.979 180.6 131.186 180.91 130.184C181.238 129.181 181.402 128.051 181.402 126.793ZM203.906 116.73V140H194.691V110.414H203.332L203.906 116.73ZM202.812 124.195L200.652 124.25C200.652 121.99 200.926 119.975 201.473 118.207C202.02 116.421 202.794 114.908 203.797 113.668C204.799 112.428 205.993 111.49 207.379 110.852C208.783 110.195 210.341 109.867 212.055 109.867C213.422 109.867 214.671 110.068 215.801 110.469C216.949 110.87 217.934 111.517 218.754 112.41C219.592 113.303 220.23 114.488 220.668 115.965C221.124 117.423 221.352 119.228 221.352 121.379V140H212.082V121.352C212.082 120.167 211.918 119.264 211.59 118.645C211.262 118.007 210.788 117.569 210.168 117.332C209.548 117.095 208.792 116.977 207.898 116.977C206.951 116.977 206.148 117.159 205.492 117.523C204.836 117.888 204.307 118.398 203.906 119.055C203.523 119.693 203.241 120.449 203.059 121.324C202.895 122.199 202.812 123.156 202.812 124.195ZM243.473 133.219V98H252.742V140H244.43L243.473 133.219ZM225.316 125.562V124.988C225.316 122.746 225.562 120.704 226.055 118.863C226.547 117.004 227.276 115.409 228.242 114.078C229.208 112.729 230.411 111.69 231.852 110.961C233.292 110.232 234.951 109.867 236.828 109.867C238.505 109.867 239.973 110.259 241.23 111.043C242.488 111.809 243.564 112.884 244.457 114.27C245.35 115.655 246.079 117.277 246.645 119.137C247.21 120.978 247.638 122.965 247.93 125.098V125.781C247.638 127.786 247.21 129.682 246.645 131.469C246.079 133.237 245.35 134.805 244.457 136.172C243.564 137.539 242.479 138.615 241.203 139.398C239.945 140.164 238.469 140.547 236.773 140.547C234.896 140.547 233.237 140.173 231.797 139.426C230.375 138.678 229.181 137.63 228.215 136.281C227.267 134.932 226.547 133.346 226.055 131.523C225.562 129.701 225.316 127.714 225.316 125.562ZM234.531 124.988V125.562C234.531 126.674 234.604 127.704 234.75 128.652C234.896 129.6 235.142 130.439 235.488 131.168C235.853 131.879 236.327 132.435 236.91 132.836C237.512 133.237 238.25 133.438 239.125 133.438C240.31 133.438 241.285 133.155 242.051 132.59C242.835 132.025 243.409 131.223 243.773 130.184C244.156 129.145 244.32 127.923 244.266 126.52V124.359C244.302 123.156 244.22 122.099 244.02 121.188C243.819 120.258 243.5 119.483 243.062 118.863C242.643 118.243 242.105 117.779 241.449 117.469C240.811 117.141 240.055 116.977 239.18 116.977C238.323 116.977 237.594 117.177 236.992 117.578C236.409 117.979 235.935 118.544 235.57 119.273C235.206 119.984 234.941 120.832 234.777 121.816C234.613 122.783 234.531 123.84 234.531 124.988ZM299.172 115.992V123.375H278.746V115.992H299.172ZM281.945 100.188V140H272.348V100.188H281.945ZM305.625 100.188V140H296.055V100.188H305.625ZM326.652 132.562V120.367C326.652 119.529 326.534 118.809 326.297 118.207C326.06 117.605 325.686 117.141 325.176 116.812C324.665 116.466 323.982 116.293 323.125 116.293C322.432 116.293 321.84 116.411 321.348 116.648C320.855 116.885 320.482 117.241 320.227 117.715C319.971 118.189 319.844 118.79 319.844 119.52H310.629C310.629 118.152 310.93 116.885 311.531 115.719C312.151 114.534 313.026 113.504 314.156 112.629C315.305 111.754 316.672 111.079 318.258 110.605C319.862 110.113 321.648 109.867 323.617 109.867C325.969 109.867 328.065 110.259 329.906 111.043C331.766 111.827 333.233 113.003 334.309 114.57C335.384 116.12 335.922 118.07 335.922 120.422V132.535C335.922 134.467 336.031 135.935 336.25 136.938C336.469 137.922 336.779 138.788 337.18 139.535V140H327.938C327.5 139.089 327.172 137.977 326.953 136.664C326.753 135.333 326.652 133.966 326.652 132.562ZM327.773 121.926L327.828 126.848H323.754C322.897 126.848 322.168 126.966 321.566 127.203C320.983 127.44 320.509 127.768 320.145 128.188C319.798 128.589 319.543 129.044 319.379 129.555C319.233 130.065 319.16 130.603 319.16 131.168C319.16 131.715 319.288 132.207 319.543 132.645C319.816 133.064 320.181 133.392 320.637 133.629C321.092 133.866 321.603 133.984 322.168 133.984C323.189 133.984 324.055 133.793 324.766 133.41C325.495 133.009 326.051 132.526 326.434 131.961C326.816 131.396 327.008 130.867 327.008 130.375L329.031 134.148C328.667 134.878 328.247 135.616 327.773 136.363C327.318 137.111 326.743 137.803 326.051 138.441C325.376 139.061 324.547 139.572 323.562 139.973C322.578 140.355 321.384 140.547 319.98 140.547C318.158 140.547 316.48 140.173 314.949 139.426C313.436 138.678 312.224 137.639 311.312 136.309C310.401 134.96 309.945 133.41 309.945 131.66C309.945 130.129 310.219 128.762 310.766 127.559C311.331 126.355 312.178 125.335 313.309 124.496C314.439 123.658 315.879 123.02 317.629 122.582C319.379 122.145 321.439 121.926 323.809 121.926H327.773ZM350.332 117.742V140H341.117V110.414H349.73L350.332 117.742ZM359.082 110.195L358.918 118.754C358.553 118.717 358.061 118.672 357.441 118.617C356.822 118.562 356.302 118.535 355.883 118.535C354.807 118.535 353.878 118.663 353.094 118.918C352.328 119.155 351.69 119.52 351.18 120.012C350.688 120.486 350.323 121.087 350.086 121.816C349.867 122.546 349.767 123.393 349.785 124.359L348.117 123.266C348.117 121.279 348.309 119.474 348.691 117.852C349.092 116.211 349.658 114.798 350.387 113.613C351.116 112.41 352 111.49 353.039 110.852C354.078 110.195 355.245 109.867 356.539 109.867C356.995 109.867 357.441 109.895 357.879 109.949C358.335 110.004 358.736 110.086 359.082 110.195ZM371.551 116.676V140H362.336V110.414H370.977L371.551 116.676ZM370.43 124.195L368.324 124.25C368.324 122.172 368.57 120.258 369.062 118.508C369.555 116.758 370.284 115.236 371.25 113.941C372.216 112.647 373.401 111.645 374.805 110.934C376.227 110.223 377.867 109.867 379.727 109.867C381.021 109.867 382.197 110.068 383.254 110.469C384.311 110.852 385.223 111.462 385.988 112.301C386.754 113.121 387.337 114.197 387.738 115.527C388.158 116.84 388.367 118.417 388.367 120.258V140H379.152V121.434C379.152 120.176 379.007 119.228 378.715 118.59C378.441 117.952 378.04 117.523 377.512 117.305C376.983 117.086 376.336 116.977 375.57 116.977C374.768 116.977 374.048 117.159 373.41 117.523C372.772 117.888 372.225 118.398 371.77 119.055C371.332 119.693 370.995 120.449 370.758 121.324C370.539 122.199 370.43 123.156 370.43 124.195ZM387.328 124.195L384.758 124.25C384.758 122.172 384.986 120.258 385.441 118.508C385.915 116.758 386.617 115.236 387.547 113.941C388.495 112.647 389.671 111.645 391.074 110.934C392.478 110.223 394.109 109.867 395.969 109.867C397.318 109.867 398.557 110.068 399.688 110.469C400.818 110.87 401.793 111.517 402.613 112.41C403.434 113.303 404.072 114.488 404.527 115.965C404.983 117.423 405.211 119.228 405.211 121.379V140H395.969V121.379C395.969 120.158 395.823 119.237 395.531 118.617C395.258 117.979 394.857 117.551 394.328 117.332C393.799 117.095 393.171 116.977 392.441 116.977C391.566 116.977 390.81 117.159 390.172 117.523C389.534 117.888 388.996 118.398 388.559 119.055C388.139 119.693 387.829 120.449 387.629 121.324C387.428 122.199 387.328 123.156 387.328 124.195ZM409.34 125.508V124.934C409.34 122.764 409.65 120.768 410.27 118.945C410.889 117.104 411.801 115.509 413.004 114.16C414.207 112.811 415.693 111.763 417.461 111.016C419.229 110.25 421.271 109.867 423.586 109.867C425.919 109.867 427.97 110.25 429.738 111.016C431.525 111.763 433.02 112.811 434.223 114.16C435.426 115.509 436.337 117.104 436.957 118.945C437.577 120.768 437.887 122.764 437.887 124.934V125.508C437.887 127.659 437.577 129.655 436.957 131.496C436.337 133.319 435.426 134.914 434.223 136.281C433.02 137.63 431.534 138.678 429.766 139.426C427.997 140.173 425.956 140.547 423.641 140.547C421.326 140.547 419.275 140.173 417.488 139.426C415.702 138.678 414.207 137.63 413.004 136.281C411.801 134.914 410.889 133.319 410.27 131.496C409.65 129.655 409.34 127.659 409.34 125.508ZM418.555 124.934V125.508C418.555 126.62 418.637 127.659 418.801 128.625C418.965 129.591 419.238 130.439 419.621 131.168C420.004 131.879 420.523 132.435 421.18 132.836C421.836 133.237 422.656 133.438 423.641 133.438C424.607 133.438 425.409 133.237 426.047 132.836C426.703 132.435 427.223 131.879 427.605 131.168C427.988 130.439 428.262 129.591 428.426 128.625C428.59 127.659 428.672 126.62 428.672 125.508V124.934C428.672 123.858 428.59 122.846 428.426 121.898C428.262 120.932 427.988 120.085 427.605 119.355C427.223 118.608 426.703 118.025 426.047 117.605C425.391 117.186 424.57 116.977 423.586 116.977C422.62 116.977 421.809 117.186 421.152 117.605C420.514 118.025 420.004 118.608 419.621 119.355C419.238 120.085 418.965 120.932 418.801 121.898C418.637 122.846 418.555 123.858 418.555 124.934ZM451.039 116.73V140H441.824V110.414H450.465L451.039 116.73ZM449.945 124.195L447.785 124.25C447.785 121.99 448.059 119.975 448.605 118.207C449.152 116.421 449.927 114.908 450.93 113.668C451.932 112.428 453.126 111.49 454.512 110.852C455.915 110.195 457.474 109.867 459.188 109.867C460.555 109.867 461.803 110.068 462.934 110.469C464.082 110.87 465.066 111.517 465.887 112.41C466.725 113.303 467.363 114.488 467.801 115.965C468.257 117.423 468.484 119.228 468.484 121.379V140H459.215V121.352C459.215 120.167 459.051 119.264 458.723 118.645C458.395 118.007 457.921 117.569 457.301 117.332C456.681 117.095 455.924 116.977 455.031 116.977C454.083 116.977 453.281 117.159 452.625 117.523C451.969 117.888 451.44 118.398 451.039 119.055C450.656 119.693 450.374 120.449 450.191 121.324C450.027 122.199 449.945 123.156 449.945 124.195ZM482.676 136.527L490.332 110.414H500.23L488.336 144.402C488.081 145.15 487.743 145.952 487.324 146.809C486.905 147.684 486.331 148.513 485.602 149.297C484.872 150.081 483.934 150.719 482.785 151.211C481.655 151.703 480.251 151.949 478.574 151.949C477.681 151.949 477.025 151.904 476.605 151.812C476.204 151.74 475.585 151.603 474.746 151.402V144.812C474.983 144.812 475.184 144.812 475.348 144.812C475.53 144.812 475.73 144.812 475.949 144.812C476.934 144.812 477.717 144.712 478.301 144.512C478.902 144.311 479.358 144.02 479.668 143.637C479.996 143.254 480.251 142.789 480.434 142.242L482.676 136.527ZM480.734 110.414L486.559 131.113L487.57 140.875H481.391L470.863 110.414H480.734Z" fill="black"/>
<rect x="93" y="178" width="917" height="77" rx="10" fill="#D3D3D3"/>
<rect x="111" y="196" width="98" height="41" rx="3" fill="#424242"/>
<rect x="111" y="196" width="98" height="41" rx="3" stroke="#424242" stroke-width="4"/>
<path d="M137.078 210.203V223H133.993V210.203H137.078ZM142.053 215.529V217.902H136.199V215.529H142.053ZM142.554 210.203V212.585H136.199V210.203H142.554ZM146.825 209.5V223H143.854V209.5H146.825ZM154.208 220.688V213.49H157.179V223H154.401L154.208 220.688ZM154.489 218.755L155.263 218.737C155.263 219.376 155.187 219.968 155.034 220.513C154.882 221.052 154.656 221.521 154.357 221.919C154.064 222.317 153.701 222.628 153.268 222.851C152.84 223.067 152.345 223.176 151.782 223.176C151.313 223.176 150.883 223.111 150.49 222.982C150.104 222.848 149.77 222.64 149.488 222.358C149.207 222.071 148.987 221.705 148.829 221.26C148.677 220.809 148.601 220.27 148.601 219.643V213.49H151.562V219.66C151.562 219.871 151.589 220.053 151.642 220.205C151.694 220.357 151.771 220.486 151.87 220.592C151.97 220.691 152.093 220.768 152.239 220.82C152.392 220.867 152.564 220.891 152.758 220.891C153.203 220.891 153.552 220.797 153.804 220.609C154.056 220.422 154.231 220.167 154.331 219.845C154.437 219.522 154.489 219.159 154.489 218.755ZM163.823 213.49V215.547H158.093V213.49H163.823ZM159.297 211.126H162.259V219.897C162.259 220.149 162.288 220.346 162.347 220.486C162.405 220.621 162.505 220.718 162.646 220.776C162.792 220.829 162.985 220.855 163.226 220.855C163.396 220.855 163.536 220.853 163.647 220.847C163.759 220.835 163.864 220.82 163.964 220.803V222.921C163.712 223.003 163.448 223.064 163.173 223.105C162.897 223.152 162.604 223.176 162.294 223.176C161.661 223.176 161.119 223.076 160.668 222.877C160.223 222.678 159.883 222.364 159.648 221.937C159.414 221.509 159.297 220.952 159.297 220.267V211.126ZM170.011 213.49V215.547H164.28V213.49H170.011ZM165.484 211.126H168.446V219.897C168.446 220.149 168.476 220.346 168.534 220.486C168.593 220.621 168.692 220.718 168.833 220.776C168.979 220.829 169.173 220.855 169.413 220.855C169.583 220.855 169.724 220.853 169.835 220.847C169.946 220.835 170.052 220.82 170.151 220.803V222.921C169.899 223.003 169.636 223.064 169.36 223.105C169.085 223.152 168.792 223.176 168.481 223.176C167.849 223.176 167.307 223.076 166.855 222.877C166.41 222.678 166.07 222.364 165.836 221.937C165.602 221.509 165.484 220.952 165.484 220.267V211.126ZM175.794 223.176C175.021 223.176 174.329 223.056 173.72 222.815C173.11 222.569 172.595 222.232 172.173 221.805C171.757 221.377 171.438 220.885 171.215 220.328C170.998 219.771 170.89 219.183 170.89 218.562V218.228C170.89 217.53 170.986 216.886 171.18 216.294C171.373 215.696 171.66 215.175 172.041 214.729C172.422 214.284 172.899 213.938 173.474 213.692C174.048 213.44 174.716 213.314 175.478 213.314C176.151 213.314 176.755 213.423 177.288 213.64C177.821 213.856 178.272 214.167 178.642 214.571C179.017 214.976 179.301 215.465 179.494 216.039C179.693 216.613 179.793 217.258 179.793 217.973V219.177H172.023V217.322H176.901V217.094C176.907 216.777 176.852 216.508 176.734 216.285C176.623 216.062 176.459 215.893 176.242 215.775C176.025 215.658 175.762 215.6 175.451 215.6C175.129 215.6 174.862 215.67 174.651 215.811C174.446 215.951 174.285 216.145 174.168 216.391C174.057 216.631 173.978 216.909 173.931 217.226C173.884 217.542 173.86 217.876 173.86 218.228V218.562C173.86 218.913 173.907 219.232 174.001 219.52C174.101 219.807 174.241 220.053 174.423 220.258C174.61 220.457 174.833 220.612 175.091 220.724C175.354 220.835 175.653 220.891 175.987 220.891C176.392 220.891 176.79 220.814 177.183 220.662C177.575 220.51 177.912 220.258 178.193 219.906L179.538 221.506C179.345 221.781 179.069 222.048 178.712 222.306C178.36 222.563 177.938 222.774 177.446 222.938C176.954 223.097 176.403 223.176 175.794 223.176ZM183.985 215.846V223H181.023V213.49H183.792L183.985 215.846ZM186.798 213.42L186.745 216.171C186.628 216.159 186.47 216.145 186.271 216.127C186.071 216.109 185.904 216.101 185.77 216.101C185.424 216.101 185.125 216.142 184.873 216.224C184.627 216.3 184.422 216.417 184.258 216.575C184.1 216.728 183.982 216.921 183.906 217.155C183.836 217.39 183.804 217.662 183.81 217.973L183.273 217.621C183.273 216.982 183.335 216.402 183.458 215.881C183.587 215.354 183.769 214.899 184.003 214.519C184.237 214.132 184.521 213.836 184.855 213.631C185.189 213.42 185.564 213.314 185.98 213.314C186.127 213.314 186.271 213.323 186.411 213.341C186.558 213.358 186.687 213.385 186.798 213.42Z" fill="white"/>
<rect x="229" y="196" width="91" height="41" rx="3" fill="#424242"/>
<rect x="229" y="196" width="91" height="41" rx="3" stroke="#424242" stroke-width="4"/>
<path d="M252.141 210.203H257.177C258.161 210.203 259.017 210.35 259.743 210.643C260.47 210.936 261.029 211.369 261.422 211.943C261.82 212.518 262.02 213.227 262.02 214.07C262.02 214.803 261.905 215.415 261.677 215.907C261.448 216.399 261.129 216.807 260.719 217.129C260.314 217.445 259.843 217.706 259.304 217.911L258.293 218.482H254.065L254.048 216.101H257.177C257.569 216.101 257.895 216.03 258.152 215.89C258.41 215.749 258.604 215.55 258.732 215.292C258.867 215.028 258.935 214.715 258.935 214.352C258.935 213.982 258.867 213.666 258.732 213.402C258.598 213.139 258.398 212.937 258.135 212.796C257.877 212.655 257.558 212.585 257.177 212.585H255.226V223H252.141V210.203ZM259.146 223L256.315 217.34L259.585 217.322L262.45 222.868V223H259.146ZM268.348 223.176C267.574 223.176 266.883 223.056 266.273 222.815C265.664 222.569 265.148 222.232 264.727 221.805C264.311 221.377 263.991 220.885 263.769 220.328C263.552 219.771 263.443 219.183 263.443 218.562V218.228C263.443 217.53 263.54 216.886 263.733 216.294C263.927 215.696 264.214 215.175 264.595 214.729C264.976 214.284 265.453 213.938 266.027 213.692C266.602 213.44 267.27 213.314 268.031 213.314C268.705 213.314 269.309 213.423 269.842 213.64C270.375 213.856 270.826 214.167 271.195 214.571C271.57 214.976 271.854 215.465 272.048 216.039C272.247 216.613 272.347 217.258 272.347 217.973V219.177H264.577V217.322H269.455V217.094C269.461 216.777 269.405 216.508 269.288 216.285C269.177 216.062 269.013 215.893 268.796 215.775C268.579 215.658 268.315 215.6 268.005 215.6C267.683 215.6 267.416 215.67 267.205 215.811C267 215.951 266.839 216.145 266.722 216.391C266.61 216.631 266.531 216.909 266.484 217.226C266.438 217.542 266.414 217.876 266.414 218.228V218.562C266.414 218.913 266.461 219.232 266.555 219.52C266.654 219.807 266.795 220.053 266.977 220.258C267.164 220.457 267.387 220.612 267.645 220.724C267.908 220.835 268.207 220.891 268.541 220.891C268.945 220.891 269.344 220.814 269.736 220.662C270.129 220.51 270.466 220.258 270.747 219.906L272.092 221.506C271.898 221.781 271.623 222.048 271.266 222.306C270.914 222.563 270.492 222.774 270 222.938C269.508 223.097 268.957 223.176 268.348 223.176ZM278.49 220.609V216.689C278.49 216.42 278.452 216.188 278.376 215.995C278.3 215.802 278.18 215.652 278.016 215.547C277.852 215.436 277.632 215.38 277.356 215.38C277.134 215.38 276.943 215.418 276.785 215.494C276.627 215.57 276.507 215.685 276.425 215.837C276.343 215.989 276.302 216.183 276.302 216.417H273.34C273.34 215.978 273.437 215.57 273.63 215.195C273.829 214.814 274.11 214.483 274.474 214.202C274.843 213.921 275.282 213.704 275.792 213.552C276.308 213.394 276.882 213.314 277.515 213.314C278.271 213.314 278.944 213.44 279.536 213.692C280.134 213.944 280.605 214.322 280.951 214.826C281.297 215.324 281.47 215.951 281.47 216.707V220.601C281.47 221.222 281.505 221.693 281.575 222.016C281.646 222.332 281.745 222.61 281.874 222.851V223H278.903C278.763 222.707 278.657 222.35 278.587 221.928C278.522 221.5 278.49 221.061 278.49 220.609ZM278.851 217.19L278.868 218.772H277.559C277.283 218.772 277.049 218.811 276.855 218.887C276.668 218.963 276.516 219.068 276.398 219.203C276.287 219.332 276.205 219.479 276.152 219.643C276.105 219.807 276.082 219.979 276.082 220.161C276.082 220.337 276.123 220.495 276.205 220.636C276.293 220.771 276.41 220.876 276.557 220.952C276.703 221.028 276.867 221.066 277.049 221.066C277.377 221.066 277.655 221.005 277.884 220.882C278.118 220.753 278.297 220.598 278.42 220.416C278.543 220.234 278.604 220.064 278.604 219.906L279.255 221.119C279.138 221.354 279.003 221.591 278.851 221.831C278.704 222.071 278.52 222.294 278.297 222.499C278.08 222.698 277.813 222.862 277.497 222.991C277.181 223.114 276.797 223.176 276.346 223.176C275.76 223.176 275.221 223.056 274.729 222.815C274.242 222.575 273.853 222.241 273.56 221.813C273.267 221.38 273.12 220.882 273.12 220.319C273.12 219.827 273.208 219.388 273.384 219.001C273.565 218.614 273.838 218.286 274.201 218.017C274.564 217.747 275.027 217.542 275.59 217.401C276.152 217.261 276.814 217.19 277.576 217.19H278.851ZM287.13 220.891C287.405 220.891 287.64 220.841 287.833 220.741C288.032 220.636 288.182 220.489 288.281 220.302C288.387 220.108 288.437 219.877 288.431 219.607H291.217C291.223 220.322 291.047 220.949 290.689 221.488C290.338 222.021 289.857 222.438 289.248 222.736C288.645 223.029 287.962 223.176 287.2 223.176C286.456 223.176 285.806 223.056 285.249 222.815C284.692 222.569 284.227 222.229 283.852 221.796C283.482 221.356 283.204 220.844 283.017 220.258C282.835 219.672 282.744 219.036 282.744 218.351V218.148C282.744 217.463 282.835 216.827 283.017 216.241C283.204 215.649 283.482 215.137 283.852 214.703C284.227 214.264 284.689 213.924 285.24 213.684C285.797 213.438 286.444 213.314 287.183 213.314C287.974 213.314 288.671 213.464 289.274 213.763C289.884 214.062 290.361 214.495 290.707 215.063C291.053 215.632 291.223 216.32 291.217 217.129H288.431C288.437 216.842 288.393 216.584 288.299 216.355C288.205 216.127 288.059 215.945 287.859 215.811C287.666 215.67 287.417 215.6 287.112 215.6C286.808 215.6 286.562 215.667 286.374 215.802C286.187 215.937 286.043 216.124 285.943 216.364C285.85 216.599 285.785 216.868 285.75 217.173C285.721 217.478 285.706 217.803 285.706 218.148V218.351C285.706 218.702 285.721 219.033 285.75 219.344C285.785 219.648 285.853 219.918 285.952 220.152C286.052 220.381 286.195 220.562 286.383 220.697C286.57 220.826 286.819 220.891 287.13 220.891ZM297.492 213.49V215.547H291.762V213.49H297.492ZM292.966 211.126H295.928V219.897C295.928 220.149 295.957 220.346 296.016 220.486C296.074 220.621 296.174 220.718 296.314 220.776C296.461 220.829 296.654 220.855 296.895 220.855C297.064 220.855 297.205 220.853 297.316 220.847C297.428 220.835 297.533 220.82 297.633 220.803V222.921C297.381 223.003 297.117 223.064 296.842 223.105C296.566 223.152 296.273 223.176 295.963 223.176C295.33 223.176 294.788 223.076 294.337 222.877C293.892 222.678 293.552 222.364 293.317 221.937C293.083 221.509 292.966 220.952 292.966 220.267V211.126Z" fill="white"/>
<rect x="340" y="196" width="103" height="41" rx="3" fill="#424242"/>
<rect x="340" y="196" width="103" height="41" rx="3" stroke="#424242" stroke-width="4"/>
<path d="M364.72 210.203H367.233L370.09 219.106L372.946 210.203H375.46L371.109 223H369.07L364.72 210.203ZM363.19 210.203H365.792L366.275 220.012V223H363.19V210.203ZM374.388 210.203H376.998V223H373.904V220.012L374.388 210.203ZM381.753 221.884L384.214 213.49H387.396L383.572 224.415C383.49 224.655 383.382 224.913 383.247 225.188C383.112 225.47 382.928 225.736 382.693 225.988C382.459 226.24 382.157 226.445 381.788 226.604C381.425 226.762 380.974 226.841 380.435 226.841C380.147 226.841 379.937 226.826 379.802 226.797C379.673 226.773 379.474 226.729 379.204 226.665V224.547C379.28 224.547 379.345 224.547 379.397 224.547C379.456 224.547 379.521 224.547 379.591 224.547C379.907 224.547 380.159 224.515 380.347 224.45C380.54 224.386 380.687 224.292 380.786 224.169C380.892 224.046 380.974 223.896 381.032 223.721L381.753 221.884ZM381.129 213.49L383.001 220.144L383.326 223.281H381.34L377.956 213.49H381.129ZM394.901 219.599C394.901 219.399 394.872 219.221 394.813 219.062C394.755 218.898 394.646 218.746 394.488 218.605C394.33 218.465 394.102 218.324 393.803 218.184C393.51 218.037 393.123 217.885 392.643 217.727C392.08 217.539 391.538 217.328 391.017 217.094C390.495 216.854 390.029 216.575 389.619 216.259C389.209 215.937 388.884 215.562 388.644 215.134C388.403 214.7 388.283 214.196 388.283 213.622C388.283 213.071 388.406 212.576 388.652 212.137C388.898 211.691 389.241 211.313 389.681 211.003C390.126 210.687 390.647 210.446 391.245 210.282C391.843 210.112 392.496 210.027 393.205 210.027C394.143 210.027 394.969 210.191 395.684 210.52C396.404 210.842 396.967 211.302 397.371 211.899C397.781 212.491 397.986 213.191 397.986 214H394.919C394.919 213.678 394.852 213.394 394.717 213.147C394.588 212.901 394.392 212.708 394.128 212.567C393.864 212.427 393.533 212.356 393.135 212.356C392.748 212.356 392.423 212.415 392.159 212.532C391.896 212.649 391.696 212.808 391.562 213.007C391.427 213.2 391.359 213.414 391.359 213.648C391.359 213.842 391.412 214.018 391.518 214.176C391.629 214.328 391.784 214.472 391.983 214.606C392.188 214.741 392.435 214.87 392.722 214.993C393.015 215.116 393.343 215.236 393.706 215.354C394.386 215.57 394.989 215.813 395.517 216.083C396.05 216.347 396.498 216.648 396.861 216.988C397.23 217.322 397.509 217.703 397.696 218.131C397.89 218.559 397.986 219.042 397.986 219.581C397.986 220.155 397.875 220.665 397.652 221.11C397.43 221.556 397.11 221.934 396.694 222.244C396.278 222.549 395.78 222.78 395.2 222.938C394.62 223.097 393.973 223.176 393.258 223.176C392.602 223.176 391.954 223.094 391.315 222.93C390.683 222.76 390.108 222.502 389.593 222.156C389.077 221.805 388.664 221.356 388.354 220.812C388.049 220.261 387.896 219.607 387.896 218.852H390.99C390.99 219.227 391.04 219.543 391.14 219.801C391.239 220.059 391.386 220.267 391.579 220.425C391.772 220.577 392.01 220.688 392.291 220.759C392.572 220.823 392.895 220.855 393.258 220.855C393.65 220.855 393.967 220.8 394.207 220.688C394.447 220.571 394.623 220.419 394.734 220.231C394.846 220.038 394.901 219.827 394.901 219.599ZM406.714 220.891L410.282 223.721L408.366 225.338L404.859 222.508L406.714 220.891ZM410.432 216.347V216.865C410.432 217.844 410.294 218.723 410.019 219.502C409.749 220.275 409.362 220.938 408.858 221.488C408.36 222.033 407.771 222.452 407.092 222.745C406.412 223.032 405.662 223.176 404.842 223.176C404.016 223.176 403.26 223.032 402.574 222.745C401.895 222.452 401.303 222.033 400.799 221.488C400.301 220.938 399.914 220.275 399.639 219.502C399.369 218.723 399.234 217.844 399.234 216.865V216.347C399.234 215.368 399.369 214.489 399.639 213.71C399.914 212.931 400.298 212.269 400.79 211.724C401.288 211.173 401.877 210.754 402.557 210.467C403.242 210.174 403.998 210.027 404.824 210.027C405.645 210.027 406.395 210.174 407.074 210.467C407.76 210.754 408.352 211.173 408.85 211.724C409.354 212.269 409.743 212.931 410.019 213.71C410.294 214.489 410.432 215.368 410.432 216.347ZM407.294 216.865V216.329C407.294 215.696 407.238 215.14 407.127 214.659C407.021 214.173 406.863 213.766 406.652 213.438C406.441 213.109 406.181 212.863 405.87 212.699C405.565 212.529 405.217 212.444 404.824 212.444C404.414 212.444 404.057 212.529 403.752 212.699C403.447 212.863 403.192 213.109 402.987 213.438C402.782 213.766 402.627 214.173 402.521 214.659C402.422 215.14 402.372 215.696 402.372 216.329V216.865C402.372 217.492 402.422 218.049 402.521 218.535C402.627 219.016 402.782 219.423 402.987 219.757C403.198 220.091 403.456 220.343 403.761 220.513C404.071 220.683 404.432 220.768 404.842 220.768C405.234 220.768 405.583 220.683 405.888 220.513C406.192 220.343 406.447 220.091 406.652 219.757C406.863 219.423 407.021 219.016 407.127 218.535C407.238 218.049 407.294 217.492 407.294 216.865ZM420.46 220.627V223H413.991V220.627H420.46ZM415.09 210.203V223H412.005V210.203H415.09Z" fill="white"/>
<rect x="463" y="196" width="102" height="41" rx="3" fill="#424242"/>
<rect x="463" y="196" width="102" height="41" rx="3" stroke="#424242" stroke-width="4"/>
<path d="M491.166 218.658H487.984V216.276H491.166C491.6 216.276 491.951 216.203 492.221 216.057C492.49 215.91 492.687 215.708 492.81 215.45C492.938 215.187 493.003 214.891 493.003 214.562C493.003 214.211 492.938 213.886 492.81 213.587C492.687 213.288 492.49 213.048 492.221 212.866C491.951 212.679 491.6 212.585 491.166 212.585H489.145V223H486.06V210.203H491.166C492.191 210.203 493.073 210.391 493.812 210.766C494.556 211.141 495.127 211.656 495.525 212.312C495.924 212.963 496.123 213.707 496.123 214.545C496.123 215.371 495.924 216.092 495.525 216.707C495.127 217.322 494.556 217.803 493.812 218.148C493.073 218.488 492.191 218.658 491.166 218.658ZM500.702 221.884L503.163 213.49H506.345L502.521 224.415C502.439 224.655 502.331 224.913 502.196 225.188C502.062 225.47 501.877 225.736 501.643 225.988C501.408 226.24 501.106 226.445 500.737 226.604C500.374 226.762 499.923 226.841 499.384 226.841C499.097 226.841 498.886 226.826 498.751 226.797C498.622 226.773 498.423 226.729 498.153 226.665V224.547C498.229 224.547 498.294 224.547 498.347 224.547C498.405 224.547 498.47 224.547 498.54 224.547C498.856 224.547 499.108 224.515 499.296 224.45C499.489 224.386 499.636 224.292 499.735 224.169C499.841 224.046 499.923 223.896 499.981 223.721L500.702 221.884ZM500.078 213.49L501.95 220.144L502.275 223.281H500.289L496.905 213.49H500.078ZM512.128 213.49V215.547H506.397V213.49H512.128ZM507.602 211.126H510.563V219.897C510.563 220.149 510.593 220.346 510.651 220.486C510.71 220.621 510.81 220.718 510.95 220.776C511.097 220.829 511.29 220.855 511.53 220.855C511.7 220.855 511.841 220.853 511.952 220.847C512.063 220.835 512.169 220.82 512.269 220.803V222.921C512.017 223.003 511.753 223.064 511.478 223.105C511.202 223.152 510.909 223.176 510.599 223.176C509.966 223.176 509.424 223.076 508.973 222.877C508.527 222.678 508.188 222.364 507.953 221.937C507.719 221.509 507.602 220.952 507.602 220.267V211.126ZM516.206 209.5V223H513.244V209.5H516.206ZM515.854 217.92L515.16 217.938C515.16 217.27 515.242 216.654 515.406 216.092C515.57 215.529 515.805 215.04 516.109 214.624C516.414 214.208 516.78 213.886 517.208 213.657C517.636 213.429 518.11 213.314 518.632 213.314C519.101 213.314 519.528 213.382 519.915 213.517C520.308 213.651 520.645 213.868 520.926 214.167C521.213 214.466 521.433 214.855 521.585 215.336C521.743 215.816 521.822 216.402 521.822 217.094V223H518.843V217.076C518.843 216.689 518.787 216.391 518.676 216.18C518.57 215.963 518.418 215.813 518.219 215.731C518.02 215.644 517.776 215.6 517.489 215.6C517.144 215.6 516.862 215.658 516.646 215.775C516.429 215.893 516.262 216.057 516.145 216.268C516.033 216.473 515.957 216.716 515.916 216.997C515.875 217.278 515.854 217.586 515.854 217.92ZM523.097 218.342V218.157C523.097 217.46 523.196 216.818 523.396 216.232C523.595 215.641 523.888 215.128 524.274 214.694C524.661 214.261 525.139 213.924 525.707 213.684C526.275 213.438 526.932 213.314 527.676 213.314C528.426 213.314 529.085 213.438 529.653 213.684C530.228 213.924 530.708 214.261 531.095 214.694C531.481 215.128 531.774 215.641 531.974 216.232C532.173 216.818 532.272 217.46 532.272 218.157V218.342C532.272 219.033 532.173 219.675 531.974 220.267C531.774 220.853 531.481 221.365 531.095 221.805C530.708 222.238 530.23 222.575 529.662 222.815C529.094 223.056 528.438 223.176 527.693 223.176C526.949 223.176 526.29 223.056 525.716 222.815C525.142 222.575 524.661 222.238 524.274 221.805C523.888 221.365 523.595 220.853 523.396 220.267C523.196 219.675 523.097 219.033 523.097 218.342ZM526.059 218.157V218.342C526.059 218.699 526.085 219.033 526.138 219.344C526.19 219.654 526.278 219.927 526.401 220.161C526.524 220.39 526.691 220.568 526.902 220.697C527.113 220.826 527.377 220.891 527.693 220.891C528.004 220.891 528.262 220.826 528.467 220.697C528.678 220.568 528.845 220.39 528.968 220.161C529.091 219.927 529.179 219.654 529.231 219.344C529.284 219.033 529.311 218.699 529.311 218.342V218.157C529.311 217.812 529.284 217.486 529.231 217.182C529.179 216.871 529.091 216.599 528.968 216.364C528.845 216.124 528.678 215.937 528.467 215.802C528.256 215.667 527.992 215.6 527.676 215.6C527.365 215.6 527.104 215.667 526.894 215.802C526.688 215.937 526.524 216.124 526.401 216.364C526.278 216.599 526.19 216.871 526.138 217.182C526.085 217.486 526.059 217.812 526.059 218.157ZM536.5 215.521V223H533.538V213.49H536.315L536.5 215.521ZM536.148 217.92L535.454 217.938C535.454 217.211 535.542 216.563 535.718 215.995C535.894 215.421 536.143 214.935 536.465 214.536C536.787 214.138 537.171 213.836 537.616 213.631C538.067 213.42 538.568 213.314 539.119 213.314C539.559 213.314 539.96 213.379 540.323 213.508C540.692 213.637 541.009 213.845 541.272 214.132C541.542 214.419 541.747 214.8 541.888 215.274C542.034 215.743 542.107 216.323 542.107 217.015V223H539.128V217.006C539.128 216.625 539.075 216.335 538.97 216.136C538.864 215.931 538.712 215.79 538.513 215.714C538.313 215.638 538.07 215.6 537.783 215.6C537.479 215.6 537.221 215.658 537.01 215.775C536.799 215.893 536.629 216.057 536.5 216.268C536.377 216.473 536.286 216.716 536.228 216.997C536.175 217.278 536.148 217.586 536.148 217.92Z" fill="white"/>
<rect x="585" y="196" width="104" height="41" rx="3" fill="#424242"/>
<rect x="585" y="196" width="104" height="41" rx="3" stroke="#424242" stroke-width="4"/>
<path d="M616.812 220.627V223H610.343V220.627H616.812ZM611.441 210.203V223H608.356V210.203H611.441ZM622.911 220.609V216.689C622.911 216.42 622.873 216.188 622.797 215.995C622.721 215.802 622.601 215.652 622.437 215.547C622.272 215.436 622.053 215.38 621.777 215.38C621.555 215.38 621.364 215.418 621.206 215.494C621.048 215.57 620.928 215.685 620.846 215.837C620.764 215.989 620.723 216.183 620.723 216.417H617.761C617.761 215.978 617.857 215.57 618.051 215.195C618.25 214.814 618.531 214.483 618.895 214.202C619.264 213.921 619.703 213.704 620.213 213.552C620.729 213.394 621.303 213.314 621.936 213.314C622.691 213.314 623.365 213.44 623.957 213.692C624.555 213.944 625.026 214.322 625.372 214.826C625.718 215.324 625.891 215.951 625.891 216.707V220.601C625.891 221.222 625.926 221.693 625.996 222.016C626.066 222.332 626.166 222.61 626.295 222.851V223H623.324C623.184 222.707 623.078 222.35 623.008 221.928C622.943 221.5 622.911 221.061 622.911 220.609ZM623.271 217.19L623.289 218.772H621.979C621.704 218.772 621.47 218.811 621.276 218.887C621.089 218.963 620.937 219.068 620.819 219.203C620.708 219.332 620.626 219.479 620.573 219.643C620.526 219.807 620.503 219.979 620.503 220.161C620.503 220.337 620.544 220.495 620.626 220.636C620.714 220.771 620.831 220.876 620.978 220.952C621.124 221.028 621.288 221.066 621.47 221.066C621.798 221.066 622.076 221.005 622.305 220.882C622.539 220.753 622.718 220.598 622.841 220.416C622.964 220.234 623.025 220.064 623.025 219.906L623.676 221.119C623.559 221.354 623.424 221.591 623.271 221.831C623.125 222.071 622.94 222.294 622.718 222.499C622.501 222.698 622.234 222.862 621.918 222.991C621.602 223.114 621.218 223.176 620.767 223.176C620.181 223.176 619.642 223.056 619.149 222.815C618.663 222.575 618.273 222.241 617.98 221.813C617.688 221.38 617.541 220.882 617.541 220.319C617.541 219.827 617.629 219.388 617.805 219.001C617.986 218.614 618.259 218.286 618.622 218.017C618.985 217.747 619.448 217.542 620.011 217.401C620.573 217.261 621.235 217.19 621.997 217.19H623.271ZM630.522 215.846V223H627.561V213.49H630.329L630.522 215.846ZM633.335 213.42L633.282 216.171C633.165 216.159 633.007 216.145 632.808 216.127C632.608 216.109 632.441 216.101 632.307 216.101C631.961 216.101 631.662 216.142 631.41 216.224C631.164 216.3 630.959 216.417 630.795 216.575C630.637 216.728 630.52 216.921 630.443 217.155C630.373 217.39 630.341 217.662 630.347 217.973L629.811 217.621C629.811 216.982 629.872 216.402 629.995 215.881C630.124 215.354 630.306 214.899 630.54 214.519C630.774 214.132 631.059 213.836 631.393 213.631C631.727 213.42 632.102 213.314 632.518 213.314C632.664 213.314 632.808 213.323 632.948 213.341C633.095 213.358 633.224 213.385 633.335 213.42ZM639.03 220.609V216.689C639.03 216.42 638.992 216.188 638.916 215.995C638.84 215.802 638.72 215.652 638.556 215.547C638.392 215.436 638.172 215.38 637.896 215.38C637.674 215.38 637.483 215.418 637.325 215.494C637.167 215.57 637.047 215.685 636.965 215.837C636.883 215.989 636.842 216.183 636.842 216.417H633.88C633.88 215.978 633.977 215.57 634.17 215.195C634.369 214.814 634.65 214.483 635.014 214.202C635.383 213.921 635.822 213.704 636.332 213.552C636.848 213.394 637.422 213.314 638.055 213.314C638.811 213.314 639.484 213.44 640.076 213.692C640.674 213.944 641.146 214.322 641.491 214.826C641.837 215.324 642.01 215.951 642.01 216.707V220.601C642.01 221.222 642.045 221.693 642.115 222.016C642.186 222.332 642.285 222.61 642.414 222.851V223H639.443C639.303 222.707 639.197 222.35 639.127 221.928C639.062 221.5 639.03 221.061 639.03 220.609ZM639.391 217.19L639.408 218.772H638.099C637.823 218.772 637.589 218.811 637.396 218.887C637.208 218.963 637.056 219.068 636.938 219.203C636.827 219.332 636.745 219.479 636.692 219.643C636.646 219.807 636.622 219.979 636.622 220.161C636.622 220.337 636.663 220.495 636.745 220.636C636.833 220.771 636.95 220.876 637.097 220.952C637.243 221.028 637.407 221.066 637.589 221.066C637.917 221.066 638.195 221.005 638.424 220.882C638.658 220.753 638.837 220.598 638.96 220.416C639.083 220.234 639.145 220.064 639.145 219.906L639.795 221.119C639.678 221.354 639.543 221.591 639.391 221.831C639.244 222.071 639.06 222.294 638.837 222.499C638.62 222.698 638.354 222.862 638.037 222.991C637.721 223.114 637.337 223.176 636.886 223.176C636.3 223.176 635.761 223.056 635.269 222.815C634.782 222.575 634.393 222.241 634.1 221.813C633.807 221.38 633.66 220.882 633.66 220.319C633.66 219.827 633.748 219.388 633.924 219.001C634.105 218.614 634.378 218.286 634.741 218.017C635.104 217.747 635.567 217.542 636.13 217.401C636.692 217.261 637.354 217.19 638.116 217.19H639.391ZM646.94 220.97L648.812 213.49H651.933L648.821 223H646.976L646.94 220.97ZM645.833 213.49L647.679 220.97L647.661 223H645.807L642.704 213.49H645.833ZM657.294 223.176C656.521 223.176 655.829 223.056 655.22 222.815C654.61 222.569 654.095 222.232 653.673 221.805C653.257 221.377 652.938 220.885 652.715 220.328C652.498 219.771 652.39 219.183 652.39 218.562V218.228C652.39 217.53 652.486 216.886 652.68 216.294C652.873 215.696 653.16 215.175 653.541 214.729C653.922 214.284 654.399 213.938 654.974 213.692C655.548 213.44 656.216 213.314 656.978 213.314C657.651 213.314 658.255 213.423 658.788 213.64C659.321 213.856 659.772 214.167 660.142 214.571C660.517 214.976 660.801 215.465 660.994 216.039C661.193 216.613 661.293 217.258 661.293 217.973V219.177H653.523V217.322H658.401V217.094C658.407 216.777 658.352 216.508 658.234 216.285C658.123 216.062 657.959 215.893 657.742 215.775C657.525 215.658 657.262 215.6 656.951 215.6C656.629 215.6 656.362 215.67 656.151 215.811C655.946 215.951 655.785 216.145 655.668 216.391C655.557 216.631 655.478 216.909 655.431 217.226C655.384 217.542 655.36 217.876 655.36 218.228V218.562C655.36 218.913 655.407 219.232 655.501 219.52C655.601 219.807 655.741 220.053 655.923 220.258C656.11 220.457 656.333 220.612 656.591 220.724C656.854 220.835 657.153 220.891 657.487 220.891C657.892 220.891 658.29 220.814 658.683 220.662C659.075 220.51 659.412 220.258 659.693 219.906L661.038 221.506C660.845 221.781 660.569 222.048 660.212 222.306C659.86 222.563 659.438 222.774 658.946 222.938C658.454 223.097 657.903 223.176 657.294 223.176ZM665.626 209.5V223H662.655V209.5H665.626Z" fill="white"/>
<path d="M1066 0H1343C1354.05 0 1363 8.95431 1363 20V277C1363 288.046 1354.05 297 1343 297H1066V0Z" fill="white"/>
<rect x="1075" y="26" width="279" height="245" fill="white"/>
<g filter="url(#filter0_b_3_61)">
<g filter="url(#filter1_b_3_61)">
<path d="M1249 54C1282.14 54 1309 80.8629 1309 114V181C1309 215.242 1281.24 243 1247 243H1183C1147.65 243 1119 214.346 1119 179V54L1249 54Z" fill="url(#paint0_linear_3_61)"/>
<path d="M1143 76V153.996C1143.11 161.774 1143.98 170.216 1146.29 178.823C1160.11 213.254 1183.3 224.959 1220.75 225C1248.03 223.532 1267.39 211.77 1279 191.534C1281.65 186.742 1283 178.823 1283 178.823" stroke="white" stroke-width="5"/>
</g>
<path d="M1241.23 132.23C1241.22 127.832 1237.64 124.273 1233.24 124.282C1228.85 124.29 1225.28 127.861 1225.29 132.259C1225.3 134.565 1226.3 136.62 1227.86 138.077L1227.84 138.082L1241.26 151.449L1254.64 138.033C1254.63 138.028 1254.62 138.028 1254.62 138.023C1256.18 136.56 1257.16 134.506 1257.15 132.201C1257.15 127.803 1253.58 124.244 1249.18 124.253C1244.78 124.26 1241.22 127.832 1241.23 132.23Z" fill="white"/>
<path d="M1190.23 132.23C1190.22 127.832 1186.64 124.273 1182.24 124.282C1177.85 124.29 1174.28 127.861 1174.29 132.259C1174.3 134.565 1175.3 136.62 1176.86 138.077L1176.84 138.082L1190.26 151.449L1203.64 138.033C1203.63 138.028 1203.62 138.028 1203.62 138.023C1205.18 136.56 1206.16 134.506 1206.15 132.201C1206.15 127.803 1202.58 124.244 1198.18 124.253C1193.78 124.26 1190.22 127.832 1190.23 132.23Z" fill="white"/>
</g>
<defs>
<filter id="filter0_b_3_61" x="1089" y="24" width="250" height="249" filterUnits="userSpaceOnUse" color-interpolation-filters="sRGB">
<feFlood flood-opacity="0" result="BackgroundImageFix"/>
<feGaussianBlur in="BackgroundImageFix" stdDeviation="15"/>
<feComposite in2="SourceAlpha" operator="in" result="effect1_backgroundBlur_3_61"/>
<feBlend mode="normal" in="SourceGraphic" in2="effect1_backgroundBlur_3_61" result="shape"/>
</filter>
<filter id="filter1_b_3_61" x="1099" y="34" width="230" height="229" filterUnits="userSpaceOnUse" color-interpolation-filters="sRGB">
<feFlood flood-opacity="0" result="BackgroundImageFix"/>
<feGaussianBlur in="BackgroundImageFix" stdDeviation="10"/>
<feComposite in2="SourceAlpha" operator="in" result="effect1_backgroundBlur_3_61"/>
<feBlend mode="normal" in="SourceGraphic" in2="effect1_backgroundBlur_3_61" result="shape"/>
</filter>
<linearGradient id="paint0_linear_3_61" x1="1307.99" y1="53.0053" x2="1144.48" y2="228.807" gradientUnits="userSpaceOnUse">
<stop stop-color="#F16660"/>
<stop offset="0.0001" stop-color="#F03233"/>
<stop offset="1" stop-color="#ED6566"/>
</linearGradient>
</defs>
</svg>
