<svg width="1363" height="297" viewBox="0 0 1363 297" fill="none" xmlns="http://www.w3.org/2000/svg">
<path d="M0 15C0 6.71573 6.71573 0 15 0H37V297H15C6.71573 297 0 290.284 0 282V15Z" fill="#F03D3F"/>
<path d="M37 0H1066V297H37V0Z" fill="#F0F0F0"/>
<path d="M97.6934 49.4062H102.158L108.732 68.1973L115.307 49.4062H119.771L110.525 75H106.939L97.6934 49.4062ZM95.2852 49.4062H99.7324L100.541 67.7227V75H95.2852V49.4062ZM117.732 49.4062H122.197V75H116.924V67.7227L117.732 49.4062ZM136.77 70.7109V62.2383C136.77 61.6289 136.67 61.1074 136.471 60.6738C136.271 60.2285 135.961 59.8828 135.539 59.6367C135.129 59.3906 134.596 59.2676 133.939 59.2676C133.377 59.2676 132.891 59.3672 132.48 59.5664C132.07 59.7539 131.754 60.0293 131.531 60.3926C131.309 60.7441 131.197 61.1602 131.197 61.6406H126.135C126.135 60.832 126.322 60.0645 126.697 59.3379C127.072 58.6113 127.617 57.9727 128.332 57.4219C129.047 56.8594 129.896 56.4199 130.881 56.1035C131.877 55.7871 132.99 55.6289 134.221 55.6289C135.697 55.6289 137.01 55.875 138.158 56.3672C139.307 56.8594 140.209 57.5977 140.865 58.582C141.533 59.5664 141.867 60.7969 141.867 62.2734V70.4121C141.867 71.4551 141.932 72.3105 142.061 72.9785C142.189 73.6348 142.377 74.209 142.623 74.7012V75H137.508C137.262 74.4844 137.074 73.8398 136.945 73.0664C136.828 72.2812 136.77 71.4961 136.77 70.7109ZM137.438 63.416L137.473 66.2812H134.643C133.975 66.2812 133.395 66.3574 132.902 66.5098C132.41 66.6621 132.006 66.8789 131.689 67.1602C131.373 67.4297 131.139 67.7461 130.986 68.1094C130.846 68.4727 130.775 68.8711 130.775 69.3047C130.775 69.7383 130.875 70.1309 131.074 70.4824C131.273 70.8223 131.561 71.0918 131.936 71.291C132.311 71.4785 132.75 71.5723 133.254 71.5723C134.016 71.5723 134.678 71.4199 135.24 71.1152C135.803 70.8105 136.236 70.4355 136.541 69.9902C136.857 69.5449 137.021 69.123 137.033 68.7246L138.369 70.8691C138.182 71.3496 137.924 71.8477 137.596 72.3633C137.279 72.8789 136.875 73.3652 136.383 73.8223C135.891 74.2676 135.299 74.6367 134.607 74.9297C133.916 75.2109 133.096 75.3516 132.146 75.3516C130.939 75.3516 129.844 75.1113 128.859 74.6309C127.887 74.1387 127.113 73.4648 126.539 72.6094C125.977 71.7422 125.695 70.7578 125.695 69.6562C125.695 68.6602 125.883 67.7754 126.258 67.002C126.633 66.2285 127.184 65.5781 127.91 65.0508C128.648 64.5117 129.568 64.1074 130.67 63.8379C131.771 63.5566 133.049 63.416 134.502 63.416H137.438ZM150.832 60.1289V75H145.77V55.9805H150.533L150.832 60.1289ZM156.562 55.8574L156.475 60.5508C156.229 60.5156 155.93 60.4863 155.578 60.4629C155.238 60.4277 154.928 60.4102 154.646 60.4102C153.932 60.4102 153.311 60.5039 152.783 60.6914C152.268 60.8672 151.834 61.1309 151.482 61.4824C151.143 61.834 150.885 62.2617 150.709 62.7656C150.545 63.2695 150.451 63.8438 150.428 64.4883L149.408 64.1719C149.408 62.9414 149.531 61.8105 149.777 60.7793C150.023 59.7363 150.381 58.8281 150.85 58.0547C151.33 57.2812 151.916 56.6836 152.607 56.2617C153.299 55.8398 154.09 55.6289 154.98 55.6289C155.262 55.6289 155.549 55.6523 155.842 55.6992C156.135 55.7344 156.375 55.7871 156.562 55.8574ZM166.459 71.3965C167.08 71.3965 167.631 71.2793 168.111 71.0449C168.592 70.7988 168.967 70.459 169.236 70.0254C169.518 69.5801 169.664 69.0586 169.676 68.4609H174.439C174.428 69.7969 174.07 70.9863 173.367 72.0293C172.664 73.0605 171.721 73.875 170.537 74.4727C169.354 75.0586 168.029 75.3516 166.564 75.3516C165.088 75.3516 163.799 75.1055 162.697 74.6133C161.607 74.1211 160.699 73.4414 159.973 72.5742C159.246 71.6953 158.701 70.6758 158.338 69.5156C157.975 68.3438 157.793 67.0898 157.793 65.7539V65.2441C157.793 63.8965 157.975 62.6426 158.338 61.4824C158.701 60.3105 159.246 59.291 159.973 58.4238C160.699 57.5449 161.607 56.8594 162.697 56.3672C163.787 55.875 165.064 55.6289 166.529 55.6289C168.088 55.6289 169.453 55.9277 170.625 56.5254C171.809 57.123 172.734 57.9785 173.402 59.0918C174.082 60.1934 174.428 61.5 174.439 63.0117H169.676C169.664 62.3789 169.529 61.8047 169.271 61.2891C169.025 60.7734 168.662 60.3633 168.182 60.0586C167.713 59.7422 167.133 59.584 166.441 59.584C165.703 59.584 165.1 59.7422 164.631 60.0586C164.162 60.3633 163.799 60.7852 163.541 61.3242C163.283 61.8516 163.102 62.4551 162.996 63.1348C162.902 63.8027 162.855 64.5059 162.855 65.2441V65.7539C162.855 66.4922 162.902 67.2012 162.996 67.8809C163.09 68.5605 163.266 69.1641 163.523 69.6914C163.793 70.2188 164.162 70.6348 164.631 70.9395C165.1 71.2441 165.709 71.3965 166.459 71.3965ZM194.514 75H188.941L188.977 70.8867H194.514C195.896 70.8867 197.062 70.5762 198.012 69.9551C198.961 69.3223 199.676 68.4023 200.156 67.1953C200.648 65.9883 200.895 64.5293 200.895 62.8184V61.5703C200.895 60.2578 200.754 59.1035 200.473 58.1074C200.203 57.1113 199.799 56.2734 199.26 55.5938C198.721 54.9141 198.059 54.4043 197.273 54.0645C196.488 53.7129 195.586 53.5371 194.566 53.5371H188.836V49.4062H194.566C196.277 49.4062 197.842 49.6992 199.26 50.2852C200.689 50.8594 201.926 51.6855 202.969 52.7637C204.012 53.8418 204.814 55.1309 205.377 56.6309C205.951 58.1191 206.238 59.7773 206.238 61.6055V62.8184C206.238 64.6348 205.951 66.293 205.377 67.793C204.814 69.293 204.012 70.582 202.969 71.6602C201.938 72.7266 200.701 73.5527 199.26 74.1387C197.83 74.7129 196.248 75 194.514 75ZM191.93 49.4062V75H186.656V49.4062H191.93ZM220.02 70.7109V62.2383C220.02 61.6289 219.92 61.1074 219.721 60.6738C219.521 60.2285 219.211 59.8828 218.789 59.6367C218.379 59.3906 217.846 59.2676 217.189 59.2676C216.627 59.2676 216.141 59.3672 215.73 59.5664C215.32 59.7539 215.004 60.0293 214.781 60.3926C214.559 60.7441 214.447 61.1602 214.447 61.6406H209.385C209.385 60.832 209.572 60.0645 209.947 59.3379C210.322 58.6113 210.867 57.9727 211.582 57.4219C212.297 56.8594 213.146 56.4199 214.131 56.1035C215.127 55.7871 216.24 55.6289 217.471 55.6289C218.947 55.6289 220.26 55.875 221.408 56.3672C222.557 56.8594 223.459 57.5977 224.115 58.582C224.783 59.5664 225.117 60.7969 225.117 62.2734V70.4121C225.117 71.4551 225.182 72.3105 225.311 72.9785C225.439 73.6348 225.627 74.209 225.873 74.7012V75H220.758C220.512 74.4844 220.324 73.8398 220.195 73.0664C220.078 72.2812 220.02 71.4961 220.02 70.7109ZM220.688 63.416L220.723 66.2812H217.893C217.225 66.2812 216.645 66.3574 216.152 66.5098C215.66 66.6621 215.256 66.8789 214.939 67.1602C214.623 67.4297 214.389 67.7461 214.236 68.1094C214.096 68.4727 214.025 68.8711 214.025 69.3047C214.025 69.7383 214.125 70.1309 214.324 70.4824C214.523 70.8223 214.811 71.0918 215.186 71.291C215.561 71.4785 216 71.5723 216.504 71.5723C217.266 71.5723 217.928 71.4199 218.49 71.1152C219.053 70.8105 219.486 70.4355 219.791 69.9902C220.107 69.5449 220.271 69.123 220.283 68.7246L221.619 70.8691C221.432 71.3496 221.174 71.8477 220.846 72.3633C220.529 72.8789 220.125 73.3652 219.633 73.8223C219.141 74.2676 218.549 74.6367 217.857 74.9297C217.166 75.2109 216.346 75.3516 215.396 75.3516C214.189 75.3516 213.094 75.1113 212.109 74.6309C211.137 74.1387 210.363 73.4648 209.789 72.6094C209.227 71.7422 208.945 70.7578 208.945 69.6562C208.945 68.6602 209.133 67.7754 209.508 67.002C209.883 66.2285 210.434 65.5781 211.16 65.0508C211.898 64.5117 212.818 64.1074 213.92 63.8379C215.021 63.5566 216.299 63.416 217.752 63.416H220.688ZM241.061 55.9805H245.648V74.3672C245.648 76.1016 245.262 77.5723 244.488 78.7793C243.727 79.998 242.66 80.918 241.289 81.5391C239.918 82.1719 238.324 82.4883 236.508 82.4883C235.711 82.4883 234.867 82.3828 233.977 82.1719C233.098 81.9609 232.254 81.6328 231.445 81.1875C230.648 80.7422 229.98 80.1797 229.441 79.5L231.674 76.5117C232.26 77.1914 232.939 77.7188 233.713 78.0938C234.486 78.4805 235.342 78.6738 236.279 78.6738C237.193 78.6738 237.967 78.5039 238.6 78.1641C239.232 77.8359 239.719 77.3496 240.059 76.7051C240.398 76.0723 240.568 75.3047 240.568 74.4023V60.375L241.061 55.9805ZM228.264 65.7188V65.3496C228.264 63.8965 228.439 62.5781 228.791 61.3945C229.154 60.1992 229.664 59.1738 230.32 58.3184C230.988 57.4629 231.797 56.8008 232.746 56.332C233.695 55.8633 234.768 55.6289 235.963 55.6289C237.229 55.6289 238.289 55.8633 239.145 56.332C240 56.8008 240.703 57.4688 241.254 58.3359C241.805 59.1914 242.232 60.2051 242.537 61.377C242.854 62.5371 243.1 63.8086 243.275 65.1914V66C243.1 67.3242 242.836 68.5547 242.484 69.6914C242.133 70.8281 241.67 71.8242 241.096 72.6797C240.521 73.5234 239.807 74.1797 238.951 74.6484C238.107 75.1172 237.1 75.3516 235.928 75.3516C234.756 75.3516 233.695 75.1113 232.746 74.6309C231.809 74.1504 231.006 73.4766 230.338 72.6094C229.67 71.7422 229.154 70.7227 228.791 69.5508C228.439 68.3789 228.264 67.1016 228.264 65.7188ZM233.326 65.3496V65.7188C233.326 66.5039 233.402 67.2363 233.555 67.916C233.707 68.5957 233.941 69.1992 234.258 69.7266C234.586 70.2422 234.99 70.6465 235.471 70.9395C235.963 71.2207 236.543 71.3613 237.211 71.3613C238.137 71.3613 238.893 71.168 239.479 70.7812C240.064 70.3828 240.504 69.8379 240.797 69.1465C241.09 68.4551 241.26 67.6582 241.307 66.7559V64.4531C241.283 63.7148 241.184 63.0527 241.008 62.4668C240.832 61.8691 240.586 61.3594 240.27 60.9375C239.953 60.5156 239.543 60.1875 239.039 59.9531C238.535 59.7188 237.938 59.6016 237.246 59.6016C236.578 59.6016 235.998 59.7539 235.506 60.0586C235.025 60.3516 234.621 60.7559 234.293 61.2715C233.977 61.7871 233.736 62.3965 233.572 63.0996C233.408 63.791 233.326 64.541 233.326 65.3496ZM254.525 48V75H249.463V48H254.525ZM253.805 64.8223H252.416C252.428 63.498 252.604 62.2793 252.943 61.166C253.283 60.041 253.77 59.0684 254.402 58.248C255.035 57.416 255.791 56.7715 256.67 56.3145C257.561 55.8574 258.545 55.6289 259.623 55.6289C260.561 55.6289 261.41 55.7637 262.172 56.0332C262.945 56.291 263.607 56.7129 264.158 57.2988C264.721 57.873 265.154 58.6289 265.459 59.5664C265.764 60.5039 265.916 61.6406 265.916 62.9766V75H260.818V62.9414C260.818 62.0977 260.695 61.4355 260.449 60.9551C260.215 60.4629 259.869 60.1172 259.412 59.918C258.967 59.707 258.416 59.6016 257.76 59.6016C257.033 59.6016 256.412 59.7363 255.896 60.0059C255.393 60.2754 254.988 60.6504 254.684 61.1309C254.379 61.5996 254.156 62.1504 254.016 62.7832C253.875 63.416 253.805 64.0957 253.805 64.8223ZM278.52 75.3516C277.043 75.3516 275.719 75.1172 274.547 74.6484C273.375 74.168 272.379 73.5059 271.559 72.6621C270.75 71.8184 270.129 70.8398 269.695 69.7266C269.262 68.6016 269.045 67.4062 269.045 66.1406V65.4375C269.045 63.9961 269.25 62.6777 269.66 61.4824C270.07 60.2871 270.656 59.25 271.418 58.3711C272.191 57.4922 273.129 56.8184 274.23 56.3496C275.332 55.8691 276.574 55.6289 277.957 55.6289C279.305 55.6289 280.5 55.8516 281.543 56.2969C282.586 56.7422 283.459 57.375 284.162 58.1953C284.877 59.0156 285.416 60 285.779 61.1484C286.143 62.2852 286.324 63.5508 286.324 64.9453V67.0547H271.207V63.6797H281.35V63.293C281.35 62.5898 281.221 61.9629 280.963 61.4121C280.717 60.8496 280.342 60.4043 279.838 60.0762C279.334 59.748 278.689 59.584 277.904 59.584C277.236 59.584 276.662 59.7305 276.182 60.0234C275.701 60.3164 275.309 60.7266 275.004 61.2539C274.711 61.7812 274.488 62.4023 274.336 63.1172C274.195 63.8203 274.125 64.5938 274.125 65.4375V66.1406C274.125 66.9023 274.23 67.6055 274.441 68.25C274.664 68.8945 274.975 69.4512 275.373 69.9199C275.783 70.3887 276.275 70.752 276.85 71.0098C277.436 71.2676 278.098 71.3965 278.836 71.3965C279.75 71.3965 280.6 71.2207 281.385 70.8691C282.182 70.5059 282.867 69.9609 283.441 69.2344L285.902 71.9062C285.504 72.4805 284.959 73.0312 284.268 73.5586C283.588 74.0859 282.768 74.5195 281.807 74.8594C280.846 75.1875 279.75 75.3516 278.52 75.3516ZM294.27 60.1289V75H289.207V55.9805H293.971L294.27 60.1289ZM300 55.8574L299.912 60.5508C299.666 60.5156 299.367 60.4863 299.016 60.4629C298.676 60.4277 298.365 60.4102 298.084 60.4102C297.369 60.4102 296.748 60.5039 296.221 60.6914C295.705 60.8672 295.271 61.1309 294.92 61.4824C294.58 61.834 294.322 62.2617 294.146 62.7656C293.982 63.2695 293.889 63.8438 293.865 64.4883L292.846 64.1719C292.846 62.9414 292.969 61.8105 293.215 60.7793C293.461 59.7363 293.818 58.8281 294.287 58.0547C294.768 57.2812 295.354 56.6836 296.045 56.2617C296.736 55.8398 297.527 55.6289 298.418 55.6289C298.699 55.6289 298.986 55.6523 299.279 55.6992C299.572 55.7344 299.812 55.7871 300 55.8574Z" fill="#888888"/>
<path d="M112.277 123.074H102.023L101.969 116.785H110.281C111.776 116.785 112.97 116.621 113.863 116.293C114.757 115.947 115.404 115.445 115.805 114.789C116.224 114.133 116.434 113.312 116.434 112.328C116.434 111.198 116.224 110.286 115.805 109.594C115.385 108.901 114.72 108.4 113.809 108.09C112.915 107.762 111.758 107.598 110.336 107.598H105.633V140H96.0352V100.188H110.336C112.797 100.188 114.993 100.415 116.926 100.871C118.858 101.309 120.499 101.983 121.848 102.895C123.215 103.806 124.254 104.954 124.965 106.34C125.676 107.707 126.031 109.32 126.031 111.18C126.031 112.802 125.685 114.324 124.992 115.746C124.299 117.168 123.142 118.326 121.52 119.219C119.915 120.094 117.719 120.549 114.93 120.586L112.277 123.074ZM111.895 140H99.6992L102.98 132.617H111.895C113.207 132.617 114.255 132.417 115.039 132.016C115.841 131.596 116.415 131.049 116.762 130.375C117.126 129.682 117.309 128.917 117.309 128.078C117.309 127.057 117.135 126.173 116.789 125.426C116.461 124.678 115.932 124.104 115.203 123.703C114.474 123.284 113.499 123.074 112.277 123.074H104.211L104.266 116.785H113.918L116.16 119.301C118.822 119.191 120.927 119.565 122.477 120.422C124.044 121.279 125.165 122.409 125.84 123.812C126.514 125.216 126.852 126.684 126.852 128.215C126.852 130.822 126.286 133 125.156 134.75C124.044 136.5 122.376 137.812 120.152 138.688C117.928 139.562 115.176 140 111.895 140ZM130.598 125.508V124.934C130.598 122.764 130.908 120.768 131.527 118.945C132.147 117.104 133.059 115.509 134.262 114.16C135.465 112.811 136.951 111.763 138.719 111.016C140.487 110.25 142.529 109.867 144.844 109.867C147.177 109.867 149.228 110.25 150.996 111.016C152.783 111.763 154.277 112.811 155.48 114.16C156.684 115.509 157.595 117.104 158.215 118.945C158.835 120.768 159.145 122.764 159.145 124.934V125.508C159.145 127.659 158.835 129.655 158.215 131.496C157.595 133.319 156.684 134.914 155.48 136.281C154.277 137.63 152.792 138.678 151.023 139.426C149.255 140.173 147.214 140.547 144.898 140.547C142.583 140.547 140.533 140.173 138.746 139.426C136.96 138.678 135.465 137.63 134.262 136.281C133.059 134.914 132.147 133.319 131.527 131.496C130.908 129.655 130.598 127.659 130.598 125.508ZM139.812 124.934V125.508C139.812 126.62 139.895 127.659 140.059 128.625C140.223 129.591 140.496 130.439 140.879 131.168C141.262 131.879 141.781 132.435 142.438 132.836C143.094 133.237 143.914 133.438 144.898 133.438C145.865 133.438 146.667 133.237 147.305 132.836C147.961 132.435 148.48 131.879 148.863 131.168C149.246 130.439 149.52 129.591 149.684 128.625C149.848 127.659 149.93 126.62 149.93 125.508V124.934C149.93 123.858 149.848 122.846 149.684 121.898C149.52 120.932 149.246 120.085 148.863 119.355C148.48 118.608 147.961 118.025 147.305 117.605C146.648 117.186 145.828 116.977 144.844 116.977C143.878 116.977 143.066 117.186 142.41 117.605C141.772 118.025 141.262 118.608 140.879 119.355C140.496 120.085 140.223 120.932 140.059 121.898C139.895 122.846 139.812 123.858 139.812 124.934ZM180.527 132.809V110.414H189.77V140H181.129L180.527 132.809ZM181.402 126.793L183.809 126.738C183.809 128.725 183.572 130.566 183.098 132.262C182.624 133.939 181.922 135.397 180.992 136.637C180.081 137.876 178.951 138.842 177.602 139.535C176.271 140.21 174.73 140.547 172.98 140.547C171.522 140.547 170.182 140.346 168.961 139.945C167.758 139.526 166.719 138.879 165.844 138.004C164.969 137.111 164.285 135.971 163.793 134.586C163.319 133.182 163.082 131.505 163.082 129.555V110.414H172.297V129.609C172.297 130.266 172.379 130.831 172.543 131.305C172.707 131.779 172.944 132.18 173.254 132.508C173.564 132.818 173.947 133.055 174.402 133.219C174.876 133.365 175.414 133.438 176.016 133.438C177.401 133.438 178.486 133.146 179.27 132.562C180.053 131.979 180.6 131.186 180.91 130.184C181.238 129.181 181.402 128.051 181.402 126.793ZM203.906 116.73V140H194.691V110.414H203.332L203.906 116.73ZM202.812 124.195L200.652 124.25C200.652 121.99 200.926 119.975 201.473 118.207C202.02 116.421 202.794 114.908 203.797 113.668C204.799 112.428 205.993 111.49 207.379 110.852C208.783 110.195 210.341 109.867 212.055 109.867C213.422 109.867 214.671 110.068 215.801 110.469C216.949 110.87 217.934 111.517 218.754 112.41C219.592 113.303 220.23 114.488 220.668 115.965C221.124 117.423 221.352 119.228 221.352 121.379V140H212.082V121.352C212.082 120.167 211.918 119.264 211.59 118.645C211.262 118.007 210.788 117.569 210.168 117.332C209.548 117.095 208.792 116.977 207.898 116.977C206.951 116.977 206.148 117.159 205.492 117.523C204.836 117.888 204.307 118.398 203.906 119.055C203.523 119.693 203.241 120.449 203.059 121.324C202.895 122.199 202.812 123.156 202.812 124.195ZM243.473 133.219V98H252.742V140H244.43L243.473 133.219ZM225.316 125.562V124.988C225.316 122.746 225.562 120.704 226.055 118.863C226.547 117.004 227.276 115.409 228.242 114.078C229.208 112.729 230.411 111.69 231.852 110.961C233.292 110.232 234.951 109.867 236.828 109.867C238.505 109.867 239.973 110.259 241.23 111.043C242.488 111.809 243.564 112.884 244.457 114.27C245.35 115.655 246.079 117.277 246.645 119.137C247.21 120.978 247.638 122.965 247.93 125.098V125.781C247.638 127.786 247.21 129.682 246.645 131.469C246.079 133.237 245.35 134.805 244.457 136.172C243.564 137.539 242.479 138.615 241.203 139.398C239.945 140.164 238.469 140.547 236.773 140.547C234.896 140.547 233.237 140.173 231.797 139.426C230.375 138.678 229.181 137.63 228.215 136.281C227.267 134.932 226.547 133.346 226.055 131.523C225.562 129.701 225.316 127.714 225.316 125.562ZM234.531 124.988V125.562C234.531 126.674 234.604 127.704 234.75 128.652C234.896 129.6 235.142 130.439 235.488 131.168C235.853 131.879 236.327 132.435 236.91 132.836C237.512 133.237 238.25 133.438 239.125 133.438C240.31 133.438 241.285 133.155 242.051 132.59C242.835 132.025 243.409 131.223 243.773 130.184C244.156 129.145 244.32 127.923 244.266 126.52V124.359C244.302 123.156 244.22 122.099 244.02 121.188C243.819 120.258 243.5 119.483 243.062 118.863C242.643 118.243 242.105 117.779 241.449 117.469C240.811 117.141 240.055 116.977 239.18 116.977C238.323 116.977 237.594 117.177 236.992 117.578C236.409 117.979 235.935 118.544 235.57 119.273C235.206 119.984 234.941 120.832 234.777 121.816C234.613 122.783 234.531 123.84 234.531 124.988ZM299.172 115.992V123.375H278.746V115.992H299.172ZM281.945 100.188V140H272.348V100.188H281.945ZM305.625 100.188V140H296.055V100.188H305.625ZM326.652 132.562V120.367C326.652 119.529 326.534 118.809 326.297 118.207C326.06 117.605 325.686 117.141 325.176 116.812C324.665 116.466 323.982 116.293 323.125 116.293C322.432 116.293 321.84 116.411 321.348 116.648C320.855 116.885 320.482 117.241 320.227 117.715C319.971 118.189 319.844 118.79 319.844 119.52H310.629C310.629 118.152 310.93 116.885 311.531 115.719C312.151 114.534 313.026 113.504 314.156 112.629C315.305 111.754 316.672 111.079 318.258 110.605C319.862 110.113 321.648 109.867 323.617 109.867C325.969 109.867 328.065 110.259 329.906 111.043C331.766 111.827 333.233 113.003 334.309 114.57C335.384 116.12 335.922 118.07 335.922 120.422V132.535C335.922 134.467 336.031 135.935 336.25 136.938C336.469 137.922 336.779 138.788 337.18 139.535V140H327.938C327.5 139.089 327.172 137.977 326.953 136.664C326.753 135.333 326.652 133.966 326.652 132.562ZM327.773 121.926L327.828 126.848H323.754C322.897 126.848 322.168 126.966 321.566 127.203C320.983 127.44 320.509 127.768 320.145 128.188C319.798 128.589 319.543 129.044 319.379 129.555C319.233 130.065 319.16 130.603 319.16 131.168C319.16 131.715 319.288 132.207 319.543 132.645C319.816 133.064 320.181 133.392 320.637 133.629C321.092 133.866 321.603 133.984 322.168 133.984C323.189 133.984 324.055 133.793 324.766 133.41C325.495 133.009 326.051 132.526 326.434 131.961C326.816 131.396 327.008 130.867 327.008 130.375L329.031 134.148C328.667 134.878 328.247 135.616 327.773 136.363C327.318 137.111 326.743 137.803 326.051 138.441C325.376 139.061 324.547 139.572 323.562 139.973C322.578 140.355 321.384 140.547 319.98 140.547C318.158 140.547 316.48 140.173 314.949 139.426C313.436 138.678 312.224 137.639 311.312 136.309C310.401 134.96 309.945 133.41 309.945 131.66C309.945 130.129 310.219 128.762 310.766 127.559C311.331 126.355 312.178 125.335 313.309 124.496C314.439 123.658 315.879 123.02 317.629 122.582C319.379 122.145 321.439 121.926 323.809 121.926H327.773ZM350.332 117.742V140H341.117V110.414H349.73L350.332 117.742ZM359.082 110.195L358.918 118.754C358.553 118.717 358.061 118.672 357.441 118.617C356.822 118.562 356.302 118.535 355.883 118.535C354.807 118.535 353.878 118.663 353.094 118.918C352.328 119.155 351.69 119.52 351.18 120.012C350.688 120.486 350.323 121.087 350.086 121.816C349.867 122.546 349.767 123.393 349.785 124.359L348.117 123.266C348.117 121.279 348.309 119.474 348.691 117.852C349.092 116.211 349.658 114.798 350.387 113.613C351.116 112.41 352 111.49 353.039 110.852C354.078 110.195 355.245 109.867 356.539 109.867C356.995 109.867 357.441 109.895 357.879 109.949C358.335 110.004 358.736 110.086 359.082 110.195ZM371.551 116.676V140H362.336V110.414H370.977L371.551 116.676ZM370.43 124.195L368.324 124.25C368.324 122.172 368.57 120.258 369.062 118.508C369.555 116.758 370.284 115.236 371.25 113.941C372.216 112.647 373.401 111.645 374.805 110.934C376.227 110.223 377.867 109.867 379.727 109.867C381.021 109.867 382.197 110.068 383.254 110.469C384.311 110.852 385.223 111.462 385.988 112.301C386.754 113.121 387.337 114.197 387.738 115.527C388.158 116.84 388.367 118.417 388.367 120.258V140H379.152V121.434C379.152 120.176 379.007 119.228 378.715 118.59C378.441 117.952 378.04 117.523 377.512 117.305C376.983 117.086 376.336 116.977 375.57 116.977C374.768 116.977 374.048 117.159 373.41 117.523C372.772 117.888 372.225 118.398 371.77 119.055C371.332 119.693 370.995 120.449 370.758 121.324C370.539 122.199 370.43 123.156 370.43 124.195ZM387.328 124.195L384.758 124.25C384.758 122.172 384.986 120.258 385.441 118.508C385.915 116.758 386.617 115.236 387.547 113.941C388.495 112.647 389.671 111.645 391.074 110.934C392.478 110.223 394.109 109.867 395.969 109.867C397.318 109.867 398.557 110.068 399.688 110.469C400.818 110.87 401.793 111.517 402.613 112.41C403.434 113.303 404.072 114.488 404.527 115.965C404.983 117.423 405.211 119.228 405.211 121.379V140H395.969V121.379C395.969 120.158 395.823 119.237 395.531 118.617C395.258 117.979 394.857 117.551 394.328 117.332C393.799 117.095 393.171 116.977 392.441 116.977C391.566 116.977 390.81 117.159 390.172 117.523C389.534 117.888 388.996 118.398 388.559 119.055C388.139 119.693 387.829 120.449 387.629 121.324C387.428 122.199 387.328 123.156 387.328 124.195ZM409.34 125.508V124.934C409.34 122.764 409.65 120.768 410.27 118.945C410.889 117.104 411.801 115.509 413.004 114.16C414.207 112.811 415.693 111.763 417.461 111.016C419.229 110.25 421.271 109.867 423.586 109.867C425.919 109.867 427.97 110.25 429.738 111.016C431.525 111.763 433.02 112.811 434.223 114.16C435.426 115.509 436.337 117.104 436.957 118.945C437.577 120.768 437.887 122.764 437.887 124.934V125.508C437.887 127.659 437.577 129.655 436.957 131.496C436.337 133.319 435.426 134.914 434.223 136.281C433.02 137.63 431.534 138.678 429.766 139.426C427.997 140.173 425.956 140.547 423.641 140.547C421.326 140.547 419.275 140.173 417.488 139.426C415.702 138.678 414.207 137.63 413.004 136.281C411.801 134.914 410.889 133.319 410.27 131.496C409.65 129.655 409.34 127.659 409.34 125.508ZM418.555 124.934V125.508C418.555 126.62 418.637 127.659 418.801 128.625C418.965 129.591 419.238 130.439 419.621 131.168C420.004 131.879 420.523 132.435 421.18 132.836C421.836 133.237 422.656 133.438 423.641 133.438C424.607 133.438 425.409 133.237 426.047 132.836C426.703 132.435 427.223 131.879 427.605 131.168C427.988 130.439 428.262 129.591 428.426 128.625C428.59 127.659 428.672 126.62 428.672 125.508V124.934C428.672 123.858 428.59 122.846 428.426 121.898C428.262 120.932 427.988 120.085 427.605 119.355C427.223 118.608 426.703 118.025 426.047 117.605C425.391 117.186 424.57 116.977 423.586 116.977C422.62 116.977 421.809 117.186 421.152 117.605C420.514 118.025 420.004 118.608 419.621 119.355C419.238 120.085 418.965 120.932 418.801 121.898C418.637 122.846 418.555 123.858 418.555 124.934ZM451.039 116.73V140H441.824V110.414H450.465L451.039 116.73ZM449.945 124.195L447.785 124.25C447.785 121.99 448.059 119.975 448.605 118.207C449.152 116.421 449.927 114.908 450.93 113.668C451.932 112.428 453.126 111.49 454.512 110.852C455.915 110.195 457.474 109.867 459.188 109.867C460.555 109.867 461.803 110.068 462.934 110.469C464.082 110.87 465.066 111.517 465.887 112.41C466.725 113.303 467.363 114.488 467.801 115.965C468.257 117.423 468.484 119.228 468.484 121.379V140H459.215V121.352C459.215 120.167 459.051 119.264 458.723 118.645C458.395 118.007 457.921 117.569 457.301 117.332C456.681 117.095 455.924 116.977 455.031 116.977C454.083 116.977 453.281 117.159 452.625 117.523C451.969 117.888 451.44 118.398 451.039 119.055C450.656 119.693 450.374 120.449 450.191 121.324C450.027 122.199 449.945 123.156 449.945 124.195ZM482.676 136.527L490.332 110.414H500.23L488.336 144.402C488.081 145.15 487.743 145.952 487.324 146.809C486.905 147.684 486.331 148.513 485.602 149.297C484.872 150.081 483.934 150.719 482.785 151.211C481.655 151.703 480.251 151.949 478.574 151.949C477.681 151.949 477.025 151.904 476.605 151.812C476.204 151.74 475.585 151.603 474.746 151.402V144.812C474.983 144.812 475.184 144.812 475.348 144.812C475.53 144.812 475.73 144.812 475.949 144.812C476.934 144.812 477.717 144.712 478.301 144.512C478.902 144.311 479.358 144.02 479.668 143.637C479.996 143.254 480.251 142.789 480.434 142.242L482.676 136.527ZM480.734 110.414L486.559 131.113L487.57 140.875H481.391L470.863 110.414H480.734Z" fill="black"/>
<rect x="93" y="178" width="917" height="77" rx="10" fill="#D3D3D3"/>
<rect x="111" y="196" width="98" height="41" rx="3" fill="#424242"/>
<rect x="111" y="196" width="98" height="41" rx="3" stroke="#424242" stroke-width="4"/>
<path d="M137.078 210.203V223H133.993V210.203H137.078ZM142.053 215.529V217.902H136.199V215.529H142.053ZM142.554 210.203V212.585H136.199V210.203H142.554ZM146.825 209.5V223H143.854V209.5H146.825ZM154.208 220.688V213.49H157.179V223H154.401L154.208 220.688ZM154.489 218.755L155.263 218.737C155.263 219.376 155.187 219.968 155.034 220.513C154.882 221.052 154.656 221.521 154.357 221.919C154.064 222.317 153.701 222.628 153.268 222.851C152.84 223.067 152.345 223.176 151.782 223.176C151.313 223.176 150.883 223.111 150.49 222.982C150.104 222.848 149.77 222.64 149.488 222.358C149.207 222.071 148.987 221.705 148.829 221.26C148.677 220.809 148.601 220.27 148.601 219.643V213.49H151.562V219.66C151.562 219.871 151.589 220.053 151.642 220.205C151.694 220.357 151.771 220.486 151.87 220.592C151.97 220.691 152.093 220.768 152.239 220.82C152.392 220.867 152.564 220.891 152.758 220.891C153.203 220.891 153.552 220.797 153.804 220.609C154.056 220.422 154.231 220.167 154.331 219.845C154.437 219.522 154.489 219.159 154.489 218.755ZM163.823 213.49V215.547H158.093V213.49H163.823ZM159.297 211.126H162.259V219.897C162.259 220.149 162.288 220.346 162.347 220.486C162.405 220.621 162.505 220.718 162.646 220.776C162.792 220.829 162.985 220.855 163.226 220.855C163.396 220.855 163.536 220.853 163.647 220.847C163.759 220.835 163.864 220.82 163.964 220.803V222.921C163.712 223.003 163.448 223.064 163.173 223.105C162.897 223.152 162.604 223.176 162.294 223.176C161.661 223.176 161.119 223.076 160.668 222.877C160.223 222.678 159.883 222.364 159.648 221.937C159.414 221.509 159.297 220.952 159.297 220.267V211.126ZM170.011 213.49V215.547H164.28V213.49H170.011ZM165.484 211.126H168.446V219.897C168.446 220.149 168.476 220.346 168.534 220.486C168.593 220.621 168.692 220.718 168.833 220.776C168.979 220.829 169.173 220.855 169.413 220.855C169.583 220.855 169.724 220.853 169.835 220.847C169.946 220.835 170.052 220.82 170.151 220.803V222.921C169.899 223.003 169.636 223.064 169.36 223.105C169.085 223.152 168.792 223.176 168.481 223.176C167.849 223.176 167.307 223.076 166.855 222.877C166.41 222.678 166.07 222.364 165.836 221.937C165.602 221.509 165.484 220.952 165.484 220.267V211.126ZM175.794 223.176C175.021 223.176 174.329 223.056 173.72 222.815C173.11 222.569 172.595 222.232 172.173 221.805C171.757 221.377 171.438 220.885 171.215 220.328C170.998 219.771 170.89 219.183 170.89 218.562V218.228C170.89 217.53 170.986 216.886 171.18 216.294C171.373 215.696 171.66 215.175 172.041 214.729C172.422 214.284 172.899 213.938 173.474 213.692C174.048 213.44 174.716 213.314 175.478 213.314C176.151 213.314 176.755 213.423 177.288 213.64C177.821 213.856 178.272 214.167 178.642 214.571C179.017 214.976 179.301 215.465 179.494 216.039C179.693 216.613 179.793 217.258 179.793 217.973V219.177H172.023V217.322H176.901V217.094C176.907 216.777 176.852 216.508 176.734 216.285C176.623 216.062 176.459 215.893 176.242 215.775C176.025 215.658 175.762 215.6 175.451 215.6C175.129 215.6 174.862 215.67 174.651 215.811C174.446 215.951 174.285 216.145 174.168 216.391C174.057 216.631 173.978 216.909 173.931 217.226C173.884 217.542 173.86 217.876 173.86 218.228V218.562C173.86 218.913 173.907 219.232 174.001 219.52C174.101 219.807 174.241 220.053 174.423 220.258C174.61 220.457 174.833 220.612 175.091 220.724C175.354 220.835 175.653 220.891 175.987 220.891C176.392 220.891 176.79 220.814 177.183 220.662C177.575 220.51 177.912 220.258 178.193 219.906L179.538 221.506C179.345 221.781 179.069 222.048 178.712 222.306C178.36 222.563 177.938 222.774 177.446 222.938C176.954 223.097 176.403 223.176 175.794 223.176ZM183.985 215.846V223H181.023V213.49H183.792L183.985 215.846ZM186.798 213.42L186.745 216.171C186.628 216.159 186.47 216.145 186.271 216.127C186.071 216.109 185.904 216.101 185.77 216.101C185.424 216.101 185.125 216.142 184.873 216.224C184.627 216.3 184.422 216.417 184.258 216.575C184.1 216.728 183.982 216.921 183.906 217.155C183.836 217.39 183.804 217.662 183.81 217.973L183.273 217.621C183.273 216.982 183.335 216.402 183.458 215.881C183.587 215.354 183.769 214.899 184.003 214.519C184.237 214.132 184.521 213.836 184.855 213.631C185.189 213.42 185.564 213.314 185.98 213.314C186.127 213.314 186.271 213.323 186.411 213.341C186.558 213.358 186.687 213.385 186.798 213.42Z" fill="white"/>
<rect x="229" y="196" width="103" height="41" rx="3" fill="#424242"/>
<rect x="229" y="196" width="103" height="41" rx="3" stroke="#424242" stroke-width="4"/>
<path d="M253.72 210.203H256.233L259.09 219.106L261.946 210.203H264.46L260.109 223H258.07L253.72 210.203ZM252.19 210.203H254.792L255.275 220.012V223H252.19V210.203ZM263.388 210.203H265.998V223H262.904V220.012L263.388 210.203ZM270.753 221.884L273.214 213.49H276.396L272.572 224.415C272.49 224.655 272.382 224.913 272.247 225.188C272.112 225.47 271.928 225.736 271.693 225.988C271.459 226.24 271.157 226.445 270.788 226.604C270.425 226.762 269.974 226.841 269.435 226.841C269.147 226.841 268.937 226.826 268.802 226.797C268.673 226.773 268.474 226.729 268.204 226.665V224.547C268.28 224.547 268.345 224.547 268.397 224.547C268.456 224.547 268.521 224.547 268.591 224.547C268.907 224.547 269.159 224.515 269.347 224.45C269.54 224.386 269.687 224.292 269.786 224.169C269.892 224.046 269.974 223.896 270.032 223.721L270.753 221.884ZM270.129 213.49L272.001 220.144L272.326 223.281H270.34L266.956 213.49H270.129ZM283.901 219.599C283.901 219.399 283.872 219.221 283.813 219.062C283.755 218.898 283.646 218.746 283.488 218.605C283.33 218.465 283.102 218.324 282.803 218.184C282.51 218.037 282.123 217.885 281.643 217.727C281.08 217.539 280.538 217.328 280.017 217.094C279.495 216.854 279.029 216.575 278.619 216.259C278.209 215.937 277.884 215.562 277.644 215.134C277.403 214.7 277.283 214.196 277.283 213.622C277.283 213.071 277.406 212.576 277.652 212.137C277.898 211.691 278.241 211.313 278.681 211.003C279.126 210.687 279.647 210.446 280.245 210.282C280.843 210.112 281.496 210.027 282.205 210.027C283.143 210.027 283.969 210.191 284.684 210.52C285.404 210.842 285.967 211.302 286.371 211.899C286.781 212.491 286.986 213.191 286.986 214H283.919C283.919 213.678 283.852 213.394 283.717 213.147C283.588 212.901 283.392 212.708 283.128 212.567C282.864 212.427 282.533 212.356 282.135 212.356C281.748 212.356 281.423 212.415 281.159 212.532C280.896 212.649 280.696 212.808 280.562 213.007C280.427 213.2 280.359 213.414 280.359 213.648C280.359 213.842 280.412 214.018 280.518 214.176C280.629 214.328 280.784 214.472 280.983 214.606C281.188 214.741 281.435 214.87 281.722 214.993C282.015 215.116 282.343 215.236 282.706 215.354C283.386 215.57 283.989 215.813 284.517 216.083C285.05 216.347 285.498 216.648 285.861 216.988C286.23 217.322 286.509 217.703 286.696 218.131C286.89 218.559 286.986 219.042 286.986 219.581C286.986 220.155 286.875 220.665 286.652 221.11C286.43 221.556 286.11 221.934 285.694 222.244C285.278 222.549 284.78 222.78 284.2 222.938C283.62 223.097 282.973 223.176 282.258 223.176C281.602 223.176 280.954 223.094 280.315 222.93C279.683 222.76 279.108 222.502 278.593 222.156C278.077 221.805 277.664 221.356 277.354 220.812C277.049 220.261 276.896 219.607 276.896 218.852H279.99C279.99 219.227 280.04 219.543 280.14 219.801C280.239 220.059 280.386 220.267 280.579 220.425C280.772 220.577 281.01 220.688 281.291 220.759C281.572 220.823 281.895 220.855 282.258 220.855C282.65 220.855 282.967 220.8 283.207 220.688C283.447 220.571 283.623 220.419 283.734 220.231C283.846 220.038 283.901 219.827 283.901 219.599ZM295.714 220.891L299.282 223.721L297.366 225.338L293.859 222.508L295.714 220.891ZM299.432 216.347V216.865C299.432 217.844 299.294 218.723 299.019 219.502C298.749 220.275 298.362 220.938 297.858 221.488C297.36 222.033 296.771 222.452 296.092 222.745C295.412 223.032 294.662 223.176 293.842 223.176C293.016 223.176 292.26 223.032 291.574 222.745C290.895 222.452 290.303 222.033 289.799 221.488C289.301 220.938 288.914 220.275 288.639 219.502C288.369 218.723 288.234 217.844 288.234 216.865V216.347C288.234 215.368 288.369 214.489 288.639 213.71C288.914 212.931 289.298 212.269 289.79 211.724C290.288 211.173 290.877 210.754 291.557 210.467C292.242 210.174 292.998 210.027 293.824 210.027C294.645 210.027 295.395 210.174 296.074 210.467C296.76 210.754 297.352 211.173 297.85 211.724C298.354 212.269 298.743 212.931 299.019 213.71C299.294 214.489 299.432 215.368 299.432 216.347ZM296.294 216.865V216.329C296.294 215.696 296.238 215.14 296.127 214.659C296.021 214.173 295.863 213.766 295.652 213.438C295.441 213.109 295.181 212.863 294.87 212.699C294.565 212.529 294.217 212.444 293.824 212.444C293.414 212.444 293.057 212.529 292.752 212.699C292.447 212.863 292.192 213.109 291.987 213.438C291.782 213.766 291.627 214.173 291.521 214.659C291.422 215.14 291.372 215.696 291.372 216.329V216.865C291.372 217.492 291.422 218.049 291.521 218.535C291.627 219.016 291.782 219.423 291.987 219.757C292.198 220.091 292.456 220.343 292.761 220.513C293.071 220.683 293.432 220.768 293.842 220.768C294.234 220.768 294.583 220.683 294.888 220.513C295.192 220.343 295.447 220.091 295.652 219.757C295.863 219.423 296.021 219.016 296.127 218.535C296.238 218.049 296.294 217.492 296.294 216.865ZM309.46 220.627V223H302.991V220.627H309.46ZM304.09 210.203V223H301.005V210.203H304.09Z" fill="white"/>
<rect x="352" y="196" width="104" height="41" rx="3" fill="#424242"/>
<rect x="352" y="196" width="104" height="41" rx="3" stroke="#424242" stroke-width="4"/>
<path d="M383.812 220.627V223H377.343V220.627H383.812ZM378.441 210.203V223H375.356V210.203H378.441ZM389.911 220.609V216.689C389.911 216.42 389.873 216.188 389.797 215.995C389.721 215.802 389.601 215.652 389.437 215.547C389.272 215.436 389.053 215.38 388.777 215.38C388.555 215.38 388.364 215.418 388.206 215.494C388.048 215.57 387.928 215.685 387.846 215.837C387.764 215.989 387.723 216.183 387.723 216.417H384.761C384.761 215.978 384.857 215.57 385.051 215.195C385.25 214.814 385.531 214.483 385.895 214.202C386.264 213.921 386.703 213.704 387.213 213.552C387.729 213.394 388.303 213.314 388.936 213.314C389.691 213.314 390.365 213.44 390.957 213.692C391.555 213.944 392.026 214.322 392.372 214.826C392.718 215.324 392.891 215.951 392.891 216.707V220.601C392.891 221.222 392.926 221.693 392.996 222.016C393.066 222.332 393.166 222.61 393.295 222.851V223H390.324C390.184 222.707 390.078 222.35 390.008 221.928C389.943 221.5 389.911 221.061 389.911 220.609ZM390.271 217.19L390.289 218.772H388.979C388.704 218.772 388.47 218.811 388.276 218.887C388.089 218.963 387.937 219.068 387.819 219.203C387.708 219.332 387.626 219.479 387.573 219.643C387.526 219.807 387.503 219.979 387.503 220.161C387.503 220.337 387.544 220.495 387.626 220.636C387.714 220.771 387.831 220.876 387.978 220.952C388.124 221.028 388.288 221.066 388.47 221.066C388.798 221.066 389.076 221.005 389.305 220.882C389.539 220.753 389.718 220.598 389.841 220.416C389.964 220.234 390.025 220.064 390.025 219.906L390.676 221.119C390.559 221.354 390.424 221.591 390.271 221.831C390.125 222.071 389.94 222.294 389.718 222.499C389.501 222.698 389.234 222.862 388.918 222.991C388.602 223.114 388.218 223.176 387.767 223.176C387.181 223.176 386.642 223.056 386.149 222.815C385.663 222.575 385.273 222.241 384.98 221.813C384.688 221.38 384.541 220.882 384.541 220.319C384.541 219.827 384.629 219.388 384.805 219.001C384.986 218.614 385.259 218.286 385.622 218.017C385.985 217.747 386.448 217.542 387.011 217.401C387.573 217.261 388.235 217.19 388.997 217.19H390.271ZM397.522 215.846V223H394.561V213.49H397.329L397.522 215.846ZM400.335 213.42L400.282 216.171C400.165 216.159 400.007 216.145 399.808 216.127C399.608 216.109 399.441 216.101 399.307 216.101C398.961 216.101 398.662 216.142 398.41 216.224C398.164 216.3 397.959 216.417 397.795 216.575C397.637 216.728 397.52 216.921 397.443 217.155C397.373 217.39 397.341 217.662 397.347 217.973L396.811 217.621C396.811 216.982 396.872 216.402 396.995 215.881C397.124 215.354 397.306 214.899 397.54 214.519C397.774 214.132 398.059 213.836 398.393 213.631C398.727 213.42 399.102 213.314 399.518 213.314C399.664 213.314 399.808 213.323 399.948 213.341C400.095 213.358 400.224 213.385 400.335 213.42ZM406.03 220.609V216.689C406.03 216.42 405.992 216.188 405.916 215.995C405.84 215.802 405.72 215.652 405.556 215.547C405.392 215.436 405.172 215.38 404.896 215.38C404.674 215.38 404.483 215.418 404.325 215.494C404.167 215.57 404.047 215.685 403.965 215.837C403.883 215.989 403.842 216.183 403.842 216.417H400.88C400.88 215.978 400.977 215.57 401.17 215.195C401.369 214.814 401.65 214.483 402.014 214.202C402.383 213.921 402.822 213.704 403.332 213.552C403.848 213.394 404.422 213.314 405.055 213.314C405.811 213.314 406.484 213.44 407.076 213.692C407.674 213.944 408.146 214.322 408.491 214.826C408.837 215.324 409.01 215.951 409.01 216.707V220.601C409.01 221.222 409.045 221.693 409.115 222.016C409.186 222.332 409.285 222.61 409.414 222.851V223H406.443C406.303 222.707 406.197 222.35 406.127 221.928C406.062 221.5 406.03 221.061 406.03 220.609ZM406.391 217.19L406.408 218.772H405.099C404.823 218.772 404.589 218.811 404.396 218.887C404.208 218.963 404.056 219.068 403.938 219.203C403.827 219.332 403.745 219.479 403.692 219.643C403.646 219.807 403.622 219.979 403.622 220.161C403.622 220.337 403.663 220.495 403.745 220.636C403.833 220.771 403.95 220.876 404.097 220.952C404.243 221.028 404.407 221.066 404.589 221.066C404.917 221.066 405.195 221.005 405.424 220.882C405.658 220.753 405.837 220.598 405.96 220.416C406.083 220.234 406.145 220.064 406.145 219.906L406.795 221.119C406.678 221.354 406.543 221.591 406.391 221.831C406.244 222.071 406.06 222.294 405.837 222.499C405.62 222.698 405.354 222.862 405.037 222.991C404.721 223.114 404.337 223.176 403.886 223.176C403.3 223.176 402.761 223.056 402.269 222.815C401.782 222.575 401.393 222.241 401.1 221.813C400.807 221.38 400.66 220.882 400.66 220.319C400.66 219.827 400.748 219.388 400.924 219.001C401.105 218.614 401.378 218.286 401.741 218.017C402.104 217.747 402.567 217.542 403.13 217.401C403.692 217.261 404.354 217.19 405.116 217.19H406.391ZM413.94 220.97L415.812 213.49H418.933L415.821 223H413.976L413.94 220.97ZM412.833 213.49L414.679 220.97L414.661 223H412.807L409.704 213.49H412.833ZM424.294 223.176C423.521 223.176 422.829 223.056 422.22 222.815C421.61 222.569 421.095 222.232 420.673 221.805C420.257 221.377 419.938 220.885 419.715 220.328C419.498 219.771 419.39 219.183 419.39 218.562V218.228C419.39 217.53 419.486 216.886 419.68 216.294C419.873 215.696 420.16 215.175 420.541 214.729C420.922 214.284 421.399 213.938 421.974 213.692C422.548 213.44 423.216 213.314 423.978 213.314C424.651 213.314 425.255 213.423 425.788 213.64C426.321 213.856 426.772 214.167 427.142 214.571C427.517 214.976 427.801 215.465 427.994 216.039C428.193 216.613 428.293 217.258 428.293 217.973V219.177H420.523V217.322H425.401V217.094C425.407 216.777 425.352 216.508 425.234 216.285C425.123 216.062 424.959 215.893 424.742 215.775C424.525 215.658 424.262 215.6 423.951 215.6C423.629 215.6 423.362 215.67 423.151 215.811C422.946 215.951 422.785 216.145 422.668 216.391C422.557 216.631 422.478 216.909 422.431 217.226C422.384 217.542 422.36 217.876 422.36 218.228V218.562C422.36 218.913 422.407 219.232 422.501 219.52C422.601 219.807 422.741 220.053 422.923 220.258C423.11 220.457 423.333 220.612 423.591 220.724C423.854 220.835 424.153 220.891 424.487 220.891C424.892 220.891 425.29 220.814 425.683 220.662C426.075 220.51 426.412 220.258 426.693 219.906L428.038 221.506C427.845 221.781 427.569 222.048 427.212 222.306C426.86 222.563 426.438 222.774 425.946 222.938C425.454 223.097 424.903 223.176 424.294 223.176ZM432.626 209.5V223H429.655V209.5H432.626Z" fill="white"/>
<rect x="476" y="196" width="154" height="41" rx="3" fill="#424242"/>
<rect x="476" y="196" width="154" height="41" rx="3" stroke="#424242" stroke-width="4"/>
<path d="M500.644 210.203H503.157L506.014 219.106L508.87 210.203H511.384L507.033 223H504.994L500.644 210.203ZM499.114 210.203H501.716L502.199 220.012V223H499.114V210.203ZM510.312 210.203H512.922V223H509.828V220.012L510.312 210.203ZM519.698 220.609V216.689C519.698 216.42 519.66 216.188 519.584 215.995C519.508 215.802 519.388 215.652 519.224 215.547C519.06 215.436 518.84 215.38 518.564 215.38C518.342 215.38 518.151 215.418 517.993 215.494C517.835 215.57 517.715 215.685 517.633 215.837C517.551 215.989 517.51 216.183 517.51 216.417H514.548C514.548 215.978 514.645 215.57 514.838 215.195C515.037 214.814 515.318 214.483 515.682 214.202C516.051 213.921 516.49 213.704 517 213.552C517.516 213.394 518.09 213.314 518.723 213.314C519.479 213.314 520.152 213.44 520.744 213.692C521.342 213.944 521.813 214.322 522.159 214.826C522.505 215.324 522.678 215.951 522.678 216.707V220.601C522.678 221.222 522.713 221.693 522.783 222.016C522.854 222.332 522.953 222.61 523.082 222.851V223H520.111C519.971 222.707 519.865 222.35 519.795 221.928C519.73 221.5 519.698 221.061 519.698 220.609ZM520.059 217.19L520.076 218.772H518.767C518.491 218.772 518.257 218.811 518.063 218.887C517.876 218.963 517.724 219.068 517.606 219.203C517.495 219.332 517.413 219.479 517.36 219.643C517.313 219.807 517.29 219.979 517.29 220.161C517.29 220.337 517.331 220.495 517.413 220.636C517.501 220.771 517.618 220.876 517.765 220.952C517.911 221.028 518.075 221.066 518.257 221.066C518.585 221.066 518.863 221.005 519.092 220.882C519.326 220.753 519.505 220.598 519.628 220.416C519.751 220.234 519.812 220.064 519.812 219.906L520.463 221.119C520.346 221.354 520.211 221.591 520.059 221.831C519.912 222.071 519.728 222.294 519.505 222.499C519.288 222.698 519.021 222.862 518.705 222.991C518.389 223.114 518.005 223.176 517.554 223.176C516.968 223.176 516.429 223.056 515.937 222.815C515.45 222.575 515.061 222.241 514.768 221.813C514.475 221.38 514.328 220.882 514.328 220.319C514.328 219.827 514.416 219.388 514.592 219.001C514.773 218.614 515.046 218.286 515.409 218.017C515.772 217.747 516.235 217.542 516.798 217.401C517.36 217.261 518.022 217.19 518.784 217.19H520.059ZM527.31 215.318V226.656H524.348V213.49H527.107L527.31 215.318ZM533.146 218.131V218.315C533.146 219.007 533.066 219.648 532.908 220.24C532.75 220.832 532.516 221.348 532.205 221.787C531.895 222.227 531.508 222.569 531.045 222.815C530.588 223.056 530.058 223.176 529.454 223.176C528.886 223.176 528.396 223.05 527.986 222.798C527.576 222.546 527.233 222.197 526.958 221.752C526.683 221.307 526.46 220.797 526.29 220.223C526.12 219.648 525.985 219.042 525.886 218.403V218.166C525.985 217.48 526.12 216.845 526.29 216.259C526.46 215.667 526.683 215.151 526.958 214.712C527.233 214.272 527.573 213.93 527.978 213.684C528.388 213.438 528.877 213.314 529.445 213.314C530.049 213.314 530.579 213.429 531.036 213.657C531.499 213.886 531.886 214.214 532.196 214.642C532.513 215.063 532.75 215.57 532.908 216.162C533.066 216.754 533.146 217.41 533.146 218.131ZM530.184 218.315V218.131C530.184 217.762 530.157 217.425 530.104 217.12C530.052 216.81 529.967 216.54 529.85 216.312C529.738 216.083 529.589 215.907 529.401 215.784C529.214 215.661 528.982 215.6 528.707 215.6C528.391 215.6 528.124 215.649 527.907 215.749C527.696 215.843 527.526 215.989 527.397 216.188C527.274 216.382 527.187 216.625 527.134 216.918C527.087 217.205 527.066 217.542 527.072 217.929V218.649C527.061 219.095 527.104 219.487 527.204 219.827C527.304 220.161 527.477 220.422 527.723 220.609C527.969 220.797 528.303 220.891 528.725 220.891C529.006 220.891 529.24 220.826 529.428 220.697C529.615 220.562 529.765 220.378 529.876 220.144C529.987 219.903 530.066 219.628 530.113 219.317C530.16 219.007 530.184 218.673 530.184 218.315ZM544.308 217.56H541.012L540.994 215.538H543.666C544.146 215.538 544.53 215.485 544.817 215.38C545.104 215.269 545.312 215.107 545.441 214.896C545.576 214.686 545.644 214.422 545.644 214.105C545.644 213.742 545.576 213.449 545.441 213.227C545.307 213.004 545.093 212.843 544.8 212.743C544.513 212.638 544.141 212.585 543.684 212.585H542.172V223H539.087V210.203H543.684C544.475 210.203 545.181 210.276 545.802 210.423C546.423 210.563 546.95 210.78 547.384 211.073C547.823 211.366 548.157 211.735 548.386 212.181C548.614 212.62 548.729 213.139 548.729 213.736C548.729 214.258 548.617 214.747 548.395 215.204C548.172 215.661 547.8 216.033 547.278 216.32C546.763 216.602 546.057 216.748 545.16 216.76L544.308 217.56ZM544.185 223H540.265L541.319 220.627H544.185C544.606 220.627 544.943 220.562 545.195 220.434C545.453 220.299 545.638 220.123 545.749 219.906C545.866 219.684 545.925 219.438 545.925 219.168C545.925 218.84 545.869 218.556 545.758 218.315C545.652 218.075 545.482 217.891 545.248 217.762C545.014 217.627 544.7 217.56 544.308 217.56H541.715L541.732 215.538H544.835L545.556 216.347C546.411 216.312 547.088 216.432 547.586 216.707C548.09 216.982 548.45 217.346 548.667 217.797C548.884 218.248 548.992 218.72 548.992 219.212C548.992 220.05 548.811 220.75 548.447 221.312C548.09 221.875 547.554 222.297 546.839 222.578C546.124 222.859 545.239 223 544.185 223ZM550.196 218.342V218.157C550.196 217.46 550.296 216.818 550.495 216.232C550.694 215.641 550.987 215.128 551.374 214.694C551.761 214.261 552.238 213.924 552.807 213.684C553.375 213.438 554.031 213.314 554.775 213.314C555.525 213.314 556.185 213.438 556.753 213.684C557.327 213.924 557.808 214.261 558.194 214.694C558.581 215.128 558.874 215.641 559.073 216.232C559.272 216.818 559.372 217.46 559.372 218.157V218.342C559.372 219.033 559.272 219.675 559.073 220.267C558.874 220.853 558.581 221.365 558.194 221.805C557.808 222.238 557.33 222.575 556.762 222.815C556.193 223.056 555.537 223.176 554.793 223.176C554.049 223.176 553.39 223.056 552.815 222.815C552.241 222.575 551.761 222.238 551.374 221.805C550.987 221.365 550.694 220.853 550.495 220.267C550.296 219.675 550.196 219.033 550.196 218.342ZM553.158 218.157V218.342C553.158 218.699 553.185 219.033 553.237 219.344C553.29 219.654 553.378 219.927 553.501 220.161C553.624 220.39 553.791 220.568 554.002 220.697C554.213 220.826 554.477 220.891 554.793 220.891C555.104 220.891 555.361 220.826 555.566 220.697C555.777 220.568 555.944 220.39 556.067 220.161C556.19 219.927 556.278 219.654 556.331 219.344C556.384 219.033 556.41 218.699 556.41 218.342V218.157C556.41 217.812 556.384 217.486 556.331 217.182C556.278 216.871 556.19 216.599 556.067 216.364C555.944 216.124 555.777 215.937 555.566 215.802C555.355 215.667 555.092 215.6 554.775 215.6C554.465 215.6 554.204 215.667 553.993 215.802C553.788 215.937 553.624 216.124 553.501 216.364C553.378 216.599 553.29 216.871 553.237 217.182C553.185 217.486 553.158 217.812 553.158 218.157ZM563.011 213.49L564.347 216.109L565.727 213.49H568.803L566.307 218.122L568.935 223H565.832L564.347 220.188L562.87 223H559.768L562.396 218.122L559.908 213.49H563.011ZM580.993 219.599C580.993 219.399 580.964 219.221 580.905 219.062C580.847 218.898 580.738 218.746 580.58 218.605C580.422 218.465 580.193 218.324 579.895 218.184C579.602 218.037 579.215 217.885 578.734 217.727C578.172 217.539 577.63 217.328 577.108 217.094C576.587 216.854 576.121 216.575 575.711 216.259C575.301 215.937 574.976 215.562 574.735 215.134C574.495 214.7 574.375 214.196 574.375 213.622C574.375 213.071 574.498 212.576 574.744 212.137C574.99 211.691 575.333 211.313 575.772 211.003C576.218 210.687 576.739 210.446 577.337 210.282C577.935 210.112 578.588 210.027 579.297 210.027C580.234 210.027 581.061 210.191 581.775 210.52C582.496 210.842 583.059 211.302 583.463 211.899C583.873 212.491 584.078 213.191 584.078 214H581.011C581.011 213.678 580.943 213.394 580.809 213.147C580.68 212.901 580.483 212.708 580.22 212.567C579.956 212.427 579.625 212.356 579.227 212.356C578.84 212.356 578.515 212.415 578.251 212.532C577.987 212.649 577.788 212.808 577.653 213.007C577.519 213.2 577.451 213.414 577.451 213.648C577.451 213.842 577.504 214.018 577.609 214.176C577.721 214.328 577.876 214.472 578.075 214.606C578.28 214.741 578.526 214.87 578.813 214.993C579.106 215.116 579.435 215.236 579.798 215.354C580.478 215.57 581.081 215.813 581.608 216.083C582.142 216.347 582.59 216.648 582.953 216.988C583.322 217.322 583.601 217.703 583.788 218.131C583.981 218.559 584.078 219.042 584.078 219.581C584.078 220.155 583.967 220.665 583.744 221.11C583.521 221.556 583.202 221.934 582.786 222.244C582.37 222.549 581.872 222.78 581.292 222.938C580.712 223.097 580.064 223.176 579.35 223.176C578.693 223.176 578.046 223.094 577.407 222.93C576.774 222.76 576.2 222.502 575.685 222.156C575.169 221.805 574.756 221.356 574.445 220.812C574.141 220.261 573.988 219.607 573.988 218.852H577.082C577.082 219.227 577.132 219.543 577.231 219.801C577.331 220.059 577.478 220.267 577.671 220.425C577.864 220.577 578.102 220.688 578.383 220.759C578.664 220.823 578.986 220.855 579.35 220.855C579.742 220.855 580.059 220.8 580.299 220.688C580.539 220.571 580.715 220.419 580.826 220.231C580.938 220.038 580.993 219.827 580.993 219.599ZM589.826 223H586.987L587.005 220.627H589.826C590.412 220.627 590.907 220.486 591.312 220.205C591.722 219.924 592.032 219.505 592.243 218.948C592.46 218.386 592.568 217.694 592.568 216.874V216.32C592.568 215.705 592.507 215.166 592.384 214.703C592.267 214.234 592.091 213.845 591.856 213.534C591.622 213.218 591.329 212.98 590.978 212.822C590.632 212.664 590.233 212.585 589.782 212.585H586.935V210.203H589.782C590.649 210.203 591.443 210.353 592.164 210.651C592.891 210.944 593.518 211.366 594.045 211.917C594.578 212.462 594.988 213.109 595.275 213.859C595.568 214.604 595.715 215.43 595.715 216.338V216.874C595.715 217.776 595.568 218.603 595.275 219.353C594.988 220.103 594.581 220.75 594.054 221.295C593.526 221.84 592.902 222.262 592.182 222.561C591.467 222.854 590.682 223 589.826 223ZM588.754 210.203V223H585.669V210.203H588.754ZM600.408 210.203V223H597.323V210.203H600.408ZM608.046 210.203L603.089 216.689L600.188 219.862L599.626 217.032L601.48 214.22L604.24 210.203H608.046ZM604.398 223L601.094 217.234L603.493 215.468L608.046 223H604.398Z" fill="white"/>
<rect x="650" y="196" width="131" height="41" rx="3" fill="#424242"/>
<rect x="650" y="196" width="131" height="41" rx="3" stroke="#424242" stroke-width="4"/>
<path d="M679.359 210.203V223H676.274V210.203H679.359ZM683.209 210.203V212.585H672.513V210.203H683.209ZM686.575 221.884L689.036 213.49H692.218L688.395 224.415C688.312 224.655 688.204 224.913 688.069 225.188C687.935 225.47 687.75 225.736 687.516 225.988C687.281 226.24 686.979 226.445 686.61 226.604C686.247 226.762 685.796 226.841 685.257 226.841C684.97 226.841 684.759 226.826 684.624 226.797C684.495 226.773 684.296 226.729 684.026 226.665V224.547C684.103 224.547 684.167 224.547 684.22 224.547C684.278 224.547 684.343 224.547 684.413 224.547C684.729 224.547 684.981 224.515 685.169 224.45C685.362 224.386 685.509 224.292 685.608 224.169C685.714 224.046 685.796 223.896 685.854 223.721L686.575 221.884ZM685.951 213.49L687.823 220.144L688.148 223.281H686.162L682.778 213.49H685.951ZM695.979 215.318V226.656H693.018V213.49H695.777L695.979 215.318ZM701.815 218.131V218.315C701.815 219.007 701.736 219.648 701.578 220.24C701.42 220.832 701.186 221.348 700.875 221.787C700.564 222.227 700.178 222.569 699.715 222.815C699.258 223.056 698.728 223.176 698.124 223.176C697.556 223.176 697.066 223.05 696.656 222.798C696.246 222.546 695.903 222.197 695.628 221.752C695.353 221.307 695.13 220.797 694.96 220.223C694.79 219.648 694.655 219.042 694.556 218.403V218.166C694.655 217.48 694.79 216.845 694.96 216.259C695.13 215.667 695.353 215.151 695.628 214.712C695.903 214.272 696.243 213.93 696.647 213.684C697.058 213.438 697.547 213.314 698.115 213.314C698.719 213.314 699.249 213.429 699.706 213.657C700.169 213.886 700.556 214.214 700.866 214.642C701.183 215.063 701.42 215.57 701.578 216.162C701.736 216.754 701.815 217.41 701.815 218.131ZM698.854 218.315V218.131C698.854 217.762 698.827 217.425 698.774 217.12C698.722 216.81 698.637 216.54 698.52 216.312C698.408 216.083 698.259 215.907 698.071 215.784C697.884 215.661 697.652 215.6 697.377 215.6C697.061 215.6 696.794 215.649 696.577 215.749C696.366 215.843 696.196 215.989 696.067 216.188C695.944 216.382 695.856 216.625 695.804 216.918C695.757 217.205 695.736 217.542 695.742 217.929V218.649C695.73 219.095 695.774 219.487 695.874 219.827C695.974 220.161 696.146 220.422 696.393 220.609C696.639 220.797 696.973 220.891 697.395 220.891C697.676 220.891 697.91 220.826 698.098 220.697C698.285 220.562 698.435 220.378 698.546 220.144C698.657 219.903 698.736 219.628 698.783 219.317C698.83 219.007 698.854 218.673 698.854 218.315ZM707.739 223.176C706.966 223.176 706.274 223.056 705.665 222.815C705.056 222.569 704.54 222.232 704.118 221.805C703.702 221.377 703.383 220.885 703.16 220.328C702.943 219.771 702.835 219.183 702.835 218.562V218.228C702.835 217.53 702.932 216.886 703.125 216.294C703.318 215.696 703.605 215.175 703.986 214.729C704.367 214.284 704.845 213.938 705.419 213.692C705.993 213.44 706.661 213.314 707.423 213.314C708.097 213.314 708.7 213.423 709.233 213.64C709.767 213.856 710.218 214.167 710.587 214.571C710.962 214.976 711.246 215.465 711.439 216.039C711.639 216.613 711.738 217.258 711.738 217.973V219.177H703.969V217.322H708.847V217.094C708.853 216.777 708.797 216.508 708.68 216.285C708.568 216.062 708.404 215.893 708.188 215.775C707.971 215.658 707.707 215.6 707.396 215.6C707.074 215.6 706.808 215.67 706.597 215.811C706.392 215.951 706.23 216.145 706.113 216.391C706.002 216.631 705.923 216.909 705.876 217.226C705.829 217.542 705.806 217.876 705.806 218.228V218.562C705.806 218.913 705.853 219.232 705.946 219.52C706.046 219.807 706.187 220.053 706.368 220.258C706.556 220.457 706.778 220.612 707.036 220.724C707.3 220.835 707.599 220.891 707.933 220.891C708.337 220.891 708.735 220.814 709.128 220.662C709.521 220.51 709.857 220.258 710.139 219.906L711.483 221.506C711.29 221.781 711.015 222.048 710.657 222.306C710.306 222.563 709.884 222.774 709.392 222.938C708.899 223.097 708.349 223.176 707.739 223.176ZM717.926 220.328C717.926 220.164 717.87 220.023 717.759 219.906C717.653 219.783 717.466 219.672 717.196 219.572C716.927 219.467 716.549 219.361 716.062 219.256C715.6 219.156 715.163 219.024 714.753 218.86C714.349 218.696 713.994 218.497 713.689 218.263C713.385 218.028 713.145 217.75 712.969 217.428C712.799 217.105 712.714 216.736 712.714 216.32C712.714 215.916 712.799 215.535 712.969 215.178C713.145 214.814 713.399 214.495 713.733 214.22C714.073 213.938 714.486 213.719 714.973 213.561C715.459 213.396 716.013 213.314 716.634 213.314C717.489 213.314 718.228 213.446 718.849 213.71C719.47 213.968 719.947 214.331 720.281 214.8C720.621 215.263 720.791 215.799 720.791 216.408H717.829C717.829 216.168 717.788 215.963 717.706 215.793C717.63 215.623 717.504 215.494 717.328 215.406C717.152 215.312 716.918 215.266 716.625 215.266C716.42 215.266 716.232 215.304 716.062 215.38C715.898 215.456 715.767 215.562 715.667 215.696C715.567 215.831 715.518 215.989 715.518 216.171C715.518 216.3 715.547 216.417 715.605 216.522C715.67 216.622 715.767 216.716 715.896 216.804C716.024 216.886 716.188 216.962 716.388 217.032C716.587 217.097 716.827 217.155 717.108 217.208C717.747 217.325 718.345 217.492 718.901 217.709C719.458 217.926 719.909 218.233 720.255 218.632C720.606 219.03 720.782 219.566 720.782 220.24C720.782 220.662 720.686 221.052 720.492 221.409C720.299 221.761 720.021 222.071 719.657 222.341C719.294 222.604 718.857 222.81 718.348 222.956C717.838 223.103 717.264 223.176 716.625 223.176C715.717 223.176 714.949 223.015 714.322 222.692C713.695 222.364 713.221 221.954 712.898 221.462C712.582 220.964 712.424 220.46 712.424 219.95H715.184C715.195 220.243 715.266 220.483 715.395 220.671C715.529 220.858 715.708 220.996 715.931 221.084C716.153 221.172 716.411 221.216 716.704 221.216C716.974 221.216 717.196 221.178 717.372 221.102C717.554 221.025 717.691 220.923 717.785 220.794C717.879 220.659 717.926 220.504 717.926 220.328ZM726.188 220.891C726.463 220.891 726.697 220.841 726.891 220.741C727.09 220.636 727.239 220.489 727.339 220.302C727.444 220.108 727.494 219.877 727.488 219.607H730.274C730.28 220.322 730.104 220.949 729.747 221.488C729.396 222.021 728.915 222.438 728.306 222.736C727.702 223.029 727.02 223.176 726.258 223.176C725.514 223.176 724.863 223.056 724.307 222.815C723.75 222.569 723.284 222.229 722.909 221.796C722.54 221.356 722.262 220.844 722.074 220.258C721.893 219.672 721.802 219.036 721.802 218.351V218.148C721.802 217.463 721.893 216.827 722.074 216.241C722.262 215.649 722.54 215.137 722.909 214.703C723.284 214.264 723.747 213.924 724.298 213.684C724.854 213.438 725.502 213.314 726.24 213.314C727.031 213.314 727.729 213.464 728.332 213.763C728.941 214.062 729.419 214.495 729.765 215.063C730.11 215.632 730.28 216.32 730.274 217.129H727.488C727.494 216.842 727.45 216.584 727.356 216.355C727.263 216.127 727.116 215.945 726.917 215.811C726.724 215.67 726.475 215.6 726.17 215.6C725.865 215.6 725.619 215.667 725.432 215.802C725.244 215.937 725.101 216.124 725.001 216.364C724.907 216.599 724.843 216.868 724.808 217.173C724.778 217.478 724.764 217.803 724.764 218.148V218.351C724.764 218.702 724.778 219.033 724.808 219.344C724.843 219.648 724.91 219.918 725.01 220.152C725.109 220.381 725.253 220.562 725.44 220.697C725.628 220.826 725.877 220.891 726.188 220.891ZM734.528 215.846V223H731.566V213.49H734.335L734.528 215.846ZM737.341 213.42L737.288 216.171C737.171 216.159 737.013 216.145 736.813 216.127C736.614 216.109 736.447 216.101 736.312 216.101C735.967 216.101 735.668 216.142 735.416 216.224C735.17 216.3 734.965 216.417 734.801 216.575C734.643 216.728 734.525 216.921 734.449 217.155C734.379 217.39 734.347 217.662 734.353 217.973L733.816 217.621C733.816 216.982 733.878 216.402 734.001 215.881C734.13 215.354 734.312 214.899 734.546 214.519C734.78 214.132 735.064 213.836 735.398 213.631C735.732 213.42 736.107 213.314 736.523 213.314C736.67 213.314 736.813 213.323 736.954 213.341C737.101 213.358 737.229 213.385 737.341 213.42ZM741.489 213.49V223H738.519V213.49H741.489ZM738.343 211.038C738.343 210.616 738.495 210.271 738.8 210.001C739.104 209.731 739.5 209.597 739.986 209.597C740.473 209.597 740.868 209.731 741.173 210.001C741.478 210.271 741.63 210.616 741.63 211.038C741.63 211.46 741.478 211.806 741.173 212.075C740.868 212.345 740.473 212.479 739.986 212.479C739.5 212.479 739.104 212.345 738.8 212.075C738.495 211.806 738.343 211.46 738.343 211.038ZM746.306 215.318V226.656H743.344V213.49H746.104L746.306 215.318ZM752.142 218.131V218.315C752.142 219.007 752.062 219.648 751.904 220.24C751.746 220.832 751.512 221.348 751.201 221.787C750.891 222.227 750.504 222.569 750.041 222.815C749.584 223.056 749.054 223.176 748.45 223.176C747.882 223.176 747.393 223.05 746.982 222.798C746.572 222.546 746.229 222.197 745.954 221.752C745.679 221.307 745.456 220.797 745.286 220.223C745.116 219.648 744.981 219.042 744.882 218.403V218.166C744.981 217.48 745.116 216.845 745.286 216.259C745.456 215.667 745.679 215.151 745.954 214.712C746.229 214.272 746.569 213.93 746.974 213.684C747.384 213.438 747.873 213.314 748.441 213.314C749.045 213.314 749.575 213.429 750.032 213.657C750.495 213.886 750.882 214.214 751.192 214.642C751.509 215.063 751.746 215.57 751.904 216.162C752.062 216.754 752.142 217.41 752.142 218.131ZM749.18 218.315V218.131C749.18 217.762 749.153 217.425 749.101 217.12C749.048 216.81 748.963 216.54 748.846 216.312C748.734 216.083 748.585 215.907 748.397 215.784C748.21 215.661 747.979 215.6 747.703 215.6C747.387 215.6 747.12 215.649 746.903 215.749C746.692 215.843 746.522 215.989 746.394 216.188C746.271 216.382 746.183 216.625 746.13 216.918C746.083 217.205 746.062 217.542 746.068 217.929V218.649C746.057 219.095 746.101 219.487 746.2 219.827C746.3 220.161 746.473 220.422 746.719 220.609C746.965 220.797 747.299 220.891 747.721 220.891C748.002 220.891 748.236 220.826 748.424 220.697C748.611 220.562 748.761 220.378 748.872 220.144C748.983 219.903 749.062 219.628 749.109 219.317C749.156 219.007 749.18 218.673 749.18 218.315ZM758.47 213.49V215.547H752.739V213.49H758.47ZM753.943 211.126H756.905V219.897C756.905 220.149 756.935 220.346 756.993 220.486C757.052 220.621 757.151 220.718 757.292 220.776C757.438 220.829 757.632 220.855 757.872 220.855C758.042 220.855 758.183 220.853 758.294 220.847C758.405 220.835 758.511 220.82 758.61 220.803V222.921C758.358 223.003 758.095 223.064 757.819 223.105C757.544 223.152 757.251 223.176 756.94 223.176C756.308 223.176 755.766 223.076 755.314 222.877C754.869 222.678 754.529 222.364 754.295 221.937C754.061 221.509 753.943 220.952 753.943 220.267V211.126Z" fill="white"/>
<rect width="297" height="297" transform="translate(1066)" fill="white"/>
<rect x="1075" y="26" width="279" height="245" fill="white"/>
<g filter="url(#filter0_b_3_61)">
<g filter="url(#filter1_b_3_61)">
<path d="M1249 54C1282.14 54 1309 80.8629 1309 114V181C1309 215.242 1281.24 243 1247 243H1183C1147.65 243 1119 214.346 1119 179V54L1249 54Z" fill="url(#paint0_linear_3_61)"/>
<path d="M1143 76V153.996C1143.11 161.774 1143.98 170.216 1146.29 178.823C1160.11 213.254 1183.3 224.959 1220.75 225C1248.03 223.532 1267.39 211.77 1279 191.534C1281.65 186.742 1283 178.823 1283 178.823" stroke="white" stroke-width="5"/>
</g>
<path d="M1241.23 132.23C1241.22 127.832 1237.64 124.273 1233.24 124.282C1228.85 124.29 1225.28 127.861 1225.29 132.259C1225.3 134.565 1226.3 136.62 1227.86 138.077L1227.84 138.082L1241.26 151.449L1254.64 138.033C1254.63 138.028 1254.62 138.028 1254.62 138.023C1256.18 136.56 1257.16 134.506 1257.15 132.201C1257.15 127.803 1253.58 124.244 1249.18 124.253C1244.78 124.26 1241.22 127.832 1241.23 132.23Z" fill="white"/>
<path d="M1190.23 132.23C1190.22 127.832 1186.64 124.273 1182.24 124.282C1177.85 124.29 1174.28 127.861 1174.29 132.259C1174.3 134.565 1175.3 136.62 1176.86 138.077L1176.84 138.082L1190.26 151.449L1203.64 138.033C1203.63 138.028 1203.62 138.028 1203.62 138.023C1205.18 136.56 1206.16 134.506 1206.15 132.201C1206.15 127.803 1202.58 124.244 1198.18 124.253C1193.78 124.26 1190.22 127.832 1190.23 132.23Z" fill="white"/>
</g>
<defs>
<filter id="filter0_b_3_61" x="1089" y="24" width="250" height="249" filterUnits="userSpaceOnUse" color-interpolation-filters="sRGB">
<feFlood flood-opacity="0" result="BackgroundImageFix"/>
<feGaussianBlur in="BackgroundImageFix" stdDeviation="15"/>
<feComposite in2="SourceAlpha" operator="in" result="effect1_backgroundBlur_3_61"/>
<feBlend mode="normal" in="SourceGraphic" in2="effect1_backgroundBlur_3_61" result="shape"/>
</filter>
<filter id="filter1_b_3_61" x="1099" y="34" width="230" height="229" filterUnits="userSpaceOnUse" color-interpolation-filters="sRGB">
<feFlood flood-opacity="0" result="BackgroundImageFix"/>
<feGaussianBlur in="BackgroundImageFix" stdDeviation="10"/>
<feComposite in2="SourceAlpha" operator="in" result="effect1_backgroundBlur_3_61"/>
<feBlend mode="normal" in="SourceGraphic" in2="effect1_backgroundBlur_3_61" result="shape"/>
</filter>
<linearGradient id="paint0_linear_3_61" x1="1307.99" y1="53.0053" x2="1144.48" y2="228.807" gradientUnits="userSpaceOnUse">
<stop stop-color="#F16660"/>
<stop offset="0.0001" stop-color="#F03233"/>
<stop offset="1" stop-color="#ED6566"/>
</linearGradient>
</defs>
</svg>
