<svg width="1363" height="297" viewBox="0 0 1363 297" fill="none" xmlns="http://www.w3.org/2000/svg">
<path d="M0 15C0 6.71573 6.71573 0 15 0H37V297H15C6.71573 297 0 290.284 0 282V15Z" fill="#2C00FE"/>
<path d="M37 0H1066V297H37V0Z" fill="#F0F0F0"/>
<path d="M97.6934 49.4062H102.158L108.732 68.1973L115.307 49.4062H119.771L110.525 75H106.939L97.6934 49.4062ZM95.2852 49.4062H99.7324L100.541 67.7227V75H95.2852V49.4062ZM117.732 49.4062H122.197V75H116.924V67.7227L117.732 49.4062ZM136.77 70.7109V62.2383C136.77 61.6289 136.67 61.1074 136.471 60.6738C136.271 60.2285 135.961 59.8828 135.539 59.6367C135.129 59.3906 134.596 59.2676 133.939 59.2676C133.377 59.2676 132.891 59.3672 132.48 59.5664C132.07 59.7539 131.754 60.0293 131.531 60.3926C131.309 60.7441 131.197 61.1602 131.197 61.6406H126.135C126.135 60.832 126.322 60.0645 126.697 59.3379C127.072 58.6113 127.617 57.9727 128.332 57.4219C129.047 56.8594 129.896 56.4199 130.881 56.1035C131.877 55.7871 132.99 55.6289 134.221 55.6289C135.697 55.6289 137.01 55.875 138.158 56.3672C139.307 56.8594 140.209 57.5977 140.865 58.582C141.533 59.5664 141.867 60.7969 141.867 62.2734V70.4121C141.867 71.4551 141.932 72.3105 142.061 72.9785C142.189 73.6348 142.377 74.209 142.623 74.7012V75H137.508C137.262 74.4844 137.074 73.8398 136.945 73.0664C136.828 72.2812 136.77 71.4961 136.77 70.7109ZM137.438 63.416L137.473 66.2812H134.643C133.975 66.2812 133.395 66.3574 132.902 66.5098C132.41 66.6621 132.006 66.8789 131.689 67.1602C131.373 67.4297 131.139 67.7461 130.986 68.1094C130.846 68.4727 130.775 68.8711 130.775 69.3047C130.775 69.7383 130.875 70.1309 131.074 70.4824C131.273 70.8223 131.561 71.0918 131.936 71.291C132.311 71.4785 132.75 71.5723 133.254 71.5723C134.016 71.5723 134.678 71.4199 135.24 71.1152C135.803 70.8105 136.236 70.4355 136.541 69.9902C136.857 69.5449 137.021 69.123 137.033 68.7246L138.369 70.8691C138.182 71.3496 137.924 71.8477 137.596 72.3633C137.279 72.8789 136.875 73.3652 136.383 73.8223C135.891 74.2676 135.299 74.6367 134.607 74.9297C133.916 75.2109 133.096 75.3516 132.146 75.3516C130.939 75.3516 129.844 75.1113 128.859 74.6309C127.887 74.1387 127.113 73.4648 126.539 72.6094C125.977 71.7422 125.695 70.7578 125.695 69.6562C125.695 68.6602 125.883 67.7754 126.258 67.002C126.633 66.2285 127.184 65.5781 127.91 65.0508C128.648 64.5117 129.568 64.1074 130.67 63.8379C131.771 63.5566 133.049 63.416 134.502 63.416H137.438ZM150.832 60.1289V75H145.77V55.9805H150.533L150.832 60.1289ZM156.562 55.8574L156.475 60.5508C156.229 60.5156 155.93 60.4863 155.578 60.4629C155.238 60.4277 154.928 60.4102 154.646 60.4102C153.932 60.4102 153.311 60.5039 152.783 60.6914C152.268 60.8672 151.834 61.1309 151.482 61.4824C151.143 61.834 150.885 62.2617 150.709 62.7656C150.545 63.2695 150.451 63.8438 150.428 64.4883L149.408 64.1719C149.408 62.9414 149.531 61.8105 149.777 60.7793C150.023 59.7363 150.381 58.8281 150.85 58.0547C151.33 57.2812 151.916 56.6836 152.607 56.2617C153.299 55.8398 154.09 55.6289 154.98 55.6289C155.262 55.6289 155.549 55.6523 155.842 55.6992C156.135 55.7344 156.375 55.7871 156.562 55.8574ZM166.459 71.3965C167.08 71.3965 167.631 71.2793 168.111 71.0449C168.592 70.7988 168.967 70.459 169.236 70.0254C169.518 69.5801 169.664 69.0586 169.676 68.4609H174.439C174.428 69.7969 174.07 70.9863 173.367 72.0293C172.664 73.0605 171.721 73.875 170.537 74.4727C169.354 75.0586 168.029 75.3516 166.564 75.3516C165.088 75.3516 163.799 75.1055 162.697 74.6133C161.607 74.1211 160.699 73.4414 159.973 72.5742C159.246 71.6953 158.701 70.6758 158.338 69.5156C157.975 68.3438 157.793 67.0898 157.793 65.7539V65.2441C157.793 63.8965 157.975 62.6426 158.338 61.4824C158.701 60.3105 159.246 59.291 159.973 58.4238C160.699 57.5449 161.607 56.8594 162.697 56.3672C163.787 55.875 165.064 55.6289 166.529 55.6289C168.088 55.6289 169.453 55.9277 170.625 56.5254C171.809 57.123 172.734 57.9785 173.402 59.0918C174.082 60.1934 174.428 61.5 174.439 63.0117H169.676C169.664 62.3789 169.529 61.8047 169.271 61.2891C169.025 60.7734 168.662 60.3633 168.182 60.0586C167.713 59.7422 167.133 59.584 166.441 59.584C165.703 59.584 165.1 59.7422 164.631 60.0586C164.162 60.3633 163.799 60.7852 163.541 61.3242C163.283 61.8516 163.102 62.4551 162.996 63.1348C162.902 63.8027 162.855 64.5059 162.855 65.2441V65.7539C162.855 66.4922 162.902 67.2012 162.996 67.8809C163.09 68.5605 163.266 69.1641 163.523 69.6914C163.793 70.2188 164.162 70.6348 164.631 70.9395C165.1 71.2441 165.709 71.3965 166.459 71.3965ZM194.514 75H188.941L188.977 70.8867H194.514C195.896 70.8867 197.062 70.5762 198.012 69.9551C198.961 69.3223 199.676 68.4023 200.156 67.1953C200.648 65.9883 200.895 64.5293 200.895 62.8184V61.5703C200.895 60.2578 200.754 59.1035 200.473 58.1074C200.203 57.1113 199.799 56.2734 199.26 55.5938C198.721 54.9141 198.059 54.4043 197.273 54.0645C196.488 53.7129 195.586 53.5371 194.566 53.5371H188.836V49.4062H194.566C196.277 49.4062 197.842 49.6992 199.26 50.2852C200.689 50.8594 201.926 51.6855 202.969 52.7637C204.012 53.8418 204.814 55.1309 205.377 56.6309C205.951 58.1191 206.238 59.7773 206.238 61.6055V62.8184C206.238 64.6348 205.951 66.293 205.377 67.793C204.814 69.293 204.012 70.582 202.969 71.6602C201.938 72.7266 200.701 73.5527 199.26 74.1387C197.83 74.7129 196.248 75 194.514 75ZM191.93 49.4062V75H186.656V49.4062H191.93ZM220.02 70.7109V62.2383C220.02 61.6289 219.92 61.1074 219.721 60.6738C219.521 60.2285 219.211 59.8828 218.789 59.6367C218.379 59.3906 217.846 59.2676 217.189 59.2676C216.627 59.2676 216.141 59.3672 215.73 59.5664C215.32 59.7539 215.004 60.0293 214.781 60.3926C214.559 60.7441 214.447 61.1602 214.447 61.6406H209.385C209.385 60.832 209.572 60.0645 209.947 59.3379C210.322 58.6113 210.867 57.9727 211.582 57.4219C212.297 56.8594 213.146 56.4199 214.131 56.1035C215.127 55.7871 216.24 55.6289 217.471 55.6289C218.947 55.6289 220.26 55.875 221.408 56.3672C222.557 56.8594 223.459 57.5977 224.115 58.582C224.783 59.5664 225.117 60.7969 225.117 62.2734V70.4121C225.117 71.4551 225.182 72.3105 225.311 72.9785C225.439 73.6348 225.627 74.209 225.873 74.7012V75H220.758C220.512 74.4844 220.324 73.8398 220.195 73.0664C220.078 72.2812 220.02 71.4961 220.02 70.7109ZM220.688 63.416L220.723 66.2812H217.893C217.225 66.2812 216.645 66.3574 216.152 66.5098C215.66 66.6621 215.256 66.8789 214.939 67.1602C214.623 67.4297 214.389 67.7461 214.236 68.1094C214.096 68.4727 214.025 68.8711 214.025 69.3047C214.025 69.7383 214.125 70.1309 214.324 70.4824C214.523 70.8223 214.811 71.0918 215.186 71.291C215.561 71.4785 216 71.5723 216.504 71.5723C217.266 71.5723 217.928 71.4199 218.49 71.1152C219.053 70.8105 219.486 70.4355 219.791 69.9902C220.107 69.5449 220.271 69.123 220.283 68.7246L221.619 70.8691C221.432 71.3496 221.174 71.8477 220.846 72.3633C220.529 72.8789 220.125 73.3652 219.633 73.8223C219.141 74.2676 218.549 74.6367 217.857 74.9297C217.166 75.2109 216.346 75.3516 215.396 75.3516C214.189 75.3516 213.094 75.1113 212.109 74.6309C211.137 74.1387 210.363 73.4648 209.789 72.6094C209.227 71.7422 208.945 70.7578 208.945 69.6562C208.945 68.6602 209.133 67.7754 209.508 67.002C209.883 66.2285 210.434 65.5781 211.16 65.0508C211.898 64.5117 212.818 64.1074 213.92 63.8379C215.021 63.5566 216.299 63.416 217.752 63.416H220.688ZM241.061 55.9805H245.648V74.3672C245.648 76.1016 245.262 77.5723 244.488 78.7793C243.727 79.998 242.66 80.918 241.289 81.5391C239.918 82.1719 238.324 82.4883 236.508 82.4883C235.711 82.4883 234.867 82.3828 233.977 82.1719C233.098 81.9609 232.254 81.6328 231.445 81.1875C230.648 80.7422 229.98 80.1797 229.441 79.5L231.674 76.5117C232.26 77.1914 232.939 77.7188 233.713 78.0938C234.486 78.4805 235.342 78.6738 236.279 78.6738C237.193 78.6738 237.967 78.5039 238.6 78.1641C239.232 77.8359 239.719 77.3496 240.059 76.7051C240.398 76.0723 240.568 75.3047 240.568 74.4023V60.375L241.061 55.9805ZM228.264 65.7188V65.3496C228.264 63.8965 228.439 62.5781 228.791 61.3945C229.154 60.1992 229.664 59.1738 230.32 58.3184C230.988 57.4629 231.797 56.8008 232.746 56.332C233.695 55.8633 234.768 55.6289 235.963 55.6289C237.229 55.6289 238.289 55.8633 239.145 56.332C240 56.8008 240.703 57.4688 241.254 58.3359C241.805 59.1914 242.232 60.2051 242.537 61.377C242.854 62.5371 243.1 63.8086 243.275 65.1914V66C243.1 67.3242 242.836 68.5547 242.484 69.6914C242.133 70.8281 241.67 71.8242 241.096 72.6797C240.521 73.5234 239.807 74.1797 238.951 74.6484C238.107 75.1172 237.1 75.3516 235.928 75.3516C234.756 75.3516 233.695 75.1113 232.746 74.6309C231.809 74.1504 231.006 73.4766 230.338 72.6094C229.67 71.7422 229.154 70.7227 228.791 69.5508C228.439 68.3789 228.264 67.1016 228.264 65.7188ZM233.326 65.3496V65.7188C233.326 66.5039 233.402 67.2363 233.555 67.916C233.707 68.5957 233.941 69.1992 234.258 69.7266C234.586 70.2422 234.99 70.6465 235.471 70.9395C235.963 71.2207 236.543 71.3613 237.211 71.3613C238.137 71.3613 238.893 71.168 239.479 70.7812C240.064 70.3828 240.504 69.8379 240.797 69.1465C241.09 68.4551 241.26 67.6582 241.307 66.7559V64.4531C241.283 63.7148 241.184 63.0527 241.008 62.4668C240.832 61.8691 240.586 61.3594 240.27 60.9375C239.953 60.5156 239.543 60.1875 239.039 59.9531C238.535 59.7188 237.938 59.6016 237.246 59.6016C236.578 59.6016 235.998 59.7539 235.506 60.0586C235.025 60.3516 234.621 60.7559 234.293 61.2715C233.977 61.7871 233.736 62.3965 233.572 63.0996C233.408 63.791 233.326 64.541 233.326 65.3496ZM254.525 48V75H249.463V48H254.525ZM253.805 64.8223H252.416C252.428 63.498 252.604 62.2793 252.943 61.166C253.283 60.041 253.77 59.0684 254.402 58.248C255.035 57.416 255.791 56.7715 256.67 56.3145C257.561 55.8574 258.545 55.6289 259.623 55.6289C260.561 55.6289 261.41 55.7637 262.172 56.0332C262.945 56.291 263.607 56.7129 264.158 57.2988C264.721 57.873 265.154 58.6289 265.459 59.5664C265.764 60.5039 265.916 61.6406 265.916 62.9766V75H260.818V62.9414C260.818 62.0977 260.695 61.4355 260.449 60.9551C260.215 60.4629 259.869 60.1172 259.412 59.918C258.967 59.707 258.416 59.6016 257.76 59.6016C257.033 59.6016 256.412 59.7363 255.896 60.0059C255.393 60.2754 254.988 60.6504 254.684 61.1309C254.379 61.5996 254.156 62.1504 254.016 62.7832C253.875 63.416 253.805 64.0957 253.805 64.8223ZM278.52 75.3516C277.043 75.3516 275.719 75.1172 274.547 74.6484C273.375 74.168 272.379 73.5059 271.559 72.6621C270.75 71.8184 270.129 70.8398 269.695 69.7266C269.262 68.6016 269.045 67.4062 269.045 66.1406V65.4375C269.045 63.9961 269.25 62.6777 269.66 61.4824C270.07 60.2871 270.656 59.25 271.418 58.3711C272.191 57.4922 273.129 56.8184 274.23 56.3496C275.332 55.8691 276.574 55.6289 277.957 55.6289C279.305 55.6289 280.5 55.8516 281.543 56.2969C282.586 56.7422 283.459 57.375 284.162 58.1953C284.877 59.0156 285.416 60 285.779 61.1484C286.143 62.2852 286.324 63.5508 286.324 64.9453V67.0547H271.207V63.6797H281.35V63.293C281.35 62.5898 281.221 61.9629 280.963 61.4121C280.717 60.8496 280.342 60.4043 279.838 60.0762C279.334 59.748 278.689 59.584 277.904 59.584C277.236 59.584 276.662 59.7305 276.182 60.0234C275.701 60.3164 275.309 60.7266 275.004 61.2539C274.711 61.7812 274.488 62.4023 274.336 63.1172C274.195 63.8203 274.125 64.5938 274.125 65.4375V66.1406C274.125 66.9023 274.23 67.6055 274.441 68.25C274.664 68.8945 274.975 69.4512 275.373 69.9199C275.783 70.3887 276.275 70.752 276.85 71.0098C277.436 71.2676 278.098 71.3965 278.836 71.3965C279.75 71.3965 280.6 71.2207 281.385 70.8691C282.182 70.5059 282.867 69.9609 283.441 69.2344L285.902 71.9062C285.504 72.4805 284.959 73.0312 284.268 73.5586C283.588 74.0859 282.768 74.5195 281.807 74.8594C280.846 75.1875 279.75 75.3516 278.52 75.3516ZM294.27 60.1289V75H289.207V55.9805H293.971L294.27 60.1289ZM300 55.8574L299.912 60.5508C299.666 60.5156 299.367 60.4863 299.016 60.4629C298.676 60.4277 298.365 60.4102 298.084 60.4102C297.369 60.4102 296.748 60.5039 296.221 60.6914C295.705 60.8672 295.271 61.1309 294.92 61.4824C294.58 61.834 294.322 62.2617 294.146 62.7656C293.982 63.2695 293.889 63.8438 293.865 64.4883L292.846 64.1719C292.846 62.9414 292.969 61.8105 293.215 60.7793C293.461 59.7363 293.818 58.8281 294.287 58.0547C294.768 57.2812 295.354 56.6836 296.045 56.2617C296.736 55.8398 297.527 55.6289 298.418 55.6289C298.699 55.6289 298.986 55.6523 299.279 55.6992C299.572 55.7344 299.812 55.7871 300 55.8574Z" fill="#888888"/>
<path d="M112.277 123.074H102.023L101.969 116.785H110.281C111.776 116.785 112.97 116.621 113.863 116.293C114.757 115.947 115.404 115.445 115.805 114.789C116.224 114.133 116.434 113.312 116.434 112.328C116.434 111.198 116.224 110.286 115.805 109.594C115.385 108.901 114.72 108.4 113.809 108.09C112.915 107.762 111.758 107.598 110.336 107.598H105.633V140H96.0352V100.188H110.336C112.797 100.188 114.993 100.415 116.926 100.871C118.858 101.309 120.499 101.983 121.848 102.895C123.215 103.806 124.254 104.954 124.965 106.34C125.676 107.707 126.031 109.32 126.031 111.18C126.031 112.802 125.685 114.324 124.992 115.746C124.299 117.168 123.142 118.326 121.52 119.219C119.915 120.094 117.719 120.549 114.93 120.586L112.277 123.074ZM111.895 140H99.6992L102.98 132.617H111.895C113.207 132.617 114.255 132.417 115.039 132.016C115.841 131.596 116.415 131.049 116.762 130.375C117.126 129.682 117.309 128.917 117.309 128.078C117.309 127.057 117.135 126.173 116.789 125.426C116.461 124.678 115.932 124.104 115.203 123.703C114.474 123.284 113.499 123.074 112.277 123.074H104.211L104.266 116.785H113.918L116.16 119.301C118.822 119.191 120.927 119.565 122.477 120.422C124.044 121.279 125.165 122.409 125.84 123.812C126.514 125.216 126.852 126.684 126.852 128.215C126.852 130.822 126.286 133 125.156 134.75C124.044 136.5 122.376 137.812 120.152 138.688C117.928 139.562 115.176 140 111.895 140ZM130.598 125.508V124.934C130.598 122.764 130.908 120.768 131.527 118.945C132.147 117.104 133.059 115.509 134.262 114.16C135.465 112.811 136.951 111.763 138.719 111.016C140.487 110.25 142.529 109.867 144.844 109.867C147.177 109.867 149.228 110.25 150.996 111.016C152.783 111.763 154.277 112.811 155.48 114.16C156.684 115.509 157.595 117.104 158.215 118.945C158.835 120.768 159.145 122.764 159.145 124.934V125.508C159.145 127.659 158.835 129.655 158.215 131.496C157.595 133.319 156.684 134.914 155.48 136.281C154.277 137.63 152.792 138.678 151.023 139.426C149.255 140.173 147.214 140.547 144.898 140.547C142.583 140.547 140.533 140.173 138.746 139.426C136.96 138.678 135.465 137.63 134.262 136.281C133.059 134.914 132.147 133.319 131.527 131.496C130.908 129.655 130.598 127.659 130.598 125.508ZM139.812 124.934V125.508C139.812 126.62 139.895 127.659 140.059 128.625C140.223 129.591 140.496 130.439 140.879 131.168C141.262 131.879 141.781 132.435 142.438 132.836C143.094 133.237 143.914 133.438 144.898 133.438C145.865 133.438 146.667 133.237 147.305 132.836C147.961 132.435 148.48 131.879 148.863 131.168C149.246 130.439 149.52 129.591 149.684 128.625C149.848 127.659 149.93 126.62 149.93 125.508V124.934C149.93 123.858 149.848 122.846 149.684 121.898C149.52 120.932 149.246 120.085 148.863 119.355C148.48 118.608 147.961 118.025 147.305 117.605C146.648 117.186 145.828 116.977 144.844 116.977C143.878 116.977 143.066 117.186 142.41 117.605C141.772 118.025 141.262 118.608 140.879 119.355C140.496 120.085 140.223 120.932 140.059 121.898C139.895 122.846 139.812 123.858 139.812 124.934ZM180.527 132.809V110.414H189.77V140H181.129L180.527 132.809ZM181.402 126.793L183.809 126.738C183.809 128.725 183.572 130.566 183.098 132.262C182.624 133.939 181.922 135.397 180.992 136.637C180.081 137.876 178.951 138.842 177.602 139.535C176.271 140.21 174.73 140.547 172.98 140.547C171.522 140.547 170.182 140.346 168.961 139.945C167.758 139.526 166.719 138.879 165.844 138.004C164.969 137.111 164.285 135.971 163.793 134.586C163.319 133.182 163.082 131.505 163.082 129.555V110.414H172.297V129.609C172.297 130.266 172.379 130.831 172.543 131.305C172.707 131.779 172.944 132.18 173.254 132.508C173.564 132.818 173.947 133.055 174.402 133.219C174.876 133.365 175.414 133.438 176.016 133.438C177.401 133.438 178.486 133.146 179.27 132.562C180.053 131.979 180.6 131.186 180.91 130.184C181.238 129.181 181.402 128.051 181.402 126.793ZM203.906 116.73V140H194.691V110.414H203.332L203.906 116.73ZM202.812 124.195L200.652 124.25C200.652 121.99 200.926 119.975 201.473 118.207C202.02 116.421 202.794 114.908 203.797 113.668C204.799 112.428 205.993 111.49 207.379 110.852C208.783 110.195 210.341 109.867 212.055 109.867C213.422 109.867 214.671 110.068 215.801 110.469C216.949 110.87 217.934 111.517 218.754 112.41C219.592 113.303 220.23 114.488 220.668 115.965C221.124 117.423 221.352 119.228 221.352 121.379V140H212.082V121.352C212.082 120.167 211.918 119.264 211.59 118.645C211.262 118.007 210.788 117.569 210.168 117.332C209.548 117.095 208.792 116.977 207.898 116.977C206.951 116.977 206.148 117.159 205.492 117.523C204.836 117.888 204.307 118.398 203.906 119.055C203.523 119.693 203.241 120.449 203.059 121.324C202.895 122.199 202.812 123.156 202.812 124.195ZM243.473 133.219V98H252.742V140H244.43L243.473 133.219ZM225.316 125.562V124.988C225.316 122.746 225.562 120.704 226.055 118.863C226.547 117.004 227.276 115.409 228.242 114.078C229.208 112.729 230.411 111.69 231.852 110.961C233.292 110.232 234.951 109.867 236.828 109.867C238.505 109.867 239.973 110.259 241.23 111.043C242.488 111.809 243.564 112.884 244.457 114.27C245.35 115.655 246.079 117.277 246.645 119.137C247.21 120.978 247.638 122.965 247.93 125.098V125.781C247.638 127.786 247.21 129.682 246.645 131.469C246.079 133.237 245.35 134.805 244.457 136.172C243.564 137.539 242.479 138.615 241.203 139.398C239.945 140.164 238.469 140.547 236.773 140.547C234.896 140.547 233.237 140.173 231.797 139.426C230.375 138.678 229.181 137.63 228.215 136.281C227.267 134.932 226.547 133.346 226.055 131.523C225.562 129.701 225.316 127.714 225.316 125.562ZM234.531 124.988V125.562C234.531 126.674 234.604 127.704 234.75 128.652C234.896 129.6 235.142 130.439 235.488 131.168C235.853 131.879 236.327 132.435 236.91 132.836C237.512 133.237 238.25 133.438 239.125 133.438C240.31 133.438 241.285 133.155 242.051 132.59C242.835 132.025 243.409 131.223 243.773 130.184C244.156 129.145 244.32 127.923 244.266 126.52V124.359C244.302 123.156 244.22 122.099 244.02 121.188C243.819 120.258 243.5 119.483 243.062 118.863C242.643 118.243 242.105 117.779 241.449 117.469C240.811 117.141 240.055 116.977 239.18 116.977C238.323 116.977 237.594 117.177 236.992 117.578C236.409 117.979 235.935 118.544 235.57 119.273C235.206 119.984 234.941 120.832 234.777 121.816C234.613 122.783 234.531 123.84 234.531 124.988ZM299.172 115.992V123.375H278.746V115.992H299.172ZM281.945 100.188V140H272.348V100.188H281.945ZM305.625 100.188V140H296.055V100.188H305.625ZM326.652 132.562V120.367C326.652 119.529 326.534 118.809 326.297 118.207C326.06 117.605 325.686 117.141 325.176 116.812C324.665 116.466 323.982 116.293 323.125 116.293C322.432 116.293 321.84 116.411 321.348 116.648C320.855 116.885 320.482 117.241 320.227 117.715C319.971 118.189 319.844 118.79 319.844 119.52H310.629C310.629 118.152 310.93 116.885 311.531 115.719C312.151 114.534 313.026 113.504 314.156 112.629C315.305 111.754 316.672 111.079 318.258 110.605C319.862 110.113 321.648 109.867 323.617 109.867C325.969 109.867 328.065 110.259 329.906 111.043C331.766 111.827 333.233 113.003 334.309 114.57C335.384 116.12 335.922 118.07 335.922 120.422V132.535C335.922 134.467 336.031 135.935 336.25 136.938C336.469 137.922 336.779 138.788 337.18 139.535V140H327.938C327.5 139.089 327.172 137.977 326.953 136.664C326.753 135.333 326.652 133.966 326.652 132.562ZM327.773 121.926L327.828 126.848H323.754C322.897 126.848 322.168 126.966 321.566 127.203C320.983 127.44 320.509 127.768 320.145 128.188C319.798 128.589 319.543 129.044 319.379 129.555C319.233 130.065 319.16 130.603 319.16 131.168C319.16 131.715 319.288 132.207 319.543 132.645C319.816 133.064 320.181 133.392 320.637 133.629C321.092 133.866 321.603 133.984 322.168 133.984C323.189 133.984 324.055 133.793 324.766 133.41C325.495 133.009 326.051 132.526 326.434 131.961C326.816 131.396 327.008 130.867 327.008 130.375L329.031 134.148C328.667 134.878 328.247 135.616 327.773 136.363C327.318 137.111 326.743 137.803 326.051 138.441C325.376 139.061 324.547 139.572 323.562 139.973C322.578 140.355 321.384 140.547 319.98 140.547C318.158 140.547 316.48 140.173 314.949 139.426C313.436 138.678 312.224 137.639 311.312 136.309C310.401 134.96 309.945 133.41 309.945 131.66C309.945 130.129 310.219 128.762 310.766 127.559C311.331 126.355 312.178 125.335 313.309 124.496C314.439 123.658 315.879 123.02 317.629 122.582C319.379 122.145 321.439 121.926 323.809 121.926H327.773ZM350.332 117.742V140H341.117V110.414H349.73L350.332 117.742ZM359.082 110.195L358.918 118.754C358.553 118.717 358.061 118.672 357.441 118.617C356.822 118.562 356.302 118.535 355.883 118.535C354.807 118.535 353.878 118.663 353.094 118.918C352.328 119.155 351.69 119.52 351.18 120.012C350.688 120.486 350.323 121.087 350.086 121.816C349.867 122.546 349.767 123.393 349.785 124.359L348.117 123.266C348.117 121.279 348.309 119.474 348.691 117.852C349.092 116.211 349.658 114.798 350.387 113.613C351.116 112.41 352 111.49 353.039 110.852C354.078 110.195 355.245 109.867 356.539 109.867C356.995 109.867 357.441 109.895 357.879 109.949C358.335 110.004 358.736 110.086 359.082 110.195ZM371.551 116.676V140H362.336V110.414H370.977L371.551 116.676ZM370.43 124.195L368.324 124.25C368.324 122.172 368.57 120.258 369.062 118.508C369.555 116.758 370.284 115.236 371.25 113.941C372.216 112.647 373.401 111.645 374.805 110.934C376.227 110.223 377.867 109.867 379.727 109.867C381.021 109.867 382.197 110.068 383.254 110.469C384.311 110.852 385.223 111.462 385.988 112.301C386.754 113.121 387.337 114.197 387.738 115.527C388.158 116.84 388.367 118.417 388.367 120.258V140H379.152V121.434C379.152 120.176 379.007 119.228 378.715 118.59C378.441 117.952 378.04 117.523 377.512 117.305C376.983 117.086 376.336 116.977 375.57 116.977C374.768 116.977 374.048 117.159 373.41 117.523C372.772 117.888 372.225 118.398 371.77 119.055C371.332 119.693 370.995 120.449 370.758 121.324C370.539 122.199 370.43 123.156 370.43 124.195ZM387.328 124.195L384.758 124.25C384.758 122.172 384.986 120.258 385.441 118.508C385.915 116.758 386.617 115.236 387.547 113.941C388.495 112.647 389.671 111.645 391.074 110.934C392.478 110.223 394.109 109.867 395.969 109.867C397.318 109.867 398.557 110.068 399.688 110.469C400.818 110.87 401.793 111.517 402.613 112.41C403.434 113.303 404.072 114.488 404.527 115.965C404.983 117.423 405.211 119.228 405.211 121.379V140H395.969V121.379C395.969 120.158 395.823 119.237 395.531 118.617C395.258 117.979 394.857 117.551 394.328 117.332C393.799 117.095 393.171 116.977 392.441 116.977C391.566 116.977 390.81 117.159 390.172 117.523C389.534 117.888 388.996 118.398 388.559 119.055C388.139 119.693 387.829 120.449 387.629 121.324C387.428 122.199 387.328 123.156 387.328 124.195ZM409.34 125.508V124.934C409.34 122.764 409.65 120.768 410.27 118.945C410.889 117.104 411.801 115.509 413.004 114.16C414.207 112.811 415.693 111.763 417.461 111.016C419.229 110.25 421.271 109.867 423.586 109.867C425.919 109.867 427.97 110.25 429.738 111.016C431.525 111.763 433.02 112.811 434.223 114.16C435.426 115.509 436.337 117.104 436.957 118.945C437.577 120.768 437.887 122.764 437.887 124.934V125.508C437.887 127.659 437.577 129.655 436.957 131.496C436.337 133.319 435.426 134.914 434.223 136.281C433.02 137.63 431.534 138.678 429.766 139.426C427.997 140.173 425.956 140.547 423.641 140.547C421.326 140.547 419.275 140.173 417.488 139.426C415.702 138.678 414.207 137.63 413.004 136.281C411.801 134.914 410.889 133.319 410.27 131.496C409.65 129.655 409.34 127.659 409.34 125.508ZM418.555 124.934V125.508C418.555 126.62 418.637 127.659 418.801 128.625C418.965 129.591 419.238 130.439 419.621 131.168C420.004 131.879 420.523 132.435 421.18 132.836C421.836 133.237 422.656 133.438 423.641 133.438C424.607 133.438 425.409 133.237 426.047 132.836C426.703 132.435 427.223 131.879 427.605 131.168C427.988 130.439 428.262 129.591 428.426 128.625C428.59 127.659 428.672 126.62 428.672 125.508V124.934C428.672 123.858 428.59 122.846 428.426 121.898C428.262 120.932 427.988 120.085 427.605 119.355C427.223 118.608 426.703 118.025 426.047 117.605C425.391 117.186 424.57 116.977 423.586 116.977C422.62 116.977 421.809 117.186 421.152 117.605C420.514 118.025 420.004 118.608 419.621 119.355C419.238 120.085 418.965 120.932 418.801 121.898C418.637 122.846 418.555 123.858 418.555 124.934ZM451.039 116.73V140H441.824V110.414H450.465L451.039 116.73ZM449.945 124.195L447.785 124.25C447.785 121.99 448.059 119.975 448.605 118.207C449.152 116.421 449.927 114.908 450.93 113.668C451.932 112.428 453.126 111.49 454.512 110.852C455.915 110.195 457.474 109.867 459.188 109.867C460.555 109.867 461.803 110.068 462.934 110.469C464.082 110.87 465.066 111.517 465.887 112.41C466.725 113.303 467.363 114.488 467.801 115.965C468.257 117.423 468.484 119.228 468.484 121.379V140H459.215V121.352C459.215 120.167 459.051 119.264 458.723 118.645C458.395 118.007 457.921 117.569 457.301 117.332C456.681 117.095 455.924 116.977 455.031 116.977C454.083 116.977 453.281 117.159 452.625 117.523C451.969 117.888 451.44 118.398 451.039 119.055C450.656 119.693 450.374 120.449 450.191 121.324C450.027 122.199 449.945 123.156 449.945 124.195ZM482.676 136.527L490.332 110.414H500.23L488.336 144.402C488.081 145.15 487.743 145.952 487.324 146.809C486.905 147.684 486.331 148.513 485.602 149.297C484.872 150.081 483.934 150.719 482.785 151.211C481.655 151.703 480.251 151.949 478.574 151.949C477.681 151.949 477.025 151.904 476.605 151.812C476.204 151.74 475.585 151.603 474.746 151.402V144.812C474.983 144.812 475.184 144.812 475.348 144.812C475.53 144.812 475.73 144.812 475.949 144.812C476.934 144.812 477.717 144.712 478.301 144.512C478.902 144.311 479.358 144.02 479.668 143.637C479.996 143.254 480.251 142.789 480.434 142.242L482.676 136.527ZM480.734 110.414L486.559 131.113L487.57 140.875H481.391L470.863 110.414H480.734Z" fill="black"/>
<rect x="93" y="178" width="917" height="77" rx="10" fill="#D3D3D3"/>
<rect x="111" y="196" width="148" height="41" rx="3" fill="#424242"/>
<rect x="111" y="196" width="148" height="41" rx="3" stroke="#424242" stroke-width="4"/>
<path d="M134.234 210.203H139.271C140.255 210.203 141.11 210.35 141.837 210.643C142.563 210.936 143.123 211.369 143.516 211.943C143.914 212.518 144.113 213.227 144.113 214.07C144.113 214.803 143.999 215.415 143.771 215.907C143.542 216.399 143.223 216.807 142.812 217.129C142.408 217.445 141.937 217.706 141.397 217.911L140.387 218.482H136.159L136.142 216.101H139.271C139.663 216.101 139.988 216.03 140.246 215.89C140.504 215.749 140.697 215.55 140.826 215.292C140.961 215.028 141.028 214.715 141.028 214.352C141.028 213.982 140.961 213.666 140.826 213.402C140.691 213.139 140.492 212.937 140.229 212.796C139.971 212.655 139.651 212.585 139.271 212.585H137.319V223H134.234V210.203ZM141.239 223L138.409 217.34L141.679 217.322L144.544 222.868V223H141.239ZM150.441 223.176C149.668 223.176 148.977 223.056 148.367 222.815C147.758 222.569 147.242 222.232 146.82 221.805C146.404 221.377 146.085 220.885 145.862 220.328C145.646 219.771 145.537 219.183 145.537 218.562V218.228C145.537 217.53 145.634 216.886 145.827 216.294C146.021 215.696 146.308 215.175 146.688 214.729C147.069 214.284 147.547 213.938 148.121 213.692C148.695 213.44 149.363 213.314 150.125 213.314C150.799 213.314 151.402 213.423 151.936 213.64C152.469 213.856 152.92 214.167 153.289 214.571C153.664 214.976 153.948 215.465 154.142 216.039C154.341 216.613 154.44 217.258 154.44 217.973V219.177H146.671V217.322H151.549V217.094C151.555 216.777 151.499 216.508 151.382 216.285C151.271 216.062 151.106 215.893 150.89 215.775C150.673 215.658 150.409 215.6 150.099 215.6C149.776 215.6 149.51 215.67 149.299 215.811C149.094 215.951 148.933 216.145 148.815 216.391C148.704 216.631 148.625 216.909 148.578 217.226C148.531 217.542 148.508 217.876 148.508 218.228V218.562C148.508 218.913 148.555 219.232 148.648 219.52C148.748 219.807 148.889 220.053 149.07 220.258C149.258 220.457 149.48 220.612 149.738 220.724C150.002 220.835 150.301 220.891 150.635 220.891C151.039 220.891 151.438 220.814 151.83 220.662C152.223 220.51 152.56 220.258 152.841 219.906L154.186 221.506C153.992 221.781 153.717 222.048 153.359 222.306C153.008 222.563 152.586 222.774 152.094 222.938C151.602 223.097 151.051 223.176 150.441 223.176ZM160.584 220.609V216.689C160.584 216.42 160.546 216.188 160.47 215.995C160.394 215.802 160.273 215.652 160.109 215.547C159.945 215.436 159.726 215.38 159.45 215.38C159.228 215.38 159.037 215.418 158.879 215.494C158.721 215.57 158.601 215.685 158.519 215.837C158.437 215.989 158.396 216.183 158.396 216.417H155.434C155.434 215.978 155.53 215.57 155.724 215.195C155.923 214.814 156.204 214.483 156.567 214.202C156.937 213.921 157.376 213.704 157.886 213.552C158.401 213.394 158.976 213.314 159.608 213.314C160.364 213.314 161.038 213.44 161.63 213.692C162.228 213.944 162.699 214.322 163.045 214.826C163.391 215.324 163.563 215.951 163.563 216.707V220.601C163.563 221.222 163.599 221.693 163.669 222.016C163.739 222.332 163.839 222.61 163.968 222.851V223H160.997C160.856 222.707 160.751 222.35 160.681 221.928C160.616 221.5 160.584 221.061 160.584 220.609ZM160.944 217.19L160.962 218.772H159.652C159.377 218.772 159.143 218.811 158.949 218.887C158.762 218.963 158.609 219.068 158.492 219.203C158.381 219.332 158.299 219.479 158.246 219.643C158.199 219.807 158.176 219.979 158.176 220.161C158.176 220.337 158.217 220.495 158.299 220.636C158.387 220.771 158.504 220.876 158.65 220.952C158.797 221.028 158.961 221.066 159.143 221.066C159.471 221.066 159.749 221.005 159.978 220.882C160.212 220.753 160.391 220.598 160.514 220.416C160.637 220.234 160.698 220.064 160.698 219.906L161.349 221.119C161.231 221.354 161.097 221.591 160.944 221.831C160.798 222.071 160.613 222.294 160.391 222.499C160.174 222.698 159.907 222.862 159.591 222.991C159.274 223.114 158.891 223.176 158.439 223.176C157.854 223.176 157.314 223.056 156.822 222.815C156.336 222.575 155.946 222.241 155.653 221.813C155.36 221.38 155.214 220.882 155.214 220.319C155.214 219.827 155.302 219.388 155.478 219.001C155.659 218.614 155.932 218.286 156.295 218.017C156.658 217.747 157.121 217.542 157.684 217.401C158.246 217.261 158.908 217.19 159.67 217.19H160.944ZM169.224 220.891C169.499 220.891 169.733 220.841 169.927 220.741C170.126 220.636 170.275 220.489 170.375 220.302C170.48 220.108 170.53 219.877 170.524 219.607H173.311C173.316 220.322 173.141 220.949 172.783 221.488C172.432 222.021 171.951 222.438 171.342 222.736C170.738 223.029 170.056 223.176 169.294 223.176C168.55 223.176 167.899 223.056 167.343 222.815C166.786 222.569 166.32 222.229 165.945 221.796C165.576 221.356 165.298 220.844 165.11 220.258C164.929 219.672 164.838 219.036 164.838 218.351V218.148C164.838 217.463 164.929 216.827 165.11 216.241C165.298 215.649 165.576 215.137 165.945 214.703C166.32 214.264 166.783 213.924 167.334 213.684C167.891 213.438 168.538 213.314 169.276 213.314C170.067 213.314 170.765 213.464 171.368 213.763C171.978 214.062 172.455 214.495 172.801 215.063C173.146 215.632 173.316 216.32 173.311 217.129H170.524C170.53 216.842 170.486 216.584 170.393 216.355C170.299 216.127 170.152 215.945 169.953 215.811C169.76 215.67 169.511 215.6 169.206 215.6C168.901 215.6 168.655 215.667 168.468 215.802C168.28 215.937 168.137 216.124 168.037 216.364C167.943 216.599 167.879 216.868 167.844 217.173C167.814 217.478 167.8 217.803 167.8 218.148V218.351C167.8 218.702 167.814 219.033 167.844 219.344C167.879 219.648 167.946 219.918 168.046 220.152C168.146 220.381 168.289 220.562 168.477 220.697C168.664 220.826 168.913 220.891 169.224 220.891ZM179.586 213.49V215.547H173.855V213.49H179.586ZM175.06 211.126H178.021V219.897C178.021 220.149 178.051 220.346 178.109 220.486C178.168 220.621 178.268 220.718 178.408 220.776C178.555 220.829 178.748 220.855 178.988 220.855C179.158 220.855 179.299 220.853 179.41 220.847C179.521 220.835 179.627 220.82 179.727 220.803V222.921C179.475 223.003 179.211 223.064 178.936 223.105C178.66 223.152 178.367 223.176 178.057 223.176C177.424 223.176 176.882 223.076 176.431 222.877C175.985 222.678 175.646 222.364 175.411 221.937C175.177 221.509 175.06 220.952 175.06 220.267V211.126ZM196.074 210.203V223H192.998L188.472 215.037V223H185.387V210.203H188.472L192.998 218.166V210.203H196.074ZM202.824 220.609V216.689C202.824 216.42 202.786 216.188 202.71 215.995C202.634 215.802 202.514 215.652 202.35 215.547C202.186 215.436 201.966 215.38 201.69 215.38C201.468 215.38 201.277 215.418 201.119 215.494C200.961 215.57 200.841 215.685 200.759 215.837C200.677 215.989 200.636 216.183 200.636 216.417H197.674C197.674 215.978 197.771 215.57 197.964 215.195C198.163 214.814 198.444 214.483 198.808 214.202C199.177 213.921 199.616 213.704 200.126 213.552C200.642 213.394 201.216 213.314 201.849 213.314C202.604 213.314 203.278 213.44 203.87 213.692C204.468 213.944 204.939 214.322 205.285 214.826C205.631 215.324 205.804 215.951 205.804 216.707V220.601C205.804 221.222 205.839 221.693 205.909 222.016C205.979 222.332 206.079 222.61 206.208 222.851V223H203.237C203.097 222.707 202.991 222.35 202.921 221.928C202.856 221.5 202.824 221.061 202.824 220.609ZM203.185 217.19L203.202 218.772H201.893C201.617 218.772 201.383 218.811 201.189 218.887C201.002 218.963 200.85 219.068 200.732 219.203C200.621 219.332 200.539 219.479 200.486 219.643C200.439 219.807 200.416 219.979 200.416 220.161C200.416 220.337 200.457 220.495 200.539 220.636C200.627 220.771 200.744 220.876 200.891 220.952C201.037 221.028 201.201 221.066 201.383 221.066C201.711 221.066 201.989 221.005 202.218 220.882C202.452 220.753 202.631 220.598 202.754 220.416C202.877 220.234 202.938 220.064 202.938 219.906L203.589 221.119C203.472 221.354 203.337 221.591 203.185 221.831C203.038 222.071 202.854 222.294 202.631 222.499C202.414 222.698 202.147 222.862 201.831 222.991C201.515 223.114 201.131 223.176 200.68 223.176C200.094 223.176 199.555 223.056 199.062 222.815C198.576 222.575 198.187 222.241 197.894 221.813C197.601 221.38 197.454 220.882 197.454 220.319C197.454 219.827 197.542 219.388 197.718 219.001C197.899 218.614 198.172 218.286 198.535 218.017C198.898 217.747 199.361 217.542 199.924 217.401C200.486 217.261 201.148 217.19 201.91 217.19H203.185ZM212.457 213.49V215.547H206.727V213.49H212.457ZM207.931 211.126H210.893V219.897C210.893 220.149 210.922 220.346 210.98 220.486C211.039 220.621 211.139 220.718 211.279 220.776C211.426 220.829 211.619 220.855 211.859 220.855C212.029 220.855 212.17 220.853 212.281 220.847C212.393 220.835 212.498 220.82 212.598 220.803V222.921C212.346 223.003 212.082 223.064 211.807 223.105C211.531 223.152 211.238 223.176 210.928 223.176C210.295 223.176 209.753 223.076 209.302 222.877C208.856 222.678 208.517 222.364 208.282 221.937C208.048 221.509 207.931 220.952 207.931 220.267V211.126ZM216.764 213.49V223H213.793V213.49H216.764ZM213.617 211.038C213.617 210.616 213.77 210.271 214.074 210.001C214.379 209.731 214.774 209.597 215.261 209.597C215.747 209.597 216.143 209.731 216.447 210.001C216.752 210.271 216.904 210.616 216.904 211.038C216.904 211.46 216.752 211.806 216.447 212.075C216.143 212.345 215.747 212.479 215.261 212.479C214.774 212.479 214.379 212.345 214.074 212.075C213.77 211.806 213.617 211.46 213.617 211.038ZM222.02 220.97L223.892 213.49H227.012L223.9 223H222.055L222.02 220.97ZM220.912 213.49L222.758 220.97L222.74 223H220.886L217.783 213.49H220.912ZM232.373 223.176C231.6 223.176 230.908 223.056 230.299 222.815C229.689 222.569 229.174 222.232 228.752 221.805C228.336 221.377 228.017 220.885 227.794 220.328C227.577 219.771 227.469 219.183 227.469 218.562V218.228C227.469 217.53 227.565 216.886 227.759 216.294C227.952 215.696 228.239 215.175 228.62 214.729C229.001 214.284 229.479 213.938 230.053 213.692C230.627 213.44 231.295 213.314 232.057 213.314C232.73 213.314 233.334 213.423 233.867 213.64C234.4 213.856 234.852 214.167 235.221 214.571C235.596 214.976 235.88 215.465 236.073 216.039C236.272 216.613 236.372 217.258 236.372 217.973V219.177H228.603V217.322H233.48V217.094C233.486 216.777 233.431 216.508 233.313 216.285C233.202 216.062 233.038 215.893 232.821 215.775C232.604 215.658 232.341 215.6 232.03 215.6C231.708 215.6 231.441 215.67 231.23 215.811C231.025 215.951 230.864 216.145 230.747 216.391C230.636 216.631 230.557 216.909 230.51 217.226C230.463 217.542 230.439 217.876 230.439 218.228V218.562C230.439 218.913 230.486 219.232 230.58 219.52C230.68 219.807 230.82 220.053 231.002 220.258C231.189 220.457 231.412 220.612 231.67 220.724C231.934 220.835 232.232 220.891 232.566 220.891C232.971 220.891 233.369 220.814 233.762 220.662C234.154 220.51 234.491 220.258 234.772 219.906L236.117 221.506C235.924 221.781 235.648 222.048 235.291 222.306C234.939 222.563 234.518 222.774 234.025 222.938C233.533 223.097 232.982 223.176 232.373 223.176Z" fill="white"/>
<rect x="279" y="196" width="130" height="41" rx="3" fill="#424242"/>
<rect x="279" y="196" width="130" height="41" rx="3" stroke="#424242" stroke-width="4"/>
<path d="M310.883 220.627V223H304.062V220.627H310.883ZM305.161 210.203V223H302.076V210.203H305.161ZM310.004 215.283V217.577H304.062V215.283H310.004ZM310.909 210.203V212.585H304.062V210.203H310.909ZM314.521 213.49L315.857 216.109L317.237 213.49H320.313L317.817 218.122L320.445 223H317.343L315.857 220.188L314.381 223H311.278L313.906 218.122L311.419 213.49H314.521ZM324.277 215.318V226.656H321.315V213.49H324.075L324.277 215.318ZM330.113 218.131V218.315C330.113 219.007 330.034 219.648 329.876 220.24C329.718 220.832 329.483 221.348 329.173 221.787C328.862 222.227 328.476 222.569 328.013 222.815C327.556 223.056 327.025 223.176 326.422 223.176C325.854 223.176 325.364 223.05 324.954 222.798C324.544 222.546 324.201 222.197 323.926 221.752C323.65 221.307 323.428 220.797 323.258 220.223C323.088 219.648 322.953 219.042 322.854 218.403V218.166C322.953 217.48 323.088 216.845 323.258 216.259C323.428 215.667 323.65 215.151 323.926 214.712C324.201 214.272 324.541 213.93 324.945 213.684C325.355 213.438 325.845 213.314 326.413 213.314C327.017 213.314 327.547 213.429 328.004 213.657C328.467 213.886 328.854 214.214 329.164 214.642C329.48 215.063 329.718 215.57 329.876 216.162C330.034 216.754 330.113 217.41 330.113 218.131ZM327.151 218.315V218.131C327.151 217.762 327.125 217.425 327.072 217.12C327.02 216.81 326.935 216.54 326.817 216.312C326.706 216.083 326.557 215.907 326.369 215.784C326.182 215.661 325.95 215.6 325.675 215.6C325.358 215.6 325.092 215.649 324.875 215.749C324.664 215.843 324.494 215.989 324.365 216.188C324.242 216.382 324.154 216.625 324.102 216.918C324.055 217.205 324.034 217.542 324.04 217.929V218.649C324.028 219.095 324.072 219.487 324.172 219.827C324.271 220.161 324.444 220.422 324.69 220.609C324.937 220.797 325.271 220.891 325.692 220.891C325.974 220.891 326.208 220.826 326.396 220.697C326.583 220.562 326.732 220.378 326.844 220.144C326.955 219.903 327.034 219.628 327.081 219.317C327.128 219.007 327.151 218.673 327.151 218.315ZM334.42 215.846V223H331.458V213.49H334.227L334.42 215.846ZM337.232 213.42L337.18 216.171C337.062 216.159 336.904 216.145 336.705 216.127C336.506 216.109 336.339 216.101 336.204 216.101C335.858 216.101 335.56 216.142 335.308 216.224C335.062 216.3 334.856 216.417 334.692 216.575C334.534 216.728 334.417 216.921 334.341 217.155C334.271 217.39 334.238 217.662 334.244 217.973L333.708 217.621C333.708 216.982 333.77 216.402 333.893 215.881C334.021 215.354 334.203 214.899 334.438 214.519C334.672 214.132 334.956 213.836 335.29 213.631C335.624 213.42 335.999 213.314 336.415 213.314C336.562 213.314 336.705 213.323 336.846 213.341C336.992 213.358 337.121 213.385 337.232 213.42ZM342.682 223.176C341.908 223.176 341.217 223.056 340.607 222.815C339.998 222.569 339.482 222.232 339.061 221.805C338.645 221.377 338.325 220.885 338.103 220.328C337.886 219.771 337.777 219.183 337.777 218.562V218.228C337.777 217.53 337.874 216.886 338.067 216.294C338.261 215.696 338.548 215.175 338.929 214.729C339.31 214.284 339.787 213.938 340.361 213.692C340.936 213.44 341.604 213.314 342.365 213.314C343.039 213.314 343.643 213.423 344.176 213.64C344.709 213.856 345.16 214.167 345.529 214.571C345.904 214.976 346.188 215.465 346.382 216.039C346.581 216.613 346.681 217.258 346.681 217.973V219.177H338.911V217.322H343.789V217.094C343.795 216.777 343.739 216.508 343.622 216.285C343.511 216.062 343.347 215.893 343.13 215.775C342.913 215.658 342.649 215.6 342.339 215.6C342.017 215.6 341.75 215.67 341.539 215.811C341.334 215.951 341.173 216.145 341.056 216.391C340.944 216.631 340.865 216.909 340.818 217.226C340.771 217.542 340.748 217.876 340.748 218.228V218.562C340.748 218.913 340.795 219.232 340.889 219.52C340.988 219.807 341.129 220.053 341.311 220.258C341.498 220.457 341.721 220.612 341.979 220.724C342.242 220.835 342.541 220.891 342.875 220.891C343.279 220.891 343.678 220.814 344.07 220.662C344.463 220.51 344.8 220.258 345.081 219.906L346.426 221.506C346.232 221.781 345.957 222.048 345.6 222.306C345.248 222.563 344.826 222.774 344.334 222.938C343.842 223.097 343.291 223.176 342.682 223.176ZM352.868 220.328C352.868 220.164 352.812 220.023 352.701 219.906C352.596 219.783 352.408 219.672 352.139 219.572C351.869 219.467 351.491 219.361 351.005 219.256C350.542 219.156 350.105 219.024 349.695 218.86C349.291 218.696 348.937 218.497 348.632 218.263C348.327 218.028 348.087 217.75 347.911 217.428C347.741 217.105 347.656 216.736 347.656 216.32C347.656 215.916 347.741 215.535 347.911 215.178C348.087 214.814 348.342 214.495 348.676 214.22C349.016 213.938 349.429 213.719 349.915 213.561C350.401 213.396 350.955 213.314 351.576 213.314C352.432 213.314 353.17 213.446 353.791 213.71C354.412 213.968 354.89 214.331 355.224 214.8C355.563 215.263 355.733 215.799 355.733 216.408H352.771C352.771 216.168 352.73 215.963 352.648 215.793C352.572 215.623 352.446 215.494 352.271 215.406C352.095 215.312 351.86 215.266 351.567 215.266C351.362 215.266 351.175 215.304 351.005 215.38C350.841 215.456 350.709 215.562 350.609 215.696C350.51 215.831 350.46 215.989 350.46 216.171C350.46 216.3 350.489 216.417 350.548 216.522C350.612 216.622 350.709 216.716 350.838 216.804C350.967 216.886 351.131 216.962 351.33 217.032C351.529 217.097 351.77 217.155 352.051 217.208C352.689 217.325 353.287 217.492 353.844 217.709C354.4 217.926 354.852 218.233 355.197 218.632C355.549 219.03 355.725 219.566 355.725 220.24C355.725 220.662 355.628 221.052 355.435 221.409C355.241 221.761 354.963 222.071 354.6 222.341C354.236 222.604 353.8 222.81 353.29 222.956C352.78 223.103 352.206 223.176 351.567 223.176C350.659 223.176 349.892 223.015 349.265 222.692C348.638 222.364 348.163 221.954 347.841 221.462C347.524 220.964 347.366 220.46 347.366 219.95H350.126C350.138 220.243 350.208 220.483 350.337 220.671C350.472 220.858 350.65 220.996 350.873 221.084C351.096 221.172 351.354 221.216 351.646 221.216C351.916 221.216 352.139 221.178 352.314 221.102C352.496 221.025 352.634 220.923 352.728 220.794C352.821 220.659 352.868 220.504 352.868 220.328ZM362.097 220.328C362.097 220.164 362.041 220.023 361.93 219.906C361.824 219.783 361.637 219.672 361.367 219.572C361.098 219.467 360.72 219.361 360.233 219.256C359.771 219.156 359.334 219.024 358.924 218.86C358.52 218.696 358.165 218.497 357.86 218.263C357.556 218.028 357.315 217.75 357.14 217.428C356.97 217.105 356.885 216.736 356.885 216.32C356.885 215.916 356.97 215.535 357.14 215.178C357.315 214.814 357.57 214.495 357.904 214.22C358.244 213.938 358.657 213.719 359.144 213.561C359.63 213.396 360.184 213.314 360.805 213.314C361.66 213.314 362.398 213.446 363.02 213.71C363.641 213.968 364.118 214.331 364.452 214.8C364.792 215.263 364.962 215.799 364.962 216.408H362C362 216.168 361.959 215.963 361.877 215.793C361.801 215.623 361.675 215.494 361.499 215.406C361.323 215.312 361.089 215.266 360.796 215.266C360.591 215.266 360.403 215.304 360.233 215.38C360.069 215.456 359.938 215.562 359.838 215.696C359.738 215.831 359.688 215.989 359.688 216.171C359.688 216.3 359.718 216.417 359.776 216.522C359.841 216.622 359.938 216.716 360.066 216.804C360.195 216.886 360.359 216.962 360.559 217.032C360.758 217.097 360.998 217.155 361.279 217.208C361.918 217.325 362.516 217.492 363.072 217.709C363.629 217.926 364.08 218.233 364.426 218.632C364.777 219.03 364.953 219.566 364.953 220.24C364.953 220.662 364.856 221.052 364.663 221.409C364.47 221.761 364.191 222.071 363.828 222.341C363.465 222.604 363.028 222.81 362.519 222.956C362.009 223.103 361.435 223.176 360.796 223.176C359.888 223.176 359.12 223.015 358.493 222.692C357.866 222.364 357.392 221.954 357.069 221.462C356.753 220.964 356.595 220.46 356.595 219.95H359.354C359.366 220.243 359.437 220.483 359.565 220.671C359.7 220.858 359.879 220.996 360.102 221.084C360.324 221.172 360.582 221.216 360.875 221.216C361.145 221.216 361.367 221.178 361.543 221.102C361.725 221.025 361.862 220.923 361.956 220.794C362.05 220.659 362.097 220.504 362.097 220.328ZM371.571 218.983V210.203H374.647V218.983C374.647 219.839 374.451 220.58 374.059 221.207C373.672 221.834 373.145 222.32 372.477 222.666C371.814 223.006 371.07 223.176 370.244 223.176C369.389 223.176 368.627 223.032 367.959 222.745C367.297 222.458 366.775 222.016 366.395 221.418C366.02 220.82 365.832 220.059 365.832 219.133H368.926C368.926 219.566 368.976 219.906 369.075 220.152C369.175 220.393 369.321 220.562 369.515 220.662C369.714 220.756 369.957 220.803 370.244 220.803C370.525 220.803 370.763 220.732 370.956 220.592C371.155 220.445 371.308 220.237 371.413 219.968C371.519 219.692 371.571 219.364 371.571 218.983ZM383.199 219.599C383.199 219.399 383.17 219.221 383.111 219.062C383.053 218.898 382.944 218.746 382.786 218.605C382.628 218.465 382.399 218.324 382.101 218.184C381.808 218.037 381.421 217.885 380.94 217.727C380.378 217.539 379.836 217.328 379.314 217.094C378.793 216.854 378.327 216.575 377.917 216.259C377.507 215.937 377.182 215.562 376.941 215.134C376.701 214.7 376.581 214.196 376.581 213.622C376.581 213.071 376.704 212.576 376.95 212.137C377.196 211.691 377.539 211.313 377.979 211.003C378.424 210.687 378.945 210.446 379.543 210.282C380.141 210.112 380.794 210.027 381.503 210.027C382.44 210.027 383.267 210.191 383.981 210.52C384.702 210.842 385.265 211.302 385.669 211.899C386.079 212.491 386.284 213.191 386.284 214H383.217C383.217 213.678 383.149 213.394 383.015 213.147C382.886 212.901 382.689 212.708 382.426 212.567C382.162 212.427 381.831 212.356 381.433 212.356C381.046 212.356 380.721 212.415 380.457 212.532C380.193 212.649 379.994 212.808 379.859 213.007C379.725 213.2 379.657 213.414 379.657 213.648C379.657 213.842 379.71 214.018 379.815 214.176C379.927 214.328 380.082 214.472 380.281 214.606C380.486 214.741 380.732 214.87 381.02 214.993C381.312 215.116 381.641 215.236 382.004 215.354C382.684 215.57 383.287 215.813 383.814 216.083C384.348 216.347 384.796 216.648 385.159 216.988C385.528 217.322 385.807 217.703 385.994 218.131C386.188 218.559 386.284 219.042 386.284 219.581C386.284 220.155 386.173 220.665 385.95 221.11C385.728 221.556 385.408 221.934 384.992 222.244C384.576 222.549 384.078 222.78 383.498 222.938C382.918 223.097 382.271 223.176 381.556 223.176C380.899 223.176 380.252 223.094 379.613 222.93C378.98 222.76 378.406 222.502 377.891 222.156C377.375 221.805 376.962 221.356 376.651 220.812C376.347 220.261 376.194 219.607 376.194 218.852H379.288C379.288 219.227 379.338 219.543 379.438 219.801C379.537 220.059 379.684 220.267 379.877 220.425C380.07 220.577 380.308 220.688 380.589 220.759C380.87 220.823 381.192 220.855 381.556 220.855C381.948 220.855 382.265 220.8 382.505 220.688C382.745 220.571 382.921 220.419 383.032 220.231C383.144 220.038 383.199 219.827 383.199 219.599Z" fill="white"/>
<rect x="429" y="196" width="109" height="41" rx="3" fill="#424242"/>
<rect x="429" y="196" width="109" height="41" rx="3" stroke="#424242" stroke-width="4"/>
<path d="M463.118 210.203V223H460.042L455.516 215.037V223H452.431V210.203H455.516L460.042 218.166V210.203H463.118ZM464.56 218.342V218.157C464.56 217.46 464.659 216.818 464.858 216.232C465.058 215.641 465.351 215.128 465.737 214.694C466.124 214.261 466.602 213.924 467.17 213.684C467.738 213.438 468.395 213.314 469.139 213.314C469.889 213.314 470.548 213.438 471.116 213.684C471.69 213.924 472.171 214.261 472.558 214.694C472.944 215.128 473.237 215.641 473.437 216.232C473.636 216.818 473.735 217.46 473.735 218.157V218.342C473.735 219.033 473.636 219.675 473.437 220.267C473.237 220.853 472.944 221.365 472.558 221.805C472.171 222.238 471.693 222.575 471.125 222.815C470.557 223.056 469.9 223.176 469.156 223.176C468.412 223.176 467.753 223.056 467.179 222.815C466.604 222.575 466.124 222.238 465.737 221.805C465.351 221.365 465.058 220.853 464.858 220.267C464.659 219.675 464.56 219.033 464.56 218.342ZM467.521 218.157V218.342C467.521 218.699 467.548 219.033 467.601 219.344C467.653 219.654 467.741 219.927 467.864 220.161C467.987 220.39 468.154 220.568 468.365 220.697C468.576 220.826 468.84 220.891 469.156 220.891C469.467 220.891 469.725 220.826 469.93 220.697C470.141 220.568 470.308 220.39 470.431 220.161C470.554 219.927 470.642 219.654 470.694 219.344C470.747 219.033 470.773 218.699 470.773 218.342V218.157C470.773 217.812 470.747 217.486 470.694 217.182C470.642 216.871 470.554 216.599 470.431 216.364C470.308 216.124 470.141 215.937 469.93 215.802C469.719 215.667 469.455 215.6 469.139 215.6C468.828 215.6 468.567 215.667 468.356 215.802C468.151 215.937 467.987 216.124 467.864 216.364C467.741 216.599 467.653 216.871 467.601 217.182C467.548 217.486 467.521 217.812 467.521 218.157ZM480.521 220.82V209.5H483.5V223H480.828L480.521 220.82ZM474.685 218.359V218.175C474.685 217.454 474.764 216.798 474.922 216.206C475.08 215.608 475.314 215.096 475.625 214.668C475.936 214.234 476.322 213.9 476.785 213.666C477.248 213.432 477.781 213.314 478.385 213.314C478.924 213.314 479.396 213.44 479.8 213.692C480.204 213.938 480.55 214.284 480.837 214.729C481.124 215.175 481.358 215.696 481.54 216.294C481.722 216.886 481.859 217.524 481.953 218.21V218.43C481.859 219.074 481.722 219.684 481.54 220.258C481.358 220.826 481.124 221.33 480.837 221.77C480.55 222.209 480.201 222.555 479.791 222.807C479.387 223.053 478.912 223.176 478.367 223.176C477.764 223.176 477.23 223.056 476.768 222.815C476.311 222.575 475.927 222.238 475.616 221.805C475.312 221.371 475.08 220.861 474.922 220.275C474.764 219.689 474.685 219.051 474.685 218.359ZM477.646 218.175V218.359C477.646 218.717 477.67 219.048 477.717 219.353C477.764 219.657 477.843 219.927 477.954 220.161C478.071 220.39 478.224 220.568 478.411 220.697C478.604 220.826 478.842 220.891 479.123 220.891C479.504 220.891 479.817 220.8 480.063 220.618C480.315 220.437 480.5 220.179 480.617 219.845C480.74 219.511 480.793 219.118 480.775 218.667V217.973C480.787 217.586 480.761 217.246 480.696 216.953C480.632 216.654 480.529 216.405 480.389 216.206C480.254 216.007 480.081 215.857 479.87 215.758C479.665 215.652 479.422 215.6 479.141 215.6C478.865 215.6 478.631 215.664 478.438 215.793C478.25 215.922 478.098 216.104 477.98 216.338C477.863 216.566 477.778 216.839 477.726 217.155C477.673 217.466 477.646 217.806 477.646 218.175ZM489.784 223.176C489.011 223.176 488.319 223.056 487.71 222.815C487.101 222.569 486.585 222.232 486.163 221.805C485.747 221.377 485.428 220.885 485.205 220.328C484.988 219.771 484.88 219.183 484.88 218.562V218.228C484.88 217.53 484.977 216.886 485.17 216.294C485.363 215.696 485.65 215.175 486.031 214.729C486.412 214.284 486.89 213.938 487.464 213.692C488.038 213.44 488.706 213.314 489.468 213.314C490.142 213.314 490.745 213.423 491.278 213.64C491.812 213.856 492.263 214.167 492.632 214.571C493.007 214.976 493.291 215.465 493.484 216.039C493.684 216.613 493.783 217.258 493.783 217.973V219.177H486.014V217.322H490.892V217.094C490.897 216.777 490.842 216.508 490.725 216.285C490.613 216.062 490.449 215.893 490.232 215.775C490.016 215.658 489.752 215.6 489.441 215.6C489.119 215.6 488.853 215.67 488.642 215.811C488.437 215.951 488.275 216.145 488.158 216.391C488.047 216.631 487.968 216.909 487.921 217.226C487.874 217.542 487.851 217.876 487.851 218.228V218.562C487.851 218.913 487.897 219.232 487.991 219.52C488.091 219.807 488.231 220.053 488.413 220.258C488.601 220.457 488.823 220.612 489.081 220.724C489.345 220.835 489.644 220.891 489.978 220.891C490.382 220.891 490.78 220.814 491.173 220.662C491.565 220.51 491.902 220.258 492.184 219.906L493.528 221.506C493.335 221.781 493.06 222.048 492.702 222.306C492.351 222.563 491.929 222.774 491.437 222.938C490.944 223.097 490.394 223.176 489.784 223.176ZM500.217 218.983V210.203H503.293V218.983C503.293 219.839 503.097 220.58 502.704 221.207C502.317 221.834 501.79 222.32 501.122 222.666C500.46 223.006 499.716 223.176 498.89 223.176C498.034 223.176 497.272 223.032 496.604 222.745C495.942 222.458 495.421 222.016 495.04 221.418C494.665 220.82 494.478 220.059 494.478 219.133H497.571C497.571 219.566 497.621 219.906 497.721 220.152C497.82 220.393 497.967 220.562 498.16 220.662C498.359 220.756 498.603 220.803 498.89 220.803C499.171 220.803 499.408 220.732 499.602 220.592C499.801 220.445 499.953 220.237 500.059 219.968C500.164 219.692 500.217 219.364 500.217 218.983ZM511.845 219.599C511.845 219.399 511.815 219.221 511.757 219.062C511.698 218.898 511.59 218.746 511.432 218.605C511.273 218.465 511.045 218.324 510.746 218.184C510.453 218.037 510.066 217.885 509.586 217.727C509.023 217.539 508.481 217.328 507.96 217.094C507.438 216.854 506.973 216.575 506.562 216.259C506.152 215.937 505.827 215.562 505.587 215.134C505.347 214.7 505.227 214.196 505.227 213.622C505.227 213.071 505.35 212.576 505.596 212.137C505.842 211.691 506.185 211.313 506.624 211.003C507.069 210.687 507.591 210.446 508.188 210.282C508.786 210.112 509.439 210.027 510.148 210.027C511.086 210.027 511.912 210.191 512.627 210.52C513.348 210.842 513.91 211.302 514.314 211.899C514.725 212.491 514.93 213.191 514.93 214H511.862C511.862 213.678 511.795 213.394 511.66 213.147C511.531 212.901 511.335 212.708 511.071 212.567C510.808 212.427 510.477 212.356 510.078 212.356C509.691 212.356 509.366 212.415 509.103 212.532C508.839 212.649 508.64 212.808 508.505 213.007C508.37 213.2 508.303 213.414 508.303 213.648C508.303 213.842 508.355 214.018 508.461 214.176C508.572 214.328 508.728 214.472 508.927 214.606C509.132 214.741 509.378 214.87 509.665 214.993C509.958 215.116 510.286 215.236 510.649 215.354C511.329 215.57 511.933 215.813 512.46 216.083C512.993 216.347 513.441 216.648 513.805 216.988C514.174 217.322 514.452 217.703 514.64 218.131C514.833 218.559 514.93 219.042 514.93 219.581C514.93 220.155 514.818 220.665 514.596 221.11C514.373 221.556 514.054 221.934 513.638 222.244C513.222 222.549 512.724 222.78 512.144 222.938C511.563 223.097 510.916 223.176 510.201 223.176C509.545 223.176 508.897 223.094 508.259 222.93C507.626 222.76 507.052 222.502 506.536 222.156C506.021 221.805 505.607 221.356 505.297 220.812C504.992 220.261 504.84 219.607 504.84 218.852H507.934C507.934 219.227 507.983 219.543 508.083 219.801C508.183 220.059 508.329 220.267 508.522 220.425C508.716 220.577 508.953 220.688 509.234 220.759C509.516 220.823 509.838 220.855 510.201 220.855C510.594 220.855 510.91 220.8 511.15 220.688C511.391 220.571 511.566 220.419 511.678 220.231C511.789 220.038 511.845 219.827 511.845 219.599Z" fill="white"/>
<rect x="558" y="196" width="154" height="41" rx="3" fill="#424242"/>
<rect x="558" y="196" width="154" height="41" rx="3" stroke="#424242" stroke-width="4"/>
<path d="M582.644 210.203H585.157L588.014 219.106L590.87 210.203H593.384L589.033 223H586.994L582.644 210.203ZM581.114 210.203H583.716L584.199 220.012V223H581.114V210.203ZM592.312 210.203H594.922V223H591.828V220.012L592.312 210.203ZM601.698 220.609V216.689C601.698 216.42 601.66 216.188 601.584 215.995C601.508 215.802 601.388 215.652 601.224 215.547C601.06 215.436 600.84 215.38 600.564 215.38C600.342 215.38 600.151 215.418 599.993 215.494C599.835 215.57 599.715 215.685 599.633 215.837C599.551 215.989 599.51 216.183 599.51 216.417H596.548C596.548 215.978 596.645 215.57 596.838 215.195C597.037 214.814 597.318 214.483 597.682 214.202C598.051 213.921 598.49 213.704 599 213.552C599.516 213.394 600.09 213.314 600.723 213.314C601.479 213.314 602.152 213.44 602.744 213.692C603.342 213.944 603.813 214.322 604.159 214.826C604.505 215.324 604.678 215.951 604.678 216.707V220.601C604.678 221.222 604.713 221.693 604.783 222.016C604.854 222.332 604.953 222.61 605.082 222.851V223H602.111C601.971 222.707 601.865 222.35 601.795 221.928C601.73 221.5 601.698 221.061 601.698 220.609ZM602.059 217.19L602.076 218.772H600.767C600.491 218.772 600.257 218.811 600.063 218.887C599.876 218.963 599.724 219.068 599.606 219.203C599.495 219.332 599.413 219.479 599.36 219.643C599.313 219.807 599.29 219.979 599.29 220.161C599.29 220.337 599.331 220.495 599.413 220.636C599.501 220.771 599.618 220.876 599.765 220.952C599.911 221.028 600.075 221.066 600.257 221.066C600.585 221.066 600.863 221.005 601.092 220.882C601.326 220.753 601.505 220.598 601.628 220.416C601.751 220.234 601.812 220.064 601.812 219.906L602.463 221.119C602.346 221.354 602.211 221.591 602.059 221.831C601.912 222.071 601.728 222.294 601.505 222.499C601.288 222.698 601.021 222.862 600.705 222.991C600.389 223.114 600.005 223.176 599.554 223.176C598.968 223.176 598.429 223.056 597.937 222.815C597.45 222.575 597.061 222.241 596.768 221.813C596.475 221.38 596.328 220.882 596.328 220.319C596.328 219.827 596.416 219.388 596.592 219.001C596.773 218.614 597.046 218.286 597.409 218.017C597.772 217.747 598.235 217.542 598.798 217.401C599.36 217.261 600.022 217.19 600.784 217.19H602.059ZM609.31 215.318V226.656H606.348V213.49H609.107L609.31 215.318ZM615.146 218.131V218.315C615.146 219.007 615.066 219.648 614.908 220.24C614.75 220.832 614.516 221.348 614.205 221.787C613.895 222.227 613.508 222.569 613.045 222.815C612.588 223.056 612.058 223.176 611.454 223.176C610.886 223.176 610.396 223.05 609.986 222.798C609.576 222.546 609.233 222.197 608.958 221.752C608.683 221.307 608.46 220.797 608.29 220.223C608.12 219.648 607.985 219.042 607.886 218.403V218.166C607.985 217.48 608.12 216.845 608.29 216.259C608.46 215.667 608.683 215.151 608.958 214.712C609.233 214.272 609.573 213.93 609.978 213.684C610.388 213.438 610.877 213.314 611.445 213.314C612.049 213.314 612.579 213.429 613.036 213.657C613.499 213.886 613.886 214.214 614.196 214.642C614.513 215.063 614.75 215.57 614.908 216.162C615.066 216.754 615.146 217.41 615.146 218.131ZM612.184 218.315V218.131C612.184 217.762 612.157 217.425 612.104 217.12C612.052 216.81 611.967 216.54 611.85 216.312C611.738 216.083 611.589 215.907 611.401 215.784C611.214 215.661 610.982 215.6 610.707 215.6C610.391 215.6 610.124 215.649 609.907 215.749C609.696 215.843 609.526 215.989 609.397 216.188C609.274 216.382 609.187 216.625 609.134 216.918C609.087 217.205 609.066 217.542 609.072 217.929V218.649C609.061 219.095 609.104 219.487 609.204 219.827C609.304 220.161 609.477 220.422 609.723 220.609C609.969 220.797 610.303 220.891 610.725 220.891C611.006 220.891 611.24 220.826 611.428 220.697C611.615 220.562 611.765 220.378 611.876 220.144C611.987 219.903 612.066 219.628 612.113 219.317C612.16 219.007 612.184 218.673 612.184 218.315ZM626.308 217.56H623.012L622.994 215.538H625.666C626.146 215.538 626.53 215.485 626.817 215.38C627.104 215.269 627.312 215.107 627.441 214.896C627.576 214.686 627.644 214.422 627.644 214.105C627.644 213.742 627.576 213.449 627.441 213.227C627.307 213.004 627.093 212.843 626.8 212.743C626.513 212.638 626.141 212.585 625.684 212.585H624.172V223H621.087V210.203H625.684C626.475 210.203 627.181 210.276 627.802 210.423C628.423 210.563 628.95 210.78 629.384 211.073C629.823 211.366 630.157 211.735 630.386 212.181C630.614 212.62 630.729 213.139 630.729 213.736C630.729 214.258 630.617 214.747 630.395 215.204C630.172 215.661 629.8 216.033 629.278 216.32C628.763 216.602 628.057 216.748 627.16 216.76L626.308 217.56ZM626.185 223H622.265L623.319 220.627H626.185C626.606 220.627 626.943 220.562 627.195 220.434C627.453 220.299 627.638 220.123 627.749 219.906C627.866 219.684 627.925 219.438 627.925 219.168C627.925 218.84 627.869 218.556 627.758 218.315C627.652 218.075 627.482 217.891 627.248 217.762C627.014 217.627 626.7 217.56 626.308 217.56H623.715L623.732 215.538H626.835L627.556 216.347C628.411 216.312 629.088 216.432 629.586 216.707C630.09 216.982 630.45 217.346 630.667 217.797C630.884 218.248 630.992 218.72 630.992 219.212C630.992 220.05 630.811 220.75 630.447 221.312C630.09 221.875 629.554 222.297 628.839 222.578C628.124 222.859 627.239 223 626.185 223ZM632.196 218.342V218.157C632.196 217.46 632.296 216.818 632.495 216.232C632.694 215.641 632.987 215.128 633.374 214.694C633.761 214.261 634.238 213.924 634.807 213.684C635.375 213.438 636.031 213.314 636.775 213.314C637.525 213.314 638.185 213.438 638.753 213.684C639.327 213.924 639.808 214.261 640.194 214.694C640.581 215.128 640.874 215.641 641.073 216.232C641.272 216.818 641.372 217.46 641.372 218.157V218.342C641.372 219.033 641.272 219.675 641.073 220.267C640.874 220.853 640.581 221.365 640.194 221.805C639.808 222.238 639.33 222.575 638.762 222.815C638.193 223.056 637.537 223.176 636.793 223.176C636.049 223.176 635.39 223.056 634.815 222.815C634.241 222.575 633.761 222.238 633.374 221.805C632.987 221.365 632.694 220.853 632.495 220.267C632.296 219.675 632.196 219.033 632.196 218.342ZM635.158 218.157V218.342C635.158 218.699 635.185 219.033 635.237 219.344C635.29 219.654 635.378 219.927 635.501 220.161C635.624 220.39 635.791 220.568 636.002 220.697C636.213 220.826 636.477 220.891 636.793 220.891C637.104 220.891 637.361 220.826 637.566 220.697C637.777 220.568 637.944 220.39 638.067 220.161C638.19 219.927 638.278 219.654 638.331 219.344C638.384 219.033 638.41 218.699 638.41 218.342V218.157C638.41 217.812 638.384 217.486 638.331 217.182C638.278 216.871 638.19 216.599 638.067 216.364C637.944 216.124 637.777 215.937 637.566 215.802C637.355 215.667 637.092 215.6 636.775 215.6C636.465 215.6 636.204 215.667 635.993 215.802C635.788 215.937 635.624 216.124 635.501 216.364C635.378 216.599 635.29 216.871 635.237 217.182C635.185 217.486 635.158 217.812 635.158 218.157ZM645.011 213.49L646.347 216.109L647.727 213.49H650.803L648.307 218.122L650.935 223H647.832L646.347 220.188L644.87 223H641.768L644.396 218.122L641.908 213.49H645.011ZM662.993 219.599C662.993 219.399 662.964 219.221 662.905 219.062C662.847 218.898 662.738 218.746 662.58 218.605C662.422 218.465 662.193 218.324 661.895 218.184C661.602 218.037 661.215 217.885 660.734 217.727C660.172 217.539 659.63 217.328 659.108 217.094C658.587 216.854 658.121 216.575 657.711 216.259C657.301 215.937 656.976 215.562 656.735 215.134C656.495 214.7 656.375 214.196 656.375 213.622C656.375 213.071 656.498 212.576 656.744 212.137C656.99 211.691 657.333 211.313 657.772 211.003C658.218 210.687 658.739 210.446 659.337 210.282C659.935 210.112 660.588 210.027 661.297 210.027C662.234 210.027 663.061 210.191 663.775 210.52C664.496 210.842 665.059 211.302 665.463 211.899C665.873 212.491 666.078 213.191 666.078 214H663.011C663.011 213.678 662.943 213.394 662.809 213.147C662.68 212.901 662.483 212.708 662.22 212.567C661.956 212.427 661.625 212.356 661.227 212.356C660.84 212.356 660.515 212.415 660.251 212.532C659.987 212.649 659.788 212.808 659.653 213.007C659.519 213.2 659.451 213.414 659.451 213.648C659.451 213.842 659.504 214.018 659.609 214.176C659.721 214.328 659.876 214.472 660.075 214.606C660.28 214.741 660.526 214.87 660.813 214.993C661.106 215.116 661.435 215.236 661.798 215.354C662.478 215.57 663.081 215.813 663.608 216.083C664.142 216.347 664.59 216.648 664.953 216.988C665.322 217.322 665.601 217.703 665.788 218.131C665.981 218.559 666.078 219.042 666.078 219.581C666.078 220.155 665.967 220.665 665.744 221.11C665.521 221.556 665.202 221.934 664.786 222.244C664.37 222.549 663.872 222.78 663.292 222.938C662.712 223.097 662.064 223.176 661.35 223.176C660.693 223.176 660.046 223.094 659.407 222.93C658.774 222.76 658.2 222.502 657.685 222.156C657.169 221.805 656.756 221.356 656.445 220.812C656.141 220.261 655.988 219.607 655.988 218.852H659.082C659.082 219.227 659.132 219.543 659.231 219.801C659.331 220.059 659.478 220.267 659.671 220.425C659.864 220.577 660.102 220.688 660.383 220.759C660.664 220.823 660.986 220.855 661.35 220.855C661.742 220.855 662.059 220.8 662.299 220.688C662.539 220.571 662.715 220.419 662.826 220.231C662.938 220.038 662.993 219.827 662.993 219.599ZM671.826 223H668.987L669.005 220.627H671.826C672.412 220.627 672.907 220.486 673.312 220.205C673.722 219.924 674.032 219.505 674.243 218.948C674.46 218.386 674.568 217.694 674.568 216.874V216.32C674.568 215.705 674.507 215.166 674.384 214.703C674.267 214.234 674.091 213.845 673.856 213.534C673.622 213.218 673.329 212.98 672.978 212.822C672.632 212.664 672.233 212.585 671.782 212.585H668.935V210.203H671.782C672.649 210.203 673.443 210.353 674.164 210.651C674.891 210.944 675.518 211.366 676.045 211.917C676.578 212.462 676.988 213.109 677.275 213.859C677.568 214.604 677.715 215.43 677.715 216.338V216.874C677.715 217.776 677.568 218.603 677.275 219.353C676.988 220.103 676.581 220.75 676.054 221.295C675.526 221.84 674.902 222.262 674.182 222.561C673.467 222.854 672.682 223 671.826 223ZM670.754 210.203V223H667.669V210.203H670.754ZM682.408 210.203V223H679.323V210.203H682.408ZM690.046 210.203L685.089 216.689L682.188 219.862L681.626 217.032L683.48 214.22L686.24 210.203H690.046ZM686.398 223L683.094 217.234L685.493 215.468L690.046 223H686.398Z" fill="white"/>
<rect x="732" y="196" width="131" height="41" rx="3" fill="#424242"/>
<rect x="732" y="196" width="131" height="41" rx="3" stroke="#424242" stroke-width="4"/>
<path d="M761.359 210.203V223H758.274V210.203H761.359ZM765.209 210.203V212.585H754.513V210.203H765.209ZM768.575 221.884L771.036 213.49H774.218L770.395 224.415C770.312 224.655 770.204 224.913 770.069 225.188C769.935 225.47 769.75 225.736 769.516 225.988C769.281 226.24 768.979 226.445 768.61 226.604C768.247 226.762 767.796 226.841 767.257 226.841C766.97 226.841 766.759 226.826 766.624 226.797C766.495 226.773 766.296 226.729 766.026 226.665V224.547C766.103 224.547 766.167 224.547 766.22 224.547C766.278 224.547 766.343 224.547 766.413 224.547C766.729 224.547 766.981 224.515 767.169 224.45C767.362 224.386 767.509 224.292 767.608 224.169C767.714 224.046 767.796 223.896 767.854 223.721L768.575 221.884ZM767.951 213.49L769.823 220.144L770.148 223.281H768.162L764.778 213.49H767.951ZM777.979 215.318V226.656H775.018V213.49H777.777L777.979 215.318ZM783.815 218.131V218.315C783.815 219.007 783.736 219.648 783.578 220.24C783.42 220.832 783.186 221.348 782.875 221.787C782.564 222.227 782.178 222.569 781.715 222.815C781.258 223.056 780.728 223.176 780.124 223.176C779.556 223.176 779.066 223.05 778.656 222.798C778.246 222.546 777.903 222.197 777.628 221.752C777.353 221.307 777.13 220.797 776.96 220.223C776.79 219.648 776.655 219.042 776.556 218.403V218.166C776.655 217.48 776.79 216.845 776.96 216.259C777.13 215.667 777.353 215.151 777.628 214.712C777.903 214.272 778.243 213.93 778.647 213.684C779.058 213.438 779.547 213.314 780.115 213.314C780.719 213.314 781.249 213.429 781.706 213.657C782.169 213.886 782.556 214.214 782.866 214.642C783.183 215.063 783.42 215.57 783.578 216.162C783.736 216.754 783.815 217.41 783.815 218.131ZM780.854 218.315V218.131C780.854 217.762 780.827 217.425 780.774 217.12C780.722 216.81 780.637 216.54 780.52 216.312C780.408 216.083 780.259 215.907 780.071 215.784C779.884 215.661 779.652 215.6 779.377 215.6C779.061 215.6 778.794 215.649 778.577 215.749C778.366 215.843 778.196 215.989 778.067 216.188C777.944 216.382 777.856 216.625 777.804 216.918C777.757 217.205 777.736 217.542 777.742 217.929V218.649C777.73 219.095 777.774 219.487 777.874 219.827C777.974 220.161 778.146 220.422 778.393 220.609C778.639 220.797 778.973 220.891 779.395 220.891C779.676 220.891 779.91 220.826 780.098 220.697C780.285 220.562 780.435 220.378 780.546 220.144C780.657 219.903 780.736 219.628 780.783 219.317C780.83 219.007 780.854 218.673 780.854 218.315ZM789.739 223.176C788.966 223.176 788.274 223.056 787.665 222.815C787.056 222.569 786.54 222.232 786.118 221.805C785.702 221.377 785.383 220.885 785.16 220.328C784.943 219.771 784.835 219.183 784.835 218.562V218.228C784.835 217.53 784.932 216.886 785.125 216.294C785.318 215.696 785.605 215.175 785.986 214.729C786.367 214.284 786.845 213.938 787.419 213.692C787.993 213.44 788.661 213.314 789.423 213.314C790.097 213.314 790.7 213.423 791.233 213.64C791.767 213.856 792.218 214.167 792.587 214.571C792.962 214.976 793.246 215.465 793.439 216.039C793.639 216.613 793.738 217.258 793.738 217.973V219.177H785.969V217.322H790.847V217.094C790.853 216.777 790.797 216.508 790.68 216.285C790.568 216.062 790.404 215.893 790.188 215.775C789.971 215.658 789.707 215.6 789.396 215.6C789.074 215.6 788.808 215.67 788.597 215.811C788.392 215.951 788.23 216.145 788.113 216.391C788.002 216.631 787.923 216.909 787.876 217.226C787.829 217.542 787.806 217.876 787.806 218.228V218.562C787.806 218.913 787.853 219.232 787.946 219.52C788.046 219.807 788.187 220.053 788.368 220.258C788.556 220.457 788.778 220.612 789.036 220.724C789.3 220.835 789.599 220.891 789.933 220.891C790.337 220.891 790.735 220.814 791.128 220.662C791.521 220.51 791.857 220.258 792.139 219.906L793.483 221.506C793.29 221.781 793.015 222.048 792.657 222.306C792.306 222.563 791.884 222.774 791.392 222.938C790.899 223.097 790.349 223.176 789.739 223.176ZM799.926 220.328C799.926 220.164 799.87 220.023 799.759 219.906C799.653 219.783 799.466 219.672 799.196 219.572C798.927 219.467 798.549 219.361 798.062 219.256C797.6 219.156 797.163 219.024 796.753 218.86C796.349 218.696 795.994 218.497 795.689 218.263C795.385 218.028 795.145 217.75 794.969 217.428C794.799 217.105 794.714 216.736 794.714 216.32C794.714 215.916 794.799 215.535 794.969 215.178C795.145 214.814 795.399 214.495 795.733 214.22C796.073 213.938 796.486 213.719 796.973 213.561C797.459 213.396 798.013 213.314 798.634 213.314C799.489 213.314 800.228 213.446 800.849 213.71C801.47 213.968 801.947 214.331 802.281 214.8C802.621 215.263 802.791 215.799 802.791 216.408H799.829C799.829 216.168 799.788 215.963 799.706 215.793C799.63 215.623 799.504 215.494 799.328 215.406C799.152 215.312 798.918 215.266 798.625 215.266C798.42 215.266 798.232 215.304 798.062 215.38C797.898 215.456 797.767 215.562 797.667 215.696C797.567 215.831 797.518 215.989 797.518 216.171C797.518 216.3 797.547 216.417 797.605 216.522C797.67 216.622 797.767 216.716 797.896 216.804C798.024 216.886 798.188 216.962 798.388 217.032C798.587 217.097 798.827 217.155 799.108 217.208C799.747 217.325 800.345 217.492 800.901 217.709C801.458 217.926 801.909 218.233 802.255 218.632C802.606 219.03 802.782 219.566 802.782 220.24C802.782 220.662 802.686 221.052 802.492 221.409C802.299 221.761 802.021 222.071 801.657 222.341C801.294 222.604 800.857 222.81 800.348 222.956C799.838 223.103 799.264 223.176 798.625 223.176C797.717 223.176 796.949 223.015 796.322 222.692C795.695 222.364 795.221 221.954 794.898 221.462C794.582 220.964 794.424 220.46 794.424 219.95H797.184C797.195 220.243 797.266 220.483 797.395 220.671C797.529 220.858 797.708 220.996 797.931 221.084C798.153 221.172 798.411 221.216 798.704 221.216C798.974 221.216 799.196 221.178 799.372 221.102C799.554 221.025 799.691 220.923 799.785 220.794C799.879 220.659 799.926 220.504 799.926 220.328ZM808.188 220.891C808.463 220.891 808.697 220.841 808.891 220.741C809.09 220.636 809.239 220.489 809.339 220.302C809.444 220.108 809.494 219.877 809.488 219.607H812.274C812.28 220.322 812.104 220.949 811.747 221.488C811.396 222.021 810.915 222.438 810.306 222.736C809.702 223.029 809.02 223.176 808.258 223.176C807.514 223.176 806.863 223.056 806.307 222.815C805.75 222.569 805.284 222.229 804.909 221.796C804.54 221.356 804.262 220.844 804.074 220.258C803.893 219.672 803.802 219.036 803.802 218.351V218.148C803.802 217.463 803.893 216.827 804.074 216.241C804.262 215.649 804.54 215.137 804.909 214.703C805.284 214.264 805.747 213.924 806.298 213.684C806.854 213.438 807.502 213.314 808.24 213.314C809.031 213.314 809.729 213.464 810.332 213.763C810.941 214.062 811.419 214.495 811.765 215.063C812.11 215.632 812.28 216.32 812.274 217.129H809.488C809.494 216.842 809.45 216.584 809.356 216.355C809.263 216.127 809.116 215.945 808.917 215.811C808.724 215.67 808.475 215.6 808.17 215.6C807.865 215.6 807.619 215.667 807.432 215.802C807.244 215.937 807.101 216.124 807.001 216.364C806.907 216.599 806.843 216.868 806.808 217.173C806.778 217.478 806.764 217.803 806.764 218.148V218.351C806.764 218.702 806.778 219.033 806.808 219.344C806.843 219.648 806.91 219.918 807.01 220.152C807.109 220.381 807.253 220.562 807.44 220.697C807.628 220.826 807.877 220.891 808.188 220.891ZM816.528 215.846V223H813.566V213.49H816.335L816.528 215.846ZM819.341 213.42L819.288 216.171C819.171 216.159 819.013 216.145 818.813 216.127C818.614 216.109 818.447 216.101 818.312 216.101C817.967 216.101 817.668 216.142 817.416 216.224C817.17 216.3 816.965 216.417 816.801 216.575C816.643 216.728 816.525 216.921 816.449 217.155C816.379 217.39 816.347 217.662 816.353 217.973L815.816 217.621C815.816 216.982 815.878 216.402 816.001 215.881C816.13 215.354 816.312 214.899 816.546 214.519C816.78 214.132 817.064 213.836 817.398 213.631C817.732 213.42 818.107 213.314 818.523 213.314C818.67 213.314 818.813 213.323 818.954 213.341C819.101 213.358 819.229 213.385 819.341 213.42ZM823.489 213.49V223H820.519V213.49H823.489ZM820.343 211.038C820.343 210.616 820.495 210.271 820.8 210.001C821.104 209.731 821.5 209.597 821.986 209.597C822.473 209.597 822.868 209.731 823.173 210.001C823.478 210.271 823.63 210.616 823.63 211.038C823.63 211.46 823.478 211.806 823.173 212.075C822.868 212.345 822.473 212.479 821.986 212.479C821.5 212.479 821.104 212.345 820.8 212.075C820.495 211.806 820.343 211.46 820.343 211.038ZM828.306 215.318V226.656H825.344V213.49H828.104L828.306 215.318ZM834.142 218.131V218.315C834.142 219.007 834.062 219.648 833.904 220.24C833.746 220.832 833.512 221.348 833.201 221.787C832.891 222.227 832.504 222.569 832.041 222.815C831.584 223.056 831.054 223.176 830.45 223.176C829.882 223.176 829.393 223.05 828.982 222.798C828.572 222.546 828.229 222.197 827.954 221.752C827.679 221.307 827.456 220.797 827.286 220.223C827.116 219.648 826.981 219.042 826.882 218.403V218.166C826.981 217.48 827.116 216.845 827.286 216.259C827.456 215.667 827.679 215.151 827.954 214.712C828.229 214.272 828.569 213.93 828.974 213.684C829.384 213.438 829.873 213.314 830.441 213.314C831.045 213.314 831.575 213.429 832.032 213.657C832.495 213.886 832.882 214.214 833.192 214.642C833.509 215.063 833.746 215.57 833.904 216.162C834.062 216.754 834.142 217.41 834.142 218.131ZM831.18 218.315V218.131C831.18 217.762 831.153 217.425 831.101 217.12C831.048 216.81 830.963 216.54 830.846 216.312C830.734 216.083 830.585 215.907 830.397 215.784C830.21 215.661 829.979 215.6 829.703 215.6C829.387 215.6 829.12 215.649 828.903 215.749C828.692 215.843 828.522 215.989 828.394 216.188C828.271 216.382 828.183 216.625 828.13 216.918C828.083 217.205 828.062 217.542 828.068 217.929V218.649C828.057 219.095 828.101 219.487 828.2 219.827C828.3 220.161 828.473 220.422 828.719 220.609C828.965 220.797 829.299 220.891 829.721 220.891C830.002 220.891 830.236 220.826 830.424 220.697C830.611 220.562 830.761 220.378 830.872 220.144C830.983 219.903 831.062 219.628 831.109 219.317C831.156 219.007 831.18 218.673 831.18 218.315ZM840.47 213.49V215.547H834.739V213.49H840.47ZM835.943 211.126H838.905V219.897C838.905 220.149 838.935 220.346 838.993 220.486C839.052 220.621 839.151 220.718 839.292 220.776C839.438 220.829 839.632 220.855 839.872 220.855C840.042 220.855 840.183 220.853 840.294 220.847C840.405 220.835 840.511 220.82 840.61 220.803V222.921C840.358 223.003 840.095 223.064 839.819 223.105C839.544 223.152 839.251 223.176 838.94 223.176C838.308 223.176 837.766 223.076 837.314 222.877C836.869 222.678 836.529 222.364 836.295 221.937C836.061 221.509 835.943 220.952 835.943 220.267V211.126Z" fill="white"/>
<rect width="297" height="297" transform="translate(1066)" fill="white"/>
</svg>
